<?xml version="1.0" encoding="utf-8"?>
<!-- Generator: Adobe Illustrator 22.0.1, SVG Export Plug-In . SVG Version: 6.00 Build 0)  -->
<svg version="1.1" id="Capa_2" xmlns="http://www.w3.org/2000/svg" xmlns:xlink="http://www.w3.org/1999/xlink" x="0px" y="0px"
	 viewBox="0 0 777 676.5" style="enable-background:new 0 0 777 676.5;" xml:space="preserve">
<style type="text/css">
	.st0{fill:#555555;}
	.st1{fill:#FFFFFF;}
</style>
<path class="st1" d="M446.9,280.8c-2.6,2.9-7.2,3.2-10.1,0.6c-57.3-50.9-199-166.8-247.9-163.1c-9.8,0.7-12.8,4.8-14.3,7.8
	c-10.3,21.1,19.7,80.6,43.3,117.3c2.1,3.3,1.2,7.7-2,9.9l0,0c-3.4,2.3-7.9,1.3-10.1-2.1c-15-23.4-60.2-98.5-44.2-131.4
	c3.2-6.6,10.4-14.7,26.2-15.9c28.6-2.2,81.9,26.3,158.5,84.5c45.3,34.4,85.8,69.6,100.1,82.2C449.3,273.2,449.6,277.8,446.9,280.8
	L446.9,280.8z"/>
<path class="st1" d="M604.6,586.3c-4,0-8.3-0.4-12.9-1.1c-43.1-6.8-98.3-45.6-116.3-59c-3.2-2.4-3.9-7-1.4-10.2l0,0
	c2.4-3.1,6.8-3.7,9.9-1.4c17.2,12.7,70.5,50.2,109.9,56.4c13.2,2.1,22.2,0.7,26-4c2.9-3.5,3-8.9,2.3-13.2c-0.5-3.4,1.5-6.6,4.6-7.8
	l0,0c4.3-1.6,9,1.2,9.6,5.7c1,6.9,0.9,16.8-5.4,24.4C625.7,582.9,616.8,586.3,604.6,586.3z"/>
<path class="st1" d="M184.3,586c-11.1,0-20.7-7.7-22.9-18.6c-11.2-55.9,63.3-154.5,83.2-179.5c2.5-3.2,7.1-3.7,10.3-1.1l0,0
	c3,2.5,3.5,6.9,1.1,10c-8.1,10.2-25.9,33.6-42.8,60.8c-29.2,47.1-42.2,84.1-37.6,106.9c0.9,4.4,5.1,7.4,9.7,7
	c16.4-1.6,51.4-8.6,102-37.6c60.7-34.7,125-89.9,191.4-164.1c2.7-3,7.2-3.2,10.2-0.6l0,0c3,2.7,3.3,7.2,0.6,10.2
	C332.9,554.3,225.7,582.1,186.6,585.9C185.8,586,185,586,184.3,586z"/>
<path class="st1" d="M588,410.7L588,410.7c-0.6-3.4,1.6-6.6,4.9-7.3c10.7-2.2,34.2-7.5,57.2-15.8c21-7.7,55.5-23.3,57.4-43.6
	c0.1-1.4-0.2-2.7-0.9-3.9c-4.2-7-22.1-29.2-86-44.9c-3.4-0.8-5.4-4.2-4.7-7.5v0c0.8-3.4,4.3-5.6,7.7-4.7
	c83.4,20.5,95.1,52.2,96.2,55.8l0.2,0.7l0,0.7c1.6,22.9-20.6,42.9-65.8,59.4c-23.9,8.7-47.8,14.1-58.8,16.3
	C592,416.6,588.6,414.3,588,410.7z"/>
<path class="st1" d="M391.3,430.5c-34.1-0.7-166.3-4.2-204.9-18c-3.8-1.4-5.4-6-3.1-9.4l0,0c1.6-2.4,4.7-3.4,7.4-2.4
	c27,10.2,130.3,15.7,200.9,17.1c3.4,0.1,6.2,2.9,6.1,6.3l0,0.1C397.6,427.9,394.8,430.6,391.3,430.5z"/>
<path class="st1" d="M259.6,274.6L259.6,274.6c-0.4-3.5-3.6-6-7.1-5.5c-17.3,2.3-65.8,9.7-108.6,23.7c-3.5,1.1-5.3,5-3.9,8.4l0,0
	c1.2,3.1,4.6,4.7,7.8,3.6c41.5-13.5,89.6-20.9,106.4-23.2C257.6,281.2,260.1,278.1,259.6,274.6z"/>
<path class="st1" d="M456.1,423.5L456.1,423.5c-0.2-3.5,2.4-6.5,5.9-6.7l64.7-4c3.5-0.2,6.5,2.4,6.7,5.9l0,0
	c0.2,3.5-2.4,6.5-5.9,6.7l-64.7,4C459.4,429.7,456.4,427,456.1,423.5z"/>
<path class="st1" d="M521.2,330.5L521.2,330.5c-2.7-2.2-3.1-6.1-0.9-8.8c33.6-42,107.8-144,104.6-183.8c-0.1-1.4-0.1-2.9-0.1-4.5
	c0.1-2.4-0.4-6.9-4.1-10.2c-4.3-3.8-12.2-5.2-23-4.1c-3.3,0.3-6.3-1.9-6.9-5.2l0,0c-0.6-3.6,2-7,5.6-7.3c14.5-1.5,25.4,0.9,32.5,7.1
	c7.9,6.9,8.5,16.3,8.4,20.1c0,1.2,0,2.2,0.1,3.1c1.9,23.5-16.4,64-54.4,120.5c-21.7,32.3-44.1,61-52.9,72.2
	C527.9,332.3,523.9,332.8,521.2,330.5z"/>
<path class="st1" d="M448.8,196.2L448.8,196.2c-2.1-2.8-1.6-6.8,1.2-8.9l32.5-24.6c2.8-2.1,6.7-1.6,8.8,1.2l0,0
	c2.1,2.8,1.6,6.7-1.2,8.8l-32.5,24.6C454.8,199.5,450.9,199,448.8,196.2z"/>
<circle class="st1" cx="460.4" cy="503.3" r="12.2"/>
<circle class="st1" cx="151.2" cy="394.3" r="11.8"/>
<circle class="st1" cx="595.9" cy="284.5" r="11.1"/>
<circle class="st1" cx="541.4" cy="134.6" r="11.8"/>
<path class="st1" d="M389.6,334.6c-1.4,1.1-3.4,1.1-4.7-0.1c-2.6-2.5-5.2-3.7-7.7-3.6c-3,0.1-5.7,2-7.4,3.6
	c-1.3,1.2-3.2,1.3-4.6,0.3l0,0c-1.9-1.3-2-4-0.3-5.6c2.6-2.4,6.8-5.3,12-5.5c4.5-0.1,8.8,1.7,12.8,5.5
	C391.4,330.7,391.3,333.2,389.6,334.6L389.6,334.6z"/>
<path class="st1" d="M450.6,334.4c-1.4,1.1-3.4,1.1-4.7-0.1c-2.6-2.5-5.2-3.7-7.7-3.6c-3,0.1-5.7,2-7.4,3.6
	c-1.3,1.2-3.2,1.3-4.6,0.3l0,0c-1.9-1.3-2-4-0.3-5.6c2.6-2.4,6.8-5.3,12-5.5c4.5-0.1,8.8,1.7,12.8,5.5
	C452.3,330.4,452.3,333,450.6,334.4L450.6,334.4z"/>
<path class="st1" d="M429.7,353.2h-45c0,0-3.6,20.7,22.5,20.1C433.3,372.7,429.7,353.2,429.7,353.2z"/>
<g>
	<path class="st1" d="M110.1,158.6c2.2-2.3,4.9-3.5,8.1-3.8c-0.7,0-1.5-0.1-2.2,0c-4.1,0.3-7.5,2.2-10.2,5.6l-38.9,46.6
		c-2.7,3.1-3.9,6.7-3.6,10.8c0.3,4.1,2,7.5,5.1,10.2c3.1,2,6.3,3.1,9.7,3.1c4.1,0,7.9-1.7,11.3-5.1l17.1-20.5v-37.7
		C106.4,164.2,107.7,161.2,110.1,158.6z"/>
	<path class="st1" d="M184.7,468.7c-2.5-2.4-5.6-3.6-9.1-3.6H132V167.8c0-3.6-1.2-6.6-3.6-9.2c-2.4-2.5-5.5-3.8-9.1-3.8
		c-0.4,0-0.7,0-1,0c3.2,0.2,6,1.4,8.5,3.6c3.1,2.7,4.8,6.1,5.1,10.2c0.3,4.1-0.9,7.7-3.6,10.8l-21.8,26.1v259.5H62.9
		c-3.3,0-6.2,1.2-8.7,3.6c-2.5,2.4-3.8,5.5-3.8,9.1c0,3.7,1.3,6.8,3.8,9.4c2.5,2.6,5.4,3.9,8.7,3.9h112.6c3.6,0,6.6-1.3,9.2-3.9
		c2.5-2.6,3.8-5.7,3.8-9.4C188.5,474.2,187.2,471.1,184.7,468.7z"/>
	<path class="st1" d="M131.8,168.7c-0.3-4.1-2-7.5-5.1-10.2c-2.5-2.2-5.3-3.4-8.5-3.6c-3.2,0.2-5.9,1.5-8.1,3.8
		c-2.4,2.5-3.6,5.6-3.6,9.2v37.7l21.8-26.1C131,176.4,132.2,172.8,131.8,168.7z"/>
</g>
<path class="st1" d="M400.9,487.8c-17.4,0-71.2-3.9-110-47.9c-18.2-20.6-29.9-46.4-33.8-74.6c-3.7-27-0.2-54.5,10.3-79.5
	c1.4-3.2,34.2-79.2,114.1-89.5c30.5-3.9,62.4,2.9,90.1,19.1c24.5,14.4,44.5,35.2,58.3,60.4c3.2,5.9,0.8,13.2-5.3,16l0,0
	c-5.5,2.5-11.9,0.3-14.8-4.9c-25.6-46.6-75.8-74.2-125.3-67.9c-67,8.6-95.6,74.9-95.9,75.5c-8.9,21.2-11.9,44.5-8.7,67.4
	c3.3,23.7,13,45.3,28.3,62.5c33.4,37.8,80.2,40.2,93.8,40.1c31.2-0.3,55.5-12.2,70.4-22.3c5-3.3,11.7-2.3,15.4,2.4l0,0
	c4.2,5.3,3,13-2.6,16.7c-17.6,11.8-46.2,25.8-83,26.1C401.7,487.8,401.3,487.8,400.9,487.8z"/>
<circle class="st1" cx="613.2" cy="486.2" r="12.5"/>
<path class="st1" d="M89.7,369.6c-2.2,1.9-5.5,1.6-7.3-0.7c-5.9-8.1-8.4-16.4-7.4-24.7c1.2-9.9,7.1-17.4,11.4-21.6
	c2.2-2.2,5.8-1.8,7.6,0.7l2.6,3.7l-2.9-4.1l0.3,0.4c1.4,2,1.2,4.7-0.6,6.4c-3.2,3.1-7.7,8.6-8.5,15.7c-0.7,5.7,1.2,11.5,5.5,17.4
	C92,365,91.7,367.9,89.7,369.6L89.7,369.6z"/>
<path class="st1" d="M586.6,451.6C561,404.5,483.8,325.7,463.5,305.5c-2.7-2.7-2.7-7.1,0-9.8l0,0c2.7-2.8,7.2-2.8,9.9-0.1
	c9.2,9.2,29.7,30,51.8,54.3c36.5,40.2,61.3,72.1,73.7,95.1c1.9,3.5,0.5,7.9-3.2,9.7v0C592.4,456.2,588.4,454.9,586.6,451.6z"/>
</svg>
