<?xml version="1.0" encoding="UTF-8"?>
<svg width="68px" height="68px" viewBox="0 0 68 68" version="1.1" xmlns="http://www.w3.org/2000/svg" xmlns:xlink="http://www.w3.org/1999/xlink">
    <!-- Generator: Sketch 50.2 (55047) - http://www.bohemiancoding.com/sketch -->
    <title>add-button (1)</title>
    <desc>Created with Sketch.</desc>
    <defs></defs>
    <g id="Page-1" stroke="none" stroke-width="1" fill="none" fill-rule="evenodd" opacity="0.176227679">
        <g id="Materias" transform="translate(-500.000000, -390.000000)" fill="#000000" fill-rule="nonzero">
            <g id="Group-2" transform="translate(388.000000, 376.000000)">
                <g id="add-button-(1)" transform="translate(112.000000, 14.000000)">
                    <path d="M58.0529887,9.96075638 C55.4467848,7.35516701 52.5311592,5.2381689 49.3873321,3.66858678 C48.7029584,3.32671131 47.8718343,3.60468698 47.5303397,4.28843792 C47.1888451,4.97241955 47.4664248,5.80357833 48.150337,6.14499243 C51.0269677,7.58123851 53.700086,9.52360792 56.0951631,11.9181203 C68.278445,24.0985297 68.278445,43.9173876 56.0951631,56.097797 C43.9118812,68.2782064 24.0883495,68.2782064 11.9050676,56.097797 C-0.278214279,43.9173876 -0.278214279,24.0985297 11.9050676,11.9181203 C17.8066945,6.0176542 25.653687,2.76822243 33.9997693,2.76822243 C34.7642096,2.76822243 35.3842069,2.14837129 35.3842069,1.38411122 C35.3842069,0.61985114 34.7642096,0 33.9997693,0 C24.9139358,0 16.3719556,3.5373269 9.94701133,9.96075638 C-3.31567044,23.2203112 -3.31567044,44.7956061 9.94701133,58.0551609 C16.5784676,64.6850536 25.2891184,68 34,68 C42.7108816,68 51.4215324,64.6850536 58.0529887,58.0551609 C71.3156704,44.7956061 71.3156704,23.2203112 58.0529887,9.96075638 Z" id="Shape"></path>
                    <path d="M34.5,12 C33.67175,12 33,12.6194521 33,13.3832201 L33,54.6167799 C33,55.3807785 33.67175,56 34.5,56 C35.32825,56 36,55.3807785 36,54.6167799 L36,13.3832201 C36,12.6192215 35.32825,12 34.5,12 Z" id="Shape"></path>
                    <path d="M39.3948082,36 L54.6051918,36 C55.3753584,36 56,35.32825 56,34.5 C56,33.67175 55.3753584,33 54.6051918,33 L39.3948082,33 C38.6246416,33 38,33.67175 38,34.5 C38,35.32825 38.6244091,36 39.3948082,36 Z" id="Shape"></path>
                    <path d="M13.3522471,33 C12.6055813,33 12,33.67175 12,34.5 C12,35.32825 12.6055813,36 13.3522471,36 L27.6477529,36 C28.3944187,36 29,35.32825 29,34.5 C29,33.67175 28.3944187,33 27.6477529,33 L13.3522471,33 Z" id="Shape"></path>
                </g>
            </g>
        </g>
    </g>
</svg>