<?xml version="1.0" encoding="utf-8"?>
<!-- Generator: Adobe Illustrator 22.1.0, SVG Export Plug-In . SVG Version: 6.00 Build 0)  -->
<svg version="1.1" id="Capa_2" xmlns="http://www.w3.org/2000/svg" xmlns:xlink="http://www.w3.org/1999/xlink" x="0px" y="0px"
	 viewBox="0 0 777 676.5" style="enable-background:new 0 0 777 676.5;" xml:space="preserve">
<style type="text/css">
	.st0{fill:#555555;}
	.st1{fill:#464646;stroke:#464646;stroke-width:18;stroke-miterlimit:10;}
	.st2{fill:#464646;stroke:#464646;stroke-width:17;stroke-miterlimit:10;}
	.st3{fill:#FFFFFF;}
</style>
<path class="st0" d="M459.1,263.8c-2.8,2.5-7.3,2.5-10.1-0.1c-54.6-49.2-190-161.9-239-161.4c-9.8,0.1-13.1,3.6-14.7,6.2
	c-11.3,18.4,15.5,73.8,37.2,108.2c2,3.1,0.8,7-2.5,8.8l0,0c-3.5,1.8-8,0.7-10-2.5c-13.8-22-54.9-92.3-37.3-121
	c3.6-5.8,11.1-12.7,27-12.8c28.7-0.3,80.4,28.4,153.8,85.3c43.4,33.7,82,67.8,95.6,79.9C461.9,257.1,461.9,261.2,459.1,263.8
	L459.1,263.8z"/>
<path class="st0" d="M621.6,578.3c-4,0-8.3-0.4-12.9-1.1c-43.1-6.8-98.3-45.6-116.3-59c-3.2-2.4-3.9-7-1.4-10.2l0,0
	c2.4-3.1,6.8-3.7,9.9-1.4c17.2,12.7,70.5,50.2,109.9,56.4c13.2,2.1,22.2,0.7,26-4c2.9-3.5,3-8.9,2.3-13.2c-0.5-3.4,1.5-6.6,4.6-7.8
	l0,0c4.3-1.6,9,1.2,9.6,5.7c1,6.9,0.9,16.8-5.4,24.4C642.6,574.9,633.7,578.3,621.6,578.3z"/>
<path class="st0" d="M201.2,578c-11.1,0-20.7-7.7-22.9-18.6c-11.2-55.9,63.3-154.5,83.2-179.5c2.5-3.2,7.1-3.7,10.3-1.1l0,0
	c3,2.5,3.5,6.9,1.1,10c-8.1,10.2-25.9,33.6-42.8,60.8c-29.2,47.1-42.2,84.1-37.6,106.9c0.9,4.4,5.1,7.4,9.7,7
	c16.4-1.6,51.4-8.6,102-37.6c60.7-34.7,125-89.9,191.4-164.1c2.7-3,7.2-3.2,10.2-0.6l0,0c3,2.7,3.3,7.2,0.6,10.2
	C349.9,546.3,242.7,574.1,203.6,577.9C202.8,578,202,578,201.2,578z"/>
<path class="st0" d="M605,402.7L605,402.7c-0.6-3.4,1.6-6.6,4.9-7.3c10.7-2.2,34.2-7.5,57.2-15.8c21-7.7,55.5-23.3,57.4-43.6
	c0.1-1.4-0.2-2.7-0.9-3.9c-4.2-7-22.1-29.2-86-44.9c-3.4-0.8-5.4-4.2-4.7-7.5v0c0.8-3.4,4.3-5.6,7.7-4.7
	c83.4,20.5,95.1,52.2,96.2,55.8l0.2,0.7l0,0.7c1.6,22.9-20.6,42.9-65.8,59.4c-23.9,8.7-47.8,14.1-58.8,16.3
	C609,408.6,605.6,406.3,605,402.7z"/>
<path class="st0" d="M408.3,422.5c-34.1-0.7-166.3-4.2-204.9-18c-3.8-1.4-5.4-6-3.1-9.4h0c1.6-2.4,4.7-3.4,7.4-2.4
	c27,10.2,130.3,15.7,200.9,17.1c3.4,0.1,6.2,2.9,6.1,6.3l0,0.1C414.6,419.9,411.7,422.6,408.3,422.5z"/>
<path class="st0" d="M276.6,266.6L276.6,266.6c-0.3-3.5-2.7-6-5.2-5.5c-12.7,2.3-48.4,9.7-79.8,23.7c-2.6,1.1-3.9,5-2.9,8.4l0,0
	c0.9,3.1,3.4,4.7,5.7,3.6c30.5-13.5,65.9-20.9,78.2-23.2C275.1,273.2,276.9,270.1,276.6,266.6z"/>
<path class="st0" d="M473.1,415.5L473.1,415.5c-0.2-3.5,2.4-6.5,5.9-6.7l64.7-4c3.5-0.2,6.5,2.4,6.7,5.9l0,0
	c0.2,3.5-2.4,6.5-5.9,6.7l-64.7,4C476.3,421.7,473.3,419,473.1,415.5z"/>
<path class="st0" d="M538.2,322.5L538.2,322.5c-2.7-2.2-3.1-6.1-0.9-8.8c33.6-42,107.8-144,104.6-183.8c-0.1-1.4-0.1-2.9-0.1-4.5
	c0.1-2.4-0.4-6.9-4.1-10.2c-4.3-3.8-12.2-5.2-23-4.1c-3.3,0.3-6.3-1.9-6.9-5.2l0,0c-0.6-3.6,2-7,5.6-7.3c14.5-1.5,25.4,0.9,32.5,7.1
	c7.9,6.9,8.5,16.3,8.4,20.1c0,1.2,0,2.2,0.1,3.1c1.9,23.5-16.4,64-54.4,120.5c-21.7,32.3-44.1,61-52.9,72.2
	C544.9,324.3,540.9,324.8,538.2,322.5z"/>
<path class="st0" d="M465.7,188.2L465.7,188.2c-2.1-2.8-1.6-6.8,1.2-8.9l32.5-24.6c2.8-2.1,6.7-1.6,8.8,1.2l0,0
	c2.1,2.8,1.6,6.7-1.2,8.8l-32.5,24.6C471.8,191.5,467.9,191,465.7,188.2z"/>
<circle class="st0" cx="558.3" cy="126.6" r="11.8"/>
<path class="st0" d="M406.5,326.6c-1.4,1.1-3.4,1.1-4.7-0.1c-2.6-2.5-5.2-3.7-7.7-3.6c-3,0.1-5.7,2-7.4,3.6
	c-1.3,1.2-3.2,1.3-4.6,0.3l0,0c-1.9-1.3-2-4-0.3-5.6c2.6-2.4,6.8-5.3,12-5.5c4.5-0.1,8.8,1.7,12.8,5.5
	C408.3,322.7,408.2,325.2,406.5,326.6L406.5,326.6z"/>
<path class="st0" d="M467.5,326.4c-1.4,1.1-3.4,1.1-4.7-0.1c-2.6-2.5-5.2-3.7-7.7-3.6c-3,0.1-5.7,2-7.4,3.6
	c-1.3,1.2-3.2,1.3-4.6,0.3l0,0c-1.9-1.3-2-4-0.3-5.6c2.6-2.4,6.8-5.3,12-5.5c4.5-0.1,8.8,1.7,12.8,5.5
	C469.3,322.4,469.2,325,467.5,326.4L467.5,326.4z"/>
<path class="st0" d="M446.7,345.2h-45c0,0-3.6,20.7,22.5,20.1C450.2,364.7,446.7,345.2,446.7,345.2z"/>
<g>
	<path class="st1" d="M150.1,151.3c2.2-2.3,4.9-3.5,8.1-3.8c-0.7,0-1.5-0.1-2.2,0c-4.1,0.3-7.5,2.2-10.2,5.6l-38.9,46.6
		c-2.7,3.1-3.9,6.7-3.6,10.8c0.3,4.1,2,7.5,5.1,10.2c3.1,2,6.3,3.1,9.7,3.1c4.1,0,7.9-1.7,11.3-5.1l17.1-20.5v-37.7
		C146.5,156.9,147.7,153.8,150.1,151.3z"/>
	<path class="st1" d="M224.7,461.4c-2.5-2.4-5.6-3.6-9.1-3.6H172V160.5c0-3.6-1.2-6.6-3.6-9.2c-2.4-2.5-5.5-3.8-9.1-3.8
		c-0.4,0-0.7,0-1,0c3.2,0.2,6,1.4,8.5,3.6c3.1,2.7,4.8,6.1,5.1,10.2c0.3,4.1-0.9,7.7-3.6,10.8l-21.8,26.1v259.5h-43.6
		c-3.3,0-6.2,1.2-8.7,3.6c-2.5,2.4-3.8,5.5-3.8,9.1c0,3.7,1.3,6.8,3.8,9.4c2.5,2.6,5.4,3.9,8.7,3.9h112.6c3.6,0,6.6-1.3,9.2-3.9
		c2.5-2.6,3.8-5.7,3.8-9.4C228.5,466.9,227.3,463.8,224.7,461.4z"/>
	<path class="st1" d="M171.9,161.4c-0.3-4.1-2-7.5-5.1-10.2c-2.5-2.2-5.3-3.4-8.5-3.6c-3.2,0.2-5.9,1.5-8.1,3.8
		c-2.4,2.5-3.6,5.6-3.6,9.2v37.7l21.8-26.1C171,169.1,172.2,165.5,171.9,161.4z"/>
</g>
<path class="st2" d="M417.8,479.8c-17.4,0-71.2-3.9-110-47.9c-18.2-20.6-29.9-46.4-33.8-74.6c-3.7-27-0.2-54.5,10.3-79.5
	c1.4-3.2,34.2-79.2,114.1-89.5c30.5-3.9,62.4,2.9,90.1,19.1c24.5,14.4,44.5,35.2,58.3,60.4c3.2,5.9,0.8,13.2-5.3,16l0,0
	c-5.5,2.5-11.9,0.3-14.8-4.9c-25.6-46.6-75.8-74.2-125.3-67.9c-67,8.6-95.6,74.9-95.9,75.5c-8.9,21.2-11.9,44.5-8.7,67.4
	c3.3,23.7,13,45.3,28.3,62.5c33.4,37.8,80.2,40.2,93.8,40.1c31.2-0.3,55.5-12.2,70.4-22.3c5-3.3,11.7-2.3,15.4,2.4l0,0
	c4.2,5.3,3,13-2.6,16.7c-17.6,11.8-46.2,25.8-83,26.1C418.6,479.8,418.2,479.8,417.8,479.8z"/>
<circle class="st0" cx="630.1" cy="478.2" r="12.5"/>
<path class="st0" d="M123.5,361.8c-2.2,1.9-5.5,1.6-7.3-0.7c-5.9-8.1-8.4-16.4-7.4-24.7c1.2-9.9,7.1-17.4,11.4-21.6
	c2.2-2.2,5.8-1.8,7.6,0.7l2.6,3.7l-2.9-4.1l0.3,0.4c1.4,2,1.2,4.7-0.6,6.4c-3.2,3.1-7.7,8.6-8.5,15.7c-0.7,5.7,1.2,11.5,5.5,17.4
	C125.7,357.2,125.4,360,123.5,361.8L123.5,361.8z"/>
<path class="st0" d="M603.6,443.6C578,396.5,500.7,317.7,480.5,297.5c-2.7-2.7-2.7-7.1,0-9.8l0,0c2.7-2.8,7.2-2.8,9.9-0.1
	c9.2,9.2,29.7,30,51.8,54.3c36.5,40.2,61.3,72.1,73.7,95.1c1.9,3.5,0.5,7.9-3.2,9.7v0C609.4,448.2,605.3,446.9,603.6,443.6z"/>
<path class="st3" d="M1243.9,280.8c-2.6,2.9-7.2,3.2-10.1,0.6c-57.3-50.9-199-166.8-247.9-163.1c-9.8,0.7-12.8,4.8-14.3,7.8
	c-10.3,21.1,19.7,80.6,43.3,117.3c2.1,3.3,1.2,7.7-2,9.9l0,0c-3.4,2.3-7.9,1.3-10.1-2.1c-15-23.4-60.2-98.5-44.2-131.4
	c3.2-6.6,10.4-14.7,26.2-15.9c28.6-2.2,81.9,26.3,158.5,84.5c45.3,34.4,85.8,69.6,100.1,82.2
	C1246.3,273.2,1246.6,277.8,1243.9,280.8L1243.9,280.8z"/>
<path class="st3" d="M1401.6,586.3c-4,0-8.3-0.4-12.9-1.1c-43.1-6.8-98.3-45.6-116.3-59c-3.2-2.4-3.9-7-1.4-10.2l0,0
	c2.4-3.1,6.8-3.7,9.9-1.4c17.2,12.7,70.5,50.2,109.9,56.4c13.2,2.1,22.2,0.7,26-4c2.9-3.5,3-8.9,2.3-13.2c-0.5-3.4,1.5-6.6,4.6-7.8
	l0,0c4.3-1.6,9,1.2,9.6,5.7c1,6.9,0.9,16.8-5.4,24.4C1422.6,582.9,1413.7,586.3,1401.6,586.3z"/>
<path class="st3" d="M981.2,586c-11.1,0-20.7-7.7-22.9-18.6c-11.2-55.9,63.3-154.5,83.2-179.5c2.5-3.2,7.1-3.7,10.3-1.1l0,0
	c3,2.5,3.5,6.9,1.1,10c-8.1,10.2-25.9,33.6-42.8,60.8c-29.2,47.1-42.2,84.1-37.6,106.9c0.9,4.4,5.1,7.4,9.7,7
	c16.4-1.6,51.4-8.6,102-37.6c60.7-34.7,125-89.9,191.4-164.1c2.7-3,7.2-3.2,10.2-0.6l0,0c3,2.7,3.3,7.2,0.6,10.2
	c-156.6,174.9-263.8,202.7-302.9,206.5C982.8,586,982,586,981.2,586z"/>
<path class="st3" d="M1385,410.7L1385,410.7c-0.6-3.4,1.6-6.6,4.9-7.3c10.7-2.2,34.2-7.5,57.2-15.8c21-7.7,55.5-23.3,57.4-43.6
	c0.1-1.4-0.2-2.7-0.9-3.9c-4.2-7-22.1-29.2-86-44.9c-3.4-0.8-5.4-4.2-4.7-7.5v0c0.8-3.4,4.3-5.6,7.7-4.7
	c83.4,20.5,95.1,52.2,96.2,55.8l0.2,0.7l0,0.7c1.6,22.9-20.6,42.9-65.8,59.4c-23.9,8.7-47.8,14.1-58.8,16.3
	C1389,416.6,1385.6,414.3,1385,410.7z"/>
<path class="st3" d="M1188.3,430.5c-34.1-0.7-166.3-4.2-204.9-18c-3.8-1.4-5.4-6-3.1-9.4l0,0c1.6-2.4,4.7-3.4,7.4-2.4
	c27,10.2,130.3,15.7,200.9,17.1c3.4,0.1,6.2,2.9,6.1,6.3l0,0.1C1194.6,427.9,1191.7,430.6,1188.3,430.5z"/>
<path class="st3" d="M1056.6,274.6L1056.6,274.6c-0.4-3.5-3.6-6-7.1-5.5c-17.3,2.3-65.8,9.7-108.6,23.7c-3.5,1.1-5.3,5-3.9,8.4l0,0
	c1.2,3.1,4.6,4.7,7.8,3.6c41.5-13.5,89.6-20.9,106.4-23.2C1054.6,281.2,1057,278.1,1056.6,274.6z"/>
<path class="st3" d="M1253.1,423.5L1253.1,423.5c-0.2-3.5,2.4-6.5,5.9-6.7l64.7-4c3.5-0.2,6.5,2.4,6.7,5.9l0,0
	c0.2,3.5-2.4,6.5-5.9,6.7l-64.7,4C1256.3,429.7,1253.3,427,1253.1,423.5z"/>
<path class="st3" d="M1318.2,330.5L1318.2,330.5c-2.7-2.2-3.1-6.1-0.9-8.8c33.6-42,107.8-144,104.6-183.8c-0.1-1.4-0.1-2.9-0.1-4.5
	c0.1-2.4-0.4-6.9-4.1-10.2c-4.3-3.8-12.2-5.2-23-4.1c-3.3,0.3-6.3-1.9-6.9-5.2l0,0c-0.6-3.6,2-7,5.6-7.3c14.5-1.5,25.4,0.9,32.5,7.1
	c7.9,6.9,8.5,16.3,8.4,20.1c0,1.2,0,2.2,0.1,3.1c1.9,23.5-16.4,64-54.4,120.5c-21.7,32.3-44.1,61-52.9,72.2
	C1324.9,332.3,1320.9,332.8,1318.2,330.5z"/>
<path class="st3" d="M1245.7,196.2L1245.7,196.2c-2.1-2.8-1.6-6.8,1.2-8.9l32.5-24.6c2.8-2.1,6.7-1.6,8.8,1.2l0,0
	c2.1,2.8,1.6,6.7-1.2,8.8l-32.5,24.6C1251.8,199.5,1247.9,199,1245.7,196.2z"/>
<circle class="st3" cx="1257.3" cy="503.3" r="12.2"/>
<circle class="st3" cx="948.2" cy="394.3" r="11.8"/>
<circle class="st3" cx="1392.9" cy="284.5" r="11.1"/>
<circle class="st3" cx="1338.3" cy="134.6" r="11.8"/>
<path class="st3" d="M1186.5,334.6c-1.4,1.1-3.4,1.1-4.7-0.1c-2.6-2.5-5.2-3.7-7.7-3.6c-3,0.1-5.7,2-7.4,3.6
	c-1.3,1.2-3.2,1.3-4.6,0.3l0,0c-1.9-1.3-2-4-0.3-5.6c2.6-2.4,6.8-5.3,12-5.5c4.5-0.1,8.8,1.7,12.8,5.5
	C1188.3,330.7,1188.2,333.2,1186.5,334.6L1186.5,334.6z"/>
<path class="st3" d="M1247.5,334.4c-1.4,1.1-3.4,1.1-4.7-0.1c-2.6-2.5-5.2-3.7-7.7-3.6c-3,0.1-5.7,2-7.4,3.6
	c-1.3,1.2-3.2,1.3-4.6,0.3l0,0c-1.9-1.3-2-4-0.3-5.6c2.6-2.4,6.8-5.3,12-5.5c4.5-0.1,8.8,1.7,12.8,5.5
	C1249.3,330.4,1249.2,333,1247.5,334.4L1247.5,334.4z"/>
<path class="st3" d="M1226.7,353.2h-45c0,0-3.6,20.7,22.5,20.1C1230.2,372.7,1226.7,353.2,1226.7,353.2z"/>
<g>
	<path class="st3" d="M907.1,158.6c2.2-2.3,4.9-3.5,8.1-3.8c-0.7,0-1.5-0.1-2.2,0c-4.1,0.3-7.5,2.2-10.2,5.6l-38.9,46.6
		c-2.7,3.1-3.9,6.7-3.6,10.8c0.3,4.1,2,7.5,5.1,10.2c3.1,2,6.3,3.1,9.7,3.1c4.1,0,7.9-1.7,11.3-5.1l17.1-20.5v-37.7
		C903.4,164.2,904.6,161.2,907.1,158.6z"/>
	<path class="st3" d="M981.7,468.7c-2.5-2.4-5.6-3.6-9.1-3.6H929V167.8c0-3.6-1.2-6.6-3.6-9.2c-2.4-2.5-5.5-3.8-9.1-3.8
		c-0.4,0-0.7,0-1,0c3.2,0.2,6,1.4,8.5,3.6c3.1,2.7,4.8,6.1,5.1,10.2c0.3,4.1-0.9,7.7-3.6,10.8l-21.8,26.1v259.5h-43.6
		c-3.3,0-6.2,1.2-8.7,3.6c-2.5,2.4-3.8,5.5-3.8,9.1c0,3.7,1.3,6.8,3.8,9.4c2.5,2.6,5.4,3.9,8.7,3.9h112.6c3.6,0,6.6-1.3,9.2-3.9
		c2.5-2.6,3.8-5.7,3.8-9.4C985.5,474.2,984.2,471.1,981.7,468.7z"/>
	<path class="st3" d="M928.8,168.7c-0.3-4.1-2-7.5-5.1-10.2c-2.5-2.2-5.3-3.4-8.5-3.6c-3.2,0.2-5.9,1.5-8.1,3.8
		c-2.4,2.5-3.6,5.6-3.6,9.2v37.7l21.8-26.1C927.9,176.4,929.1,172.8,928.8,168.7z"/>
</g>
<path class="st3" d="M1197.8,487.8c-17.4,0-71.2-3.9-110-47.9c-18.2-20.6-29.9-46.4-33.8-74.6c-3.7-27-0.2-54.5,10.3-79.5
	c1.4-3.2,34.2-79.2,114.1-89.5c30.5-3.9,62.4,2.9,90.1,19.1c24.5,14.4,44.5,35.2,58.3,60.4c3.2,5.9,0.8,13.2-5.3,16l0,0
	c-5.5,2.5-11.9,0.3-14.8-4.9c-25.6-46.6-75.8-74.2-125.3-67.9c-67,8.6-95.6,74.9-95.9,75.5c-8.9,21.2-11.9,44.5-8.7,67.4
	c3.3,23.7,13,45.3,28.3,62.5c33.4,37.8,80.2,40.2,93.8,40.1c31.2-0.3,55.5-12.2,70.4-22.3c5-3.3,11.7-2.3,15.4,2.4l0,0
	c4.2,5.3,3,13-2.6,16.7c-17.6,11.8-46.2,25.8-83,26.1C1198.6,487.8,1198.2,487.8,1197.8,487.8z"/>
<circle class="st3" cx="1410.1" cy="486.2" r="12.5"/>
<path class="st3" d="M886.7,369.6c-2.2,1.9-5.5,1.6-7.3-0.7c-5.9-8.1-8.4-16.4-7.4-24.7c1.2-9.9,7.1-17.4,11.4-21.6
	c2.2-2.2,5.8-1.8,7.6,0.7l2.6,3.7l-2.9-4.1l0.3,0.4c1.4,2,1.2,4.7-0.6,6.4c-3.2,3.1-7.7,8.6-8.5,15.7c-0.7,5.7,1.2,11.5,5.5,17.4
	C888.9,365,888.7,367.9,886.7,369.6L886.7,369.6z"/>
<path class="st3" d="M1383.6,451.6c-25.6-47.2-102.8-125.9-123.1-146.2c-2.7-2.7-2.7-7.1,0-9.8l0,0c2.7-2.8,7.2-2.8,9.9-0.1
	c9.2,9.2,29.7,30,51.8,54.3c36.5,40.2,61.3,72.1,73.7,95.1c1.9,3.5,0.5,7.9-3.2,9.7v0C1389.4,456.2,1385.3,454.9,1383.6,451.6z"/>
<circle class="st0" cx="235" cy="246" r="10.2"/>
</svg>
