<?xml version="1.0" encoding="utf-8"?>
<!-- Generator: Adobe Illustrator 22.1.0, SVG Export Plug-In . SVG Version: 6.00 Build 0)  -->
<svg version="1.1" id="Layer_2" xmlns="http://www.w3.org/2000/svg" xmlns:xlink="http://www.w3.org/1999/xlink" x="0px" y="0px"
	 viewBox="0 0 1053.4 347.9" style="enable-background:new 0 0 1053.4 347.9;" xml:space="preserve">
<style type="text/css">
	.st0{fill:#001D5B;}
	.st1{fill:none;stroke:#001D5B;stroke-width:7.2767;}
</style>
<g>
	<g>
		<g>
			<polygon class="st0" points="262.8,235 292.5,218.8 291.9,259.7 262.2,277.1 262.5,235.4 			"/>
			<polygon class="st0" points="301.5,169 316.4,160.6 316.2,246.1 302.2,253.7 			"/>
			<polygon class="st0" points="320,158.5 334.9,150.1 334.7,235.5 320.7,243.2 			"/>
			<polygon class="st0" points="343.4,104.1 350.2,100.3 350.2,226.4 343,229.8 			"/>
			<polygon class="st0" points="354.1,97.8 359.8,94.5 359.8,220.4 354.1,223.5 			"/>
			<polygon class="st0" points="364.5,92.2 370.4,88.8 370.4,214.9 364.5,217.9 			"/>
			<polygon class="st0" points="173,188.7 143.4,172.6 144,213.4 173.7,230.8 173.4,189.2 			"/>
			<polygon class="st0" points="196.8,158.3 181.9,149.9 182.1,235.4 196.1,243 			"/>
			<polygon class="st0" points="216,168.8 201.1,160.3 201.2,245.8 215.3,253.5 			"/>
			<polygon class="st0" points="231.5,138.8 224.7,135 224.7,261.1 231.9,264.5 			"/>
			<polygon class="st0" points="243.1,145.1 236.3,141.2 236.3,267.3 243.5,270.7 			"/>
			<polygon class="st0" points="254.3,151.4 247.5,147.6 247.5,273.7 254.7,277.1 			"/>
			<polygon class="st0" points="225.1,126.7 257.1,107.5 289.1,126.7 257.7,145.3 			"/>
			<polygon class="st0" points="225,77.2 238.4,69.4 313.3,113.4 300.1,121.5 			"/>
			<polygon class="st0" points="244.2,66.1 257.6,58.2 332.5,102.3 319.4,110.4 			"/>
			<polygon class="st0" points="228.8,30.9 235.1,26.9 349.4,94 342.4,97.6 			"/>
			<polygon class="st0" points="239.5,23.9 245.8,19.8 359.2,87 353.2,90.4 			"/>
			<polygon class="st0" points="249.7,17.1 256,13.1 369.4,80.2 363.5,83.5 			"/>
		</g>
		<path class="st0" d="M190.7,313.3h2.6v4.3c-1.7,1-3.2,1.8-4.7,2.2c-1.5,0.5-3,0.7-4.7,0.7c-3.8,0-6.7-1.4-8.9-4.2
			c-2.1-2.8-3.1-6.6-3.1-11.6c0-4.9,1.1-8.7,3.3-11.4c2.2-2.7,5.3-4.1,9.2-4.1c1.4,0,2.8,0.2,4.2,0.7c1.4,0.5,3,1.2,4.7,2.1v4.2
			h-2.6c-0.8-1.5-1.7-2.6-2.7-3.3c-1-0.7-2.3-1-3.8-1c-2.7,0-4.8,1.1-6.2,3.4c-1.4,2.3-2.1,5.6-2.1,10c0,4,0.7,7.1,2.2,9.3
			c1.4,2.2,3.5,3.2,6.2,3.2c1.6,0,2.9-0.4,4-1.1C189.3,315.9,190.1,314.8,190.7,313.3z"/>
		<path class="st0" d="M217.4,319.9h-17.9v-30h17.3v2.5h-13.4v10.2H216v2.7h-12.7v11.9h14.1V319.9z"/>
		<path class="st0" d="M223.6,289.9h4.9l9.9,17.4c0.7,1.2,1.2,2.3,1.7,3.6c0.5,1.2,0.8,2.5,1.1,3.9h1c-0.2-1.8-0.4-3.4-0.5-4.9
			c-0.1-1.4-0.2-2.5-0.2-3.4v-16.6h3.6v30h-3.4l-11.8-21.1c-0.5-0.8-0.9-1.8-1.3-2.9c-0.4-1.1-0.7-2.3-1-3.6h-0.9
			c0.2,1.4,0.3,2.8,0.4,4c0.1,1.3,0.1,2.4,0.1,3.5v20.1h-3.6V289.9z"/>
		<path class="st0" d="M271.3,319.9h-17.9v-30h17.3v2.5h-13.4v10.2h12.7v2.7h-12.7v11.9h14.1V319.9z"/>
		<path class="st0" d="M274.6,289.9h4.4l5.1,18.5c0.2,0.8,0.5,1.9,0.8,3.3c0.3,1.4,0.6,3.2,1,5.3h0.8c0.4-2.3,0.7-4.2,1-5.9
			c0.3-1.6,0.5-2.7,0.6-3.1l4.9-18.1h4.3l-9.4,30h-3.8L274.6,289.9z"/>
		<path class="st0" d="M310.3,289.9h5.2l8.9,30h-4.4l-2.3-7.6H308l-2.4,7.6h-4.1L310.3,289.9z M310.1,303.3l-1.8,6.3h9.1l-1.9-6.3
			c-0.5-1.7-0.9-3.4-1.2-5.2c-0.3-1.8-0.6-3.5-0.8-5.3H312c-0.2,1.9-0.4,3.8-0.7,5.5C311,300.1,310.6,301.8,310.1,303.3z"/>
		<path class="st0" d="M346.4,319.9h-15.8v-30h3.8v27.3h11.9V319.9z"/>
		<path class="st0" d="M350.3,290.2c1.1,0,2.2,0.2,3.1,0.5c1,0.4,1.8,0.9,2.6,1.6c0.7,0.7,1.3,1.4,1.7,2.3c0.4,0.9,0.6,1.8,0.6,2.8
			c0,1-0.2,1.9-0.6,2.8c-0.4,0.9-1,1.6-1.7,2.3c-0.8,0.7-1.7,1.2-2.7,1.6c-1,0.4-2,0.5-3.1,0.5c-1.1,0-2.1-0.2-3.1-0.5
			c-1-0.4-1.8-0.9-2.6-1.6c-0.8-0.7-1.4-1.5-1.8-2.3c-0.4-0.9-0.6-1.8-0.6-2.7c0-0.9,0.2-1.9,0.6-2.8c0.4-0.9,1-1.7,1.8-2.4
			c0.7-0.7,1.6-1.2,2.6-1.5C348.2,290.4,349.2,290.2,350.3,290.2z M357.5,297.4c0-0.9-0.2-1.7-0.5-2.5c-0.4-0.8-0.9-1.5-1.5-2.1
			c-0.7-0.6-1.5-1.1-2.4-1.4c-0.9-0.3-1.8-0.5-2.8-0.5c-1,0-1.9,0.2-2.7,0.5c-0.9,0.3-1.6,0.8-2.3,1.4c-0.7,0.6-1.2,1.3-1.6,2.1
			c-0.4,0.8-0.6,1.6-0.6,2.4c0,0.8,0.2,1.6,0.6,2.4c0.4,0.8,0.9,1.5,1.6,2.1c0.7,0.6,1.5,1.1,2.3,1.4c0.9,0.3,1.8,0.5,2.7,0.5
			c1,0,1.9-0.2,2.8-0.5c0.9-0.3,1.7-0.8,2.4-1.4c0.7-0.6,1.2-1.3,1.5-2C357.3,299.1,357.5,298.3,357.5,297.4z M350.5,293.1
			c1.3,0,2.3,0.2,2.9,0.6c0.6,0.4,0.9,1,0.9,1.7c0,0.6-0.2,1.1-0.6,1.5c-0.4,0.4-0.9,0.6-1.6,0.7l2.1,3.9h-1.6l-2-3.7h-2.2v3.7h-1.4
			v-8.3H350.5z M350.3,294h-1.7v3h1.7c1,0,1.7-0.1,2.1-0.3c0.4-0.2,0.6-0.6,0.6-1.1c0-0.5-0.2-0.9-0.6-1.2
			C351.9,294.1,351.2,294,350.3,294z"/>
	</g>
	<g>
		<g>
			<path class="st0" d="M444,144.5c-1.2,0.6-3.7,1.2-6.9,1.2c-7.4,0-12.9-4.7-12.9-13.3c0-8.3,5.6-13.8,13.7-13.8
				c3.2,0,5.3,0.7,6.2,1.2l-0.9,2.8c-1.2-0.6-3.1-1.1-5.3-1.1c-6.1,0-10.2,3.9-10.2,10.8c0,6.5,3.7,10.6,10,10.6
				c2.1,0,4.2-0.4,5.6-1.1L444,144.5z"/>
			<path class="st0" d="M461.8,133h-10.2v9.5H463v2.8h-14.8v-26.2h14.2v2.8h-10.8v8.3h10.2V133z"/>
			<path class="st0" d="M467.4,145.3v-26.2h3.7l8.4,13.3c1.9,3.1,3.5,5.8,4.7,8.5l0.1,0c-0.3-3.5-0.4-6.7-0.4-10.8v-11h3.2v26.2
				h-3.4l-8.3-13.3c-1.8-2.9-3.6-5.9-4.9-8.8l-0.1,0c0.2,3.3,0.2,6.5,0.2,10.8v11.2H467.4z"/>
			<path class="st0" d="M498.1,121.9h-8v-2.9h19.4v2.9h-8v23.4h-3.4V121.9z"/>
			<path class="st0" d="M512.4,119.5c1.7-0.3,4.2-0.6,6.5-0.6c3.6,0,6,0.7,7.6,2.2c1.3,1.1,2.1,2.9,2.1,5c0,3.4-2.2,5.7-4.9,6.7v0.1
				c2,0.7,3.2,2.6,3.9,5.3c0.9,3.7,1.5,6.2,2,7.2H526c-0.4-0.7-1-3-1.7-6.3c-0.8-3.6-2.2-5-5.3-5.1h-3.2v11.4h-3.4V119.5z
				 M515.8,131.4h3.5c3.6,0,5.9-2,5.9-5c0-3.4-2.5-4.9-6-4.9c-1.6,0-2.8,0.2-3.3,0.3V131.4z"/>
			<path class="st0" d="M543.7,145.7c-7,0-11.8-5.4-11.8-13.3c0-8.3,5.1-13.8,12.2-13.8c7.2,0,11.8,5.5,11.8,13.3
				C555.9,140.9,550.4,145.7,543.7,145.7L543.7,145.7z M543.9,143c5.4,0,8.4-4.9,8.4-10.9c0-5.2-2.7-10.7-8.4-10.7
				s-8.5,5.3-8.5,10.9C535.5,137.9,538.5,143,543.9,143L543.9,143z"/>
			<path class="st0" d="M568.6,145.3v-26.2h3.7l8.4,13.3c1.9,3.1,3.5,5.8,4.7,8.5l0.1,0c-0.3-3.5-0.4-6.7-0.4-10.8v-11h3.2v26.2
				h-3.4l-8.3-13.3c-1.8-2.9-3.6-5.9-4.9-8.8l-0.1,0c0.2,3.3,0.2,6.5,0.2,10.8v11.2H568.6z"/>
			<path class="st0" d="M598.5,137.1l-2.7,8.3h-3.5l8.9-26.2h4.1l9,26.2h-3.6l-2.8-8.3H598.5z M607.1,134.4l-2.6-7.6
				c-0.5-1.7-0.9-3.3-1.3-4.8H603c-0.4,1.5-0.8,3.2-1.3,4.8l-2.6,7.6H607.1z"/>
			<path class="st0" d="M635.8,144.5c-1.2,0.6-3.7,1.2-6.9,1.2c-7.4,0-12.9-4.7-12.9-13.3c0-8.3,5.6-13.8,13.7-13.8
				c3.2,0,5.3,0.7,6.2,1.2l-0.9,2.8c-1.2-0.6-3.1-1.1-5.3-1.1c-6.2,0-10.2,3.9-10.2,10.8c0,6.5,3.7,10.6,10.1,10.6
				c2.1,0,4.2-0.4,5.6-1.1L635.8,144.5z"/>
			<path class="st0" d="M643.5,119.1v26.2H640v-26.2H643.5z"/>
			<path class="st0" d="M659.6,145.7c-7,0-11.8-5.4-11.8-13.3c0-8.3,5.1-13.8,12.1-13.8c7.2,0,11.8,5.5,11.8,13.3
				C671.8,140.9,666.3,145.7,659.6,145.7L659.6,145.7z M659.8,143c5.4,0,8.4-4.9,8.4-10.9c0-5.2-2.7-10.7-8.4-10.7
				c-5.6,0-8.4,5.3-8.4,10.9C651.4,137.9,654.4,143,659.8,143L659.8,143z"/>
			<path class="st0" d="M676.2,145.3v-26.2h3.7l8.4,13.3c1.9,3.1,3.5,5.8,4.7,8.5l0.1,0c-0.3-3.5-0.4-6.7-0.4-10.8v-11h3.2v26.2
				h-3.4l-8.3-13.3c-1.8-2.9-3.6-5.9-4.9-8.8l-0.1,0c0.2,3.3,0.2,6.5,0.2,10.8v11.2H676.2z"/>
			<path class="st0" d="M706.1,137.1l-2.7,8.3h-3.5l8.9-26.2h4.1l9,26.2h-3.6l-2.8-8.3H706.1z M714.7,134.4l-2.6-7.6
				c-0.5-1.7-0.9-3.3-1.3-4.8h-0.1c-0.4,1.5-0.8,3.2-1.3,4.8l-2.6,7.6H714.7z"/>
			<path class="st0" d="M725.6,119.1h3.4v23.4h11.2v2.8h-14.7V119.1z"/>
			<path class="st0" d="M425.6,166.2c2.1-0.3,4.6-0.5,7.3-0.5c4.9,0,8.3,1.1,10.6,3.2c2.4,2.1,3.7,5.2,3.7,9.5
				c0,4.3-1.4,7.8-3.8,10.2c-2.5,2.4-6.5,3.8-11.6,3.8c-2.5,0-4.4-0.1-6.2-0.3V166.2z M429.1,189.4c0.9,0.2,2.1,0.2,3.4,0.2
				c7.2,0,11.2-4.1,11.2-11.1c0-6.3-3.5-10.1-10.6-10.1c-1.8,0-3.1,0.2-4,0.3V189.4z"/>
			<path class="st0" d="M465.2,179.8H455v9.5h11.4v2.8h-14.8v-26.2h14.2v2.8H455v8.3h10.2V179.8z"/>
			<path class="st0" d="M492.6,179.8h-10.2v9.5h11.4v2.8H479v-26.2h14.2v2.8h-10.8v8.3h10.2V179.8z"/>
			<path class="st0" d="M504.3,192.1l-8.6-26.2h3.7l4.1,12.9c1.1,3.5,2.1,6.8,2.8,9.8h0.1c0.7-3,1.8-6.4,3-9.8l4.4-13h3.6l-9.4,26.2
				H504.3z"/>
			<path class="st0" d="M521.7,183.8l-2.7,8.3h-3.5l8.9-26.2h4.1l9,26.2h-3.6l-2.8-8.3H521.7z M530.3,181.2l-2.6-7.6
				c-0.5-1.7-0.9-3.3-1.3-4.8h-0.1c-0.4,1.5-0.8,3.2-1.3,4.8l-2.6,7.6H530.3z"/>
			<path class="st0" d="M541.2,165.8h3.4v23.4h11.2v2.8h-14.6V165.8z"/>
			<path class="st0" d="M561.6,165.8v15.6c0,5.8,2.6,8.3,6.1,8.3c3.9,0,6.4-2.6,6.4-8.3v-15.6h3.4v15.3c0,8.1-4.2,11.3-9.9,11.3
				c-5.4,0-9.4-3-9.4-11.2v-15.5H561.6z"/>
			<path class="st0" d="M586.3,183.8l-2.7,8.3h-3.5l8.9-26.2h4.1l8.9,26.2h-3.6l-2.8-8.3H586.3z M594.9,181.2l-2.6-7.6
				c-0.5-1.7-0.9-3.3-1.3-4.8h-0.1c-0.3,1.5-0.8,3.2-1.3,4.8l-2.6,7.6H594.9z"/>
			<path class="st0" d="M623.6,191.2c-1.2,0.6-3.7,1.2-6.9,1.2c-7.4,0-12.9-4.7-12.9-13.3c0-8.3,5.6-13.8,13.7-13.8
				c3.2,0,5.3,0.7,6.2,1.2l-0.9,2.8c-1.2-0.6-3.1-1.1-5.3-1.1c-6.2,0-10.2,3.9-10.2,10.8c0,6.5,3.7,10.6,10.1,10.6
				c2.1,0,4.2-0.4,5.6-1.1L623.6,191.2z"/>
			<path class="st0" d="M631.3,165.8v26.2h-3.4v-26.2H631.3z"/>
			<path class="st0" d="M647.5,192.5c-7,0-11.8-5.4-11.8-13.3c0-8.3,5.1-13.8,12.1-13.8c7.2,0,11.8,5.5,11.8,13.3
				C659.7,187.7,654.2,192.5,647.5,192.5L647.5,192.5z M647.6,189.7c5.4,0,8.4-4.9,8.4-10.9c0-5.2-2.7-10.7-8.4-10.7
				c-5.7,0-8.5,5.3-8.5,10.9C639.2,184.6,642.2,189.7,647.6,189.7L647.6,189.7z M653.8,159.8l-5,4.6H646l3.7-4.6H653.8z"/>
			<path class="st0" d="M664.1,192.1v-26.2h3.7l8.4,13.3c1.9,3.1,3.5,5.8,4.7,8.5l0.1,0c-0.3-3.5-0.4-6.7-0.4-10.8v-11h3.2v26.2
				h-3.4l-8.3-13.3c-1.8-2.9-3.6-5.9-4.9-8.8l-0.1,0c0.2,3.3,0.2,6.5,0.2,10.8v11.2H664.1z"/>
			<path class="st0" d="M697.9,166.2c1.6-0.3,3.8-0.5,6.5-0.5c3.3,0,5.8,0.8,7.4,2.2c1.4,1.3,2.3,3.2,2.3,5.5c0,2.4-0.7,4.2-2.1,5.6
				c-1.8,1.9-4.7,2.9-8,2.9c-1,0-1.9,0-2.7-0.2v10.5h-3.4V166.2z M701.3,178.8c0.7,0.2,1.7,0.3,2.8,0.3c4.1,0,6.6-2,6.6-5.6
				c0-3.5-2.5-5.2-6.2-5.2c-1.5,0-2.6,0.2-3.2,0.3V178.8z"/>
			<path class="st0" d="M719.4,183.8l-2.7,8.3h-3.5l8.9-26.2h4.1l9,26.2h-3.6l-2.8-8.3H719.4z M728,181.2l-2.6-7.6
				c-0.6-1.7-0.9-3.3-1.3-4.8h-0.1c-0.3,1.5-0.8,3.2-1.3,4.8l-2.6,7.6H728z"/>
			<path class="st0" d="M739,166.2c1.7-0.4,4.2-0.6,6.5-0.6c3.6,0,6,0.7,7.6,2.2c1.3,1.1,2.1,2.9,2.1,5c0,3.4-2.2,5.7-4.9,6.7v0.1
				c2,0.7,3.2,2.6,3.9,5.3c0.9,3.7,1.5,6.2,2,7.2h-3.5c-0.4-0.7-1-3-1.7-6.3c-0.8-3.6-2.2-5-5.3-5.1h-3.2v11.4H739V166.2z
				 M742.3,178.1h3.5c3.6,0,5.9-2,5.9-5c0-3.4-2.5-4.9-6-4.9c-1.6,0-2.8,0.2-3.4,0.3V178.1z"/>
			<path class="st0" d="M764.4,183.8l-2.7,8.3h-3.5l8.9-26.2h4.1l9,26.2h-3.6l-2.8-8.3H764.4z M773,181.2l-2.6-7.6
				c-0.5-1.7-0.9-3.3-1.3-4.8h-0.1c-0.3,1.5-0.8,3.2-1.3,4.8l-2.6,7.6H773z"/>
			<path class="st0" d="M425.6,212.5h3.4V236h11.2v2.8h-14.6V212.5z"/>
			<path class="st0" d="M448.4,230.5l-2.7,8.3h-3.5l8.9-26.3h4.1l9,26.3h-3.6l-2.8-8.3H448.4z M457,227.9l-2.6-7.6
				c-0.5-1.7-0.9-3.3-1.3-4.8H453c-0.4,1.5-0.8,3.2-1.3,4.8l-2.6,7.6H457z"/>
			<path class="st0" d="M489.8,226.5h-10.2v9.5H491v2.8h-14.8v-26.3h14.2v2.8h-10.8v8.3h10.2V226.5z"/>
			<path class="st0" d="M495.4,212.9c2.1-0.3,4.6-0.5,7.2-0.5c4.9,0,8.3,1.1,10.6,3.2c2.4,2.1,3.7,5.2,3.7,9.5
				c0,4.3-1.4,7.8-3.8,10.2c-2.5,2.5-6.5,3.8-11.6,3.8c-2.4,0-4.4-0.1-6.2-0.3V212.9z M498.8,236.1c0.9,0.2,2.1,0.2,3.4,0.2
				c7.3,0,11.2-4.1,11.2-11.1c0-6.3-3.5-10.1-10.6-10.1c-1.8,0-3.1,0.2-4,0.4V236.1z"/>
			<path class="st0" d="M524.7,212.5v15.6c0,5.8,2.6,8.3,6.1,8.3c3.9,0,6.4-2.6,6.4-8.3v-15.6h3.4v15.4c0,8.1-4.3,11.3-9.9,11.3
				c-5.4,0-9.4-3-9.4-11.2v-15.5H524.7z"/>
			<path class="st0" d="M564.8,238c-1.2,0.6-3.7,1.2-6.9,1.2c-7.4,0-12.9-4.7-12.9-13.3c0-8.3,5.6-13.8,13.7-13.8
				c3.2,0,5.3,0.7,6.2,1.2l-0.9,2.8c-1.2-0.6-3.1-1.1-5.3-1.1c-6.1,0-10.2,3.9-10.2,10.8c0,6.5,3.7,10.6,10.1,10.6
				c2.1,0,4.2-0.4,5.6-1.1L564.8,238z"/>
			<path class="st0" d="M573.5,230.5l-2.7,8.3h-3.5l8.9-26.3h4.1l8.9,26.3h-3.6l-2.8-8.3H573.5z M582.1,227.9l-2.6-7.6
				c-0.6-1.7-0.9-3.3-1.3-4.8h-0.1c-0.4,1.5-0.8,3.2-1.3,4.8l-2.6,7.6H582.1z"/>
			<path class="st0" d="M610.9,238c-1.2,0.6-3.7,1.2-6.9,1.2c-7.4,0-12.9-4.7-12.9-13.3c0-8.3,5.6-13.8,13.7-13.8
				c3.2,0,5.3,0.7,6.2,1.2l-0.9,2.8c-1.2-0.6-3.1-1.1-5.2-1.1c-6.2,0-10.3,3.9-10.3,10.8c0,6.5,3.7,10.6,10,10.6
				c2.1,0,4.2-0.4,5.6-1.1L610.9,238z"/>
			<path class="st0" d="M618.5,212.5v26.3h-3.4v-26.3H618.5z"/>
			<path class="st0" d="M634.7,239.2c-7,0-11.8-5.4-11.8-13.3c0-8.3,5.1-13.8,12.1-13.8c7.2,0,11.8,5.5,11.8,13.3
				C646.9,234.4,641.4,239.2,634.7,239.2L634.7,239.2z M634.8,236.5c5.4,0,8.4-4.9,8.4-10.9c0-5.2-2.7-10.7-8.4-10.7
				c-5.6,0-8.5,5.3-8.5,10.9C626.4,231.4,629.5,236.5,634.8,236.5L634.8,236.5z M641,206.5l-5,4.6h-2.8l3.7-4.6H641z"/>
			<path class="st0" d="M651.3,238.8v-26.3h3.7l8.4,13.3c1.9,3.1,3.5,5.8,4.7,8.5l0.1,0c-0.3-3.5-0.4-6.7-0.4-10.8v-11h3.2v26.3
				h-3.4l-8.3-13.3c-1.8-2.9-3.6-5.9-4.9-8.8l-0.1,0c0.2,3.3,0.2,6.5,0.2,10.8v11.2H651.3z"/>
			<path class="st0" d="M684.7,234.7c1.5,1,3.7,1.7,6,1.7c3.5,0,5.5-1.8,5.5-4.5c0-2.4-1.4-3.9-4.9-5.2c-4.3-1.6-6.9-3.8-6.9-7.5
				c0-4.1,3.4-7.1,8.5-7.1c2.6,0,4.6,0.6,5.8,1.3l-0.9,2.8c-0.8-0.5-2.6-1.2-4.9-1.2c-3.6,0-4.9,2.1-4.9,3.9c0,2.5,1.6,3.7,5.2,5.1
				c4.4,1.8,6.7,3.9,6.7,7.7c0,4-3,7.6-9.2,7.6c-2.5,0-5.3-0.8-6.7-1.7L684.7,234.7z"/>
			<path class="st0" d="M707.8,212.5v15.6c0,5.8,2.6,8.3,6.1,8.3c3.9,0,6.4-2.6,6.4-8.3v-15.6h3.4v15.4c0,8.1-4.3,11.3-9.9,11.3
				c-5.4,0-9.4-3-9.4-11.2v-15.5H707.8z"/>
			<path class="st0" d="M729.6,212.9c1.6-0.3,3.8-0.5,6.5-0.5c3.4,0,5.8,0.8,7.4,2.2c1.4,1.2,2.3,3.2,2.3,5.5c0,2.4-0.7,4.2-2.1,5.6
				c-1.8,1.9-4.7,2.9-8,2.9c-1,0-1.9,0-2.7-0.2v10.5h-3.4V212.9z M733,225.5c0.7,0.2,1.7,0.3,2.8,0.3c4.1,0,6.6-2,6.6-5.6
				c0-3.5-2.5-5.2-6.2-5.2c-1.5,0-2.6,0.2-3.2,0.3V225.5z"/>
			<path class="st0" d="M763.8,226.5h-10.2v9.5H765v2.8h-14.8v-26.3h14.2v2.8h-10.8v8.3h10.2V226.5z"/>
			<path class="st0" d="M769.5,212.9c1.7-0.3,4.2-0.6,6.5-0.6c3.6,0,6,0.7,7.6,2.2c1.3,1.1,2.1,2.9,2.1,5c0,3.4-2.2,5.7-4.9,6.7v0.1
				c2,0.7,3.2,2.6,3.9,5.3c0.9,3.7,1.5,6.2,2,7.2H783c-0.4-0.7-1-3-1.7-6.3c-0.8-3.6-2.2-5-5.3-5.1h-3.2v11.4h-3.4V212.9z
				 M772.8,224.9h3.5c3.6,0,5.9-2,5.9-5c0-3.4-2.4-4.9-6-4.9c-1.6,0-2.8,0.2-3.3,0.3V224.9z"/>
			<path class="st0" d="M793.8,212.5v26.3h-3.4v-26.3H793.8z"/>
			<path class="st0" d="M810,239.2c-7,0-11.8-5.4-11.8-13.3c0-8.3,5.1-13.8,12.2-13.8c7.2,0,11.8,5.5,11.8,13.3
				C822.1,234.4,816.7,239.2,810,239.2L810,239.2z M810.1,236.5c5.4,0,8.4-4.9,8.4-10.9c0-5.2-2.7-10.7-8.4-10.7
				c-5.6,0-8.4,5.3-8.4,10.9C801.7,231.4,804.7,236.5,810.1,236.5L810.1,236.5z"/>
			<path class="st0" d="M826.5,212.9c1.7-0.3,4.2-0.6,6.5-0.6c3.6,0,6,0.7,7.6,2.2c1.3,1.1,2.1,2.9,2.1,5c0,3.4-2.2,5.7-4.9,6.7v0.1
				c2,0.7,3.2,2.6,3.9,5.3c0.9,3.7,1.5,6.2,2,7.2h-3.5c-0.4-0.7-1-3-1.7-6.3c-0.8-3.6-2.2-5-5.3-5.1h-3.2v11.4h-3.4V212.9z
				 M829.9,224.9h3.5c3.6,0,5.9-2,5.9-5c0-3.4-2.5-4.9-6-4.9c-1.6,0-2.8,0.2-3.4,0.3V224.9z"/>
			<path class="st0" d="M860,230.5l-2.7,8.3h-3.5l8.9-26.3h4.1l9,26.3h-3.6l-2.8-8.3H860z M868.6,227.9l-2.6-7.6
				c-0.5-1.7-0.9-3.3-1.3-4.8h-0.1c-0.4,1.5-0.8,3.2-1.3,4.8l-2.6,7.6H868.6z"/>
			<path class="st0" d="M880.9,239.2c-1.3,0-2.3-1.1-2.3-2.5c0-1.4,1-2.4,2.3-2.4c1.4,0,2.3,1,2.3,2.4
				C883.3,238.2,882.4,239.2,880.9,239.2L880.9,239.2z"/>
			<path class="st0" d="M906,238c-1.2,0.6-3.8,1.2-6.9,1.2c-7.4,0-12.9-4.7-12.9-13.3c0-8.3,5.6-13.8,13.7-13.8
				c3.2,0,5.3,0.7,6.2,1.2l-0.9,2.8c-1.2-0.6-3.1-1.1-5.3-1.1c-6.2,0-10.3,3.9-10.3,10.8c0,6.5,3.7,10.6,10,10.6
				c2.1,0,4.2-0.4,5.6-1.1L906,238z"/>
			<path class="st0" d="M911.6,239.2c-1.3,0-2.3-1.1-2.3-2.5c0-1.4,1-2.4,2.3-2.4c1.4,0,2.3,1,2.3,2.4
				C914,238.2,913,239.2,911.6,239.2L911.6,239.2z"/>
		</g>
		<line class="st1" x1="422.7" y1="249.2" x2="919.3" y2="249.2"/>
	</g>
</g>
</svg>
