<?xml version="1.0" encoding="utf-8"?>
<!-- Generator: Adobe Illustrator 22.1.0, SVG Export Plug-In . SVG Version: 6.00 Build 0)  -->
<svg version="1.1" id="Layer_2" xmlns="http://www.w3.org/2000/svg" xmlns:xlink="http://www.w3.org/1999/xlink" x="0px" y="0px"
	 viewBox="0 0 1053.4 347.9" style="enable-background:new 0 0 1053.4 347.9;" xml:space="preserve">
<style type="text/css">
	.st0{fill:#070308;}
</style>
<g transform="translate(-45.000000,232.808490) rotate(-360.00) scale(0.095238,-0.095238)">
	<path class="st0" d="M1841.5,2002.9c-5.6-5.6-9.8-614.1-9.8-1352.7V-689.9H2485h653.3v58.8v58.8h-587.5h-587.5V653v1226.8h588.9
		h587.5l-4.2,62.9l-4.2,61.5l-640.7,4.2C2139.5,2009.9,1847.1,2008.5,1841.5,2002.9z"/>
	<path class="st0" d="M2066.7,1240.6V704.8h535.8h535.8v535.8v537.2h-535.8h-535.8V1240.6z M2812.3,1590.3
		c33.6-18.2,71.3-33.6,82.5-33.6c26.6,0,37.8-32.2,37.8-103.5s-14-72.7-50.4-5.6c-88.1,160.9-314.7,211.2-458.8,100.7
		c-179.1-135.7-144.1-509.2,57.4-623.9c123.1-68.5,305-33.6,400.1,78.3c56,64.3,60.2,61.5,36.4-19.6
		c-18.2-65.7-79.7-97.9-225.2-116.1c-285.4-36.4-467.2,103.5-470,359.5c-1.4,174.9,96.5,328.7,242,384.7
		C2543.7,1640.6,2736.8,1629.4,2812.3,1590.3z"/>
	<path class="st0" d="M3646,1678.4c-16.8-18.2-8.4-30.8,29.4-39.2c21-5.6,43.4-26.6,50.4-47.6c15.4-39.2,19.6-651.9,5.6-705
		c-4.2-16.8-23.8-39.2-43.4-47.6c-81.1-36.4-33.6-46.2,225.2-46.2c281.2,1.4,291,2.8,344.1,83.9c14,22.4,26.6,57.4,26.6,76.9v35
		l-40.6-37.8c-57.4-56-141.3-86.7-260.2-95.1c-138.5-11.2-142.7-5.6-137.1,195.8l4.2,159.5l88.1,4.2c123.1,7,152.5-4.2,177.7-64.3
		c12.6-28,28-47.6,36.4-42c18.2,11.2,18.2,251.8,0,263c-8.4,5.6-23.8-9.8-36.4-33.6c-28-54.6-46.2-60.2-170.7-60.2h-102.1v166.5
		v167.9l58.8,9.8c64.3,11.2,197.2-2.8,237.8-23.8c14-7,26.6-30.8,29.4-51.8c2.8-21,12.6-42,22.4-44.8c19.6-7,39.2,72.7,30.8,134.3
		l-4.2,39.2l-281.2,5.6C3781.7,1684,3651.6,1682.6,3646,1678.4z"/>
	<path class="st0" d="M5664.6,1675.6c-76.9-25.2-130.1-61.5-195.8-132.9c-191.6-214-149.7-562.3,83.9-698
		c128.7-74.1,391.7-76.9,535.8-4.2c60.2,29.4,69.9,42,83.9,103.5c12.6,49,14,72.7,1.4,79.7c-8.4,5.6-18.2,1.4-21-8.4
		c-14-42-82.5-104.9-153.9-139.9c-86.7-44.8-229.4-51.8-310.5-18.2c-219.6,92.3-296.6,491-131.5,682.6
		c67.1,79.7,151.1,110.5,281.2,102.1c124.5-7,198.6-51.8,270-163.7c25.2-42,49-78.3,51.8-82.5c16.8-22.4,26.6,36.4,19.6,117.5
		c-5.6,71.3-12.6,93.7-29.4,89.5c-11.2-1.4-57.4,14-102.1,36.4c-67.1,35-102.1,42-214,44.8
		C5761.1,1686.8,5684.2,1682.6,5664.6,1675.6z"/>
	<path class="st0" d="M6600.4,1629.4c-271.4-68.5-404.3-346.9-289.6-612.7c67.1-158.1,198.6-230.8,398.7-221
		c186,8.4,291,69.9,367.9,218.2c28,54.6,33.6,86.7,33.6,205.6c0,156.7-22.4,218.2-111.9,303.6
		C6904,1614,6727.7,1661.6,6600.4,1629.4z M6811.7,1555.3c83.9-42,167.9-146.9,194.4-244.8c54.6-193,4.2-355.3-134.3-440.6
		c-71.3-43.4-214-46.2-295.2-4.2c-74.1,37.8-155.3,134.3-184.6,218.2c-26.6,79.7-29.4,218.2-5.6,299.4
		C6439.6,1560.9,6639.6,1642,6811.7,1555.3z"/>
	<path class="st0" d="M8877.8,1629.4c-149.7-37.8-274.2-152.5-314.7-291c-43.4-152.5-4.2-338.5,95.1-436.4
		c75.5-76.9,142.7-100.7,292.4-106.3c131.5-5.6,139.9-4.2,253.2,49l116.1,54.6l4.2,138.5c4.2,111.9,9.8,142.7,30.8,158.1
		c14,11.2,26.6,23.8,26.6,28c0,5.6-57.4,9.8-125.9,9.8c-124.5,0-163.7-18.2-79.7-36.4l43.4-9.8v-128.7
		c0-141.3-15.4-172.1-107.7-205.6c-57.4-22.4-193-19.6-249,4.2c-173.5,74.1-258.8,348.3-172.1,549.8
		c76.9,176.3,261.6,240.6,439.2,151.1c53.2-28,163.7-138.5,163.7-165.1c0-7,9.8-12.6,23.8-12.6c19.6,0,22.4,12.6,12.6,92.3
		c-9.8,92.3-25.2,128.7-43.4,100.7c-5.6-9.8-37.8-1.4-88.1,21C9108.6,1635,8963.1,1651.8,8877.8,1629.4z"/>
	<path class="st0" d="M10199.7,1625.2c-244.8-68.5-369.3-335.7-275.6-587.5c35-93.7,141.3-201.4,226.6-229.4
		c83.9-28,295.2-14,367.9,25.2c141.3,72.7,219.6,211.2,219.6,386.1c0,130.1-33.6,216.8-117.5,299.4
		C10518.6,1622.4,10345.2,1665.8,10199.7,1625.2z M10434.7,1553.9c120.3-56,195.8-184.6,205.6-352.5c5.6-96.5,2.8-121.7-29.4-191.6
		c-61.5-135.7-173.5-193-325.9-170.7c-107.7,16.8-181.9,75.5-242,193c-43.4,83.9-50.4,113.3-51.8,205.6
		C9989.9,1518.9,10195.5,1665.8,10434.7,1553.9z"/>
	<path class="st0" d="M4349.7,1615.4c-4.2-7,15.4-23.8,43.4-35l53.2-22.4v-338.5c0-318.9-2.8-339.9-29.4-367.9
		c-16.8-16.8-36.4-29.4-44.8-29.4c-8.4,0-14-7-14-14c0-9.8,92.3-15.4,250.4-15.4h251.8l50.4,51.8c29.4,32.2,49,68.5,49,90.9v39.2
		L4926,944c-67.1-62.9-130.1-83.9-253.2-83.9l-117.5-1.4l-4.2,348.3l-2.8,348.3l36.4,25.2c21,12.6,37.8,29.4,37.8,36.4
		C4622.4,1635,4360.8,1633.6,4349.7,1615.4z"/>
	<path class="st0" d="M7192.1,1615.4c0-8.4,18.2-22.4,40.6-30.8c21-8.4,44.8-22.4,50.4-32.2c14-21,15.4-619.7,2.8-668.7
		c-5.6-19.6-25.2-40.6-44.8-47.6c-83.9-32.2-28-43.4,214-43.4h249l44.8,44.8c44.8,44.8,72.7,109.1,54.6,127.3
		c-4.2,4.2-30.8-12.6-58.8-36.4c-58.8-51.8-172.1-82.5-272.8-74.1l-67.1,4.2l-4.2,348.3l-2.8,348.3l36.4,25.2
		c21,12.6,37.8,29.4,37.8,36.4c0,7-62.9,14-139.9,14C7246.7,1630.8,7192.1,1623.8,7192.1,1615.4z"/>
	<path class="st0" d="M7867.8,1616.8c0-8.4,18.2-23.8,40.6-33.6l40.6-19.6l4.2-353.9l2.8-352.5l-36.4-18.2
		c-81.1-36.4-36.4-46.2,214-46.2h251.8l42,46.2c43.4,46.2,68.5,109.1,51.8,125.9c-5.6,5.6-28-8.4-51.8-30.8
		c-50.4-49-156.7-82.5-260.2-82.5c-100.7,0-110.5,18.2-104.9,194.4l4.2,135.7l86.7,4.2c120.3,7,149.7-2.8,167.9-56
		c26.6-74.1,46.2-35,46.2,89.5c0,93.7-4.2,117.5-22.4,117.5c-11.2,0-21-9.8-21-22.4c0-43.4-65.7-68.5-165.1-62.9l-92.3,4.2
		l-4.2,124.5c-7,193-8.4,191.6,120.3,191.6c138.5,0,184.6-16.8,184.6-65.7c0-19.6,7-40.6,15.4-44.8c19.6-12.6,46.2,61.5,40.6,116.1
		l-4.2,44.8l-275.6,4.2C7972.7,1629.4,7867.8,1625.2,7867.8,1616.8z"/>
	<path class="st0" d="M9498.9,1619.6c0-7,19.6-22.4,43.4-36.4l44.8-25.2v-345.5V867.1l-44.8-22.4c-25.2-12.6-40.6-29.4-36.4-37.8
		c12.6-19.6,286.8-18.2,286.8,1.4c0,8.4-18.2,21-40.6,29.4s-44.8,23.8-51.8,33.6c-5.6,9.8-11.2,163.7-11.2,344.1
		c0,307.7,1.4,328.7,29.4,356.7c16.8,15.4,36.4,29.4,44.8,29.4c7,0,14,5.6,14,14s-56,15.4-139.9,15.4
		C9560.4,1630.8,9498.9,1625.2,9498.9,1619.6z"/>
	<path class="st0" d="M7187.9,588.7c-42-40.6-71.3-76.9-65.7-83.9c18.2-16.8,179.1,76.9,184.6,109.1
		C7316.6,672.6,7264.9,662.8,7187.9,588.7z"/>
	<path class="st0" d="M2066.7,65.5v-535.8h535.8h535.8V65.5v537.2h-535.8h-535.8V65.5z M2454.2,132.7
		c71.3-153.9,134.3-279.8,139.9-279.8c5.6,0,69.9,125.9,144.1,279.8L2872.5,411h62.9c60.2,0,61.6-1.4,26.6-19.6l-36.4-18.2
		l-4.2-250.4c-4.2-292.4,4.2-358.1,56-383.3c32.2-16.8,23.8-18.2-69.9-18.2l-106.3-1.4l30.8,32.2c29.4,29.4,30.8,40.6,22.4,172.1
		c-5.6,78.3-9.8,176.3-9.8,218.2c0,46.2-7,78.3-15.4,78.3c-8.4,0-68.5-110.5-132.9-243.4c-64.3-134.3-121.7-240.6-128.7-236.4
		c-5.6,4.2-60.2,110.5-118.9,236.4c-60.2,124.5-113.3,228-118.9,228c-12.6,0-25.2-349.7-15.4-408.5c2.8-18.2,22.4-42,43.4-54.6
		c36.4-19.6,33.6-21-61.5-21c-99.3,0-100.7,0-68.5,25.2c29.4,25.2,33.6,47.6,47.6,253.2c18.2,254.6,9.8,325.9-40.6,376.3l-35,35
		h62.9h61.5L2454.2,132.7z"/>
	<path class="st0" d="M5635.2,499.2c0-8.4,15.4-22.4,33.6-30.8c18.2-8.4,43.4-29.4,54.6-47.6c29.4-46.2,36.4-279.8,15.4-535.8
		c-16.8-211.2-18.2-216.8-60.2-253.2c-23.8-21-43.4-42-43.4-47.6c0-5.6,62.9-9.8,139.9-9.8c142.7,0,170.7,12.6,99.3,46.2
		c-69.9,33.6-76.9,69.9-67.1,346.9c4.2,138.5,12.6,251.8,18.2,251.8c4.2,0,74.1-138.5,155.3-309.1s152.5-310.5,160.9-310.5
		s88.1,145.5,176.3,324.5c88.1,179.1,165.1,325.9,170.7,325.9c12.6,0,30.8-563.7,18.2-594.5c-4.2-14-25.2-30.8-43.4-39.2
		c-74.1-28-33.6-42,111.9-42c146.9,0,186,15.4,110.5,43.4c-19.6,7-42,25.2-49,39.2c-7,15.4-18.2,187.4-23.8,383.3
		c-11.2,379.1-7,404.3,58.8,429.5c61.5,23.8,40.6,44.8-44.8,44.8h-81.1l-183.3-367.9c-102.1-202.8-190.2-365.1-195.8-360.9
		c-7,4.2-86.7,169.3-179.1,367.9l-167.9,360.9h-92.3C5674.4,514.5,5635.2,507.6,5635.2,499.2z"/>
	<path class="st0" d="M9214.9,448.8c-89.5-32.2-173.5-97.9-219.6-169.3c-160.9-253.2-78.3-579.1,172.1-684
		c124.5-51.8,359.5-40.6,491,25.2c61.6,30.8,68.5,39.2,79.7,104.9c12.6,64.3,0,116.1-15.4,71.3c-16.8-47.6-97.9-118.9-169.3-149.7
		c-202.8-88.1-393.1-14-486.8,191.6c-36.4,78.3-42,282.6-11.2,372.1c46.2,131.5,167.9,214,314.7,214c141.3,1.4,237.8-56,314.7-186
		c19.6-35,42-62.9,49-62.9c8.4,0,14,46.2,14,103.5c0,89.5-2.8,102.1-28,102.1c-15.4,0-65.7,18.2-113.3,39.2
		C9501.7,469.8,9305.8,483.8,9214.9,448.8z"/>
	<path class="st0" d="M10149.3,454.4c-128.7-39.2-264.4-180.5-300.8-313.3c-23.8-89.5-8.4-253.2,32.2-338.5
		c76.9-160.9,200-235,395.9-235c103.5,0,138.5,5.6,205.6,37.8c169.3,78.3,256,219.6,256,416.9c0,263-163.7,432.2-425.3,442
		C10248.7,467,10174.5,462.8,10149.3,454.4z M10430.5,374.7c205.6-120.3,277-447.6,138.5-639.3c-118.9-165.1-370.7-167.9-512-5.6
		c-85.3,96.5-110.5,172.1-110.5,321.7c0,146.9,23.8,212.6,106.3,291C10149.3,433.4,10307.4,447.4,10430.5,374.7z"/>
	<path class="st0" d="M6825.6,440.4c0-8.4,9.8-14,21-14c12.6,0,35-14,51.8-29.4c28-28,29.4-49,29.4-390.3v-360.9l-43.4-25.2
		c-25.2-14-44.8-29.4-44.8-36.4c0-5.6,121.7-9.8,270-9.8h270l44.8,50.4c44.8,50.4,71.3,106.3,56,120.3c-4.2,4.2-30.8-9.8-58.8-32.2
		c-28-21-82.5-47.6-120.3-60.2c-85.3-25.2-229.4-26.6-253.2-2.8c-11.2,11.2-16.8,72.7-16.8,174.9c0,177.7-2.8,174.9,121.7,174.9
		c92.3,0,145.5-25.2,156.7-72.7c4.2-19.6,16.8-37.8,26.6-40.6c12.6-5.6,18.2,28,18.2,125.9c0,141.3-15.4,176.3-44.8,104.9
		c-22.4-53.2-50.4-61.5-176.3-56l-95.1,4.2v162.3v160.9l134.3,4.2c120.3,4.2,139.9,1.4,166.5-25.2c15.4-16.8,29.4-43.4,29.4-60.2
		c0-18.2,7-28,18.2-25.2c11.2,4.2,21,39.2,22.4,89.5l5.6,83.9h-295.2C6933.4,455.8,6825.6,450.2,6825.6,440.4z"/>
	<path class="st0" d="M7579.6,436.2c75.5-47.6,132.9-113.3,229.4-261.6l106.3-162.3L7838.4-101c-148.3-214-179.1-253.2-222.4-274.2
		c-71.3-37.8-49-50.4,82.5-50.4c128.7,0,153.9,11.2,88.1,40.6c-19.6,9.8-36.4,22.4-36.4,29.4c0,8.4,44.8,81.1,97.9,165.1
		c113.3,173.5,86.7,177.7,222.4-43.4c76.9-123.1,76.9-127.3,47.6-146.9c-54.6-35-32.2-44.8,102.1-44.8c135.7,0,165.1,14,95.1,46.2
		c-40.6,18.2-286.8,393.1-285.4,435c1.4,37.8,207,314.7,260.2,348.3c25.2,15.4,46.2,33.6,47.6,40.6c0,5.6-57.4,9.8-128.7,9.8
		c-116.1,0-125.9-2.8-99.3-22.4c15.4-11.2,33.6-21,40.6-21c5.6,0,11.2-8.4,11.2-18.2c0-21-165.1-275.6-179.1-275.6
		c-11.2,0-138.5,191.6-163.7,247.6c-12.6,28-11.2,37.8,9.8,53.2c12.6,9.8,25.2,22.4,25.2,28c0,4.2-68.5,8.4-151.1,8.4
		C7579.6,453,7557.2,450.2,7579.6,436.2z"/>
	<path class="st0" d="M8491.7,440.4c5.6-8.4,18.2-14,29.4-14c11.2,0,30.8-11.2,43.4-23.8c19.6-19.6,23.8-75.5,23.8-380.5
		c0-306.4-4.2-360.9-23.8-380.5c-12.6-14-32.2-23.8-43.4-23.8c-12.6,0-21-9.8-21-22.4c0-18.2,26.6-21,153.9-21
		c146.9,0,200,16.8,117.5,37.8c-75.5,18.2-81.1,43.4-81.1,397.3c0,179.1,7,342.7,14,363.7c8.4,21,32.2,44.8,51.8,51.8
		c21,8.4,37.8,18.2,37.8,22.4s-69.9,8.4-155.3,8.4C8537.8,455.8,8486.1,450.2,8491.7,440.4z"/>
	<path class="st0" d="M3653,397c0-8.4,8.4-15.4,21-15.4c11.2,0,30.8-9.8,43.4-22.4c19.6-21,23.8-74.1,23.8-366.5
		s-4.2-346.9-23.8-366.5c-12.6-12.6-29.4-22.4-36.4-22.4c-8.4,0-14-7-14-15.4c0-19.6,416.9-19.6,486.8,0
		c99.3,28,191.6,103.5,237.8,193c57.4,113.3,71.3,285.4,28,381.9c-39.2,90.9-104.9,160.9-188.8,204.2
		c-67.1,33.6-89.5,36.4-324.5,40.6C3732.8,411,3653,408.2,3653,397z M4151,329.9c132.9-65.7,195.8-190.2,194.4-376.3
		c-1.4-152.5-65.7-268.6-174.9-316.1c-61.5-25.2-212.6-25.2-277,1.4l-50.4,21V5.4c0,313.3,2.8,346.9,25.2,360.9
		C3910.4,392.8,4068.5,373.3,4151,329.9z"/>
	<path class="st0" d="M4518.9,397c0-8.4,9.8-15.4,21-15.4s30.8-9.8,44.8-22.4c19.6-21,22.4-74.1,22.4-367.9v-344.1l-36.4-23.8
		c-21-12.6-36.4-29.4-36.4-36.4c0-7,111.9-12.6,250.4-12.6h250.4l42,42c40.6,40.6,71.3,111.9,54.6,128.7c-4.2,4.2-21-5.6-37.8-22.4
		c-61.6-61.5-121.7-81.1-251.8-82.5h-124.5l-4.2,165.1l-4.2,165.1h118.9H4947l21-51.8c32.2-78.3,50.4-49,50.4,81.1
		c0,118.9-19.6,162.3-43.4,97.9c-19.6-54.6-62.9-69.9-166.5-65.7l-90.9,4.2l-4.2,158.1l-4.2,158.1h137.1
		c139.9,0,172.1-11.2,172.1-60.2c0-26.6,25.2-51.8,37.8-39.2c4.2,4.2,11.2,40.6,16.8,82.5l8.4,75.5h-281.2
		C4622.4,411,4518.9,405.4,4518.9,397z"/>
</g>
</svg>
