<?xml version="1.0" encoding="utf-8"?>
<!-- Generator: Adobe Illustrator 22.1.0, SVG Export Plug-In . SVG Version: 6.00 Build 0)  -->
<svg version="1.1" id="Layer_2" xmlns="http://www.w3.org/2000/svg" xmlns:xlink="http://www.w3.org/1999/xlink" x="0px" y="0px"
	 viewBox="0 0 1053.4 347.9" style="enable-background:new 0 0 1053.4 347.9;" xml:space="preserve">
<style type="text/css">
	.st0{fill:#4C4C4C;}
	.st1{fill:#D68632;}
</style>
<g transform="translate(-32.256999,107.757052) rotate(-360.00) scale(0.095238,-0.095238)">
	<path class="st0" d="M5227.1,520.7c-461.4-139.3-808.2-393.2-1136.4-836c-89.8-120.8-161-226-161-235.3s-40.3-86.7-92.9-167.2
		l-92.9-145.5L3641.7-721c-92.9,127-365.4,343.7-433.5,343.7c-34.1,0,18.6-99.1,244.6-455.2l173.4-275.6l-216.8-325.1
		c-117.7-179.6-226-343.7-238.4-365.4c-18.6-31,18.6-40.3,151.7-40.3h179.6l139.3,241.5l139.3,244.6l142.4-244.6l142.4-241.5h176.5
		c96,0,173.4,9.3,173.4,21.7c0,15.5-102.2,179.6-226,368.5c-123.9,185.8-226,359.2-226,380.9c0,34.1,241.5,433.5,325.1,538.8
		c15.5,21.7,117.7,148.6,222.9,288c216.8,275.6,526.4,541.9,848.4,721.5C5601.8,613.6,5573.9,622.8,5227.1,520.7z"/>
	<path class="st0" d="M7431.8-80L7280-244.2V-1043v-795.8h130.1c114.6,0,130.1,6.2,130.1,80.5c0,99.1,15.5,99.1,133.1,0
		c123.9-105.3,219.8-127,402.5-99.1c300.4,43.4,501.6,325.1,501.6,699.8c0,359.2-176.5,619.3-449,665.7
		c-161,27.9-365.4-27.9-445.9-117.7c-85.3-105-61.9-65-77.4,312.7l-18.6,384L7431.8-80z M8097.5-798.4
		c173.4-136.2,195.1-532.6,43.4-709.1c-61.9-74.3-102.2-89.8-229.1-89.8c-123.9,0-164.1,15.5-229.1,92.9
		c-68.1,77.4-77.4,123.9-77.4,306.5c0,120.8,21.7,253.9,43.4,297.3C7738.3-736.5,7958.2-686.9,8097.5-798.4z"/>
	<path class="st0" d="M2273.1-525.9c-291.1-127-452.1-433.5-408.7-783.4c52.6-430.4,433.5-641,956.8-529.5
		c136.2,31,164.1,49.5,164.1,105.3c0,120.8-37.2,139.3-334.4,136.2c-281.8,0-288,3.1-380.9,108.4c-52.6,55.7-96,133.1-96,170.3
		c0,58.8,21.7,65,449,65h445.9l9.3,80.5c9.3,133.1-55.7,374.7-130.1,479.9C2811.9-504.3,2502.2-426.8,2273.1-525.9z M2663.2-798.4
		c52.6-52.6,96-123.9,96-161c0-65-18.6-68.1-291.1-68.1c-161,0-294.2,9.3-294.2,18.6c0,12.4,21.7,68.1,49.5,127
		C2316.4-686.9,2514.6-649.8,2663.2-798.4z"/>
	<path class="st0" d="M4976.3-544.5c-529.5-204.4-569.7-1012.5-58.8-1251c89.8-40.3,226-77.4,297.3-77.4
		c120.8,0,365.4,46.4,387.1,71.2c6.2,6.2,3.1,58.8-6.2,117.7l-15.5,108.4l-170.3-21.7c-312.7-40.3-504.7,120.8-504.7,424.2
		c0,185.8,77.4,322,213.7,390.2c120.8,55.7,235.3,61.9,353,15.5c74.3-27.9,83.6-21.7,102.2,58.8c9.3,46.4,24.8,105.3,31,127
		c15.5,46.4-179.6,108.4-340.6,105.3C5199.2-476.4,5072.3-507.4,4976.3-544.5z"/>
	<path class="st0" d="M6162.2-519.7c-318.9-120.8-486.1-464.5-408.7-839.1c65-294.2,337.5-514,634.8-514
		c294.2,0,588.3,216.8,662.6,489.2c83.6,312.7-55.7,693.6-297.3,817.5C6592.6-482.6,6320.1-460.9,6162.2-519.7z M6595.7-801.5
		c210.6-210.6,161-696.7-83.6-798.9c-303.5-127-545,281.8-387.1,659.5c27.9,65,74.3,136.2,105.3,161
		C6320.1-711.7,6521.4-724.1,6595.7-801.5z"/>
	<path class="st0" d="M9048.1-519.7c-201.3-65-210.6-71.2-170.3-185.8c24.8-71.2,46.4-92.9,86.7-77.4
		c263.2,111.5,498.5,74.3,551.2-80.5l34.1-89.8l-235.3-40.3c-365.4-58.8-529.5-188.9-560.5-445.9c-43.3-346.8,405.6-560.5,706-340.6
		c114.6,86.7,127,86.7,127,6.2c0-55.7,21.7-65,145.5-65H9881l-3.1,430.4c0,235.3-12.4,486.1-27.9,554.3
		C9778.9-547.6,9429-402.1,9048.1-519.7z M9555.9-1315.5c0-219.8-185.8-368.5-368.5-300.4c-92.9,37.2-136.2,170.3-86.7,266.3
		c43.4,83.6,207.5,157.9,346.8,157.9C9549.7-1191.7,9555.9-1194.8,9555.9-1315.5z"/>
	<path class="st1" d="M5227.1,520.7c-461.4-139.3-808.2-393.2-1136.4-836c-89.8-120.8-161-226-161-235.3c0-9.3-40.3-86.7-92.9-167.2
		l-92.9-145.5L3641.7-721c-92.9,127-365.4,343.7-433.5,343.7c-34.1,0,18.6-99.1,244.6-455.2l173.4-275.6l-21.1-31.6
		c68.5-31.3,111.6-91.8,129.9-160c4.5-8,7.8-16.5,11.4-25c14.2-9.3,25.1-20.4,31.4-33.7l3.2,5.7l1.2-2.1c7,14.7,19.5,26.7,35.6,36.5
		c20.7,45.3,54.5,85.9,102,116.5c28.2,18.1,60.5,29,94.1,33.2c-31.3,54.2-50.2,91.5-50.2,100.8c0,34.1,241.5,433.5,325.1,538.8
		c15.5,21.7,117.7,148.6,222.9,288c216.8,275.6,526.4,541.9,848.4,721.5C5601.8,613.6,5573.9,622.8,5227.1,520.7z"/>
</g>
</svg>
