<?xml version="1.0" encoding="utf-8"?>
<!-- Generator: Adobe Illustrator 22.0.1, SVG Export Plug-In . SVG Version: 6.00 Build 0)  -->
<svg version="1.1" id="Capa_1" xmlns="http://www.w3.org/2000/svg" xmlns:xlink="http://www.w3.org/1999/xlink" x="0px" y="0px"
	 viewBox="0 0 16 16" style="enable-background:new 0 0 16 16;" xml:space="preserve">
<style type="text/css">
	.st0{fill:#0098FF;}
	.st1{fill:#0098FF;stroke:#FFFFFF;stroke-width:1.716357e-02;stroke-miterlimit:10;}
	.st2{enable-background:new    ;}
</style>
<path class="st0" d="M10,9.9c-0.1,0-0.1,0-0.2,0C9.2,9.8,8.6,9.5,8.2,9.1C7.7,8.5,7.5,7.9,7.5,7.2c0.1-0.6,0.3-1.2,0.8-1.6
	C8.8,5.3,9.3,5,9.9,5c0.5,0,1,0.1,1.4,0.4c0.4,0.3,0.7,0.6,0.9,1c0,0.1,0,0.1-0.1,0.2l0,0c-0.1,0-0.1,0-0.2-0.1
	c-0.2-0.4-0.5-0.7-0.8-0.9c-0.4-0.2-0.8-0.4-1.2-0.4c-0.5,0-1,0.2-1.4,0.6C8.1,6.2,7.8,6.7,7.8,7.3c-0.1,1.3,1,2.3,2,2.4
	c0.6,0.1,1.1-0.2,1.4-0.4c0.1,0,0.1,0,0.2,0l0,0c0,0.1,0,0.1,0,0.2C11.1,9.6,10.6,9.9,10,9.9z"/>
<path class="st1" d="M10.8,6.4c0,0-0.1,0.1-0.2,0c-1-0.9-3.4-2.9-4.3-2.8c-0.2,0-0.2,0.1-0.2,0.1c-0.2,0.4,0.3,1.4,0.7,2
	c0,0.1,0,0.1,0,0.2l0,0c-0.1,0-0.1,0-0.2,0c-0.3-0.4-1-1.7-0.8-2.3c0.1-0.1,0.2-0.3,0.4-0.3c0.5,0,1.4,0.5,2.7,1.5
	c0.8,0.6,1.5,1.2,1.7,1.4C10.8,6.3,10.8,6.4,10.8,6.4L10.8,6.4z"/>
<path class="st1" d="M12.8,9l-1.6-2c0-0.1,0-0.1,0-0.2l0,0c0.1,0,0.1,0,0.2,0l1.6,2c0,0.1,0,0.1,0,0.2l0,0C12.9,9.1,12.8,9.1,12.8,9
	z"/>
<path class="st1" d="M13.5,11.7c-0.1,0-0.1,0-0.2,0c-0.7-0.1-1.7-0.8-2-1c-0.1,0-0.1-0.1,0-0.2l0,0c0-0.1,0.1-0.1,0.2,0
	c0.3,0.2,1.2,0.9,1.9,1c0.2,0,0.4,0,0.4-0.1c0-0.1,0.1-0.2,0-0.2c0-0.1,0-0.1,0.1-0.1l0,0c0.1,0,0.2,0,0.2,0.1c0,0.1,0,0.3-0.1,0.4
	C13.8,11.6,13.7,11.7,13.5,11.7z"/>
<path class="st1" d="M6.3,11.7c-0.2,0-0.4-0.1-0.4-0.3c-0.2-1,1.1-2.7,1.4-3.1c0-0.1,0.1-0.1,0.2,0l0,0c0.1,0,0.1,0.1,0,0.2
	C7.4,8.6,7,9,6.8,9.5c-0.5,0.8-0.7,1.4-0.6,1.8c0,0.1,0.1,0.1,0.2,0.1c0.3,0,0.9-0.1,1.8-0.6c1-0.6,2.1-1.5,3.3-2.8
	c0-0.1,0.1-0.1,0.2,0l0,0c0.1,0,0.1,0.1,0,0.2C8.8,11.1,7,11.6,6.3,11.7C6.3,11.7,6.3,11.7,6.3,11.7z"/>
<path class="st1" d="M13.2,8.7L13.2,8.7c0-0.1,0-0.1,0.1-0.1c0.2,0,0.6-0.1,1-0.3c0.4-0.1,1-0.4,1-0.7c0,0,0,0,0-0.1
	c-0.1-0.1-0.4-0.5-1.5-0.8c-0.1,0-0.1-0.1-0.1-0.1l0,0c0-0.1,0.1-0.1,0.1-0.1c1.4,0.4,1.6,0.9,1.7,1l0,0v0c0,0.4-0.4,0.7-1.1,1
	c-0.4,0.1-0.8,0.2-1,0.3C13.3,8.8,13.2,8.7,13.2,8.7z"/>
<path class="st1" d="M9.8,9C9.2,9,7,8.9,6.3,8.7c-0.1,0-0.1-0.1-0.1-0.2l0,0c0,0,0.1-0.1,0.1,0c0.5,0.2,2.2,0.3,3.4,0.3
	c0.1,0,0.1,0,0.1,0.1v0C9.9,9,9.9,9,9.8,9z"/>
<path class="st1" d="M4.7,8c0,0-0.1,0-0.2,0C4.4,7.8,4.4,7.7,4.4,7.6c0-0.3,0.2-0.5,0.3-0.5l0,0C5.3,6.6,7,6.3,7.4,6.2
	c0.1,0,0.1,0,0.1,0.1l0,0c0,0.1,0,0.1-0.1,0.1C7,6.5,5.4,6.8,4.8,7.3c0,0,0,0,0,0c0,0-0.2,0.2-0.2,0.3c0,0.1,0,0.1,0.1,0.2
	C4.7,7.9,4.7,7.9,4.7,8L4.7,8z"/>
<path class="st1" d="M10.9,8.9L10.9,8.9c0-0.1,0-0.1,0.1-0.1l1.1-0.1c0.1,0,0.1,0,0.1,0.1l0,0c0,0.1,0,0.1-0.1,0.1L11,9
	C11,9,10.9,9,10.9,8.9z"/>
<path class="st1" d="M12,7.3L12,7.3c0,0-0.1-0.1,0-0.2c0.6-0.7,1.9-2.5,1.8-3.2c0,0,0,0,0-0.1c0,0,0-0.1-0.1-0.2
	c-0.1-0.1-0.2-0.1-0.4-0.1c-0.1,0-0.1,0-0.1-0.1l0,0c0-0.1,0-0.1,0.1-0.1c0.2,0,0.4,0,0.6,0.1C14,3.7,14,3.9,14,3.9c0,0,0,0,0,0.1
	c0,0.4-0.3,1.1-0.9,2.1c-0.4,0.6-0.8,1-0.9,1.2C12.2,7.3,12.1,7.3,12,7.3z"/>
<path class="st1" d="M10.8,5L10.8,5c0,0,0-0.1,0-0.2l0.6-0.4c0,0,0.1,0,0.2,0l0,0c0,0,0,0.1,0,0.2L11,5C10.9,5,10.8,5,10.8,5z"/>
<path class="st1" d="M9.8,7.4C9.8,7.4,9.7,7.4,9.8,7.4c-0.1,0-0.2-0.1-0.2-0.1c-0.1,0-0.1,0-0.1,0.1c0,0-0.1,0-0.1,0l0,0
	c0,0,0-0.1,0-0.1c0,0,0.1-0.1,0.2-0.1C9.6,7.2,9.7,7.2,9.8,7.4C9.8,7.3,9.8,7.3,9.8,7.4L9.8,7.4z"/>
<path class="st1" d="M10.8,7.4C10.8,7.4,10.8,7.4,10.8,7.4c-0.1,0-0.2-0.1-0.2-0.1c-0.1,0-0.1,0-0.1,0.1c0,0-0.1,0-0.1,0l0,0
	c0,0,0-0.1,0-0.1c0,0,0.1-0.1,0.2-0.1C10.7,7.2,10.8,7.2,10.8,7.4C10.9,7.3,10.9,7.3,10.8,7.4L10.8,7.4z"/>
<path class="st1" d="M10.5,7.7H9.7c0,0-0.1,0.4,0.4,0.3C10.5,8,10.5,7.7,10.5,7.7z"/>
<g class="st2">
	<path class="st0" d="M1.1,6.1C1,6.1,0.9,6.1,0.9,6C0.8,6,0.8,5.9,0.8,5.9c0-0.1,0-0.1,0.1-0.2l0.7-0.9c0.1-0.1,0.1-0.1,0.2-0.1
		c0.1,0,0.1,0,0.2,0.1C2,4.8,2.1,4.8,2.1,4.9s0,0.1-0.1,0.2L1.3,6C1.2,6.1,1.1,6.1,1.1,6.1z M3.8,11.1H1.3c-0.1,0-0.1,0-0.2-0.1
		c-0.1-0.1-0.1-0.1-0.1-0.2s0-0.1,0.1-0.2c0.1-0.1,0.1-0.1,0.2-0.1h0.9V4c0-0.1,0-0.1,0.1-0.2c0.1-0.1,0.1-0.1,0.2-0.1
		s0.1,0,0.2,0.1C2.8,3.9,2.8,4,2.8,4v6.5h0.9c0.1,0,0.1,0,0.2,0.1c0.1,0.1,0.1,0.1,0.1,0.2S4,10.9,4,11C3.9,11,3.9,11.1,3.8,11.1z"
		/>
</g>
</svg>
