<?xml version="1.0" encoding="utf-8"?>
<!-- Generator: Adobe Illustrator 22.1.0, SVG Export Plug-In . SVG Version: 6.00 Build 0)  -->
<svg version="1.1" id="Layer_2" xmlns="http://www.w3.org/2000/svg" xmlns:xlink="http://www.w3.org/1999/xlink" x="0px" y="0px"
	 viewBox="0 0 1053.4 347.9" style="enable-background:new 0 0 1053.4 347.9;" xml:space="preserve">
<style type="text/css">
	.st0{fill:#FFFFFF;}
	.st1{fill:#C23445;}
</style>
<rect x="212.8" y="6.4" class="st0" width="641" height="315.3"/>
<g transform="translate(0.000000,315.000000) rotate(-360.00) scale(0.095238,-0.095238)">
	<path class="st1" d="M2234.5,1481.3V-345h3478.1h3478.1v1826.3v1826.3H5712.5H2234.5V1481.3z M8168.1,2605.3
		c183.3-37.5,367.7-154.6,471.5-300.3c107.1-149.1,152.4-288.2,164.5-499.1c23.2-431.7-192.1-777.3-552.1-888.8
		c-76.2-23.2-110.4-27.6-261.7-26.5c-156.8,0-182.2,3.3-269.4,32c-250.6,83.9-436.1,291.5-500.2,564.2
		c-108.2,451.6,56.3,875.6,407.4,1048.9c59.6,29.8,141.3,60.7,183.3,69.6C7913.1,2627.4,8059.9,2626.2,8168.1,2605.3z
		 M3104.5,2558.9c0-25.4-5.5-28.7-39.7-28.7c-22.1,0-51.9-9.9-66.2-22.1l-27.6-22.1v-735.4c0-606.2,2.2-738.7,15.5-755.2
		c11-12.1,34.2-18.8,67.4-18.8c48.6,0,50.8-1.1,50.8-35.3v-34.2l-247.3,2.2l-246.2,3.3v29.8c0,25.4,5.5,28.7,53,32
		c30.9,2.2,57.4,11,66.2,22.1c11,15.5,14.4,185.5,14.4,758.5v738.7l-25.4,18.8c-14.4,9.9-46.4,17.7-69.6,17.7
		c-39.7,0-44.2,3.3-44.2,28.7v29.8H2855h249.5V2558.9z M4120.3,2562.2c155.7-46.4,255.1-119.2,307-226.3
		c36.4-75.1,44.2-230.8,15.5-315.8c-32-97.2-124.8-174.5-254-214.2l-47.5-14.4l51.9-14.4c185.5-51.9,322.4-193.2,342.3-355.5
		c29.8-230.8-129.2-425.1-397.5-488c-59.6-14.4-170-18.8-481.4-23.2l-404.1-5.5l4.4,33.1c3.3,29.8,8.8,33.1,53,36.4
		c89.4,6.6,85-36.4,81.7,783.9l-3.3,727.6l-27.6,22.1c-15.5,12.1-45.3,22.1-66.2,22.1c-35.3,0-39.7,3.3-39.7,29.8v29.8l403-4.4
		C3973.5,2581,4072.9,2576.6,4120.3,2562.2z M5782.1,2460.6c0-114.8-2.2-127-21-127c-12.1,0-28.7,17.7-43.1,48.6
		c-38.6,83.9-30.9,81.7-483.6,79.5l-251.7-1.1v-308.1v-308.1l293.7,3.3c325.7,4.4,323.5,4.4,344.5,81.7c9.9,39.7,15.5,45.3,43.1,42
		l30.9-3.3v-185.5v-185.5l-30.9-4.4c-27.6-2.2-33.1,2.2-44.2,43.1c-21,81.7-26.5,82.8-350,82.8h-287.1v-329
		c0-270.5,2.2-331.2,15.5-342.3c12.1-9.9,103.8-13.2,340.1-9.9c316.9,3.3,322.4,3.3,372.1,30.9c28.7,16.6,64,51.9,85,85
		c36.4,57.4,68.5,71.8,68.5,32c0-18.8-12.1-74-53-251.7l-5.5-26.5l-583,3.3l-581.9,2.2v29.8c0,24.3,5.5,28.7,43.1,32
		c81.7,6.6,78.4-29.8,78.4,769.6c0,422.9-4.4,726.5-11,744.2c-7.7,22.1-23.2,30.9-60.7,38.6c-46.4,8.8-60.7,25.4-47.5,53
		c2.2,4.4,259.5,8.8,571.9,8.8h567.5V2460.6z M6677.5,2571c228.6-48.6,357.7-174.5,385.3-376.5c7.7-60.7-8.8-157.9-36.4-216.4
		c-45.3-97.2-183.3-191-327.9-225.2l-61.8-14.4l88.3-80.6c150.2-135.8,312.5-345.6,424-547.7c45.3-81.7,78.4-120.4,113.7-134.7
		c17.7-6.6,26.5-19.9,26.5-38.6v-29.8h-142.4h-143.5l-33.1,71.8c-106,223-241.8,407.4-433.9,591.8l-130.3,124.8h-91.6h-91.6v-340.1
		c0-254,3.3-344.5,14.4-358.8c7.7-9.9,35.3-19.9,60.7-22.1c40.9-3.3,46.4-6.6,46.4-32v-29.8h-231.9h-231.9v29.8
		c0,24.3,6.6,28.7,46.4,34.2c34.2,4.4,49.7,13.2,60.7,35.3c12.1,22.1,14.4,185.5,12.1,756.3c-3.3,706.7-3.3,729.8-25.4,745.3
		c-12.1,8.8-39.7,16.6-60.7,16.6c-29.8,0-38.6,4.4-38.6,21c0,12.1,3.3,25.4,7.7,29.8c4.4,3.3,167.8,6.6,362.2,6.6
		C6507.5,2587.6,6620.1,2583.2,6677.5,2571z M6147.5,664.2c-29.8-32-75.1-47.5-75.1-27.6c0,21,53,61.8,79.5,61.8h28.7L6147.5,664.2z
		 M2962.1,610.1c15.5-4.4,26.5-16.6,26.5-28.7c0-19.9-6.6-22.1-61.8-15.5c-48.6,5.5-67.4,2.2-99.4-17.7
		c-64-40.9-87.2-125.9-55.2-203.2c25.4-58.5,67.4-80.6,149.1-78.4c58.5,1.1,67.4-1.1,64-17.7c-2.2-16.6-18.8-21-78.4-24.3
		c-88.3-4.4-139.1,17.7-173.4,72.9C2634.2,458.8,2779.9,658.7,2962.1,610.1z M3781.4,584.7c61.8-35.3,81.7-76.2,81.7-164.5
		c0-61.8-5.5-86.1-23.2-111.5c-48.6-65.1-80.6-79.5-186.6-83.9l-97.2-4.4v192.1v192.1l37.5,4.4
		C3653.3,616.7,3744.9,604.6,3781.4,584.7z M4492.4,585.8c55.2-25.4,86.1-82.8,86.1-160.1c0-136.9-75.1-202.1-230.8-202.1h-83.9
		v189.9v191l43.1,4.4C4368.8,616.7,4448.3,606.8,4492.4,585.8z M4982.7,588c15.5-7.7,42-28.7,57.4-46.4
		c25.4-26.5,28.7-40.9,28.7-115.9c0-67.4-4.4-91.6-23.2-117c-48.6-65.1-80.6-79.5-186.6-83.9l-97.2-4.4v192.1v192.1l37.5,4.4
		C4853.5,616.7,4948.4,605.7,4982.7,588z M6961.3,610.1c15.5-4.4,26.5-16.6,26.5-28.7c0-19.9-6.6-22.1-60.7-15.5
		c-72.9,7.7-107.1-7.7-144.6-64c-29.8-44.2-34.2-99.4-9.9-156.8c24.3-58.5,66.2-80.6,148-78.4c59.6,1.1,68.5-1.1,65.1-17.7
		s-18.8-21-82.8-23.2c-120.4-5.5-181.1,42-199.8,155.7C6679.7,528.4,6816.7,648.7,6961.3,610.1z M7257.2,601.2
		c102.7-43.1,142.4-184.4,83.9-298.1c-50.8-98.3-227.5-109.3-287.1-17.7c-69.6,106-37.5,262.8,64,312.5
		C7164.5,621.1,7208.6,622.2,7257.2,601.2z M3104.5,413.5V221.4l-26.5,3.3c-25.4,4.4-26.5,6.6-29.8,192.1l-3.3,188.8h29.8h29.8
		V413.5z M3243.6,459.9c0-139.1,1.1-146.9,27.6-173.4c32-32,49.7-35.3,91.6-15.5c44.2,19.9,54.1,58.5,54.1,202.1v132.5h28.7h29.8
		l-1.1-119.2c0-202.1-33.1-262.8-143.5-262.8c-115.9,0-145.7,49.7-145.7,248.4v133.6h28.7h29.8V459.9z M4145.7,429
		c33.1-97.2,59.6-183.3,59.6-192.1s-9.9-14.4-25.4-12.1c-19.9,3.3-29.8,17.7-43.1,59.6l-16.6,55.2l-70.7-3.3l-69.6-3.3l-16.6-55.2
		c-14.4-44.2-22.1-54.1-44.2-54.1c-15.5,0-26.5,1.1-26.5,3.3c0,4.4,83.9,252.8,115.9,341.2c11,29.8,19.9,37.5,45.3,37.5
		C4085,605.7,4088.3,599,4145.7,429z M5341.5,582.5c0-21-7.7-23.2-75.1-23.2h-75.1v-57.4v-58.5h76.2c66.2,0,75.1-2.2,71.8-19.9
		c-3.3-16.6-17.7-21-76.2-24.3l-71.8-3.3v-62.9V270h80.6c74,0,81.7-2.2,81.7-23.2c0-22.1-7.7-23.2-110.4-23.2h-110.4v191v191h104.9
		C5333.8,605.7,5341.5,603.5,5341.5,582.5z M5636.3,556c9.9-26.5,33.1-92.7,50.8-145.7l32-98.3l51.9,144.6
		c50.8,139.1,53,143.5,88.3,146.9l36.4,3.3l7.7-177.8c4.4-97.2,8.8-182.2,9.9-188.8c1.1-6.6-8.8-13.2-23.2-14.4
		c-23.2-4.4-25.4,1.1-32,121.5c-4.4,68.5-8.8,138-9.9,154.6c-1.1,17.7-23.2-29.8-56.3-122.6c-70.7-201-80.6-201-143.5-8.8
		c-25.4,78.4-49.7,142.4-55.2,142.4c-4.4,0-8.8-45.3-8.8-101.6c0-144.6-8.8-187.7-37.5-187.7c-22.1,0-22.1,4.4-15.5,118.1
		c4.4,65.1,11,151.3,14.4,191c6.6,70.7,7.7,72.9,39.7,72.9C5613.1,605.7,5620.9,597.9,5636.3,556z M6197.2,585.8
		c-3.3-16.6-18.8-21-82.8-24.3l-78.4-3.3l3.3-54.1l3.3-55.2l74-3.3c60.7-3.3,71.8-6.6,68.5-23.2c-2.2-15.5-18.8-19.9-75.1-23.2
		l-72.9-3.3v-62.9V270h87.2c79.5,0,87.2-2.2,87.2-23.2c0-22.1-7.7-23.2-110.4-23.2h-110.4v191v191h104.9
		C6189.5,605.7,6200.5,603.5,6197.2,585.8z M6343,533.9c19.9-37.5,38.6-67.4,42-67.4s24.3,32,45.3,69.6c30.9,53,46.4,69.6,67.4,69.6
		c14.4,0,26.5-2.2,26.5-5.5c0-3.3-24.3-44.2-53-92.7l-53-87.2l58.5-96.1c43.1-71.8,53-96.1,39.7-99.4c-32-6.6-48.6,7.7-87.2,78.4
		c-21,38.6-40.9,70.7-45.3,70.7c-3.3,0-24.3-34.2-46.4-75.1c-30.9-58.5-45.3-75.1-65.1-75.1c-14.4,0-26.5,3.3-26.5,6.6
		c0,4.4,24.3,48.6,53,98.3l53,90.5l-48.6,85c-27.6,46.4-51.9,88.3-54.1,93.9c-3.3,5.5,8.8,7.7,26.5,5.5
		C6301,600.1,6315.4,586.9,6343,533.9z M6640,413.5V221.4l-26.5,3.3c-25.4,4.4-25.4,6.6-28.7,192.1l-3.3,188.8h28.7h29.8V413.5z
		 M8117.3,567c156.8-120.4,71.8-366.6-127-366.6c-89.4,0-178.9,76.2-195.4,166.7c-16.6,83.9,37.5,187.7,113.7,223
		C7966.1,615.6,8067.6,604.6,8117.3,567z"/>
	<path class="st1" d="M7840.2,2479.4c-85-27.6-150.2-67.4-215.3-133.6c-267.2-273.8-270.5-913.1-6.6-1187
		c113.7-119.2,240.7-166.7,412.9-155.7c121.5,6.6,204.3,37.5,291.5,106c110.4,86.1,186.6,223,227.5,406.3
		c27.6,125.9,24.3,357.7-7.7,486.9c-60.7,248.4-198.7,419.6-383.1,474.8C8084.2,2499.3,7907.5,2500.4,7840.2,2479.4z"/>
	<path class="st1" d="M3661,2458.4l-40.9-15.5l-3.3-300.3l-3.3-299.2l183.3,5.5c212,7.7,276,23.2,350,86.1
		c68.5,59.6,92.7,117,92.7,224.1c0,75.1-4.4,95-34.2,146.9c-37.5,66.2-99.4,110.4-194.3,139.1
		C3933.7,2468.4,3711.8,2476.1,3661,2458.4z"/>
	<path class="st1" d="M3614.6,1402.9c0-173.4,3.3-322.4,8.8-330.1c16.6-26.5,74-37.5,186.6-37.5c207.6,0,334.6,40.9,416.3,133.6
		c101.6,114.8,96.1,313.6-12.1,418.5c-92.7,91.6-230.8,131.4-458.2,131.4h-141.3V1402.9z"/>
	<path class="st1" d="M6285.6,2461.7c-19.9-5.5-42-13.2-49.7-17.7c-9.9-5.5-13.2-95-13.2-320.2v-312.5h67.4
		c103.8,0,252.8,22.1,320.2,47.5c90.5,33.1,146.9,79.5,185.5,150.2c30.9,55.2,35.3,75.1,35.3,155.7c0,136.9-44.2,210.9-156.8,259.5
		C6585.9,2462.8,6377.2,2482.7,6285.6,2461.7z"/>
	<path class="st1" d="M3610.2,563.7c-4.4-4.4-7.7-72.9-7.7-151.3c0-138,1.1-142.4,26.5-149.1c47.5-11,127,21,155.7,62.9
		c56.3,83.9,22.1,208.7-62.9,231.9C3672.1,572.5,3621.3,574.7,3610.2,563.7z"/>
	<path class="st1" d="M4329,563.7c-4.4-4.4-7.7-71.8-7.7-150.2c0-154.6,3.3-162.3,67.4-149.1c100.5,22.1,133.6,62.9,134.7,163.4
		c0,68.5-21,101.6-82.8,127C4400.8,571.4,4342.3,575.9,4329,563.7z"/>
	<path class="st1" d="M4819.3,568.1c0-2.2-1.1-69.6-2.2-151.3c-3.3-167.8-3.3-167.8,85-148c33.1,6.6,62.9,24.3,82.8,46.4
		c27.6,29.8,32,46.4,32,102.7c0,77.3-19.9,112.6-76.2,136.9C4907.6,568.1,4820.4,578.1,4819.3,568.1z"/>
	<path class="st1" d="M7142.4,559.3c-62.9-25.4-90.5-176.7-43.1-240.7c72.9-97.2,189.9-61.8,208.7,62.9
		C7326.8,511.8,7244,600.1,7142.4,559.3z"/>
	<path class="st1" d="M4026.5,480.9c-9.9-36.4-22.1-72.9-25.4-80.6c-4.4-11,8.8-14.4,46.4-14.4c29.8,0,54.1,3.3,54.1,8.8
		c0,11-47.5,153.5-51.9,153.5C4048.6,548.2,4037.5,517.3,4026.5,480.9z"/>
	<path class="st1" d="M7886.6,535c-123.7-108.2-51.9-300.3,112.6-300.3c93.9,0,163.4,71.8,163.4,167.8
		c0,101.6-69.6,167.8-174.5,167.8C7937.4,570.3,7920.8,564.8,7886.6,535z M8071,495.3c23.2-24.3,23.2-56.3,0-79.5
		c-16.6-16.6-16.6-21,0-44.2c26.5-37.5,24.3-78.4-4.4-78.4c-18.8,0-23.2,7.7-23.2,34.2c0,27.6-7.7,37.5-32,47.5
		c-44.2,16.6-59.6,5.5-57.4-37.5c1.1-28.7-3.3-39.7-18.8-42c-17.7-4.4-19.9,6.6-19.9,106v111.5h68.5
		C8031.2,512.9,8058.8,507.4,8071,495.3z"/>
	<path class="st1" d="M7958.3,482c-15.5-14.4-8.8-62.9,8.8-69.6c9.9-3.3,30.9-3.3,46.4,1.1c34.2,7.7,40.9,57.4,11,69.6
		C8000.3,491.9,7967.2,491.9,7958.3,482z"/>
</g>
</svg>
