<?xml version="1.0" encoding="utf-8"?>
<!-- Generator: Adobe Illustrator 22.1.0, SVG Export Plug-In . SVG Version: 6.00 Build 0)  -->
<svg version="1.1" id="Layer_2" xmlns="http://www.w3.org/2000/svg" xmlns:xlink="http://www.w3.org/1999/xlink" x="0px" y="0px"
	 viewBox="0 0 1053.4 347.9" style="enable-background:new 0 0 1053.4 347.9;" xml:space="preserve">
<style type="text/css">
	.st0{fill:#565656;}
	.st1{display:none;fill-rule:evenodd;clip-rule:evenodd;fill:#FFFFFF;}
	.st2{fill-rule:evenodd;clip-rule:evenodd;fill:#DD9C00;}
	.st3{fill-rule:evenodd;clip-rule:evenodd;fill:#724C00;}
	.st4{fill:#0A604B;}
</style>
<g>
	<path class="st0" d="M154,124.8c-0.6-2.5-1.1-4-1.9-4.9c-0.8-0.9-2.1-1.1-4.1-1.1h-2.3v23.8c0,4.1,0.4,4.5,4.3,4.8v1.7h-14.9v-1.7
		c3.8-0.3,4.2-0.7,4.2-4.8v-23.8h-1.8c-2.8,0-3.8,0.4-4.6,1.3c-0.7,0.9-1.2,2.5-1.8,4.7h-1.7c0.2-3.3,0.5-6.8,0.6-9.3h1.2
		c0.8,1,1.3,1.3,2.7,1.3h17.4c1.2,0,1.8-0.3,2.6-1.3h1.2c0.1,2.1,0.3,6.1,0.5,9.1L154,124.8L154,124.8z"/>
	<path class="st0" d="M159.5,134.7c2,0,3.7-0.1,5.5-0.2c0.8,0,1.1-0.3,1.1-1.2c0-2.5-1-5.2-2.8-5.2
		C161.5,128.1,159.8,130.8,159.5,134.7L159.5,134.7z M171.7,144.4c-2.7,4.1-6.3,5.2-8.4,5.2c-6.3,0-9.9-5-9.9-10.7
		c0-4.2,1.8-7.4,3.5-9.2c1.9-2,4.5-3.5,7.3-3.5c4.5,0,7.7,4,7.7,8.1c0,1.1-0.2,1.7-1.4,1.9c-0.7,0.2-6.6,0.6-11.3,0.8
		c0.1,5.4,3,8.2,6.3,8.2c2.1,0,3.6-0.7,5.2-2.1L171.7,144.4L171.7,144.4z"/>
	<path class="st0" d="M192.5,144.5c-2.1,3-5,5.2-8,5.2c-6.4,0-10-5.2-10-10.7c0-3.6,1.8-7.2,5-9.7c2.7-2.1,5.6-3,7.6-3
		c1.7,0,3.2,0.6,4,1.2c0.8,0.6,1,1.2,1,1.8c0,1.6-1.4,2.8-2.1,2.8c-0.3,0-0.6-0.2-1.1-0.6c-1.8-1.8-3.2-2.7-4.5-2.7
		c-2.2,0-3.8,2.7-3.8,7.6c0,6.8,4,8.8,6.1,8.8c2,0,3.3-0.6,5-2L192.5,144.5L192.5,144.5z"/>
	<path class="st0" d="M206.9,149v-1.6c2-0.3,2.3-0.4,2.3-3.6v-9.2c0-3.5-1.4-4.6-3.1-4.6c-1.3,0-2.2,0.5-3.4,1.5V144
		c0,3,0.3,3.2,2.2,3.5v1.6h-11.4v-1.6c2.8-0.3,3.1-0.4,3.1-3.6V133c0-3-0.2-3.2-2.4-3.7V128c3.1-0.4,6-1.1,8.5-1.9v3.5
		c1-0.7,1.9-1.4,2.8-2.1c1.3-0.9,2.3-1.4,3.8-1.4c3.9,0,6,3.1,6,7.7v10c0,3.2,0.3,3.3,2.6,3.6v1.6H206.9L206.9,149z"/>
	<path class="st0" d="M226.7,136.7c0,6.3,1.6,11.1,4.5,11.1c1.7,0,3.5-1.4,3.5-8.8c0-6.7-1.6-10.8-4.4-10.8
		C228.4,128.1,226.7,130.8,226.7,136.7L226.7,136.7z M241.4,137.5c0,8.1-5.2,12.2-10.7,12.2c-7.3,0-10.8-5.8-10.8-11.2
		c0-8.3,5.9-12.2,11-12.2C237.4,126.2,241.4,131.5,241.4,137.5L241.4,137.5z"/>
	<path class="st0" d="M242.9,149v-1.6c2.8-0.4,3-0.7,3-3.9v-22.8c0-3-0.1-3.2-2.8-3.6v-1.4c2.7-0.3,6.1-1,8.9-1.7v29.4
		c0,3.4,0.2,3.6,3,3.9v1.6H242.9L242.9,149z"/>
	<path class="st0" d="M265.6,123.9c0.8-2.3,2.3-6.9,2.6-7.9c0.7-0.4,4.1-0.8,5.2-0.6l0.3,0.5l-6.3,8.6L265.6,123.9L265.6,123.9z
		 M263.4,136.7c0,6.3,1.6,11.1,4.5,11.1c1.7,0,3.5-1.4,3.5-8.8c0-6.7-1.6-10.8-4.4-10.8C265.1,128.1,263.4,130.8,263.4,136.7
		L263.4,136.7z M278.1,137.5c0,8.1-5.2,12.2-10.7,12.2c-7.3,0-10.8-5.8-10.8-11.2c0-8.3,5.9-12.2,11-12.2
		C274.1,126.2,278.1,131.5,278.1,137.5L278.1,137.5z"/>
	<path class="st0" d="M287.6,133.6c0,3.8,1.2,6.3,3.2,6.3c1.7-0.1,2.7-1.9,2.7-5.5c0-3.6-1.1-6.3-3.2-6.3
		C288.8,128,287.6,129.9,287.6,133.6L287.6,133.6z M286.5,150.9c-0.6,0.7-1,1.4-1,2.4c0,2.6,2.7,4.8,6.2,4.8c3.7,0,5.7-2.1,5.7-4.6
		c0-1.8-1.1-2.7-2.6-3.1c-1.2-0.4-2.4-0.5-4.2-0.5C288.1,149.9,287.1,150.1,286.5,150.9L286.5,150.9z M302.5,127.4
		c-0.3,1-1.1,2.3-1.8,2.9l-2.8-0.2c0.9,1.1,1.3,2.3,1.3,3.9c0,5.1-4.2,7.6-8.9,7.6c-0.4,0-1.1-0.1-2.1-0.2c-0.5,0.4-0.8,1-0.8,1.5
		c0,0.8,0.8,1.9,2.8,1.9c1.6,0,3-0.1,4.5-0.1c3.7,0,7.2,1.5,7.2,5.9c0,5.4-6,10-12.7,10c-6.1,0-8.9-3.2-8.9-6c0-1,0.4-1.7,1.4-2.5
		c1.1-0.9,2.7-1.9,3.7-2.6c-1.8-0.8-2.9-2-3.5-2.9c-0.4-0.8-0.7-1.7-0.6-2.5c2.6-1.1,4.2-2.4,5-3.3c-2.9-1-4.8-3.5-4.8-6.6
		c0-5.5,4.7-8.2,9.1-8.2c2.2,0,3.6,0.5,5.2,1.4c2.3-0.1,4.4-0.4,6.3-0.6L302.5,127.4L302.5,127.4z"/>
	<path class="st0" d="M305.7,119.9c0-2,1.6-3.5,3.4-3.5c1.9,0,3.4,1.5,3.4,3.5c0,1.9-1.5,3.5-3.4,3.5
		C307.2,123.4,305.7,121.9,305.7,119.9L305.7,119.9z M303.4,149v-1.6c2.6-0.3,2.9-0.5,2.9-3.9v-10.3c0-3.1-0.3-3.2-2.6-3.7v-1.4
		c2.8-0.4,5.9-1.1,8.7-1.9v17.3c0,3.4,0.3,3.6,3,3.9v1.6H303.4L303.4,149z"/>
	<path class="st0" d="M335.1,144.5c-2.1,3-5,5.2-8,5.2c-6.4,0-10-5.2-10-10.7c0-3.6,1.8-7.2,5-9.7c2.7-2.1,5.6-3,7.6-3
		c1.7,0,3.2,0.6,4,1.2c0.8,0.6,1,1.2,1,1.8c0,1.6-1.4,2.8-2.1,2.8c-0.3,0-0.6-0.2-1.1-0.6c-1.8-1.8-3.2-2.7-4.5-2.7
		c-2.2,0-3.8,2.7-3.8,7.6c0,6.8,4,8.8,6.1,8.8c2,0,3.3-0.6,5-2L335.1,144.5L335.1,144.5z"/>
	<path class="st0" d="M343.4,136.7c0,6.3,1.6,11.1,4.5,11.1c1.7,0,3.5-1.4,3.5-8.8c0-6.7-1.6-10.8-4.4-10.8
		C345,128.1,343.4,130.8,343.4,136.7L343.4,136.7z M358.1,137.5c0,8.1-5.2,12.2-10.7,12.2c-7.3,0-10.8-5.8-10.8-11.2
		c0-8.3,5.9-12.2,10.9-12.2C354.1,126.2,358.1,131.5,358.1,137.5L358.1,137.5z"/>
	<path class="st0" d="M144.5,175.1c-0.7-1.8-1.9-2.6-3.1-2.6c-1.1,0-4.6,1.2-4.6,9c0,6.1,3.2,8.6,5.4,8.6c0.8,0,1.5-0.1,2.3-0.7
		V175.1L144.5,175.1z M153.7,191.9c-1.4,0.2-5.7,0.8-9.2,1.9v-2.7l-2.5,1.7c-1.2,0.8-2,1-2.7,1c-4.1,0-9.4-3.6-9.4-11
		c0-6.8,5.4-12.5,12.6-12.5c0.5,0,1.1,0.1,1.9,0.3v-5.7c0-2.8-0.2-3-3-3.4v-1.5c3.1-0.3,7-1,9.1-1.7v28.8c0,2.6,0.3,2.8,1.8,3
		l1.3,0.2V191.9L153.7,191.9z"/>
	<path class="st0" d="M161.4,178.8c2,0,3.7-0.1,5.5-0.2c0.8,0,1.1-0.3,1.1-1.2c0-2.5-1-5.2-2.8-5.2
		C163.4,172.3,161.6,175,161.4,178.8L161.4,178.8z M173.5,188.6c-2.7,4.1-6.3,5.2-8.4,5.2c-6.3,0-9.9-5-9.9-10.7
		c0-4.2,1.8-7.4,3.5-9.2c1.9-2,4.5-3.5,7.3-3.5c4.5,0,7.7,4,7.7,8.1c0,1.1-0.2,1.7-1.4,1.9c-0.7,0.2-6.6,0.6-11.3,0.8
		c0.2,5.4,3,8.2,6.3,8.2c2.1,0,3.6-0.7,5.2-2.1L173.5,188.6L173.5,188.6z"/>
	<path class="st0" d="M208.9,193.2v-1.7c3.4-0.4,3.6-0.5,3.6-5l-0.1-19.7h-0.2l-9.7,25.9H201l-8.9-25.2h-0.3l-0.5,12.9
		c-0.2,4.2-0.3,6.6-0.1,8c0.2,2.3,1.1,2.9,4.3,3.1v1.7h-11.1v-1.7c2.6-0.3,3.3-1,3.7-2.7c0.3-1.6,0.6-4.4,0.9-9.1l0.7-10.7
		c0.4-5.5,0.1-6.1-3.8-6.4V161h9.7l8.3,21.3l8.5-21.3h9.7v1.7c-3.8,0.4-3.9,0.7-3.8,4.6l0.5,19.4c0.1,4.4,0.3,4.6,3.8,5v1.7H208.9
		L208.9,193.2z"/>
	<path class="st0" d="M230.9,180.8c0,6.3,1.6,11.1,4.5,11.1c1.7,0,3.5-1.4,3.5-8.8c0-6.7-1.6-10.8-4.4-10.8
		C232.6,172.3,230.9,175,230.9,180.8L230.9,180.8z M245.6,181.6c0,8.1-5.2,12.2-10.7,12.2c-7.3,0-10.8-5.8-10.8-11.2
		c0-8.3,5.9-12.2,11-12.2C241.6,170.4,245.6,175.7,245.6,181.6L245.6,181.6z"/>
	<path class="st0" d="M260.8,193.2v-1.6c2-0.3,2.3-0.4,2.3-3.6v-9.2c0-3.5-1.4-4.6-3.1-4.6c-1.3,0-2.2,0.5-3.4,1.5v12.5
		c0,3,0.3,3.2,2.2,3.5v1.6h-11.4v-1.6c2.8-0.3,3.1-0.4,3.1-3.6v-10.9c0-3-0.2-3.2-2.4-3.7v-1.3c3.1-0.4,6-1.1,8.5-1.9v3.5
		c1-0.7,1.9-1.4,2.8-2.1c1.3-0.9,2.3-1.4,3.8-1.4c3.9,0,6,3.1,6,7.7v10c0,3.2,0.3,3.3,2.6,3.6v1.6H260.8L260.8,193.2z"/>
	<path class="st0" d="M283.5,193.2c-0.8,0.4-1.5,0.6-2.1,0.6c-3.6,0-5.7-1.8-5.7-6.2v-14.3h-2.9l-0.3-0.6l1.4-1.8h1.8v-3.5l5.4-3.8
		l0.7,0.4v7h4.7c0.5,0.6,0.5,2-0.3,2.3h-4.4v12.6c0,3.8,1.4,4.5,2.7,4.5c1.1,0,1.8-0.3,2.5-0.6l0.5,1.7L283.5,193.2L283.5,193.2z"/>
	<path class="st0" d="M294.2,178.8c2,0,3.7-0.1,5.5-0.2c0.8,0,1.1-0.3,1.1-1.2c0-2.5-1-5.2-2.8-5.2
		C296.2,172.3,294.5,175,294.2,178.8L294.2,178.8z M306.4,188.6c-2.7,4.1-6.3,5.2-8.4,5.2c-6.3,0-9.9-5-9.9-10.7
		c0-4.2,1.8-7.4,3.5-9.2c1.9-2,4.5-3.5,7.3-3.5c4.5,0,7.7,4,7.7,8.1c0,1.1-0.2,1.7-1.4,1.9c-0.7,0.2-6.6,0.6-11.3,0.8
		c0.2,5.4,3,8.2,6.3,8.2c2.1,0,3.6-0.7,5.2-2.1L306.4,188.6L306.4,188.6z"/>
	<path class="st0" d="M317.3,175.6c1.6-3.1,3.3-5.2,5.3-5.2c1.8,0,3,1.4,3,3.1c0,1.8-1.3,3.2-2.4,3.6c-0.7,0.3-1.1,0.2-1.5-0.2
		c-0.8-0.7-1.3-1-2.1-1c-0.9,0-1.7,0.3-2.5,2.2v9.9c0,3.1,0.3,3.3,3.6,3.5v1.6h-12.6v-1.6c2.6-0.3,2.9-0.6,2.9-3.5v-11.1
		c0-2.7-0.3-2.9-2.5-3.5v-1.4c3-0.4,6-1,8.6-1.9v5.2H317.3L317.3,175.6z"/>
	<path class="st0" d="M336,175.6c1.6-3.1,3.3-5.2,5.3-5.2c1.8,0,3,1.4,3,3.1c0,1.8-1.3,3.2-2.4,3.6c-0.7,0.3-1.1,0.2-1.5-0.2
		c-0.8-0.7-1.3-1-2.1-1c-0.9,0-1.7,0.3-2.5,2.2v9.9c0,3.1,0.3,3.3,3.6,3.5v1.6h-12.6v-1.6c2.6-0.3,2.9-0.6,2.9-3.5v-11.1
		c0-2.7-0.3-2.9-2.5-3.5v-1.4c3-0.4,6-1,8.6-1.9v5.2H336L336,175.6z"/>
	<path class="st0" d="M351.2,178.8c2,0,3.7-0.1,5.5-0.2c0.8,0,1.1-0.3,1.1-1.2c0-2.5-1-5.2-2.8-5.2
		C353.3,172.3,351.5,175,351.2,178.8L351.2,178.8z M363.4,188.6c-2.7,4.1-6.3,5.2-8.4,5.2c-6.3,0-9.9-5-9.9-10.7
		c0-4.2,1.8-7.4,3.5-9.2c1.9-2,4.5-3.5,7.3-3.5c4.5,0,7.7,4,7.7,8.1c0,1.1-0.2,1.7-1.4,1.9c-0.7,0.2-6.6,0.6-11.3,0.8
		c0.2,5.4,3,8.2,6.3,8.2c2.1,0,3.6-0.7,5.2-2.1L363.4,188.6L363.4,188.6z"/>
	<path class="st0" d="M387.3,172.5c-2.3,0.4-2.7,0.9-3.8,3.7c-1.2,2.9-2.6,6.6-5.2,13.7c-3,8.1-3.9,11.2-4.5,13.6
		c-0.3,1.2-1,1.5-1.9,1.5c-1.4,0-3.4-1.5-3.4-3c0-0.8,0.4-1.3,1.4-1.9c1.6-1,2.7-1.8,3.4-3.1c0.5-0.9,0.9-1.7,1-2.3
		c0.1-0.8,0-1.5-0.4-2.3c-2.5-7.6-5-14.4-6-16.8c-0.9-2.2-1.4-2.8-3.5-3.1V171h11.7v1.5c-2.4,0.3-2.4,0.9-1.9,2.7l3.4,11
		c1.2-3.6,2.5-7.6,3.4-11c0.6-1.8,0.2-2.4-2.3-2.8V171h8.4V172.5L387.3,172.5z"/>
	<path class="st0" d="M41,143.6l24.8-25.4c1.6-1.6,2.8-4.5,3-7.2c5,4.3,4.2,10.2,0.5,13.8l-23.1,23c-3,3-6.4,8.6-4.6,17
		C33.9,158.8,35.9,148.9,41,143.6L41,143.6z M81.3,114.3c4.4,5.1,2.9,10-0.8,13.7l-28.6,28.7c-3,3-3.7,8.2-4,11
		c-5.5-7.6-1.4-14.6,2.4-18.4l28.1-27.8C79.9,119.9,81.1,117,81.3,114.3L81.3,114.3z M87,125.7c1.7,2.7,1.9,8.1-1.7,11.9l-26.1,27
		c-3,3.1-4.7,9.8-3.9,14.9c-7.5-8.9-1.7-18.5,2.1-22.3L84.4,130C85.9,128.4,86.6,127.1,87,125.7L87,125.7z M97.4,130.5
		c1.7,2.7,2,8.2-1.7,11.9L70,168.6c-3,3.1-3.5,8.3-3.8,11.1c-5.6-7.5-1.9-14.7,1.9-18.4l26.6-26.5C96.4,133.2,96.6,131.8,97.4,130.5
		L97.4,130.5z M95.1,158.6l-13,13.2c-2.2,2.3-4.1,5.7-4.4,8.5c-4.6-4.9-1.3-12.1,2.5-15.8L94.1,151c1.6-1.6,2.2-2.2,3.1-3.6
		C98.3,149.1,98.7,154.9,95.1,158.6L95.1,158.6z M63,201.6V194c-8.5-1.1-16.2-5-22.1-10.7h54.5c-5.9,5.7-13.6,9.6-22.1,10.7v7.6
		c23.7-2.5,42.1-22.6,42.1-47c0-26.1-21.2-47.2-47.2-47.2c-26.1,0-47.2,21.2-47.2,47.2C20.9,179,39.3,199.1,63,201.6L63,201.6z"/>
</g>
<g>
	<polygon class="st1" points="623.2,60.6 815.9,60.6 815.9,253.4 623.2,253.4 623.2,60.6 	"/>
	<polygon class="st2" points="854.7,88.1 861.7,81.8 895.9,119.7 888.9,126.1 854.7,88.1 	"/>
	<polygon class="st2" points="865.2,78.6 872.3,72.3 906.4,110.3 899.4,116.6 865.2,78.6 	"/>
	<polygon class="st2" points="875.8,69.2 882.8,62.8 917,100.8 910,107.1 875.8,69.2 	"/>
	<polygon class="st2" points="847.4,156.9 854.5,150.6 888.6,188.5 881.6,194.9 847.4,156.9 	"/>
	<polygon class="st2" points="858,147.4 865,141.1 899.2,179.1 892.1,185.4 858,147.4 	"/>
	<polygon class="st2" points="868.6,137.9 875.6,131.6 909.8,169.5 902.7,175.9 868.6,137.9 	"/>
	<polygon class="st3" points="841.5,156.4 835.2,149.3 873.2,115.1 879.5,122.2 841.5,156.4 	"/>
	<polygon class="st3" points="832,145.8 825.7,138.8 863.6,104.6 870,111.6 832,145.8 	"/>
	<polygon class="st3" points="822.5,135.3 816.2,128.2 854.1,94 860.5,101.1 822.5,135.3 	"/>
	<polygon class="st3" points="910.3,163.6 903.9,156.6 941.9,122.4 948.2,129.4 910.3,163.6 	"/>
	<polygon class="st3" points="900.8,153.1 894.5,146 932.4,111.9 938.7,118.9 900.8,153.1 	"/>
	<polygon class="st3" points="891.3,142.5 885,135.5 922.9,101.3 929.2,108.3 891.3,142.5 	"/>
	<path class="st3" d="M738.7,214.4c0,1,0.1,2,0.4,3c0.9,3.2,4.1,4.1,7.1,4.1c1.6,0,3.3-0.4,4.6-1.3c2.5-1.8,2.5-4.3,2.6-7.1v-8.7
		c-0.3,0-0.6,0.1-1,0.1c-0.3,0-0.6,0-1-0.1v7.4c0,1.2,0,4-0.5,5c-0.8,2.1-2,2.9-4.3,2.9c-1.1,0-2-0.3-2.8-1.1
		c-0.9-0.8-1.1-1.6-1.3-2.8c-0.2-1.2-0.1-3.2-0.1-4.6v-6.9c-0.6,0-1.2,0.1-1.8,0.1c-0.6,0-1.2-0.1-1.8-0.1V214.4L738.7,214.4z"/>
	<path class="st3" d="M756.7,221.1c0.3,0,0.6-0.1,1-0.1s0.6,0,1,0.1v-11.8l2.7,2.8c2.7,2.9,5.3,5.9,8.2,9l2.1,0v-16.7
		c-0.3,0-0.6,0.1-1,0.1c-0.3,0-0.6,0-1-0.1v11.4c-3.5-3.9-7.1-7.6-10.5-11.4h-2.4V221.1L756.7,221.1z"/>
	<path class="st3" d="M775.1,221.1c0.6,0,1.2-0.1,1.8-0.1c0.6,0,1.2,0.1,1.8,0.1v-16.7c-0.6,0-1.2,0.1-1.8,0.1
		c-0.6,0-1.2-0.1-1.8-0.1V221.1L775.1,221.1z"/>
	<path class="st3" d="M789.2,221.1c2.1-5.7,4.4-11.2,6.8-16.7c-0.4,0-0.7,0.1-1.1,0.1s-0.7,0-1.1-0.1c-1.3,4.1-2.9,8.1-4.6,12
		c-1.4-4.1-3.1-8-4.3-12c-0.7,0-1.4,0.1-2.1,0.1c-0.7,0-1.5-0.1-2.2-0.1c2.3,5.5,4.5,11,6.5,16.7c0.4,0,0.7-0.1,1.1-0.1
		C788.6,221,788.9,221.1,789.2,221.1L789.2,221.1L789.2,221.1z"/>
	<path class="st3" d="M797.6,204.4V221h9.3c0-0.3-0.1-0.7-0.1-1.1c0-0.3,0.1-0.7,0.1-1c-1.5,0.2-3.1,0.3-5.6,0.3v-6.2h2.5
		c1.1,0,2.1,0.1,3,0.2c0-0.3-0.1-0.7-0.1-1.1c0-0.3,0.1-0.7,0.1-1c-0.9,0.1-1.9,0.2-3,0.2h-2.5v-5.2c2.5,0,4.1,0.1,5.6,0.3
		c0-0.3-0.1-0.7-0.1-1c0-0.4,0.1-0.7,0.1-1.1H797.6L797.6,204.4z"/>
	<path class="st3" d="M809,221.1c0.6,0,1.2-0.1,1.8-0.1c0.6,0,1.2,0.1,1.8,0.1v-7.8h0.2c0.5,0.9,1.2,2.1,1.6,2.7l2.9,5.1
		c0.7,0,1.4-0.1,2.2-0.1c0.7,0,1.5,0.1,2.2,0.1l-1-1.5c-1.4-2.3-2.9-4.5-4.3-6.8c2.3-0.5,3.8-2,3.8-4.4c0-1.7-0.7-2.8-2.1-3.5
		c-1-0.6-2.8-0.5-3.9-0.5H809V221.1L809,221.1z M812.7,205.7c1.5,0,3.3-0.2,3.7,1.8c0.1,0.5,0.1,0.9,0.1,1.2c0,2.5-1.3,3.7-3.8,3.5
		V205.7L812.7,205.7z"/>
	<path class="st3" d="M831.1,207.6c0.2-0.8,0.5-1.6,0.8-2.4c-0.6-0.5-2.1-1.2-3.8-1.2c-3.7,0-5.6,2.3-5.6,5.1c0,5.9,7.2,4.5,7.2,8.3
		c0,1.7-1.3,2.5-2.9,2.5c-1.7,0-3-1-3.4-2.7H823c-0.1,1.1-0.4,2.1-0.7,3.1c1.2,0.7,2.6,1.1,3.9,1.1c3.8,0,6.5-2.3,6.5-5.3
		c0-5.6-7.4-5-7.4-8.2c0-1.4,0.8-2.4,2.7-2.4c1.4,0,2.4,0.8,2.8,2.1H831.1L831.1,207.6z"/>
	<path class="st3" d="M835,221.1c0.6,0,1.2-0.1,1.8-0.1c0.6,0,1.2,0.1,1.8,0.1v-16.7c-0.6,0-1.2,0.1-1.8,0.1c-0.6,0-1.2-0.1-1.8-0.1
		V221.1L835,221.1z"/>
	<path class="st3" d="M842.2,204.4V221h6.8c5,0,8.8-3.3,8.8-8.8c0-4-2.2-7.6-7.3-7.8H842.2L842.2,204.4z M845.8,205.9h2.4
		c3.4,0,5.6,1.8,5.6,6.4c0,5.7-2.5,7.3-5.9,7.3h-2.1V205.9L845.8,205.9z"/>
	<path class="st3" d="M868.3,216c0.6,1.7,1.2,3.3,1.7,5.1c0.7,0,1.4-0.1,2.1-0.1c0.7,0,1.4,0.1,2.1,0.1l-6.8-16.9
		c-0.3,0-0.6,0.1-0.9,0.1c-0.3,0-0.6,0-0.9-0.1l-7,16.9c0.4,0,0.8-0.1,1.2-0.1c0.4,0,0.7,0,1.1,0.1c0.5-1.7,1.1-3.2,1.7-5L868.3,216
		L868.3,216z M863.3,214.5l2.3-5.7l2.2,5.7H863.3L863.3,214.5z"/>
	<path class="st3" d="M875.9,204.4V221h6.8c5,0,8.8-3.3,8.8-8.8c0-4-2.1-7.6-7.3-7.8H875.9L875.9,204.4z M879.6,205.9h2.4
		c3.5,0,5.6,1.8,5.6,6.4c0,5.7-2.5,7.3-5.9,7.3h-2V205.9L879.6,205.9z"/>
	<path class="st3" d="M907.4,216c0.6,1.7,1.2,3.3,1.7,5.1c0.7,0,1.4-0.1,2.1-0.1c0.7,0,1.4,0.1,2.1,0.1l-6.8-16.9
		c-0.3,0-0.6,0.1-0.9,0.1c-0.3,0-0.6,0-0.9-0.1l-7,16.9c0.4,0,0.8-0.1,1.2-0.1c0.4,0,0.7,0,1.2,0.1c0.5-1.7,1.1-3.2,1.7-5L907.4,216
		L907.4,216z M902.4,214.5l2.3-5.7l2.2,5.7H902.4L902.4,214.5z"/>
	<path class="st3" d="M915,221.1c0.3,0,0.6-0.1,1-0.1s0.6,0,1,0.1v-11.8l2.6,2.8c2.8,2.9,5.4,5.9,8.2,9l2.1,0v-16.7
		c-0.3,0-0.7,0.1-1,0.1c-0.3,0-0.7,0-1-0.1v11.4c-3.4-3.9-7-7.6-10.5-11.4H915V221.1L915,221.1z"/>
	<path class="st3" d="M941.1,216c0.6,1.7,1.2,3.3,1.7,5.1c0.7,0,1.4-0.1,2.1-0.1c0.7,0,1.4,0.1,2.1,0.1l-6.8-16.9
		c-0.3,0-0.6,0.1-0.9,0.1c-0.3,0-0.6,0-0.9-0.1l-7,16.9c0.4,0,0.8-0.1,1.2-0.1c0.4,0,0.8,0,1.2,0.1c0.5-1.7,1.1-3.2,1.7-5L941.1,216
		L941.1,216z M936.1,214.5l2.3-5.7l2.2,5.7H936.1L936.1,214.5z M936.8,202.9h1.4l3.2-2c0.6-0.4,1.2-0.7,1.2-1.5
		c0-0.6-0.5-1.1-1.1-1.1c-0.8,0-1.1,0.3-1.6,0.9L936.8,202.9L936.8,202.9z"/>
	<path class="st3" d="M948.7,221.1c0.6,0,1.2-0.1,1.8-0.1c0.6,0,1.2,0.1,1.8,0.1V213c1.2,0,2.5-0.1,3.7-0.1c1.2,0,2.5,0.1,3.7,0.1
		v8.2c0.6,0,1.2-0.1,1.8-0.1c0.6,0,1.2,0.1,1.8,0.1v-16.7c-0.6,0-1.2,0.1-1.8,0.1c-0.6,0-1.2-0.1-1.8-0.1v6.6
		c-1.2,0-2.5,0.1-3.7,0.1c-1.2,0-2.4-0.1-3.7-0.1v-6.6c-0.6,0-1.2,0.1-1.8,0.1c-0.6,0-1.2-0.1-1.8-0.1V221.1L948.7,221.1z"/>
	<path class="st3" d="M966.9,214.4c0,1,0.1,2,0.4,3c0.9,3.2,4.1,4.1,7,4.1c1.6,0,3.3-0.4,4.6-1.3c2.5-1.8,2.5-4.3,2.5-7.1v-8.7
		c-0.3,0-0.6,0.1-1,0.1c-0.3,0-0.6,0-1-0.1v7.4c0,1.2,0,4-0.4,5c-0.9,2.1-2.1,2.9-4.3,2.9c-1.1,0-2-0.3-2.8-1.1
		c-0.9-0.8-1.1-1.6-1.3-2.8c-0.2-1.2-0.2-3.2-0.2-4.6v-6.9c-0.6,0-1.2,0.1-1.8,0.1c-0.6,0-1.2-0.1-1.8-0.1V214.4L966.9,214.4z"/>
	<path class="st3" d="M993,216c0.6,1.7,1.2,3.3,1.7,5.1c0.7,0,1.4-0.1,2.1-0.1c0.7,0,1.4,0.1,2.1,0.1l-6.8-16.9
		c-0.3,0-0.6,0.1-0.9,0.1c-0.3,0-0.6,0-0.9-0.1l-7,16.9c0.4,0,0.8-0.1,1.2-0.1c0.4,0,0.8,0,1.2,0.1c0.5-1.7,1.1-3.2,1.7-5L993,216
		L993,216z M988,214.5l2.3-5.7l2.2,5.7H988L988,214.5z"/>
	<path class="st3" d="M1013.3,218.1c-1.1,1.1-2.8,1.8-4.3,1.8c-3.7,0-5.8-2.9-5.8-7.1c0-3.5,1.6-7.4,5.6-7.4c1.6,0,3.1,0.9,4.1,2.3
		h0.3c0.2-0.9,0.4-1.7,0.6-2.5c-1.4-0.8-3.3-1.2-4.9-1.2c-5.3,0-9.7,2.9-9.7,9.2c0,5,3.9,8.2,9.1,8.2c1.7,0,3.4-0.3,4.8-1.1l0.5-2.1
		L1013.3,218.1L1013.3,218.1z"/>
	<path class="st3" d="M806.6,233.9c-0.2,0.7-0.6,1.4-0.8,2.1h-0.1l-1.8-5.3l-1-3.1c-0.1-0.6-0.3-1.2-0.5-1.7c-0.2,0-0.5,0-0.7,0
		s-0.5,0-0.7,0c0.6,1.5,2.7,7.9,4.3,12.1c0.1,0,0.2,0,0.3,0s0.2,0,0.3,0c0.5-2,3.6-11,4.1-12.1c-0.2,0-0.4,0-0.6,0
		c-0.1,0-0.3,0-0.5,0l-0.1,0.3l-0.8,2.9L806.6,233.9L806.6,233.9z"/>
	<path class="st3" d="M811.5,238c0.2,0,0.4,0,0.6,0c0.2,0,0.4,0,0.6,0v-12.1c-0.2,0-0.4,0-0.6,0c-0.2,0-0.4,0-0.6,0V238L811.5,238z"
		/>
	<path class="st3" d="M823.7,225.9c-0.1,0-0.3,0-0.4,0c-0.1,0-0.3,0-0.4,0v9.1h-0.1l-6.7-9.1h-0.6V238c0.1,0,0.3,0,0.4,0
		c0.1,0,0.2,0,0.4,0v-9.5h0.1l6.1,8.4c0.3,0.4,0.6,0.8,0.7,1.1h0.5V225.9L823.7,225.9z"/>
	<path class="st3" d="M833.7,236.1c-0.3,0.3-1.5,1.4-3,1.4c-2.2,0-3.8-2.2-3.8-5.5c0-3,1.3-5.6,3.9-5.6c1.5,0,2.5,1.2,2.7,1.5l0.1,0
		c0.1-0.5,0.1-0.9,0.3-1.3c-0.9-0.5-2-0.8-3-0.8c-3,0-5.3,2.3-5.3,6.2c0,3.9,1.9,6.3,5,6.3c1.1,0,2.2-0.2,3.1-1L833.7,236.1
		L833.7,236.1z"/>
	<path class="st3" d="M836.9,226.8h1.1l1.4,0c0.4,0,0.9,0.1,1.3,0.2c0-0.2,0-0.4,0-0.6c0-0.1,0-0.3,0-0.5h-5v12h5.1
		c0-0.2,0-0.4,0-0.6c0-0.2,0-0.3,0-0.5c-0.5,0.1-0.9,0.1-1.3,0.1c-0.8,0-1.7,0.1-2.5,0.1V232h2.2c0.5,0,0.9,0,1.3,0.1
		c0-0.2,0-0.4,0-0.5c0-0.1,0-0.3,0-0.5c-0.4,0-0.8,0.1-1.3,0.1h-2.2V226.8L836.9,226.8z"/>
	<path class="st3" d="M846.8,238c0.2,0,0.4,0,0.6,0c0.2,0,0.4,0,0.6,0v-12.1c-0.2,0-0.4,0-0.6,0c-0.2,0-0.5,0-0.6,0V238L846.8,238z"
		/>
	<path class="st3" d="M858.9,225.9c-0.1,0-0.3,0-0.4,0c-0.1,0-0.3,0-0.4,0v9.1H858l-6.7-9.1h-0.6V238c0.1,0,0.2,0,0.4,0
		c0.1,0,0.3,0,0.4,0v-9.5h0.1l6.1,8.4c0.3,0.4,0.6,0.8,0.7,1.1h0.4V225.9L858.9,225.9z"/>
	<path class="st3" d="M865.6,237.9h2c1,0,2.2,0,3-0.7c0.8-0.7,1.2-1.7,1.2-2.9c0-2.1-1.5-2.7-2.6-2.8c1.2-0.4,2.3-1.5,2.3-3.1
		c0-1.8-1.1-2.4-3.1-2.4h-2.8V237.9L865.6,237.9z M866.8,226.6h1.1c1.5,0,2.4,0.5,2.4,2.2c0,0.9-0.4,1.7-1.1,2.1
		c-0.8,0.5-1.6,0.4-2.4,0.4V226.6L866.8,226.6z M866.8,231.9h0.8c1.7,0,2.9,0.6,2.9,2.7c0,1.6-1,2.7-2.3,2.7h-1.4V231.9L866.8,231.9
		z"/>
	<path class="st3" d="M882.7,231.8c0.1,1.9-1,5.8-4,5.8c-2.1,0-3.9-1.9-3.9-5.5c0-3.5,1.5-5.9,4-5.9c1.1,0,2.2,0.6,2.9,1.7
		C882.5,229.1,882.7,230.3,882.7,231.8L882.7,231.8L882.7,231.8z M878.6,238.2c3.1,0,5.4-2.6,5.4-6.5c0-4.2-2.7-6-5.3-6
		c-2.9,0-5.3,2.4-5.3,6.3C873.4,235.7,875.5,238.2,878.6,238.2L878.6,238.2L878.6,238.2z"/>
	<path class="st3" d="M894.2,225.9c-0.1,0-0.3,0-0.4,0c-0.1,0-0.3,0-0.4,0v9.1h-0.1l-6.7-9.1H886V238c0.1,0,0.3,0,0.4,0
		c0.1,0,0.2,0,0.4,0v-9.5h0.1l6.1,8.4c0.3,0.4,0.6,0.8,0.7,1.1h0.4V225.9L894.2,225.9z"/>
	<path class="st3" d="M905.4,231.8c0.1,1.9-1,5.8-4,5.8c-2.1,0-3.8-1.9-3.8-5.5c0-3.5,1.5-5.9,4-5.9c1.1,0,2.2,0.6,2.9,1.7
		C905.2,229.1,905.4,230.3,905.4,231.8L905.4,231.8L905.4,231.8z M901.4,238.2c3.2,0,5.4-2.6,5.4-6.5c0-4.2-2.7-6-5.3-6
		c-2.9,0-5.2,2.4-5.2,6.3C896.2,235.7,898.3,238.2,901.4,238.2L901.4,238.2L901.4,238.2z"/>
	<path class="st3" d="M921.7,225.9c-1.4,3.1-2.8,6.2-4.1,9.3c-1.5-3.1-2.9-6.5-4-9.3h-0.4c-0.1,1.8-1,9.2-1.4,12.1
		c0.2,0,0.3,0,0.5,0c0.2,0,0.3,0,0.5,0c0-2.2,0.4-5.7,0.7-9.1c1,2.3,1.9,4.6,2.9,6.9l0.8,2h0.1c0.9-2.4,2.1-5.3,3.7-8.9
		c0.2,1.8,0.5,5.6,0.7,9.1c0.2,0,0.4,0,0.6,0c0.2,0,0.4,0,0.7,0c-0.4-3.4-0.8-7.7-1.2-12.1H921.7L921.7,225.9z"/>
	<path class="st3" d="M928.8,225.6h-0.4L924,238c0.1,0,0.3,0,0.5,0c0.1,0,0.3,0,0.5,0c0.4-1.7,0.9-3.2,1.4-4.8h3.6
		c0.6,1.6,1.1,3.3,1.5,4.8c0.2,0,0.5,0,0.7,0c0.3,0,0.5,0,0.7,0L928.8,225.6L928.8,225.6z M929.8,232.5h-3.1l1.6-4.5L929.8,232.5
		L929.8,232.5z"/>
	<path class="st3" d="M935.7,225.9c-0.2,0-0.4,0-0.6,0c-0.2,0-0.4,0-0.6,0v12h5.1c0-0.2,0-0.4,0-0.6c0-0.2,0-0.3,0-0.5
		c-0.5,0-0.9,0.1-1.3,0.1c-0.8,0-1.7,0.1-2.6,0.1V225.9L935.7,225.9z"/>
	<path class="st3" d="M942.8,225.9c-0.2,0-0.4,0-0.6,0c-0.2,0-0.5,0-0.6,0v7.1c0,1.4,0.1,3,1,4c0.7,0.8,1.7,1.2,3.1,1.2
		c2.5,0,4.1-1.8,4.1-5.3v-7c-0.1,0-0.3,0-0.4,0c-0.1,0-0.2,0-0.4,0v6.6c0,2.9-0.8,4.9-3,4.9c-2.4,0-3.1-1.6-3.1-4.7V225.9
		L942.8,225.9z"/>
	<path class="st3" d="M961.6,225.9c-1.4,3.1-2.7,6.2-4.1,9.3c-1.5-3.1-2.9-6.5-4-9.3h-0.4c-0.1,1.8-1,9.2-1.3,12.1
		c0.2,0,0.3,0,0.5,0c0.1,0,0.3,0,0.5,0c0-2.2,0.4-5.7,0.7-9.1c1,2.3,1.9,4.6,2.9,6.9l0.7,2h0.2c0.8-2.4,2.1-5.3,3.7-8.9
		c0.2,1.8,0.5,5.6,0.7,9.1c0.2,0,0.4,0,0.6,0c0.2,0,0.4,0,0.6,0c-0.4-3.4-0.7-7.7-1.1-12.1H961.6L961.6,225.9z"/>
	<path class="st3" d="M967.8,228.8c-0.4-0.8-0.8-1.7-1.2-2.5c-0.1,0-0.2,0-0.2,0c-0.1,0-0.1,0-0.2,0c-0.2,1.3-0.4,2.6-0.6,3.6
		c0.1,0,0.2,0,0.3,0c0,0,0.1,0,0.2,0c0-0.7,0.1-1.5,0.2-2.4c0.4,0.8,0.8,1.7,1.2,2.4c0.1,0,0.1,0,0.2,0c0.4-0.8,0.8-1.7,1.2-2.5
		c0.1,0.8,0.2,1.7,0.2,2.5c0.1,0,0.3,0,0.4,0c0.2,0,0.3,0,0.5,0c-0.2-1.1-0.3-2.2-0.5-3.6c-0.1,0-0.1,0-0.2,0c-0.1,0-0.1,0-0.2,0
		C968.6,227.3,968.2,228.1,967.8,228.8L967.8,228.8z"/>
	<path class="st3" d="M970.6,230c0.1,0,0.2,0,0.4,0c0.1,0,0.3,0,0.4,0v-1.7h0c0.1,0.2,0.3,0.5,0.3,0.6l0.6,1.1c0.1,0,0.3,0,0.5,0
		c0.2,0,0.3,0,0.5,0l-0.2-0.3c-0.3-0.5-0.6-1-0.9-1.5c0.5-0.1,0.8-0.5,0.8-1c0-0.4-0.1-0.6-0.5-0.8c-0.2-0.1-0.6-0.1-0.9-0.1h-1.1
		V230L970.6,230z M971.4,226.6c0.3,0,0.7,0,0.8,0.4c0,0.1,0,0.2,0,0.3c0,0.5-0.3,0.8-0.8,0.7V226.6L971.4,226.6z"/>
</g>
<g transform="translate(-107.000000,481.045497) rotate(-360.00) scale(0.095238,-0.095238)">
	<path class="st4" d="M5658.7,3380.5v-425.8h106.1h106.3v425.8v426h-106.3h-106.1V3380.5z"/>
	<path class="st4" d="M5949.1,3715.5v-91l143.4-0.6l143.7-0.6l0.4-334.2l0.6-334.4h106.3h106.1l0.6,334.4l0.4,334.2l143.7,0.6
		l143.7,0.6v91v91h-394.4h-394.4V3715.5z"/>
	<path class="st4" d="M6813.7,3715.5v-91l177.1-0.2c170.9,0,177.5-0.2,186.6-4.1c7.2-3.3,10.1-6.4,13.6-14c3.9-8.9,4.1-13.8,3.7-57
		l-0.6-47.3l-236.3-1c-188-1-238-1.9-244.8-4.1c-33.4-10.9-67.7-40.2-81.7-69.6c-14-29.3-13.6-23.9-13.6-201.4v-161.6l6.6-18.4
		c14.7-41.1,44.6-71,85.2-85l14.2-5H7038h314.1l10.1,4.7c14.4,6.6,29.3,21.3,37.4,36.3l6.8,13.2v369.5v369.5l-5.8,12.4
		c-7.4,15.7-21.3,29.7-37.8,37.8l-12.8,6.2l-268.3,0.6l-268.1,0.6V3715.5z M7195.1,3250.9c0-78.8-1-84.8-15.9-99.9
		c-6-5.8-12.6-10.1-18.8-11.8c-7.4-2.1-43.3-2.5-148.4-2.1l-138.7,0.6l-11.6,6.4c-6.4,3.5-14.4,10.1-18,14.4
		c-11.4,14.4-12.8,22.1-12.8,69.1c0,47.3,1.4,54.7,13,69.3c3.9,5,12.2,11.1,20,15.1l13.2,6.6h158.9h158.9V3250.9z"/>
	<path class="st4" d="M7554.9,3803c-15.9-4.3-32.6-16.1-42.1-29.7c-15.3-22.3-14.2,5.6-14.2-427.9v-390.7h106.1h106.3l0.4,323.8
		c0.6,323.2,0.6,323.8,5.2,329.8c2.5,3.3,7.2,8,10.5,10.5c5.6,4.1,8.7,4.3,71.2,4.3h65.4l0.6-334.2l0.6-334.4h106.1h106.3v335v335
		l65.8-0.8c62.7-0.6,66.3-0.8,72-5c3.3-2.5,7.8-7.8,9.9-12c3.5-7,3.7-27.2,3.7-329.8l0.2-322.4H8335h106.3l-0.6,398.1l-0.6,398.3
		l-6,12.2c-7.2,14.9-21.5,28.5-38,36.1l-12.4,5.8l-408.5,0.4C7621.9,3806.1,7565.2,3805.7,7554.9,3803z"/>
</g>
</svg>
