<?xml version="1.0" encoding="utf-8"?>
<!-- Generator: Adobe Illustrator 22.1.0, SVG Export Plug-In . SVG Version: 6.00 Build 0)  -->
<svg version="1.1" id="Capa_2_1_" xmlns="http://www.w3.org/2000/svg" xmlns:xlink="http://www.w3.org/1999/xlink" x="0px" y="0px"
	 viewBox="0 0 777 676.5" style="enable-background:new 0 0 777 676.5;" xml:space="preserve">
<style type="text/css">
	.st0{fill:#555555;}
	.st1{fill:#464646;stroke:#464646;stroke-width:16.7905;stroke-miterlimit:10;}
	.st2{fill:#464646;stroke:#464646;stroke-width:17;stroke-miterlimit:10;}
	.st3{fill:#FFFFFF;}
	.st4{fill:#FFFFFF;stroke:#FFFFFF;stroke-width:16.7905;stroke-miterlimit:10;}
	.st5{fill:#FFFFFF;stroke:#FFFFFF;stroke-width:17;stroke-miterlimit:10;}
</style>
<path class="st0" d="M459.1,263.8c-2.8,2.5-7.3,2.5-10.1-0.1c-54.6-49.2-190-161.9-239-161.4c-9.8,0.1-13.1,3.6-14.7,6.2
	c-11.3,18.4,15.5,73.8,37.2,108.2c2,3.1,0.8,7-2.5,8.8l0,0c-3.5,1.8-8,0.7-10-2.5c-13.8-22-54.9-92.3-37.3-121
	c3.6-5.8,11.1-12.7,27-12.8c28.7-0.3,80.4,28.4,153.8,85.3c43.4,33.7,82,67.8,95.6,79.9C461.9,257.1,461.9,261.2,459.1,263.8
	L459.1,263.8z"/>
<path class="st0" d="M621.6,578.3c-4,0-8.3-0.4-12.9-1.1c-43.1-6.8-98.3-45.6-116.3-59c-3.2-2.4-3.9-7-1.4-10.2l0,0
	c2.4-3.1,6.8-3.7,9.9-1.4c17.2,12.7,70.5,50.2,109.9,56.4c13.2,2.1,22.2,0.7,26-4c2.9-3.5,3-8.9,2.3-13.2c-0.5-3.4,1.5-6.6,4.6-7.8
	l0,0c4.3-1.6,9,1.2,9.6,5.7c1,6.9,0.9,16.8-5.4,24.4C642.6,574.9,633.7,578.3,621.6,578.3z"/>
<path class="st0" d="M505.8,361.2c-3-2.6-7.5-2.4-10.2,0.6C429.2,436,364.9,491.2,304.2,525.9c-50.6,29-85.6,36-102,37.6
	c-4.6,0.4-8.8-2.6-9.7-7c-1.9-9.6-0.8-21.6,3.4-35.9c1.3-4.4-2.8-8.4-7.1-7.1h0c-1.1,0.3-2.2,0.7-3.3,1c-1.9,0.6-3.4,2.1-3.9,4
	c-4.1,14.8-5.7,28.8-3.3,40.8c2.2,10.9,11.8,18.6,22.9,18.6c0.8,0,1.6,0,2.4-0.1c39.1-3.8,146.3-31.6,302.8-206.5
	C509.1,368.4,508.8,363.9,505.8,361.2z"/>
<path class="st0" d="M605,402.7L605,402.7c-0.6-3.4,1.6-6.6,4.9-7.3c10.7-2.2,34.2-7.5,57.2-15.8c21-7.7,55.5-23.3,57.4-43.6
	c0.1-1.4-0.2-2.7-0.9-3.9c-4.2-7-22.1-29.2-86-44.9c-3.4-0.8-5.4-4.2-4.7-7.5l0,0c0.8-3.4,4.3-5.6,7.7-4.7
	c83.4,20.5,95.1,52.2,96.2,55.8l0.2,0.7v0.7c1.6,22.9-20.6,42.9-65.8,59.4c-23.9,8.7-47.8,14.1-58.8,16.3
	C609,408.6,605.6,406.3,605,402.7z"/>
<path class="st0" d="M408.3,422.5c-34.1-0.7-166.3-4.2-204.9-18c-3.8-1.4-5.4-6-3.1-9.4l0,0c1.6-2.4,4.7-3.4,7.4-2.4
	c27,10.2,130.3,15.7,200.9,17.1c3.4,0.1,6.2,2.9,6.1,6.3v0.1C414.6,419.9,411.7,422.6,408.3,422.5z"/>
<path class="st0" d="M276.6,266.6L276.6,266.6c-0.3-3.5-2.7-6-5.2-5.5c-12.7,2.3-48.4,9.7-79.8,23.7c-2.6,1.1-3.9,5-2.9,8.4l0,0
	c0.9,3.1,3.4,4.7,5.7,3.6c30.5-13.5,65.9-20.9,78.2-23.2C275.1,273.2,276.9,270.1,276.6,266.6z"/>
<path class="st0" d="M473.1,415.5L473.1,415.5c-0.2-3.5,2.4-6.5,5.9-6.7l64.7-4c3.5-0.2,6.5,2.4,6.7,5.9l0,0
	c0.2,3.5-2.4,6.5-5.9,6.7l-64.7,4C476.3,421.7,473.3,419,473.1,415.5z"/>
<path class="st0" d="M538.2,322.5L538.2,322.5c-2.7-2.2-3.1-6.1-0.9-8.8c33.6-42,107.8-144,104.6-183.8c-0.1-1.4-0.1-2.9-0.1-4.5
	c0.1-2.4-0.4-6.9-4.1-10.2c-4.3-3.8-12.2-5.2-23-4.1c-3.3,0.3-6.3-1.9-6.9-5.2l0,0c-0.6-3.6,2-7,5.6-7.3c14.5-1.5,25.4,0.9,32.5,7.1
	c7.9,6.9,8.5,16.3,8.4,20.1c0,1.2,0,2.2,0.1,3.1c1.9,23.5-16.4,64-54.4,120.5c-21.7,32.3-44.1,61-52.9,72.2
	C544.9,324.3,540.9,324.8,538.2,322.5z"/>
<path class="st0" d="M465.7,188.2L465.7,188.2c-2.1-2.8-1.6-6.8,1.2-8.9l32.5-24.6c2.8-2.1,6.7-1.6,8.8,1.2l0,0
	c2.1,2.8,1.6,6.7-1.2,8.8l-32.5,24.6C471.8,191.5,467.9,191,465.7,188.2z"/>
<circle class="st0" cx="558.3" cy="126.6" r="11.8"/>
<path class="st0" d="M406.5,326.6c-1.4,1.1-3.4,1.1-4.7-0.1c-2.6-2.5-5.2-3.7-7.7-3.6c-3,0.1-5.7,2-7.4,3.6
	c-1.3,1.2-3.2,1.3-4.6,0.3l0,0c-1.9-1.3-2-4-0.3-5.6c2.6-2.4,6.8-5.3,12-5.5c4.5-0.1,8.8,1.7,12.8,5.5
	C408.3,322.7,408.2,325.2,406.5,326.6L406.5,326.6z"/>
<path class="st0" d="M467.5,326.4c-1.4,1.1-3.4,1.1-4.7-0.1c-2.6-2.5-5.2-3.7-7.7-3.6c-3,0.1-5.7,2-7.4,3.6
	c-1.3,1.2-3.2,1.3-4.6,0.3l0,0c-1.9-1.3-2-4-0.3-5.6c2.6-2.4,6.8-5.3,12-5.5c4.5-0.1,8.8,1.7,12.8,5.5
	C469.3,322.4,469.2,325,467.5,326.4L467.5,326.4z"/>
<path class="st0" d="M446.7,345.2h-45c0,0-3.6,20.7,22.5,20.1C450.2,364.7,446.7,345.2,446.7,345.2z"/>
<g>
	<path class="st1" d="M150.1,190.6c2.2-2,4.9-3,8.1-3.3c-0.7,0-1.5-0.1-2.2,0c-4.1,0.3-7.5,1.9-10.2,4.9l-38.9,40.5
		c-2.7,2.7-3.9,5.8-3.6,9.4c0.3,3.6,2,6.5,5.1,8.9c3.1,1.7,6.3,2.7,9.7,2.7c4.1,0,7.9-1.5,11.3-4.4l17.1-17.8v-32.8
		C146.5,195.4,147.7,192.7,150.1,190.6z"/>
	<path class="st1" d="M224.7,460.4c-2.5-2.1-5.6-3.1-9.1-3.1H172V198.6c0-3.1-1.2-5.7-3.6-8c-2.4-2.2-5.5-3.3-9.1-3.3
		c-0.4,0-0.7,0-1,0c3.2,0.2,6,1.2,8.5,3.1c3.1,2.3,4.8,5.3,5.1,8.9s-0.9,6.7-3.6,9.4l-21.8,22.7v225.8h-43.6c-3.3,0-6.2,1-8.7,3.1
		s-3.8,4.8-3.8,7.9c0,3.2,1.3,5.9,3.8,8.2c2.5,2.3,5.4,3.4,8.7,3.4h112.6c3.6,0,6.6-1.1,9.2-3.4c2.5-2.3,3.8-5,3.8-8.2
		C228.5,465.2,227.3,462.5,224.7,460.4z"/>
	<path class="st1" d="M171.9,199.4c-0.3-3.6-2-6.5-5.1-8.9c-2.5-1.9-5.3-3-8.5-3.1c-3.2,0.2-5.9,1.3-8.1,3.3c-2.4,2.2-3.6,4.9-3.6,8
		v32.8l21.8-22.7C171,206.1,172.2,202.9,171.9,199.4z"/>
</g>
<path class="st2" d="M417.8,479.8c-17.4,0-71.2-3.9-110-47.9c-18.2-20.6-29.9-46.4-33.8-74.6c-3.7-27-0.2-54.5,10.3-79.5
	c1.4-3.2,34.2-79.2,114.1-89.5c30.5-3.9,62.4,2.9,90.1,19.1c24.5,14.4,44.5,35.2,58.3,60.4c3.2,5.9,0.8,13.2-5.3,16l0,0
	c-5.5,2.5-11.9,0.3-14.8-4.9c-25.6-46.6-75.8-74.2-125.3-67.9c-67,8.6-95.6,74.9-95.9,75.5c-8.9,21.2-11.9,44.5-8.7,67.4
	c3.3,23.7,13,45.3,28.3,62.5c33.4,37.8,80.2,40.2,93.8,40.1c31.2-0.3,55.5-12.2,70.4-22.3c5-3.3,11.7-2.3,15.4,2.4l0,0
	c4.2,5.3,3,13-2.6,16.7c-17.6,11.8-46.2,25.8-83,26.1C418.6,479.8,418.2,479.8,417.8,479.8z"/>
<circle class="st0" cx="630.1" cy="478.2" r="12.5"/>
<path class="st0" d="M123.5,361.8c-2.2,1.9-5.5,1.6-7.3-0.7c-5.9-8.1-8.4-16.4-7.4-24.7c1.2-9.9,7.1-17.4,11.4-21.6
	c2.2-2.2,5.8-1.8,7.6,0.7l2.6,3.7l-2.9-4.1l0.3,0.4c1.4,2,1.2,4.7-0.6,6.4c-3.2,3.1-7.7,8.6-8.5,15.7c-0.7,5.7,1.2,11.5,5.5,17.4
	C125.7,357.2,125.4,360,123.5,361.8L123.5,361.8z"/>
<path class="st0" d="M603.6,443.6C578,396.5,500.7,317.7,480.5,297.5c-2.7-2.7-2.7-7.1,0-9.8l0,0c2.7-2.8,7.2-2.8,9.9-0.1
	c9.2,9.2,29.7,30,51.8,54.3c36.5,40.2,61.3,72.1,73.7,95.1c1.9,3.5,0.5,7.9-3.2,9.7l0,0C609.4,448.2,605.3,446.9,603.6,443.6z"/>
<circle class="st0" cx="235" cy="246" r="10.2"/>
<path class="st3" d="M1234.1,268.8c-2.8,2.5-7.3,2.5-10.1-0.1c-54.6-49.2-190-161.9-239-161.4c-9.8,0.1-13.1,3.6-14.7,6.2
	c-11.3,18.4,15.5,73.8,37.2,108.2c2,3.1,0.8,7-2.5,8.8l0,0c-3.5,1.8-8,0.7-10-2.5c-13.8-22-54.9-92.3-37.3-121
	c3.6-5.8,11.1-12.7,27-12.8c28.7-0.3,80.4,28.4,153.8,85.3c43.4,33.7,82,67.8,95.6,79.9C1236.9,262.1,1236.9,266.2,1234.1,268.8
	L1234.1,268.8z"/>
<path class="st3" d="M1396.6,583.3c-4,0-8.3-0.4-12.9-1.1c-43.1-6.8-98.3-45.6-116.3-59c-3.2-2.4-3.9-7-1.4-10.2l0,0
	c2.4-3.1,6.8-3.7,9.9-1.4c17.2,12.7,70.5,50.2,109.9,56.4c13.2,2.1,22.2,0.7,26-4c2.9-3.5,3-8.9,2.3-13.2c-0.5-3.4,1.5-6.6,4.6-7.8
	l0,0c4.3-1.6,9,1.2,9.6,5.7c1,6.9,0.9,16.8-5.4,24.4C1417.6,579.9,1408.7,583.3,1396.6,583.3z"/>
<path class="st3" d="M1280.8,366.2c-3-2.6-7.5-2.4-10.2,0.6c-66.4,74.2-130.7,129.4-191.4,164.1c-50.6,29-85.6,36-102,37.6
	c-4.6,0.4-8.8-2.6-9.7-7c-1.9-9.6-0.8-21.6,3.4-35.9c1.3-4.4-2.8-8.4-7.1-7.1l0,0c-1.1,0.3-2.2,0.7-3.3,1c-1.9,0.6-3.4,2.1-3.9,4
	c-4.1,14.8-5.7,28.8-3.3,40.8c2.2,10.9,11.8,18.6,22.9,18.6c0.8,0,1.6,0,2.4-0.1c39.1-3.8,146.3-31.6,302.8-206.5
	C1284.1,373.4,1283.8,368.9,1280.8,366.2z"/>
<path class="st3" d="M1380,407.7L1380,407.7c-0.6-3.4,1.6-6.6,4.9-7.3c10.7-2.2,34.2-7.5,57.2-15.8c21-7.7,55.5-23.3,57.4-43.6
	c0.1-1.4-0.2-2.7-0.9-3.9c-4.2-7-22.1-29.2-86-44.9c-3.4-0.8-5.4-4.2-4.7-7.5l0,0c0.8-3.4,4.3-5.6,7.7-4.7
	c83.4,20.5,95.1,52.2,96.2,55.8l0.2,0.7v0.7c1.6,22.9-20.6,42.9-65.8,59.4c-23.9,8.7-47.8,14.1-58.8,16.3
	C1384,413.6,1380.6,411.3,1380,407.7z"/>
<path class="st3" d="M1183.3,427.5c-34.1-0.7-166.3-4.2-204.9-18c-3.8-1.4-5.4-6-3.1-9.4l0,0c1.6-2.4,4.7-3.4,7.4-2.4
	c27,10.2,130.3,15.7,200.9,17.1c3.4,0.1,6.2,2.9,6.1,6.3v0.1C1189.6,424.9,1186.7,427.6,1183.3,427.5z"/>
<path class="st3" d="M1051.6,271.6L1051.6,271.6c-0.3-3.5-2.7-6-5.2-5.5c-12.7,2.3-48.4,9.7-79.8,23.7c-2.6,1.1-3.9,5-2.9,8.4l0,0
	c0.9,3.1,3.4,4.7,5.7,3.6c30.5-13.5,65.9-20.9,78.2-23.2C1050.1,278.2,1051.9,275.1,1051.6,271.6z"/>
<path class="st3" d="M1248.1,420.5L1248.1,420.5c-0.2-3.5,2.4-6.5,5.9-6.7l64.7-4c3.5-0.2,6.5,2.4,6.7,5.9l0,0
	c0.2,3.5-2.4,6.5-5.9,6.7l-64.7,4C1251.3,426.7,1248.3,424,1248.1,420.5z"/>
<path class="st3" d="M1313.2,327.5L1313.2,327.5c-2.7-2.2-3.1-6.1-0.9-8.8c33.6-42,107.8-144,104.6-183.8c-0.1-1.4-0.1-2.9-0.1-4.5
	c0.1-2.4-0.4-6.9-4.1-10.2c-4.3-3.8-12.2-5.2-23-4.1c-3.3,0.3-6.3-1.9-6.9-5.2l0,0c-0.6-3.6,2-7,5.6-7.3c14.5-1.5,25.4,0.9,32.5,7.1
	c7.9,6.9,8.5,16.3,8.4,20.1c0,1.2,0,2.2,0.1,3.1c1.9,23.5-16.4,64-54.4,120.5c-21.7,32.3-44.1,61-52.9,72.2
	C1319.9,329.3,1315.9,329.8,1313.2,327.5z"/>
<path class="st3" d="M1240.7,193.2L1240.7,193.2c-2.1-2.8-1.6-6.8,1.2-8.9l32.5-24.6c2.8-2.1,6.7-1.6,8.8,1.2l0,0
	c2.1,2.8,1.6,6.7-1.2,8.8l-32.5,24.6C1246.8,196.5,1242.9,196,1240.7,193.2z"/>
<circle class="st3" cx="1333.3" cy="131.6" r="11.8"/>
<path class="st3" d="M1181.5,331.6c-1.4,1.1-3.4,1.1-4.7-0.1c-2.6-2.5-5.2-3.7-7.7-3.6c-3,0.1-5.7,2-7.4,3.6
	c-1.3,1.2-3.2,1.3-4.6,0.3l0,0c-1.9-1.3-2-4-0.3-5.6c2.6-2.4,6.8-5.3,12-5.5c4.5-0.1,8.8,1.7,12.8,5.5
	C1183.3,327.7,1183.2,330.2,1181.5,331.6L1181.5,331.6z"/>
<path class="st3" d="M1242.5,331.4c-1.4,1.1-3.4,1.1-4.7-0.1c-2.6-2.5-5.2-3.7-7.7-3.6c-3,0.1-5.7,2-7.4,3.6
	c-1.3,1.2-3.2,1.3-4.6,0.3l0,0c-1.9-1.3-2-4-0.3-5.6c2.6-2.4,6.8-5.3,12-5.5c4.5-0.1,8.8,1.7,12.8,5.5
	C1244.3,327.4,1244.2,330,1242.5,331.4L1242.5,331.4z"/>
<path class="st3" d="M1221.7,350.2h-45c0,0-3.6,20.7,22.5,20.1C1225.2,369.7,1221.7,350.2,1221.7,350.2z"/>
<g>
	<path class="st4" d="M925.1,195.6c2.2-2,4.9-3,8.1-3.3c-0.7,0-1.5-0.1-2.2,0c-4.1,0.3-7.5,1.9-10.2,4.9l-38.9,40.5
		c-2.7,2.7-3.9,5.8-3.6,9.4c0.3,3.6,2,6.5,5.1,8.9c3.1,1.7,6.3,2.7,9.7,2.7c4.1,0,7.9-1.5,11.3-4.4l17.1-17.8v-32.8
		C921.5,200.4,922.7,197.7,925.1,195.6z"/>
	<path class="st4" d="M999.7,465.4c-2.5-2.1-5.6-3.1-9.1-3.1H947V203.6c0-3.1-1.2-5.7-3.6-8c-2.4-2.2-5.5-3.3-9.1-3.3
		c-0.4,0-0.7,0-1,0c3.2,0.2,6,1.2,8.5,3.1c3.1,2.3,4.8,5.3,5.1,8.9c0.3,3.6-0.9,6.7-3.6,9.4l-21.8,22.7v225.8h-43.6
		c-3.3,0-6.2,1-8.7,3.1s-3.8,4.8-3.8,7.9c0,3.2,1.3,5.9,3.8,8.2c2.5,2.3,5.4,3.4,8.7,3.4h112.6c3.6,0,6.6-1.1,9.2-3.4
		c2.5-2.3,3.8-5,3.8-8.2C1003.5,470.2,1002.3,467.5,999.7,465.4z"/>
	<path class="st4" d="M946.9,204.4c-0.3-3.6-2-6.5-5.1-8.9c-2.5-1.9-5.3-3-8.5-3.1c-3.2,0.2-5.9,1.3-8.1,3.3c-2.4,2.2-3.6,4.9-3.6,8
		v32.8l21.8-22.7C946,211.1,947.2,207.9,946.9,204.4z"/>
</g>
<path class="st5" d="M1192.8,484.8c-17.4,0-71.2-3.9-110-47.9c-18.2-20.6-29.9-46.4-33.8-74.6c-3.7-27-0.2-54.5,10.3-79.5
	c1.4-3.2,34.2-79.2,114.1-89.5c30.5-3.9,62.4,2.9,90.1,19.1c24.5,14.4,44.5,35.2,58.3,60.4c3.2,5.9,0.8,13.2-5.3,16l0,0
	c-5.5,2.5-11.9,0.3-14.8-4.9c-25.6-46.6-75.8-74.2-125.3-67.9c-67,8.6-95.6,74.9-95.9,75.5c-8.9,21.2-11.9,44.5-8.7,67.4
	c3.3,23.7,13,45.3,28.3,62.5c33.4,37.8,80.2,40.2,93.8,40.1c31.2-0.3,55.5-12.2,70.4-22.3c5-3.3,11.7-2.3,15.4,2.4l0,0
	c4.2,5.3,3,13-2.6,16.7c-17.6,11.8-46.2,25.8-83,26.1C1193.6,484.8,1193.2,484.8,1192.8,484.8z"/>
<circle class="st3" cx="1405.1" cy="483.2" r="12.5"/>
<path class="st3" d="M898.5,366.8c-2.2,1.9-5.5,1.6-7.3-0.7c-5.9-8.1-8.4-16.4-7.4-24.7c1.2-9.9,7.1-17.4,11.4-21.6
	c2.2-2.2,5.8-1.8,7.6,0.7l2.6,3.7l-2.9-4.1l0.3,0.4c1.4,2,1.2,4.7-0.6,6.4c-3.2,3.1-7.7,8.6-8.5,15.7c-0.7,5.7,1.2,11.5,5.5,17.4
	C900.7,362.2,900.4,365,898.5,366.8L898.5,366.8z"/>
<path class="st3" d="M1378.6,448.6c-25.6-47.1-102.9-125.9-123.1-146.1c-2.7-2.7-2.7-7.1,0-9.8l0,0c2.7-2.8,7.2-2.8,9.9-0.1
	c9.2,9.2,29.7,30,51.8,54.3c36.5,40.2,61.3,72.1,73.7,95.1c1.9,3.5,0.5,7.9-3.2,9.7l0,0C1384.4,453.2,1380.3,451.9,1378.6,448.6z"/>
<circle class="st3" cx="1010" cy="251" r="10.2"/>
</svg>
