<?xml version="1.0" encoding="utf-8"?>
<!-- Generator: Adobe Illustrator 22.1.0, SVG Export Plug-In . SVG Version: 6.00 Build 0)  -->
<svg version="1.1" id="Capa_2_1_" xmlns="http://www.w3.org/2000/svg" xmlns:xlink="http://www.w3.org/1999/xlink" x="0px" y="0px"
	 viewBox="0 0 777 676.5" style="enable-background:new 0 0 777 676.5;" xml:space="preserve">
<style type="text/css">
	.st0{fill:#555555;}
	.st1{fill:#464646;stroke:#464646;stroke-width:16.7905;stroke-miterlimit:10;}
	.st2{fill:#464646;stroke:#464646;stroke-width:17;stroke-miterlimit:10;}
	.st3{fill:#FFFFFF;}
	.st4{fill:#FFFFFF;stroke:#FFFFFF;stroke-width:16.7905;stroke-miterlimit:10;}
	.st5{fill:#FFFFFF;stroke:#FFFFFF;stroke-width:17;stroke-miterlimit:10;}
</style>
<path class="st3" d="M437.1,268.8c-2.8,2.5-7.3,2.5-10.1-0.1c-54.6-49.2-190-161.9-239-161.4c-9.8,0.1-13.1,3.6-14.7,6.2
	c-11.3,18.4,15.5,73.8,37.2,108.2c2,3.1,0.8,7-2.5,8.8l0,0c-3.5,1.8-8,0.7-10-2.5c-13.8-22-54.9-92.3-37.3-121
	c3.6-5.8,11.1-12.7,27-12.8c28.7-0.3,80.4,28.4,153.8,85.3c43.4,33.7,82,67.8,95.6,79.9C439.9,262.1,439.9,266.2,437.1,268.8
	L437.1,268.8z"/>
<path class="st3" d="M599.6,583.3c-4,0-8.3-0.4-12.9-1.1c-43.1-6.8-98.3-45.6-116.3-59c-3.2-2.4-3.9-7-1.4-10.2l0,0
	c2.4-3.1,6.8-3.7,9.9-1.4c17.2,12.7,70.5,50.2,109.9,56.4c13.2,2.1,22.2,0.7,26-4c2.9-3.5,3-8.9,2.3-13.2c-0.5-3.4,1.5-6.6,4.6-7.8
	l0,0c4.3-1.6,9,1.2,9.6,5.7c1,6.9,0.9,16.8-5.4,24.4C620.6,579.9,611.7,583.3,599.6,583.3z"/>
<path class="st3" d="M483.8,366.2c-3-2.6-7.5-2.4-10.2,0.6C407.2,441,342.9,496.2,282.2,530.9c-50.6,29-85.6,36-102,37.6
	c-4.6,0.4-8.8-2.6-9.7-7c-1.9-9.6-0.8-21.6,3.4-35.9c1.3-4.4-2.8-8.4-7.1-7.1h0c-1.1,0.3-2.2,0.7-3.3,1c-1.9,0.6-3.4,2.1-3.9,4
	c-4.1,14.8-5.7,28.8-3.3,40.8c2.2,10.9,11.8,18.6,22.9,18.6c0.8,0,1.6,0,2.4-0.1c39.1-3.8,146.3-31.6,302.8-206.5
	C487.1,373.4,486.8,368.9,483.8,366.2z"/>
<path class="st3" d="M583,407.7L583,407.7c-0.6-3.4,1.6-6.6,4.9-7.3c10.7-2.2,34.2-7.5,57.2-15.8c21-7.7,55.5-23.3,57.4-43.6
	c0.1-1.4-0.2-2.7-0.9-3.9c-4.2-7-22.1-29.2-86-44.9c-3.4-0.8-5.4-4.2-4.7-7.5l0,0c0.8-3.4,4.3-5.6,7.7-4.7
	c83.4,20.5,95.1,52.2,96.2,55.8l0.2,0.7v0.7c1.6,22.9-20.6,42.9-65.8,59.4c-23.9,8.7-47.8,14.1-58.8,16.3
	C587,413.6,583.6,411.3,583,407.7z"/>
<path class="st3" d="M386.3,427.5c-34.1-0.7-166.3-4.2-204.9-18c-3.8-1.4-5.4-6-3.1-9.4l0,0c1.6-2.4,4.7-3.4,7.4-2.4
	c27,10.2,130.3,15.7,200.9,17.1c3.4,0.1,6.2,2.9,6.1,6.3v0.1C392.6,424.9,389.7,427.6,386.3,427.5z"/>
<path class="st3" d="M254.6,271.6L254.6,271.6c-0.3-3.5-2.7-6-5.2-5.5c-12.7,2.3-48.4,9.7-79.8,23.7c-2.6,1.1-3.9,5-2.9,8.4l0,0
	c0.9,3.1,3.4,4.7,5.7,3.6c30.5-13.5,65.9-20.9,78.2-23.2C253.1,278.2,254.9,275.1,254.6,271.6z"/>
<path class="st3" d="M451.1,420.5L451.1,420.5c-0.2-3.5,2.4-6.5,5.9-6.7l64.7-4c3.5-0.2,6.5,2.4,6.7,5.9l0,0
	c0.2,3.5-2.4,6.5-5.9,6.7l-64.7,4C454.3,426.7,451.3,424,451.1,420.5z"/>
<path class="st3" d="M516.2,327.5L516.2,327.5c-2.7-2.2-3.1-6.1-0.9-8.8c33.6-42,107.8-144,104.6-183.8c-0.1-1.4-0.1-2.9-0.1-4.5
	c0.1-2.4-0.4-6.9-4.1-10.2c-4.3-3.8-12.2-5.2-23-4.1c-3.3,0.3-6.3-1.9-6.9-5.2l0,0c-0.6-3.6,2-7,5.6-7.3c14.5-1.5,25.4,0.9,32.5,7.1
	c7.9,6.9,8.5,16.3,8.4,20.1c0,1.2,0,2.2,0.1,3.1c1.9,23.5-16.4,64-54.4,120.5c-21.7,32.3-44.1,61-52.9,72.2
	C522.9,329.3,518.9,329.8,516.2,327.5z"/>
<path class="st3" d="M443.7,193.2L443.7,193.2c-2.1-2.8-1.6-6.8,1.2-8.9l32.5-24.6c2.8-2.1,6.7-1.6,8.8,1.2l0,0
	c2.1,2.8,1.6,6.7-1.2,8.8l-32.5,24.6C449.8,196.5,445.9,196,443.7,193.2z"/>
<circle class="st3" cx="536.3" cy="131.6" r="11.8"/>
<path class="st3" d="M384.5,331.6c-1.4,1.1-3.4,1.1-4.7-0.1c-2.6-2.5-5.2-3.7-7.7-3.6c-3,0.1-5.7,2-7.4,3.6
	c-1.3,1.2-3.2,1.3-4.6,0.3l0,0c-1.9-1.3-2-4-0.3-5.6c2.6-2.4,6.8-5.3,12-5.5c4.5-0.1,8.8,1.7,12.8,5.5
	C386.3,327.7,386.2,330.2,384.5,331.6L384.5,331.6z"/>
<path class="st3" d="M445.5,331.4c-1.4,1.1-3.4,1.1-4.7-0.1c-2.6-2.5-5.2-3.7-7.7-3.6c-3,0.1-5.7,2-7.4,3.6
	c-1.3,1.2-3.2,1.3-4.6,0.3l0,0c-1.9-1.3-2-4-0.3-5.6c2.6-2.4,6.8-5.3,12-5.5c4.5-0.1,8.8,1.7,12.8,5.5
	C447.3,327.4,447.2,330,445.5,331.4L445.5,331.4z"/>
<path class="st3" d="M424.7,350.2h-45c0,0-3.6,20.7,22.5,20.1C428.2,369.7,424.7,350.2,424.7,350.2z"/>
<g>
	<path class="st4" d="M128.1,195.6c2.2-2,4.9-3,8.1-3.3c-0.7,0-1.5-0.1-2.2,0c-4.1,0.3-7.5,1.9-10.2,4.9l-38.9,40.5
		c-2.7,2.7-3.9,5.8-3.6,9.4c0.3,3.6,2,6.5,5.1,8.9c3.1,1.7,6.3,2.7,9.7,2.7c4.1,0,7.9-1.5,11.3-4.4l17.1-17.8v-32.8
		C124.5,200.4,125.7,197.7,128.1,195.6z"/>
	<path class="st4" d="M202.7,465.4c-2.5-2.1-5.6-3.1-9.1-3.1H150V203.6c0-3.1-1.2-5.7-3.6-8c-2.4-2.2-5.5-3.3-9.1-3.3
		c-0.4,0-0.7,0-1,0c3.2,0.2,6,1.2,8.5,3.1c3.1,2.3,4.8,5.3,5.1,8.9s-0.9,6.7-3.6,9.4l-21.8,22.7v225.8H80.9c-3.3,0-6.2,1-8.7,3.1
		s-3.8,4.8-3.8,7.9c0,3.2,1.3,5.9,3.8,8.2c2.5,2.3,5.4,3.4,8.7,3.4h112.6c3.6,0,6.6-1.1,9.2-3.4c2.5-2.3,3.8-5,3.8-8.2
		C206.5,470.2,205.3,467.5,202.7,465.4z"/>
	<path class="st4" d="M149.9,204.4c-0.3-3.6-2-6.5-5.1-8.9c-2.5-1.9-5.3-3-8.5-3.1c-3.2,0.2-5.9,1.3-8.1,3.3c-2.4,2.2-3.6,4.9-3.6,8
		v32.8l21.8-22.7C149,211.1,150.2,207.9,149.9,204.4z"/>
</g>
<path class="st5" d="M395.8,484.8c-17.4,0-71.2-3.9-110-47.9c-18.2-20.6-29.9-46.4-33.8-74.6c-3.7-27-0.2-54.5,10.3-79.5
	c1.4-3.2,34.2-79.2,114.1-89.5c30.5-3.9,62.4,2.9,90.1,19.1c24.5,14.4,44.5,35.2,58.3,60.4c3.2,5.9,0.8,13.2-5.3,16l0,0
	c-5.5,2.5-11.9,0.3-14.8-4.9c-25.6-46.6-75.8-74.2-125.3-67.9c-67,8.6-95.6,74.9-95.9,75.5c-8.9,21.2-11.9,44.5-8.7,67.4
	c3.3,23.7,13,45.3,28.3,62.5c33.4,37.8,80.2,40.2,93.8,40.1c31.2-0.3,55.5-12.2,70.4-22.3c5-3.3,11.7-2.3,15.4,2.4l0,0
	c4.2,5.3,3,13-2.6,16.7c-17.6,11.8-46.2,25.8-83,26.1C396.6,484.8,396.2,484.8,395.8,484.8z"/>
<circle class="st3" cx="608.1" cy="483.2" r="12.5"/>
<path class="st3" d="M101.5,366.8c-2.2,1.9-5.5,1.6-7.3-0.7c-5.9-8.1-8.4-16.4-7.4-24.7c1.2-9.9,7.1-17.4,11.4-21.6
	c2.2-2.2,5.8-1.8,7.6,0.7l2.6,3.7l-2.9-4.1l0.3,0.4c1.4,2,1.2,4.7-0.6,6.4c-3.2,3.1-7.7,8.6-8.5,15.7c-0.7,5.7,1.2,11.5,5.5,17.4
	C103.7,362.2,103.4,365,101.5,366.8L101.5,366.8z"/>
<path class="st3" d="M581.6,448.6C556,401.5,478.7,322.7,458.5,302.5c-2.7-2.7-2.7-7.1,0-9.8l0,0c2.7-2.8,7.2-2.8,9.9-0.1
	c9.2,9.2,29.7,30,51.8,54.3c36.5,40.2,61.3,72.1,73.7,95.1c1.9,3.5,0.5,7.9-3.2,9.7l0,0C587.4,453.2,583.3,451.9,581.6,448.6z"/>
<circle class="st3" cx="213" cy="251" r="10.2"/>
</svg>
