<svg id="Capa_2" data-name="Capa 2" xmlns="http://www.w3.org/2000/svg" viewBox="0 0 777 676.5"><defs><style>.cls-1{fill:#555;}.cls-2,.cls-3{fill:#464646;stroke:#464646;stroke-miterlimit:10;}.cls-2{stroke-width:16.79px;}.cls-3{stroke-width:17px;}</style></defs><title>logo</title><path class="cls-1" d="M459.1,263.8a7.62,7.62,0,0,1-10.1-.1c-54.6-49.2-190-161.9-239-161.4-9.8.1-13.1,3.6-14.7,6.2-11.3,18.4,15.5,73.8,37.2,108.2a6.14,6.14,0,0,1-2.5,8.8h0a7.77,7.77,0,0,1-10-2.5c-13.8-22-54.9-92.3-37.3-121,3.6-5.8,11.1-12.7,27-12.8,28.7-.3,80.4,28.4,153.8,85.3,43.4,33.7,82,67.8,95.6,79.9a6.31,6.31,0,0,1,0,9.4Z"/><path class="cls-1" d="M621.6,578.3a86.42,86.42,0,0,1-12.9-1.1c-43.1-6.8-98.3-45.6-116.3-59A7.22,7.22,0,0,1,491,508h0a7.14,7.14,0,0,1,9.9-1.4c17.2,12.7,70.5,50.2,109.9,56.4,13.2,2.1,22.2.7,26-4,2.9-3.5,3-8.9,2.3-13.2a7.27,7.27,0,0,1,4.6-7.8h0a7.16,7.16,0,0,1,9.6,5.7c1,6.9.9,16.8-5.4,24.4C642.6,574.9,633.7,578.3,621.6,578.3Z"/><path class="cls-1" d="M505.8,361.2a7.26,7.26,0,0,0-10.2.6C429.2,436,364.9,491.2,304.2,525.9c-50.6,29-85.6,36-102,37.6a9,9,0,0,1-9.7-7c-1.93-9.55-.75-21.61,3.4-35.85a5.7,5.7,0,0,0-7.14-7.06h0l-3.28,1a5.77,5.77,0,0,0-3.9,4c-4.12,14.81-5.69,28.8-3.28,40.82A23.26,23.26,0,0,0,201.2,578a19.27,19.27,0,0,0,2.4-.1c39.1-3.8,146.3-31.6,302.8-206.5A7.17,7.17,0,0,0,505.8,361.2Z"/><path class="cls-1" d="M605,402.7h0a6.32,6.32,0,0,1,4.9-7.3,438.06,438.06,0,0,0,57.2-15.8c21-7.7,55.5-23.3,57.4-43.6a6.63,6.63,0,0,0-.9-3.9c-4.2-7-22.1-29.2-86-44.9a6.34,6.34,0,0,1-4.7-7.5h0a6.34,6.34,0,0,1,7.7-4.7c83.4,20.5,95.1,52.2,96.2,55.8l.2.7v.7c1.6,22.9-20.6,42.9-65.8,59.4a427.65,427.65,0,0,1-58.8,16.3A6.28,6.28,0,0,1,605,402.7Z"/><path class="cls-1" d="M408.3,422.5c-34.1-.7-166.3-4.2-204.9-18a6.29,6.29,0,0,1-3.1-9.4h0a6.32,6.32,0,0,1,7.4-2.4c27,10.2,130.3,15.7,200.9,17.1a6.23,6.23,0,0,1,6.1,6.3v.1A6.29,6.29,0,0,1,408.3,422.5Z"/><path class="cls-1" d="M276.6,266.6h0c-.3-3.5-2.7-6-5.2-5.5-12.7,2.3-48.4,9.7-79.8,23.7-2.6,1.1-3.9,5-2.9,8.4h0c.9,3.1,3.4,4.7,5.7,3.6,30.5-13.5,65.9-20.9,78.2-23.2C275.1,273.2,276.9,270.1,276.6,266.6Z"/><path class="cls-1" d="M473.1,415.5h0a6.29,6.29,0,0,1,5.9-6.7l64.7-4a6.29,6.29,0,0,1,6.7,5.9h0a6.29,6.29,0,0,1-5.9,6.7l-64.7,4A6.22,6.22,0,0,1,473.1,415.5Z"/><path class="cls-1" d="M538.2,322.5h0a6.22,6.22,0,0,1-.9-8.8c33.6-42,107.8-144,104.6-183.8-.1-1.4-.1-2.9-.1-4.5a13,13,0,0,0-4.1-10.2c-4.3-3.8-12.2-5.2-23-4.1a6.37,6.37,0,0,1-6.9-5.2h0a6.28,6.28,0,0,1,5.6-7.3c14.5-1.5,25.4.9,32.5,7.1,7.9,6.9,8.5,16.3,8.4,20.1a29.12,29.12,0,0,0,.1,3.1c1.9,23.5-16.4,64-54.4,120.5-21.7,32.3-44.1,61-52.9,72.2A6.25,6.25,0,0,1,538.2,322.5Z"/><path class="cls-1" d="M465.7,188.2h0a6.36,6.36,0,0,1,1.2-8.9l32.5-24.6a6.24,6.24,0,0,1,8.8,1.2h0a6.24,6.24,0,0,1-1.2,8.8l-32.5,24.6A6.16,6.16,0,0,1,465.7,188.2Z"/><circle class="cls-1" cx="558.3" cy="126.6" r="11.8"/><path class="cls-1" d="M406.5,326.6a3.63,3.63,0,0,1-4.7-.1c-2.6-2.5-5.2-3.7-7.7-3.6-3,.1-5.7,2-7.4,3.6a3.63,3.63,0,0,1-4.6.3h0a3.58,3.58,0,0,1-.3-5.6c2.6-2.4,6.8-5.3,12-5.5,4.5-.1,8.8,1.7,12.8,5.5a3.5,3.5,0,0,1-.1,5.4Z"/><path class="cls-1" d="M467.5,326.4a3.63,3.63,0,0,1-4.7-.1c-2.6-2.5-5.2-3.7-7.7-3.6-3,.1-5.7,2-7.4,3.6a3.63,3.63,0,0,1-4.6.3h0a3.58,3.58,0,0,1-.3-5.6c2.6-2.4,6.8-5.3,12-5.5,4.5-.1,8.8,1.7,12.8,5.5a3.5,3.5,0,0,1-.1,5.4Z"/><path class="cls-1" d="M446.7,345.2h-45s-3.6,20.7,22.5,20.1S446.7,345.2,446.7,345.2Z"/><path class="cls-2" d="M150.1,190.57a13.26,13.26,0,0,1,8.1-3.31,20.18,20.18,0,0,0-2.2,0,14.63,14.63,0,0,0-10.2,4.88l-38.9,40.54a11.43,11.43,0,0,0-3.6,9.4,12.08,12.08,0,0,0,5.1,8.88,19.55,19.55,0,0,0,9.7,2.69,16.86,16.86,0,0,0,11.3-4.43l17.1-17.84v-32.8A10.44,10.44,0,0,1,150.1,190.57Z"/><path class="cls-2" d="M224.7,460.4a13.85,13.85,0,0,0-9.1-3.14H172V198.58a10.56,10.56,0,0,0-3.6-8,13.21,13.21,0,0,0-9.1-3.31h-1a15,15,0,0,1,8.5,3.14,12.06,12.06,0,0,1,5.1,8.87,11.43,11.43,0,0,1-3.6,9.4l-21.8,22.71v225.8H102.9a13.16,13.16,0,0,0-8.7,3.13,10,10,0,0,0-3.8,7.92,10.66,10.66,0,0,0,3.8,8.18,12.58,12.58,0,0,0,8.7,3.39H215.5a13.45,13.45,0,0,0,9.2-3.39,10.66,10.66,0,0,0,3.8-8.18A9.65,9.65,0,0,0,224.7,460.4Z"/><path class="cls-2" d="M171.9,199.36a12.08,12.08,0,0,0-5.1-8.88,15,15,0,0,0-8.5-3.13,12.75,12.75,0,0,0-8.1,3.31,10.42,10.42,0,0,0-3.6,8v32.81l21.8-22.71A11.66,11.66,0,0,0,171.9,199.36Z"/><path class="cls-3" d="M417.8,479.8c-17.4,0-71.2-3.9-110-47.9A141.36,141.36,0,0,1,274,357.3a152.08,152.08,0,0,1,10.3-79.5c1.4-3.2,34.2-79.2,114.1-89.5,30.5-3.9,62.4,2.9,90.1,19.1a157.4,157.4,0,0,1,58.3,60.4,11.5,11.5,0,0,1-5.3,16h0a11.49,11.49,0,0,1-14.8-4.9c-25.6-46.6-75.8-74.2-125.3-67.9-67,8.6-95.6,74.9-95.9,75.5a128.29,128.29,0,0,0-8.7,67.4c3.3,23.7,13,45.3,28.3,62.5,33.4,37.8,80.2,40.2,93.8,40.1a128.12,128.12,0,0,0,70.4-22.3,11.51,11.51,0,0,1,15.4,2.4h0a11.45,11.45,0,0,1-2.6,16.7c-17.6,11.8-46.2,25.8-83,26.1A1.79,1.79,0,0,1,417.8,479.8Z"/><circle class="cls-1" cx="630.1" cy="478.2" r="12.5"/><path class="cls-1" d="M123.5,361.8a5,5,0,0,1-7.3-.7c-5.9-8.1-8.4-16.4-7.4-24.7,1.2-9.9,7.1-17.4,11.4-21.6a5,5,0,0,1,7.6.7l2.6,3.7-2.9-4.1.3.4a4.89,4.89,0,0,1-.6,6.4c-3.2,3.1-7.7,8.6-8.5,15.7-.7,5.7,1.2,11.5,5.5,17.4a5.19,5.19,0,0,1-.7,6.8Z"/><path class="cls-1" d="M603.6,443.6C578,396.5,500.7,317.7,480.5,297.5a6.94,6.94,0,0,1,0-9.8h0a7,7,0,0,1,9.9-.1c9.2,9.2,29.7,30,51.8,54.3,36.5,40.2,61.3,72.1,73.7,95.1a7,7,0,0,1-3.2,9.7h0A7,7,0,0,1,603.6,443.6Z"/><circle class="cls-1" cx="235" cy="246" r="10.2"/></svg>