<?xml version="1.0" encoding="utf-8"?>
<!-- Generator: Adobe Illustrator 22.1.0, SVG Export Plug-In . SVG Version: 6.00 Build 0)  -->
<svg version="1.1" id="Capa_1" xmlns="http://www.w3.org/2000/svg" xmlns:xlink="http://www.w3.org/1999/xlink" x="0px" y="0px"
	 viewBox="0 0 1024 1024" style="enable-background:new 0 0 1024 1024;" xml:space="preserve">
<style type="text/css">
	.st0{fill:#EBF6FF;}
	.st1{fill:#B2DCFF;}
	.st2{fill:#FFD12B;}
	.st3{fill:#FF8E1D;}
	.st4{fill:#80D398;}
	.st5{fill:#FF39B1;}
	.st6{fill:#00345C;}
	.st7{fill:#005AB1;}
</style>
<g id="surface1">
	<path class="st0" d="M770.8,253.2C701.7,184.1,609.8,146,512,146c-97.8,0-189.7,38.1-258.8,107.2S146,414.2,146,512
		s38.1,189.7,107.2,258.8C322.3,839.9,414.2,878,512,878c97.8,0,189.7-38.1,258.8-107.2C839.9,701.7,878,609.8,878,512
		S839.9,322.3,770.8,253.2z"/>
	<path class="st1" d="M770.8,253.2C701.7,184.1,609.8,146,512,146v732c97.8,0,189.7-38.1,258.8-107.2C839.9,701.7,878,609.8,878,512
		S839.9,322.3,770.8,253.2z"/>
	<path class="st2" d="M770.8,253.2C701.7,184.1,609.8,146,512,146c-97.8,0-189.7,38.1-258.8,107.2c-4,4-6.3,9.5-6.3,15.2
		s2.3,11.1,6.3,15.2l81.2,81.2c8.4,8.4,22,8.4,30.3,0c39.3-39.3,91.6-61,147.3-61s107.9,21.7,147.3,61c4.2,4.2,9.7,6.3,15.2,6.3
		s11-2.1,15.2-6.3l81.2-81.2c4-4,6.3-9.5,6.3-15.2C777.1,262.7,774.8,257.2,770.8,253.2z"/>
	<path class="st3" d="M770.8,253.2C701.7,184.1,609.8,146,512,146v157.7c55.6,0,107.9,21.7,147.3,61c4.2,4.2,9.7,6.3,15.2,6.3
		c5.5,0,11-2.1,15.2-6.3l81.2-81.2c4-4,6.3-9.5,6.3-15.2C777.1,262.7,774.8,257.2,770.8,253.2z"/>
	<path class="st4" d="M303.7,512c0-55.6,21.7-107.9,61-147.3c4-4,6.3-9.5,6.3-15.2c0-5.7-2.3-11.1-6.3-15.2l-81.2-81.2
		c-8.4-8.4-22-8.4-30.3,0C184.1,322.3,146,414.2,146,512c0,97.8,38.1,189.7,107.2,258.8c4,4,9.5,6.3,15.2,6.3s11.1-2.3,15.2-6.3
		l81.2-81.2c8.4-8.4,8.4-21.9,0-30.3C325.4,619.9,303.7,567.6,303.7,512z"/>
	<path class="st5" d="M770.8,253.2c-4-4-9.5-6.3-15.2-6.3c-5.7,0-11.1,2.3-15.2,6.3l-81.2,81.2c-8.4,8.4-8.4,22,0,30.3
		c39.3,39.3,61,91.6,61,147.3c0,55.6-21.7,107.9-61,147.3c-8.4,8.4-8.4,22,0,30.3l81.2,81.2c4,4,9.5,6.3,15.2,6.3
		c5.7,0,11.1-2.3,15.2-6.3C839.9,701.7,878,609.8,878,512S839.9,322.3,770.8,253.2z"/>
	<path class="st6" d="M747.7,491.4c-33.5-9.7-202.6-58.3-235.7-58.3c-43.5,0-78.9,35.4-78.9,78.9s35.4,78.9,78.9,78.9
		c33.1,0,202.1-48.5,235.7-58.3c9.2-2.7,15.5-11.1,15.5-20.6C763.1,502.5,756.8,494.1,747.7,491.4z"/>
	<path class="st7" d="M433.1,512c0,43.5,35.4,78.9,78.9,78.9V433.1C468.5,433.1,433.1,468.5,433.1,512z"/>
	<path class="st7" d="M559.6,695.9h-95.1c-11.8,0-21.4-9.6-21.4-21.4s9.6-21.4,21.4-21.4h95.1c11.8,0,21.4,9.6,21.4,21.4
		S571.4,695.9,559.6,695.9z"/>
	<path class="st6" d="M559.6,653H512v42.9h47.6c11.8,0,21.4-9.6,21.4-21.4S571.4,653,559.6,653z"/>
</g>
</svg>
