<?xml version="1.0" encoding="utf-8"?>
<!-- Generator: Adobe Illustrator 22.1.0, SVG Export Plug-In . SVG Version: 6.00 Build 0)  -->
<svg version="1.1" id="Layer_2" xmlns="http://www.w3.org/2000/svg" xmlns:xlink="http://www.w3.org/1999/xlink" x="0px" y="0px"
	 viewBox="0 0 1053.4 347.9" style="enable-background:new 0 0 1053.4 347.9;" xml:space="preserve">
<style type="text/css">
	.st0{fill:#2F508D;}
</style>
<g>
	<path class="st0" d="M283.9,159.5h-16.7c-0.1-13.2-9.1-21.5-22-21.5c-19.6,0-25.4,17.6-25.4,35c0,16.8,8.1,30.7,26.7,30.7
		c10.8,0,19.5-7.9,19.9-19.4h17.7c-0.4,24.4-21.1,32-38.3,32c-30.7,0-45.5-19.5-45.5-44.9c0-26.7,13.7-46.2,41.6-46.2
		c10.4,0,19.1,2.9,25,11.7l0.3,0.3v-10.1h16.7L283.9,159.5L283.9,159.5z"/>
	<path class="st0" d="M355.7,183.3c0,20.8-13.8,33.1-33.4,33.1c-19.6,0-33.4-12.3-33.4-33.1c0-20.8,13.8-33.1,33.4-33.1
		C342,150.2,355.7,162.5,355.7,183.3 M322.3,203.8c11.3,0,15-10.6,15-20.4c0-9.9-3.6-20.4-15-20.4c-11.3,0-15,10.5-15,20.4
		C307.4,193.2,311,203.8,322.3,203.8"/>
	<polygon class="st0" points="356.1,202.5 364.8,202.5 364.8,137.4 356.1,137.4 356.1,125.4 382.6,125.4 382.6,202.5 391.3,202.5 
		391.3,214.6 356.1,214.6 	"/>
	<polygon class="st0" points="397.8,202.5 406.4,202.5 406.4,137.4 397.8,137.4 397.8,125.4 424.2,125.4 424.2,202.5 432.9,202.5 
		432.9,214.6 397.8,214.6 	"/>
	<path class="st0" d="M453.5,188.4c0,9.9,5.7,16,15.6,16c6.1,0,10.5-2.5,12.3-9.2h16.7c-2.9,15.1-15.2,21.2-29.5,21.2
		c-21.9,0-33.5-13.1-33.5-33.9c0-19.6,13.3-32.3,33.1-32.3c15.1,0,27.2,8.7,29.9,24c0.8,4.9,0.8,9.7,0.8,14.2L453.5,188.4
		L453.5,188.4z M481.1,177c0-9-4.5-14.8-13.8-14.8c-8.9,0-13.9,6.4-13.9,14.8H481.1z"/>
	<path class="st0" d="M579.5,164.1h-8.7v44.7c0,15.9-8,30.3-33.1,30.3c-18.4,0-28.2-5.9-29.1-20.7h19.4c0.5,7.6,5.9,8.7,11.6,8.7
		c7.9,0,13.5-7.6,13.5-15.5v-7.1c-5.9,6.4-10.1,9.1-21,9.1c-16.8,0-26.7-14.4-26.7-30.3c0-18.4,8.4-32.8,28.6-32.8
		c10,0,16.1,4.7,20.4,11.2h0.3v-9.6h24.8L579.5,164.1L579.5,164.1z M538.9,200.9c11,0,15.2-8.8,15.2-19c0-9.6-3.9-18.8-15-18.8
		c-11.2,0-15.4,9.6-15.4,19.5C523.8,192.3,528.9,200.9,538.9,200.9"/>
	<path class="st0" d="M600.1,188.4c0,9.9,5.7,16,15.6,16c6.2,0,10.6-2.5,12.3-9.2h16.7c-2.9,15.1-15.2,21.2-29.5,21.2
		c-21.9,0-33.5-13.1-33.5-33.9c0-19.6,13.3-32.3,33.1-32.3c15.1,0,27.2,8.7,29.9,24c0.8,4.9,0.8,9.7,0.8,14.2L600.1,188.4
		L600.1,188.4z M627.7,177c0-9-4.6-14.8-13.8-14.8c-8.9,0-13.9,6.4-13.9,14.8H627.7z"/>
	<path class="st0" d="M649.4,201.9h10.9v-61.9h-10.9v-12.7h41.9c15.9,0,34.6,0.4,34.6,21.4c0,11.6-6,18.4-17.9,19.9v0.3
		c11.2,0.4,20.5,8.7,20.5,20.3c0,26.3-24.3,25.5-38,25.5h-41.1V201.9z M678.7,163.7h10.5c8.8,0,18.2-1.7,18.2-12.6
		c0-10.6-9.5-11.2-17.6-11.2h-11.1L678.7,163.7L678.7,163.7z M678.7,201.9H691c11.3,0,19.1-1.9,19.1-13.6c0-12.6-9.6-12.6-19-12.6
		h-12.4V201.9L678.7,201.9z"/>
	<path class="st0" d="M798.3,183.3c0,20.8-13.7,33.1-33.4,33.1c-19.6,0-33.4-12.3-33.4-33.1c0-20.8,13.7-33.1,33.4-33.1
		C784.6,150.2,798.3,162.5,798.3,183.3 M764.9,203.8c11.4,0,15-10.6,15-20.4c0-9.9-3.6-20.4-15-20.4c-11.3,0-14.9,10.5-14.9,20.4
		C750,193.2,753.6,203.8,764.9,203.8"/>
	<path class="st0" d="M845.8,205.5h-0.3c-5.5,8.4-11.2,10.9-20.7,10.9c-11.6,0-21.8-6.7-21.8-20c0-20.6,20.6-21.1,36.2-21.1h6.3
		v-4.8c0-7.3-5.5-9.6-12-9.6c-7,0-11.2,2.9-11.8,10.2h-16.7c1.1-17.9,15.7-20.8,30.4-20.8c20.2,0,26.7,8.4,26.7,27.4v25h8v12h-24.4
		L845.8,205.5L845.8,205.5z M837,186c-9.1,0-17.2,1.5-17.2,9.9c0,5.9,4,8.6,9.5,8.6c10.6,0,16.6-7.7,16.3-18.4H837z"/>
	<path class="st0" d="M876.8,202.5h8.7v-38.4h-8.7v-12H902v12.1h0.3c3.7-8,10-14,19.2-14c2.5,0,5.2,0.3,7.6,0.8v14.6
		c-2.5-0.7-5.3-0.7-8-0.7c-11.7,0-17.2,8.7-17.9,19.5v18.2h10.7v12h-37.1L876.8,202.5L876.8,202.5z"/>
	<path class="st0" d="M995,202h8.7v12H979v-10.4h-0.3c-5.6,8.8-11.1,12.3-22.2,12.3c-18.2,0-27-15.3-27-32.2c0-23,11.8-34.1,28-34.1
		c10.6,0,16.4,5.1,19.4,11.1h0.3v-23.9h-8.7v-12H995V202z M978.3,181.8c0-10.3-4.5-19.5-15.5-19.5c-11.4,0-14.8,10.1-14.8,20.4
		c0,13.5,5.6,20.4,13.2,20.4C974.6,203.2,978.3,195,978.3,181.8"/>
	<path class="st0" d="M176.4,128.3c-1.9-8.6-8.1-14.5-16.7-18.1c0,0-4.3-1.8-7.2-2.4c-3.8-1.1-7.2-1.7-11.1-2.4
		c-5.3-0.9-19.3-2.3-21.7-2.4c-0.7,0-0.4-0.8,0-1.3c0.8-1.2,1.8-2.3,2.7-3.4c1.8-2.4,3.1-5,3.8-7.8c0.8-3.2,1-6.6,0.7-9.8
		c-0.1-1.2-0.3-2.4-0.7-3.5c-0.2-0.5-0.4-1.4-1-1.7c-0.5-0.3-1.3,0-1.8,0.1c-1.1,0.3-2.2,0.8-3.2,1.4c-6.3,3.3-12.4,7.8-15.9,13.8
		c-1.4,2.4-2.4,5-2.6,7.8c-0.1,0.8-0.1,1.6-0.1,2.4c0,0.5-0.1,1.1-0.3,1.5c-0.4,0.6-1.1,0.8-1.7,0.8c-1.3,0.2-9.3,1-11.9,1.5
		c-5.9,1-11.8,2.3-17.4,4.1c-2.1,0.7-4.2,1.6-6.1,2.6l-0.3,0.2c-0.9,0.5-1.8,1-2.7,1.6l-0.3,0.2c-0.9,0.6-1.8,1.3-2.6,2
		c-0.6,0.5-1.1,1-1.6,1.5c-0.2,0.2-0.4,0.4-0.6,0.6c-0.2,0.2-0.5,0.5-0.7,0.7c-1,1.2-1.9,2.5-2.7,3.9l-0.2,0.4
		c-0.3,0.6-0.6,1.2-0.8,1.8c-0.2,0.4-0.3,0.8-0.5,1.1c-0.1,0.2-0.1,0.5-0.2,0.7c-0.2,0.7-0.5,1.4-0.6,2.2c-0.4,1.8-0.5,3.6-0.4,5.4
		c0,0.6,0.1,1.2,0.1,1.8c0,0.4,0.1,0.8,0.2,1.2c0.1,0.4,0.1,0.8,0.2,1.1c0.9,4.7,2.7,8.2,2.7,8.2c1.8,3.9,4.4,8.6,8.1,12.5
		c0,0,0.6,0.8,0.6,1.9c0.2,2.8,0.8,9.1,3.5,17.1c6.7,20.3,20.7,35.3,29.4,42.2c0,0,4.6,3.8,6.4,5.4c2.5,2.2,7.2,5.4,7.2,5.4
		c1.8,1,2.6,1.6,5.1,1.6c2.9,0,5-1.4,7.2-2.8c2.6-1.8,13.2-10.8,13.2-10.8c11.2-9.9,29.1-29,31.2-57.9h0c-0.1-1.1,0.6-2,0.6-2
		c3.8-3.9,6.3-8.7,8.1-12.5C173.6,146.1,178.3,137.1,176.4,128.3 M110.6,98.7c0.1-1.4,0.5-2.7,1-4c1.2-3.1,3.1-6.1,5.5-8.5
		c0.7-0.8,1.5-1.5,2.5-2.1c0.4-0.2,1-0.7,1.4-0.5c0.9,0.2-0.8,4.4-0.9,4.9c-1,2.9-2.4,5.6-4.4,8c-0.9,1.1-1.9,2.1-3,3
		c-0.3,0.2-1.2,1.1-1.7,0.9C110.5,100.2,110.6,99,110.6,98.7 M161.9,139.4c-0.2,0.4-0.8,1.6-1,2c0,0-7.5,11.1-6.3,17.5
		c0.7,4.2,3.1,10-2.6,23.4c-3.2,7.4-7,16-18.7,29.5c0,0-3.9,4.1-6,5.7c0,0-9.9,8.2-13.3,8.2c-3-0.1-5.5-1.7-7.4-3.5
		c-1.5-1.4-5.2-5.4-5.5-5.8c-17.8-22.4-18.6-40.7-15.2-53.5c1.1-4.1,3.9-7.2,7.2-9.5c6.6-4.5,15.3-5.8,16.5-6
		c3.5-0.3,5.1-0.4,8.5-0.5c2.6-0.1,5.3-0.1,7.9,0c1.5,0.1,3,0.1,4.5,0.2c2.1,0.2,4.1,0.4,6.1,0.8c1.3,0.2,2.5,0.6,3.7,0.8
		c0.9,0.1,2.1,0,2.2-1.1c0-0.2,0-0.4,0-0.6c-0.4-1.2-2.3-3-9.7-4.9c-1.4-0.4-3.2-0.6-5.1-0.8c-1.1-0.1-2.2-0.2-3.3-0.3
		c-0.7,0-1.4-0.1-2.1-0.1l-0.3,0c-0.7,0-1.4-0.1-2.1-0.1l-0.2,0c-0.8,0-1.6,0-2.3,0c-0.8,0-1.6,0-2.4,0h0
		c-12.4,0.1-23.5,1.3-23.5,1.3s-19.8,2.8-19.8-11.7c0-14.3,18.2-17.6,30-19.3l0.2,0l0.1,0h0l0,0l0.2,0h0c0.6-0.1,1.2-0.2,1.8-0.2
		c0.4,0,0.7-0.1,1.1-0.1c0.9-0.1,1.7-0.2,2.6-0.2c1.9-0.1,4.1-0.3,6.3-0.2c0.3,0,1.1,0,1.1,0c4.6,0,9.2,0.3,13.7,0.9
		c3.3,0.4,6.6,1,9.8,1.8C154,116.2,169.1,123.4,161.9,139.4"/>
</g>
</svg>
