<?xml version="1.0" encoding="utf-8"?>
<!-- Generator: Adobe Illustrator 22.0.1, SVG Export Plug-In . SVG Version: 6.00 Build 0)  -->
<svg version="1.1" id="Capa_1" xmlns="http://www.w3.org/2000/svg" xmlns:xlink="http://www.w3.org/1999/xlink" x="0px" y="0px"
	 viewBox="0 0 1024 1024" style="enable-background:new 0 0 1024 1024;" xml:space="preserve">
<style type="text/css">
	.st0{fill:#1081E0;}
	.st1{fill:#FFFFFF;}
</style>
<path class="st0" d="M298.4,344.5L298.4,344.5c-52.7-52.7-138.1-52.7-190.8,0l0,0C60.1,392,54.8,481.4,95.1,535.1l103.8,149.9
	c2,2.9,6.2,2.9,8.2,0l103.8-149.9C351.2,481.4,345.9,392,298.4,344.5z M206.6,483.1c-26.4,1.3-48.1-20.4-46.8-46.8
	c1.1-22.6,19.5-41,42.2-42.2c26.4-1.3,48.1,20.4,46.8,46.8C247.6,463.6,229.3,481.9,206.6,483.1z"/>
<path class="st1" d="M911.3,505.5H424.7c-30.8,0-55.7-25-55.7-55.7v0c0-30.8,25-55.7,55.7-55.7h486.5c30.8,0,55.7,25,55.7,55.7v0
	C967,480.5,942,505.5,911.3,505.5z"/>
<g>
	<path d="M493,453.9h-17.3l-3.1,7.1h-3.1l13.3-30.2h3.1l13.3,30.2h-3.1L493,453.9z M491.8,451.1l-7.4-16.9l-7.4,16.9H491.8z"/>
	<path d="M525.9,449.6c0,6.8-4.5,11.9-10.4,11.9c-3.7,0-6.7-1.9-8.5-5v12h-2.7v-30.3h2.7v4.4c1.8-3.1,4.8-5,8.5-5
		C521.4,437.7,525.9,442.8,525.9,449.6z M523.1,449.6c0-5.4-3.5-9.4-8.1-9.4c-4.7,0-8,3.9-8,9.4s3.3,9.4,8,9.4
		C519.6,459,523.1,455,523.1,449.6z"/>
	<path d="M543.5,437.7v2.5c-5.1,0-8.8,3.3-8.8,8.1V461h-2.7v-22.8h2.7v4.7C535.9,439.8,539.3,437.7,543.5,437.7z"/>
	<path d="M565.8,456.1l1.7,1.8c-1.9,2.1-5.9,3.5-9.3,3.5c-6.1,0-11.4-5.1-11.4-12c0-6.7,5.1-11.8,11.2-11.8c6.7,0,10.8,5.1,10.8,13
		h-19.2c0.5,4.7,4,8.3,8.6,8.3C561.1,459,564.2,457.9,565.8,456.1z M549.6,448.2h16.5c-0.4-4.6-3.2-8-8-8
		C553.7,440.2,550.2,443.5,549.6,448.2z"/>
	<path d="M593,446.4V461h-2.7v-14.3c0-3.8-2.6-6.5-6.2-6.5c-4,0-7.1,2.8-7.1,6.3V461h-2.7v-22.8h2.7v3.7c1.2-2.5,4.1-4.3,7.5-4.3
		C589.5,437.7,593,441.3,593,446.4z"/>
	<path d="M620.3,430.2V461h-2.7v-4.4c-1.8,3.1-4.8,5-8.5,5c-5.9,0-10.4-5.1-10.4-11.9c0-6.8,4.5-11.9,10.4-11.9c3.7,0,6.7,1.9,8.5,5
		v-12.5H620.3z M617.6,449.6c0-5.5-3.3-9.4-8-9.4c-4.6,0-8.1,4-8.1,9.4c0,5.4,3.5,9.4,8.1,9.4C614.3,459,617.6,455.1,617.6,449.6z"
		/>
	<path d="M645.1,456.1l1.7,1.8c-1.9,2.1-5.9,3.5-9.3,3.5c-6.1,0-11.4-5.1-11.4-12c0-6.7,5.1-11.8,11.2-11.8c6.7,0,10.8,5.1,10.8,13
		h-19.2c0.5,4.7,4,8.3,8.6,8.3C640.3,459,643.5,457.9,645.1,456.1z M628.9,448.2h16.5c-0.4-4.6-3.2-8-8-8
		C633,440.2,629.5,443.5,628.9,448.2z"/>
	<path d="M652.1,458.1l1.5-2c2.6,1.9,5.4,2.9,8,2.9c3.1,0,5.5-1.6,5.5-3.8c0-2.5-2.4-3.5-6-4.6c-5.5-1.6-7.6-3.3-7.6-6.5
		c0-3.8,3.4-6.4,7.8-6.4c2.8,0,5.7,1,8.1,2.6l-1.4,2.1c-2.3-1.4-4.7-2.2-6.8-2.2c-2.8,0-5.1,1.4-5.1,3.6c0,2.1,1.8,3,6.2,4.4
		c4.2,1.3,7.4,2.8,7.4,6.7c0,3.9-3.6,6.6-8.2,6.6C658.3,461.5,654.8,460.3,652.1,458.1z"/>
	<path d="M709.6,453.9h-17.3l-3.1,7.1H686l13.3-30.2h3.1l13.3,30.2h-3.1L709.6,453.9z M708.3,451.1l-7.4-16.9l-7.4,16.9H708.3z"/>
	<path d="M719.2,458.1l1.5-2c2.6,1.9,5.4,2.9,8,2.9c3.1,0,5.5-1.6,5.5-3.8c0-2.5-2.4-3.5-6-4.6c-5.5-1.6-7.6-3.3-7.6-6.5
		c0-3.8,3.4-6.4,7.8-6.4c2.8,0,5.7,1,8.1,2.6l-1.4,2.1c-2.3-1.4-4.7-2.2-6.8-2.2c-2.8,0-5.1,1.4-5.1,3.6c0,2.1,1.8,3,6.2,4.4
		c4.2,1.3,7.4,2.8,7.4,6.7c0,3.9-3.6,6.6-8.2,6.6C725.4,461.5,721.8,460.3,719.2,458.1z"/>
	<path d="M759.9,456.1l1.7,1.8c-1.9,2.1-5.9,3.5-9.3,3.5c-6.1,0-11.4-5.1-11.4-12c0-6.7,5.1-11.8,11.2-11.8c6.7,0,10.8,5.1,10.8,13
		h-19.2c0.5,4.7,4,8.3,8.6,8.3C755.2,459,758.4,457.9,759.9,456.1z M743.8,448.2h16.5c-0.4-4.6-3.2-8-8-8
		C747.8,440.2,744.4,443.5,743.8,448.2z"/>
	<path d="M767,458.1l1.5-2c2.6,1.9,5.4,2.9,8,2.9c3.1,0,5.5-1.6,5.5-3.8c0-2.5-2.4-3.5-6-4.6c-5.5-1.6-7.6-3.3-7.6-6.5
		c0-3.8,3.4-6.4,7.8-6.4c2.8,0,5.7,1,8.1,2.6l-1.4,2.1c-2.3-1.4-4.7-2.2-6.8-2.2c-2.8,0-5.1,1.4-5.1,3.6c0,2.1,1.8,3,6.2,4.4
		c4.2,1.3,7.4,2.8,7.4,6.7c0,3.9-3.6,6.6-8.2,6.6C773.2,461.5,769.7,460.3,767,458.1z"/>
	<path d="M788.8,449.6c0-6.5,5.4-11.9,11.8-11.9s11.7,5.4,11.7,11.9s-5.4,11.9-11.7,11.9S788.8,456.1,788.8,449.6z M809.5,449.6
		c0-5.1-4-9.4-8.9-9.4c-4.9,0-8.9,4.3-8.9,9.4c0,5.1,4,9.4,8.9,9.4C805.5,459,809.5,454.7,809.5,449.6z"/>
	<path d="M829.7,437.7v2.5c-5.1,0-8.8,3.3-8.8,8.1V461h-2.7v-22.8h2.7v4.7C822.2,439.8,825.5,437.7,829.7,437.7z"/>
	<path d="M833.7,431.9c0-1,0.8-1.9,1.9-1.9c1.1,0,1.9,0.9,1.9,1.9c0,1.1-0.8,1.9-1.9,1.9C834.5,433.8,833.7,433,833.7,431.9z
		 M834.2,438.2h2.7V461h-2.7V438.2z"/>
	<path d="M861.8,447.1V461h-2.7v-3.6c-1.7,2.7-5.3,4.1-8.4,4.1c-4.8,0-8.3-2.9-8.3-7.3c0-4.5,3.9-7.6,9-7.6c2.5,0,5.2,0.6,7.6,1.4
		v-0.9c0-3.3-1.5-7-6.6-7c-2.3,0-4.7,0.9-6.7,2l-1.1-2.2c3-1.6,5.8-2.2,8.1-2.2C858.7,437.7,861.8,441.6,861.8,447.1z M859.1,453.9
		v-3.7c-2.2-0.7-4.7-1.1-7.2-1.1c-3.8,0-6.7,2.1-6.7,5.1c0,3,2.6,4.9,6,4.9C854.3,459.1,858.2,457.4,859.1,453.9z"/>
	<path d="M867.2,458.1l1.5-2c2.6,1.9,5.4,2.9,8,2.9c3.1,0,5.5-1.6,5.5-3.8c0-2.5-2.4-3.5-6-4.6c-5.5-1.6-7.6-3.3-7.6-6.5
		c0-3.8,3.4-6.4,7.8-6.4c2.8,0,5.7,1,8.1,2.6l-1.4,2.1c-2.3-1.4-4.7-2.2-6.8-2.2c-2.8,0-5.1,1.4-5.1,3.6c0,2.1,1.8,3,6.2,4.4
		c4.2,1.3,7.4,2.8,7.4,6.7c0,3.9-3.6,6.6-8.2,6.6C873.4,461.5,869.8,460.3,867.2,458.1z"/>
</g>
</svg>
