<?xml version="1.0" encoding="utf-8"?>
<!-- Generator: Adobe Illustrator 22.1.0, SVG Export Plug-In . SVG Version: 6.00 Build 0)  -->
<svg version="1.1" id="Layer_2" xmlns="http://www.w3.org/2000/svg" xmlns:xlink="http://www.w3.org/1999/xlink" x="0px" y="0px"
	 viewBox="0 0 1053.4 347.9" style="enable-background:new 0 0 1053.4 347.9;" xml:space="preserve">
<style type="text/css">
	.st0{fill:#002657;}
</style>
<g>
	<polygon class="st0" points="323.1,276.9 344,240.4 302.3,240.4 246.8,143.2 225.9,179.7 281.5,276.9 	"/>
	<polygon class="st0" points="246.8,46.1 205.1,46.1 225.9,82.5 170.4,179.7 212,179.7 267.6,82.5 	"/>
	<polygon class="st0" points="87.1,228.3 107.9,264.7 128.7,228.3 239.8,228.3 219,191.8 107.9,191.8 	"/>
	<polygon class="st0" points="350.9,228.3 371.8,191.8 330.1,191.8 274.6,94.7 253.7,131.1 309.3,228.3 	"/>
	<polygon class="st0" points="191.2,46.1 149.6,46.1 170.4,82.5 114.8,179.7 156.5,179.7 212.1,82.5 	"/>
	<polygon class="st0" points="114.8,276.9 135.7,313.3 156.5,276.9 267.6,276.9 246.8,240.4 135.7,240.4 	"/>
	<path class="st0" d="M978.3,220.4h7.2c1,0,3.1,0,4.6,1c1.5,0.9,2.2,2.5,2.2,4.1c0,1.4-0.5,2.7-1.4,3.6c-0.9,0.9-1.7,1.1-2.3,1.3
		c1.9,0.5,2.8,1.4,3.1,3.9c0.3,2.4,0.5,4.1,1.2,6.3h-3c-0.5-1.3-0.7-3.8-0.9-5.3c-0.3-3-1-3.8-4.4-3.8h-3.5v9.1h-2.8V220.4
		 M981,229.1h4.3c0.4,0,1.9,0,2.7-0.4c0.4-0.3,1.4-1,1.4-2.7c0-3.3-2.9-3.3-4-3.3H981V229.1z"/>
	<path class="st0" d="M1001.7,230.5c0,8.9-7.2,16.2-16.1,16.2c-8.9,0-16.1-7.3-16.1-16.2c0-9,7.2-16.3,16.1-16.3
		C994.5,214.3,1001.7,221.6,1001.7,230.5 M985.6,212.8c-9.7,0-17.6,7.9-17.6,17.7c0,9.8,7.9,17.7,17.6,17.7
		c9.7,0,17.6-7.9,17.6-17.7C1003.1,220.7,995.3,212.8,985.6,212.8"/>
	<polygon class="st0" points="402,120.7 418.7,120.7 418.7,233.6 485.4,233.6 485.4,247.9 402,247.9 	"/>
	<path class="st0" d="M578.3,247.5c-2.7,1.6-6,2.5-10.8,2.5c-7.8,0-12.7-4.3-12.7-14.2c-8.3,9.8-19.4,14.2-32.1,14.2
		c-16.6,0-30.1-7.5-30.1-25.8c0-20.8,15.4-25.3,30.8-28.3c16.6-3.2,30.8-2.1,30.8-13.5c0-13.2-10.8-15.3-20.3-15.3
		c-12.7,0-22.1,3.9-22.8,17.5h-15c0.8-22.8,18.3-30.8,38.6-30.8c16.4,0,34.2,3.7,34.2,25.3v47.4c0,7.1,0,10.3,4.8,10.3
		c1.2,0,2.6-0.2,4.6-0.9V247.5z M554,200.3c-5.8,4.3-17.1,4.4-27.2,6.2c-9.8,1.8-18.3,5.3-18.3,16.6c0,10,8.5,13.5,17.6,13.5
		c19.7,0,27.8-12.4,27.8-20.9V200.3z"/>
	<path class="st0" d="M685.7,157.9c-1.9-18.2-13.9-26-31.2-26c-14.1,0-28.2,5.2-28.2,21.7c0,15.7,20.1,18,40.4,22.6
		C686.8,180.9,707,188,707,213c0,27.1-26.3,38-49.2,38c-28.2,0-52-13.9-52-44.9h15.9c0,21.4,17.6,30.6,36.7,30.6
		c15.2,0,31.9-4.8,31.9-23.2c0-17.5-20.1-20.5-40.2-24.9c-20.2-4.5-40.4-10.3-40.4-33.7c0-25.8,22.8-37.2,45.7-37.2
		c25.8,0,45.3,12.3,46.4,40.3H685.7z"/>
	<path class="st0" d="M799.7,247.5c-2.6,1.6-6,2.5-10.7,2.5c-7.7,0-12.7-4.3-12.7-14.2c-8.3,9.8-19.4,14.2-32.1,14.2
		c-16.6,0-30.2-7.5-30.2-25.8c0-20.8,15.4-25.3,30.9-28.3c16.6-3.2,30.7-2.1,30.7-13.5c0-13.2-10.8-15.3-20.3-15.3
		c-12.7,0-22,3.9-22.7,17.5h-15c0.9-22.8,18.4-30.8,38.6-30.8c16.4,0,34.2,3.7,34.2,25.3v47.4c0,7.1,0,10.3,4.7,10.3
		c1.3,0,2.7-0.2,4.6-0.9V247.5z M775.4,200.3c-5.8,4.3-17.2,4.4-27.2,6.2c-9.8,1.8-18.3,5.3-18.3,16.6c0,10,8.5,13.5,17.6,13.5
		c19.8,0,27.9-12.4,27.9-20.9V200.3z"/>
	<rect x="811.3" y="120.7" class="st0" width="15" height="127.2"/>
	<rect x="845.2" y="120.7" class="st0" width="15" height="127.2"/>
	<path class="st0" d="M955,218.7c-4,20.3-18.5,31.3-38.9,31.3c-29.1,0-42.9-20.3-43.8-48.4c0-27.6,17.9-47.9,42.8-47.9
		c32.3,0,42.2,30.5,41.3,52.7h-68.2c-0.5,16,8.5,30.3,28.4,30.3c12.3,0,21-6.1,23.6-18H955z M940.6,193c-0.8-14.4-11.5-26-26.3-26
		c-15.7,0-25,11.9-26,26H940.6z"/>
	<g>
		<path class="st0" d="M409.2,47.3V80c0,3.9,0.7,7,2.2,9.6c2.2,3.8,5.8,5.8,10.9,5.8c6.1,0,10.3-2.1,12.5-6.2
			c1.2-2.3,1.8-5.3,1.8-9.1V47.3h7.2V77c0,6.5-0.9,11.5-2.6,15c-3.2,6.4-9.3,9.6-18.3,9.6c-9,0-15.1-3.2-18.3-9.6
			c-1.8-3.5-2.6-8.5-2.6-15V47.3H409.2z"/>
		<path class="st0" d="M468.6,61.6h6.2v5.5c1.8-2.3,3.8-3.9,5.8-4.9c2-1,4.3-1.5,6.8-1.5c5.5,0,9.2,1.9,11.1,5.7
			c1.1,2.1,1.6,5.1,1.6,9v24.8h-6.6V75.9c0-2.4-0.3-4.2-1-5.7c-1.2-2.4-3.2-3.6-6.3-3.6c-1.5,0-2.8,0.2-3.8,0.5
			c-1.8,0.5-3.3,1.6-4.7,3.2c-1.1,1.3-1.8,2.6-2.1,4c-0.3,1.4-0.5,3.3-0.5,5.8v20.2h-6.5V61.6z"/>
		<path class="st0" d="M524.3,47.3h6.6v7.3h-6.6V47.3z M524.3,61.8h6.6v38.4h-6.6V61.8z"/>
		<path class="st0" d="M558.6,61.6l10.3,31.4l10.7-31.4h7.1l-14.5,38.6h-6.9l-14.2-38.6H558.6z"/>
		<path class="st0" d="M631,62.7c2.6,1.3,4.5,2.9,5.8,5c1.3,1.9,2.1,4.2,2.6,6.8c0.4,1.8,0.6,4.6,0.6,8.5h-28.1
			c0.1,3.9,1,7.1,2.8,9.4c1.7,2.4,4.4,3.6,8,3.6c3.4,0,6-1.1,8-3.4c1.1-1.3,1.9-2.8,2.4-4.5h6.4c-0.2,1.4-0.7,3-1.7,4.7
			c-0.9,1.7-2,3.2-3.2,4.3c-1.9,1.9-4.4,3.2-7.3,3.9c-1.5,0.4-3.3,0.6-5.3,0.6c-4.8,0-8.8-1.7-12.1-5.2c-3.3-3.5-5-8.4-5-14.7
			c0-6.2,1.7-11.2,5-15.1c3.3-3.9,7.7-5.8,13.1-5.8C625.8,60.8,628.4,61.4,631,62.7z M633.3,77.9c-0.3-2.8-0.9-5.1-1.8-6.7
			c-1.8-3.1-4.7-4.7-8.8-4.7c-3,0-5.4,1.1-7.4,3.2c-2,2.1-3.1,4.9-3.2,8.2H633.3z"/>
		<path class="st0" d="M663.1,61.6h6.2v6.7c0.5-1.3,1.7-2.9,3.7-4.7c2-1.9,4.2-2.8,6.8-2.8c0.1,0,0.3,0,0.6,0c0.3,0,0.8,0.1,1.5,0.1
			v6.8c-0.4-0.1-0.7-0.1-1.1-0.1c-0.3,0-0.7,0-1.1,0c-3.3,0-5.8,1.1-7.5,3.2c-1.8,2.1-2.6,4.5-2.6,7.3v22.2h-6.5V61.6z"/>
		<path class="st0" d="M706,88.1c0.2,2.2,0.7,3.8,1.6,5c1.7,2.1,4.6,3.1,8.7,3.1c2.5,0,4.6-0.5,6.5-1.6c1.9-1,2.8-2.7,2.8-4.8
			c0-1.7-0.7-2.9-2.2-3.8c-1-0.5-2.8-1.1-5.6-1.8l-5.2-1.3c-3.3-0.8-5.8-1.7-7.4-2.7c-2.8-1.8-4.2-4.2-4.2-7.3c0-3.7,1.3-6.6,4-8.9
			c2.7-2.3,6.3-3.4,10.8-3.4c5.9,0,10.1,1.7,12.8,5.1c1.6,2.2,2.4,4.5,2.4,7h-6.1c-0.1-1.5-0.7-2.8-1.6-4c-1.5-1.7-4.2-2.5-7.9-2.5
			c-2.5,0-4.4,0.5-5.7,1.4c-1.3,0.9-1.9,2.2-1.9,3.7c0,1.7,0.9,3,2.6,4c1,0.6,2.4,1.1,4.3,1.6l4.4,1c4.8,1.1,7.9,2.2,9.6,3.3
			c2.5,1.6,3.8,4.3,3.8,7.8c0,3.4-1.3,6.4-4,8.9c-2.6,2.5-6.7,3.8-12.1,3.8c-5.8,0-9.9-1.3-12.4-3.9c-2.4-2.6-3.7-5.8-3.9-9.7H706z"
			/>
		<path class="st0" d="M753.8,47.3h6.6v7.3h-6.6V47.3z M753.8,61.8h6.6v38.4h-6.6V61.8z"/>
		<path class="st0" d="M806.1,62.8c1.1,0.7,2.5,2,3.9,3.8V47.1h6.2v53.2h-5.8v-5.4c-1.5,2.4-3.3,4.1-5.4,5.2
			c-2.1,1.1-4.4,1.6-7.1,1.6c-4.3,0-8-1.8-11.1-5.4c-3.1-3.6-4.7-8.4-4.7-14.4c0-5.6,1.4-10.5,4.3-14.6c2.9-4.1,7-6.2,12.3-6.2
			C801.6,61,804.1,61.6,806.1,62.8z M791.6,91.8c1.7,2.8,4.5,4.2,8.4,4.2c3,0,5.4-1.3,7.4-3.9c1.9-2.6,2.9-6.3,2.9-11.1
			c0-4.9-1-8.5-3-10.8c-2-2.3-4.4-3.5-7.4-3.5c-3.2,0-5.9,1.3-7.9,3.8c-2,2.5-3,6.2-3,11C789,85.5,789.9,89,791.6,91.8z"/>
		<path class="st0" d="M861.3,76.9c1.5-0.2,2.5-0.8,3-1.9c0.3-0.6,0.4-1.4,0.4-2.5c0-2.2-0.8-3.8-2.4-4.8c-1.6-1-3.8-1.5-6.7-1.5
			c-3.4,0-5.8,0.9-7.2,2.8c-0.8,1-1.3,2.5-1.5,4.5h-6.1c0.1-4.8,1.7-8.1,4.6-10c3-1.9,6.4-2.8,10.3-2.8c4.5,0,8.2,0.9,11.1,2.6
			c2.8,1.7,4.2,4.4,4.2,8.1v22.3c0,0.7,0.1,1.2,0.4,1.6c0.3,0.4,0.9,0.6,1.7,0.6c0.3,0,0.6,0,1,0c0.4,0,0.7-0.1,1.1-0.2v4.8
			c-1,0.3-1.8,0.5-2.3,0.5c-0.5,0.1-1.3,0.1-2.2,0.1c-2.2,0-3.9-0.8-4.9-2.4c-0.5-0.8-0.9-2-1.1-3.6c-1.3,1.7-3.2,3.2-5.7,4.5
			c-2.5,1.3-5.2,1.9-8.2,1.9c-3.6,0-6.5-1.1-8.8-3.3c-2.3-2.2-3.4-4.9-3.4-8.2c0-3.6,1.1-6.3,3.3-8.3c2.2-2,5.2-3.2,8.8-3.6
			L861.3,76.9z M847.7,94.4c1.4,1.1,3,1.6,4.9,1.6c2.3,0,4.5-0.5,6.6-1.6c3.6-1.8,5.4-4.6,5.4-8.6v-5.2c-0.8,0.5-1.8,0.9-3.1,1.3
			c-1.2,0.3-2.5,0.6-3.7,0.7l-3.9,0.5c-2.4,0.3-4.1,0.8-5.3,1.5c-2,1.1-3,2.9-3,5.4C845.6,91.9,846.3,93.3,847.7,94.4z"/>
		<path class="st0" d="M917.6,62.8c1.2,0.7,2.5,2,3.9,3.8V47.1h6.2v53.2h-5.8v-5.4c-1.5,2.4-3.3,4.1-5.4,5.2
			c-2.1,1.1-4.4,1.6-7.1,1.6c-4.3,0-8-1.8-11.1-5.4c-3.1-3.6-4.7-8.4-4.7-14.4c0-5.6,1.4-10.5,4.3-14.6c2.9-4.1,7-6.2,12.3-6.2
			C913.2,61,915.6,61.6,917.6,62.8z M903.1,91.8c1.7,2.8,4.5,4.2,8.4,4.2c3,0,5.4-1.3,7.4-3.9c1.9-2.6,2.9-6.3,2.9-11.1
			c0-4.9-1-8.5-3-10.8c-2-2.3-4.4-3.5-7.3-3.5c-3.3,0-5.9,1.3-7.9,3.8c-2,2.5-3,6.2-3,11C900.5,85.5,901.4,89,903.1,91.8z"/>
	</g>
</g>
</svg>
