<?xml version="1.0" encoding="utf-8"?>
<!-- Generator: Adobe Illustrator 22.1.0, SVG Export Plug-In . SVG Version: 6.00 Build 0)  -->
<svg version="1.1" id="Layer_2" xmlns="http://www.w3.org/2000/svg" xmlns:xlink="http://www.w3.org/1999/xlink" x="0px" y="0px"
	 viewBox="0 0 1053.4 347.9" style="enable-background:new 0 0 1053.4 347.9;" xml:space="preserve">
<style type="text/css">
	.st0{fill:#B8A680;}
	.st1{fill:#245687;}
	.st2{fill:#604B2C;}
	.st3{fill:#2F795C;}
	.st4{fill:#B5534D;}
</style>
<g>
	<g>
		<path class="st0" d="M74.1,71.3h159.7v122.3c0,42.6-35.7,77.1-79.9,77.1c-44.1,0-79.8-34.5-79.8-77.1L74.1,71.3z"/>
		<path d="M153.9,271.2c-44.3,0-80.4-34.8-80.4-77.6l0-122.8h160.9v122.8C234.4,236.3,198.3,271.2,153.9,271.2 M74.7,71.8l0,121.7
			c0,42.2,35.6,76.5,79.3,76.5c43.7,0,79.3-34.3,79.3-76.5V71.8H74.7z"/>
		<polygon class="st1" points="74.1,136.4 101.4,136.4 154,213.6 154,270.6 74.1,153 		"/>
		<path d="M153.6,270.9L73.7,153.3l-0.1-0.3v-16.7l0.5-0.5h27.2l0.4,0.2l52.7,77.2l0.1,0.3v57L153.6,270.9z M74.6,152.9l78.9,116
			v-55.1l-52.4-76.9H74.6V152.9z"/>
		<path class="st2" d="M226.6,136.1c-0.1,0-0.2,0-0.3,0c-1.1-0.3-1.6-0.3-1.9,0.8c-0.8,0.2-1.9-0.2-2.6-1.1c-0.8-0.9-4.7-3.5-6-4.1
			c-1.2-0.7-3.5-1.8-4.6-2.1c-1.1-0.2-2.3-0.4-2.8-0.8c-0.3-0.3-0.2-0.9-0.1-1.3c1.5,0,1.3-1.9,1.3-1.9c0-0.5-0.4-1-1.1-1.1
			c-0.8-0.1-1.4,0.4-1.6,0.9c0,0.1,0,0.2,0.1,0.3c-0.2,1-0.2,1.4,0.6,1.7c0,0.4-0.5,1.1-1,1.2c-0.5,0.1-2.3,0-4.5,0
			c-1,0-2,0.2-3.1,0.4c-0.7-0.7-1.8-1.4-3-2.1c0.4-0.2,0.8-0.4,1.1-0.5c1.9-0.8,3.7-2.1,6.6-4.2c3-2.1,4.3-5,5.1-6.6
			c0.9-1.8,1.5-4.1,1.9-5.5c0.6-1.7,1.1-3.8,1.4-4.3c0.3-0.5,1.3-0.5,1.3-0.5l0.4-0.9c-1.1-0.3-0.8-1.6-0.7-2.7
			c0.1-1,0.7-2.2,1.2-2.5c0.4-0.2,1.7-0.1,2.1,0c0,0.1,0,0.2,0.1,0.4c0.4,1.5,2.4,0.7,2.4,0.7v0c0.5-0.2,0.8-0.6,0.7-1.3
			c-0.2-0.7-0.9-1.2-1.5-1.2c-0.1,0-0.2,0.1-0.3,0.1c-0.9,0.1-1.3,0.3-1.4,0.8l0-0.1c-1.2,0.1-1.9-0.1-2-0.8c-0.1-0.7,1-2.2,1-2.2
			l-1.2-0.3c-0.8,1-1,0.7-1.8,0.3c-0.5-0.3-1-0.9-1.3-1.3c0,0,0,0,0,0c0.8-1.3-1.2-2.1-1.2-2.1c0,0,0,0,0,0
			c-0.4-0.2-1.1-0.1-1.5,0.4c-0.4,0.7-0.3,1.4,0.1,1.8c0.1,0.1,0.2,0.1,0.4,0.1c0.7,0.5,1.1,0.7,1.6,0.4c0.3,0.3,0.8,0.9,1.1,1.3
			c0.6,0.8,0.1,1.7,0,2.8c-0.1,1.1-1.9,5.7-2.2,6.5c-0.2,0.8-0.5,2.4-1,3.7c-0.8,2-1.6,3.5-2.4,5.6c-0.8,2.1-2.1,4-3,4.2
			c-0.7,0.2-0.8-0.8-0.8-1.5c1.3-0.4,0.5-2.2,0.5-2.2l0,0c-0.1-0.4-0.7-0.9-1.4-0.7c-0.7,0.1-1.2,0.9-1.2,1.3
			c0.1,0.6,0.8,0.6,1.3,0.5c-0.4,0.1-1,0.1-1.2-0.2c0.1,1,0.3,1.4,1.2,1.4c0.5,1,0.2,2.7-0.7,3.5c-0.9,0.9-3.4,2.5-5.4,3.3
			c-0.8,0.3-1.6,0.7-2.3,1c-2.1-1-4.2-2-5.7-2.7c-3.4-1.7-3.3-2.5-3.5-3.1c-0.2-0.5,0.1-1.7,0.2-2.2c1.3,0,1.2-1.8,1.2-1.9
			c0-0.5-0.3-1-1.1-1.1c-0.8-0.1-1.4,0.4-1.6,0.9c0,0.1,0,0.2,0,0.3c-0.2,1-0.2,1.5,0.7,1.7l-0.3,0c0,0,0,2-0.6,1.8
			c-0.5-0.2-1.3-1.4-2.3-3.5c-1-2.1-3.1-7.7-3.6-9.2c-0.4-1.5-1.7-4.2-2.4-5.9c-0.7-1.7-1-2.4-1-3.5c0-1,0.5-1.3,1-1.9
			c0.1-0.1,1.2-0.6,1.3-0.5c1.3,0.6,1.9-1,1.9-1.3c0,0,0,0,0,0c0.2-0.4,0-1.1-0.7-1.4c-0.7-0.3-1.5-0.1-1.8,0.4
			c0,0.1-0.1,0.2-0.1,0.3c-0.3,0.5-0.5,0.9-0.4,1.2c-0.2,0.3-0.4,0.6-0.6,0.9c-0.4,0.5-0.9,1.3-1.6,1.5c-0.7,0.2-1.1-1.2-1.1-1.2
			l-1.3,0.5c0,0,1.7,2,1.3,2.2c-0.3,0.2-1.2,0.2-1.6,0.1c-0.5-0.7-1.8-0.6-1.8-0.6v0c-0.5-0.1-1.1,0.2-1.2,0.9
			c-0.1,0.8,0.3,1.5,0.9,1.6c0.1,0,0.2,0,0.3,0c0,0,0,0,0,0c1.2,0.3,1.7,0.2,1.9-1c0.7-0.1,2,0.5,2.6,1.2c0.6,0.8,0.6,1.8,0.9,2.8
			c0.3,1-0.5,0.8-0.5,0.8l0.8,1.3c1.1,0.1,1,1.8,1.4,3.1c0.4,1.3,1.9,5.5,3,8.2c1.1,2.6,2.4,4.2,3.9,5.6c1.5,1.4,3.7,3.1,5.8,3.9
			c1.1,0.4,1.9,0.7,2.5,1c-0.1,0-0.2,0.1-0.3,0.1c-1,0.5-2.2,1.4-2.7,1.8c-1-0.2-1.7-0.3-2.8-0.4c-1.5-0.2-3.3,0.2-4.9,0
			c-1-0.2-1.1-0.9-1-1.3c1-0.3,0.9-1.8,0.9-1.9c0.1-0.5-0.3-1-1.1-1.1c-0.7-0.1-1.4,0.3-1.6,0.9c0,0.1,0,0.2,0,0.3c0,0,0,0,0,0
			c-0.2,1.2-0.1,1.6,1,1.8c0.3,0.7-0.4,1.6-0.8,1.7c-0.6,0.1-1.7,0.3-2.1,0.4c-0.4,0-1.5,0.8-2.3,0.9c-0.8,0.1-1.1-0.4-1.1-0.4
			l-0.6,0.7c0.6,1-0.4,1-1.1,1.6c-0.7,0.5-1.3,0.6-2,1.1c-0.8,0.5-1.7,1.2-2.5,1.8c-0.8,0.7-1.2,0.9-2.3,1c-0.6,0.1-1.1,0-1.5-0.1
			c-0.6-1-2.2-0.3-2.2-0.3v0c-0.4,0.2-0.8,0.6-0.6,1.4c0.1,0.7,0.8,1.1,1.4,1.1c0.1,0,0.2-0.1,0.3-0.2c0,0,0,0,0,0
			c1-0.2,1.5-0.4,1.4-1.1c0.8,0.2,0.8,0.8,0.3,1.3c-0.6,0.7-1.6,2.6-1.9,3.7c-0.3,1.3-0.1,3-0.1,3l1.4-0.5c-0.1-2.2,0.9-3.8,1.2-4.5
			c0.3-0.7,0.3-0.9,1-0.9c0.5,0,0.7,0.9,0.8,1.3c-1,0.6-0.2,2.1-0.2,2.1h0c0.1,0.5,0.7,0.8,1.4,0.7c0.8-0.2,1.2-0.9,1.1-1.4
			c0-0.1-0.1-0.2-0.1-0.3c0,0,0,0,0,0c-0.2-1-0.4-1.5-1.3-1.4c-0.2-0.3-0.8-1.2-0.8-1.8c0-0.6,0.6-0.8,1.3-1.5
			c0.7-0.7,1.3-1.1,1.9-1.5c0.6-0.3,1.1-0.5,1.8-0.5c0.7,0,0.8,0.8,0.8,0.8l0.8-0.5c-0.2-0.8,0.2-1.3,0.5-2c0.3-0.7,1.4-1.1,2.6-1.4
			c1.2-0.4,2.4-0.6,4.3-0.9c1.6-0.2,4.1-0.3,6.3,0c0.3,0.1,0.1,0,0.1,0s-1,1.3-1.5,2.6c-0.5,1.3-1,3.2-1,4.8c0.1,1.6,1.3,4.4,2,5.8
			c0.8,1.5,2.6,3.7,2.6,3.7c0.7,1.3,0.7,2.1-0.1,6.3c-0.8,4.2,0.5,9.2,1.1,10.2c0.5,1.1,0,3.1-0.3,6.3c-0.2,3.1-0.8,27.1-0.8,29.8
			c0,2.6-0.3,7.6-1.1,9.4c-0.8,1.8-3.5,2.8-5.1,3.6c-1.6,0.8-4.1,2.3-5.2,3.2c-1.1,0.8-2.7,1.3-7.3,2.6c-4.5,1.3-7.2,7.5-7.2,7.5
			c2.4-1.7,3.7-2.4,4.4-2.7c0.7-0.4,3-0.8,4-1.1c1-0.3,2.1-0.7,4-1.3c1.7-0.5,2.6-1.9,2.8-2.3c-1.2,2.4-2.3,2.5-3.1,3.1
			c-0.8,0.6-2.2,2.1-3.9,2.8c-1.6,0.7-2.7,1.1-3.7,1.7c-1.1,0.6-3,2.2-3.6,3.1c-1,1.5-1.4,3.9-1.4,3.9s1-1.1,1.5-2
			c0.6-1,2.7-2.2,2.7-2.2s-0.1,0.7-0.2,1.5c-0.1,0.8-0.1,4.1,0.3,5.9c0.4,1.7,1.8,4.3,1.8,4.3s-0.1-2.2-0.2-3
			c-0.1-0.8,0.4-3.4,0.9-4.2c0.5-0.8,1.3-3.1,1.5-3.6c0.2-0.6,0-2,0-2s1.3-0.7,1.9-0.9c0.7-0.3,2.1-1,2.1-1s-0.1,2.3-0.1,3.2
			c0.1,0.9,0.4,2.3,0.8,3.4c0.4,1.1,1.2,2.2,1.6,2.8c0.5,0.5,1.1,1.8,1.1,1.8c0-0.6-0.2-2.5-0.4-4.1c-0.2-1.7,0.9-6.1,1-7
			c0-0.9,1-2.7,1-2.7s0.6-0.6,1.7-1.1c1-0.6,5.4-3.7,5.8-4c0.4-0.2,1.2-1.6,1.2-1.6c-0.2,1.1,0.3,3.2,0.4,4c0,0.8-0.4,2.7-0.9,3.7
			c-0.4,0.9-0.8,3.1-0.8,4c-0.1,0.9,0.2,3.8,0.5,4.3c0.2,0.5,0.8,1.7,1.1,2.8c0.3,1.1-0.3,4.1-0.3,4.1c0.7,0.2,1.3-2.9,1.7-4
			c0.3-1,0.4-4.6,0.5-5.7c0.1-1.1,0.8-2.5,1.4-3.1c0.5-0.7,1.4-2,1.7-2.7c0.2-0.7-0.1-4.5-0.1-5.1c0.1-0.7,0.1-2.4,1.4-2.3
			c1.3,0.1,1.7,2,1.7,2.5c0,0.5-0.1,1.6-0.4,2.8c-0.3,1.2,0.8,2.6,1.4,3.5c0.7,0.8,1.8,3.3,2.3,4.9c0.5,1.7,0.3,5.2,0.3,5.2
			s0.2,0.2,0.5-0.3c0.4-0.7,0.9-2.3,1.2-3.2c0.3-1.5,0.5-5.9,0.3-7.1c-0.1-1.2-1-2-1.4-2.6c-0.5-0.6-0.8-2.1-0.7-2.8
			c0.1-0.7,1.8-1.3,2.4-1.4c0.5,0,1,0.2,1.4,0.7c0.3,0.5,0.6,2.4,0.4,3.2c-0.1,0.8,0,1.2,0.5,2.2c0.5,1,1,1.7,1.3,2.5
			c0.3,0.7-0.2,3.4-0.2,3.4c1.4-0.8,1.8-4.3,1.9-5.2c0.1-0.9-0.3-3.6-0.3-4.8c0-1.2,0.8-1.9,1.3-2.1c0.6-0.3,3,1,4.1,1.3
			c1.1,0.2,4.4,0.1,5.6-0.7c2-1.3,2.5-4.1,2.6-4.3c0,0-1.4,0.6-2.7,0.8c-1.4,0.3-3.8-0.5-5.5-1c-1.6-0.5-2.4-0.2-4.9-0.8
			c-2.4-0.5-2.7-0.5-5.4-2.1c-2.7-1.5-2.4-5.5-2.4-8.9c0-3.4-1.1-37.6-0.6-38.8c0.6-1.3,1.4-5.3,1.6-6.6c0.2-1.3-0.6-4.3-0.9-6.1
			c-0.3-1.8,0.5-3.6,0.5-3.6c0.3-0.7,1.1-2.1,2.1-3.3c0.9-1.3,1.5-2.8,1.9-4.1c0.4-1.3,0.3-2.8,0-4.7c-0.3-1.7-1.8-4.5-2-4.8
			c1.4-0.1,2.9-0.1,4.2-0.1c1.9,0,5.8,0.9,7.4,1.4c1.5,0.5,2,1.3,2.2,2.1c0.1,0.8-1,1.7-1,1.7l1.2,0.8c0,0,0.2-0.6,0.8-1.2
			c0.7-0.7,1.8-0.3,3,0.4c1.2,0.7,2.2,1.9,2.8,2.9c0.5,0.7-0.3,1.5-0.6,1.8c-1.1-0.3-1.6,1-1.7,1.3c0,0,0,0,0,0
			c-0.2,0.4-0.1,1.1,0.6,1.4c0.7,0.3,1.5,0.1,1.8-0.3c0.1-0.1,0.1-0.2,0.1-0.3c0.6-0.9,0.7-1.3,0-1.8c0.3-0.3,1-1.2,1.4-1.2
			c0.5,0,0.8,1.1,1,2.1c0.3,1,0.6,2.7,0.6,2.7l1.3,0.4c0,0,0.4-0.6,0-2.8c-0.4-2.1-1.9-4-2.3-4.7c-0.3-0.4,0.1-0.3,0.4-0.2
			c0.1,1.1,1.9,1.1,1.9,1.1v-0.1c0.5,0.1,1.1-0.2,1.2-0.9C227.6,136.9,227.1,136.2,226.6,136.1 M195.5,130.3
			c-0.2,0.1-0.5,0.2-0.7,0.4c-0.6,0.3-1.1,0.6-1.7,0.9c-0.7-0.6-1.8-1.2-2.8-1.7c0.6-0.4,1.6-1,2.7-1.6
			C194,129,195,129.8,195.5,130.3 M189.9,134.3c-0.7,0.9-1.7,2.9-2.2,4c-0.4,1.2-0.6,2.7-0.9,2.2c-1.5-1.7-0.7-4.6-0.3-5.8
			c0.4-1.3,1.5-2.8,1.5-2.8c0,0,0,0,0,0c1.1,0.5,2,1.2,2.6,1.6C190.3,133.8,190.1,134.1,189.9,134.3 M193.2,144
			c-2.4,0-2.7-2.7-2.6-4c0.1-1.1,1.1-3,2.4-4.6c0.4-0.5,0.1-0.1,0.1-0.1s1.7,2.6,2.3,4.4C195.8,141,195.6,144,193.2,144
			 M200.4,137.3c0,1.8-0.6,3.4-0.9,3.4c-0.4,0-0.4-0.4-0.4-0.4c0-0.4-0.1-2.1-0.8-3.5c-0.6-1.3-2.5-3.4-2.8-3.7
			c0.7-0.5,1.4-0.9,2.1-1.2c0.7-0.3,0.1,0,0.1,0C198.8,132.9,200.4,135.7,200.4,137.3"/>
		<path class="st3" d="M170,96.2c0,0-2.9,1-4.7-0.3c0.5-0.1,0.7-0.8,0.7-0.8s-3-0.3-3.8-1.3c0.8-0.1,1.3-0.6,1.3-0.6
			s-2.7-2.5-3.1-3.4c1,0,1.4-0.1,1.4-0.1s-1.2-1.4-1.8-2.7c1,0.3,1.6,0.3,1.6,0.3s-1.4-1.6-1.3-3c0.8,0.5,1.7,1,1.7,1
			s-0.7-2.1-0.6-3.8c0.1-1.8-0.8-2.1-0.8-2.1s2.2,0,2.9,0.3c0.6,0.2,1.6,1,2.2,1.6c0.6,0.6,1.3,1,1.5,1.7c0.2-0.6,0-1.1,0-1.1
			s2.6,1.9,2.7,2.8c0.1-0.4,0.3-0.8,0.3-0.8s2.4,3.1,2.4,4.5c0.2-0.2,0.8-1.4,0.8-1.4s0.9,3.7-0.2,4.7c0.2,0.5,0.4,1.9-0.2,2.6
			C172.5,95.1,170,96.2,170,96.2"/>
		<path class="st3" d="M175.6,104c0,0,1.5,2.5,3.6,2.4c-0.4-0.3-0.2-1-0.2-1s2.5,1.4,3.6,1.1c-0.5-0.6-0.6-1.2-0.6-1.2
			s3.4-0.5,4.2-0.9c-0.7-0.6-1-1-1-1s1.7-0.3,2.8-1.1c-0.9-0.4-1.4-0.7-1.4-0.7s2-0.5,2.6-1.6c-0.9-0.1-1.8-0.1-1.8-0.1
			s1.6-1.3,2.6-2.7c0.9-1.5,1.7-1.3,1.7-1.3s-1.7-1.2-2.3-1.4c-0.6-0.2-1.8-0.1-2.6,0c-0.8,0.1-1.5,0.1-2,0.6
			c0.2-0.6,0.6-0.9,0.6-0.9s-2.9,0-3.5,0.7c0.2-0.4,0.2-0.8,0.2-0.8s-3.5,1.1-4.2,2.3c-0.1-0.3,0.1-1.6,0.1-1.6s-2.7,2.6-2.5,4
			c-0.4-0.5-1.1,1.2-1.2,2.2C174.1,101.9,175.6,104,175.6,104"/>
		<path class="st3" d="M173.2,103.9c0,0,1.2,2,0.1,5.5c-0.1-0.5-0.5-0.7-0.5-0.7s-0.1,2.8-1,3.7c-0.2-0.7-0.7-1.2-0.7-1.2
			s-2.4,2.7-3.2,3.2c-0.1-0.9-0.2-1.3-0.2-1.3s-1.3,1.2-2.6,1.9c0.1-1-0.1-1.3-0.1-1.3s-1.2,1-2.5,1c0.4-0.8,0.9-1.5,0.9-1.5
			s-2,0.8-3.8,0.8c-1.7,0.1-2,0.9-2,0.9s0.4-2.3,0.7-2.9c0.2-0.7,0.3-1.4,0.8-2c0.5-0.6,0.7-1.4,1.3-1.7c-0.6-0.1-0.8,0.2-0.8,0.2
			s1.6-2.5,2.6-2.7c-0.5,0-0.9-0.2-0.9-0.2s2.9-2.4,4.4-2.5c-0.2-0.2-1.4-0.7-1.4-0.7s3.7-1.1,4.8-0.2c0.7-0.3,1.7-0.4,2.6,0.1
			C172.3,102.8,173.2,103.9,173.2,103.9"/>
		<path d="M167.7,96.9c-1,0-1.7-0.5-2.3-1c-0.1-0.1-0.3,0-0.3-0.1c0-0.1,0.1-0.2,0.2-0.2c0.1,0,0.2-0.2,0.3-0.3
			c-0.9-0.1-2.9-0.8-3.7-1.7c-0.1-0.1,0.1,0.1,0,0c-0.1,0,0.1-0.2,0.2-0.2c0.4-0.1,0.7-0.2,0.9-0.3c-0.7-0.7-2.5-2.5-2.9-3.2
			c-0.1-0.1-0.3-0.2-0.2-0.3c0-0.1,0.3-0.1,0.5-0.1c0.3,0,0.6,0,0.8,0c-0.4-0.5-1.1-1.4-1.5-2.4c0-0.1,0-0.2,0.1-0.3
			c0.1-0.1,0.2-0.1,0.3-0.1c0.3,0.1,0.6,0.2,0.9,0.2c-0.4-0.6-0.8-1.7-0.8-2.6c0-0.1-0.1-0.1,0-0.2c0.1,0,0.2,0.1,0.2,0.2
			c0.4,0.2,0.8,0.3,1.1,0.5c-0.2-0.8-0.4-2-0.4-3.2c0.1-1.5-0.2-1.9-0.4-2c-0.1-0.1-0.4-0.2-0.2-0.2c0.2,0,2.4,0,3.1,0.3
			c0.7,0.2,1.7,0.9,2.3,1.5c0.2,0.2,0.4,0.4,0.5,0.5c0.2,0.2,0.2,0.1,0.4,0.3c0,0,0.2,0,0.3-0.1c0.1-0.1,0.1-0.1,0.2,0
			c0.3,0.2,2.6,1.9,2.6,1.9c0-0.1-0.1-0.3,0-0.3c0.1,0,0.4,0.1,0.5,0.2c0.1,0.1,1.8,2.3,2.3,3.9c0.1-0.2,0.5-0.5,0.5-0.7
			c0.1-0.1,0-0.2,0.1-0.2c0.1,0,0.1,0.1,0.1,0.2c0.1,0.4,0.8,3.1,0,4.5c0,0-0.4,0.3-0.4,0.4c0.3,0.6,0.5,2.1,0,2.7
			c-0.6,0.8-2.9,1.8-3.2,2C170.1,96.5,169,96.9,167.7,96.9 M166,96c0.5,0.2,1.1,0.4,1.7,0.4c1.2,0,2.2-0.4,2.2-0.4
			c0.6-0.3,2.5-1.2,2.9-1.8c0.5-0.5,0.7-1.6,0.5-1.8c0-0.2-0.1-0.4-0.2-0.5c-0.1-0.1-0.2-0.1-0.1-0.2c0.6-0.6,0.5-2.4,0.3-3.6
			c-0.2,0.3-0.3,0.5-0.4,0.7c-0.1,0.1-0.3,0.3-0.3,0.3s-0.1-0.4-0.1-0.5c0-1-1.6-3-2.4-4.1c0,0.1,0,0.3,0,0.4c0,0.1-0.1,0.3-0.2,0.1
			c-0.1-0.5-1.4-1.5-2.4-2.2c0,0.2,0,0.3-0.1,0.5c0,0.1-0.2,0.2-0.3,0.2c-0.1,0-0.1-0.1-0.1-0.3c-0.1-0.4-0.6-0.8-1-1.1
			c-0.2-0.2-0.4-0.2-0.6-0.4c-0.9-0.8-1.6-1.3-2.1-1.5c-0.4-0.2-1.4-0.2-2.1-0.3c0.2,0.4,0.4,0.9,0.3,1.8c-0.1,1.7,0.5,3.4,0.5,3.4
			c0,0.1,0.2,0.4,0.2,0.4c-0.1,0.1-0.2,0-0.3,0c0,0-0.7-0.1-1.4-0.4c0.2,1.1,0.9,2.2,1,2.2c0.1,0.1,0.4,0.2,0.3,0.3
			c-0.1,0.1-0.2,0.2-0.3,0.2c0,0-0.4,0-1.1-0.2c0.6,1.1,1.3,2.1,1.3,2.1c0.1,0.1,0.3,0.1,0.2,0.2c0,0.1-0.1,0.2-0.2,0.2
			c0,0-0.5,0-1.1,0.1c0.7,0.8,2.3,2.5,2.9,3c0.1,0.1,0.2,0.1,0.2,0.2c0,0.1,0,0.1-0.1,0.1c0,0-0.3,0.3-0.8,0.4
			c0.9,0.5,2.6,0.8,3.2,0.9c0.1,0,0.2,0.1,0.2,0.1c0,0.1,0.1,0.2,0,0.3C166.4,95.3,166.3,95.7,166,96"/>
		<path d="M171.4,94.1c-0.8,0-1.7-0.4-1.7-0.4l0.3-0.6c0.4,0.2,1.1,0.7,1.7,0.5l0.4,0C171.9,93.8,171.7,94.1,171.4,94.1"/>
		<path d="M169,95.1l-0.2,0c0,0,0.7-0.9,0.9-1.8c0.3-1.1-1.3-4.7-1.9-5.5c-0.2-0.2-0.2-0.7-0.5-1.1c-0.9-1.4-2.4-4-4.1-5l0.1-0.1
			c1.8,1.1,3.4,3.5,4.3,4.9c0.3,0.4,0.5,0.8,0.7,1c0.7,0.9,2.1,4.6,1.8,6.1C169.8,94.4,169,95,169,95.1"/>
		<path class="st3" d="M172,131c0,0-2.6,1.7-4.6,0.9c0.5-0.2,0.5-1,0.5-1s-3,0.4-4-0.3c0.7-0.3,1.1-0.9,1.1-0.9s-3.2-1.8-3.9-2.5
			c0.9-0.3,1.3-0.4,1.3-0.4s-1.5-1-2.4-2.2c1.1,0,1.7-0.1,1.7-0.1s-1.8-1.2-2.1-2.5c0.9,0.3,1.9,0.6,1.9,0.6s-1.2-1.8-1.5-3.6
			c-0.3-1.7-1.3-1.8-1.3-1.8s2.2-0.6,2.9-0.5c0.7,0,1.8,0.5,2.5,0.9c0.7,0.4,1.5,0.7,1.9,1.3c0-0.7-0.2-1.1-0.2-1.1s2.9,1.2,3.3,2
			c0-0.4,0-0.9,0-0.9s3.1,2.4,3.4,3.8c0.2-0.3,0.4-1.5,0.4-1.5s1.8,3.3,1,4.6c0.3,0.4,0.9,1.7,0.4,2.6C174.1,129.3,172,131,172,131"
			/>
		<path d="M169.9,132.3c-1,0.3-1.7-0.1-2.5-0.4c-0.1,0-0.3,0.1-0.3,0c0-0.1,0.1-0.2,0.2-0.3c0.1-0.1,0.2-0.2,0.3-0.4
			c-0.9,0.1-3.1-0.1-4-0.7c-0.1-0.1,0.1,0,0,0c-0.1,0,0.1-0.2,0.2-0.3c0.3-0.2,0.6-0.4,0.8-0.5c-0.9-0.5-3-1.8-3.6-2.3
			c-0.1-0.1-0.3-0.2-0.3-0.3c0-0.1,0.3-0.2,0.4-0.2c0.3-0.1,0.6-0.2,0.8-0.2c-0.5-0.4-1.4-1.1-2-1.9c-0.1-0.1-0.1-0.2,0-0.3
			c0.1-0.1,0.2-0.2,0.3-0.2c0.3,0,0.6,0,0.9,0c-0.6-0.5-1.2-1.4-1.4-2.4c0-0.1-0.1-0.1,0-0.2c0.1-0.1,0.2,0.1,0.3,0.1
			c0.4,0.1,0.9,0.1,1.2,0.2c-0.4-0.7-0.9-1.9-1.2-3c-0.3-1.5-0.7-1.8-0.9-1.8c-0.1-0.1-0.4-0.1-0.3-0.1c0.2-0.1,2.3-0.6,3.1-0.5
			c0.7,0,1.8,0.4,2.6,0.8c0.2,0.1,0.4,0.2,0.6,0.4c0.2,0.1,0.2,0.1,0.4,0.2c0,0,0.2,0,0.3-0.1c0.1-0.1,0.1-0.1,0.2-0.1
			c0.4,0.2,3,1.2,3,1.2c0-0.1-0.1-0.2,0-0.3c0.1,0,0.4,0,0.5,0.1c0.1,0.1,2.3,1.8,3.2,3.2c0.1-0.3,0.3-0.6,0.4-0.8
			c0-0.1-0.1-0.2,0.1-0.2c0.1,0,0.1,0.1,0.2,0.2c0.2,0.3,1.6,2.8,1.1,4.3c0.1,0-0.3,0.4-0.3,0.5c0.4,0.5,1,1.9,0.6,2.6
			c-0.4,0.9-2.4,2.5-2.6,2.7C172.1,131.3,171.2,131.9,169.9,132.3 M168,131.8c0.5,0.1,1.1,0.1,1.8-0.1c1.1-0.3,2.1-0.9,2.1-0.9
			c0.5-0.4,2.1-1.8,2.4-2.5c0.3-0.7,0.2-1.7,0-1.9c-0.1-0.2-0.2-0.3-0.3-0.4c-0.1-0.1-0.2-0.1-0.1-0.2c0.4-0.7-0.1-2.4-0.7-3.6
			c-0.1,0.3-0.2,0.6-0.3,0.7c-0.1,0.1-0.2,0.3-0.2,0.3s-0.2-0.4-0.2-0.5c-0.2-0.9-2.3-2.5-3.3-3.3c0,0.1,0.1,0.3,0.1,0.4
			c0,0.2-0.1,0.3-0.1,0.2c-0.2-0.4-1.7-1.1-2.8-1.5c0,0.2,0,0.3,0,0.5c0,0.1-0.1,0.2-0.2,0.3c-0.1,0-0.1-0.1-0.2-0.2
			c-0.2-0.4-0.8-0.6-1.3-0.8c-0.2-0.1-0.5-0.1-0.7-0.3c-1-0.5-1.9-0.9-2.4-0.9c-0.4-0.1-1.4,0.1-2.1,0.3c0.3,0.3,0.6,0.8,0.8,1.7
			c0.3,1.6,1.3,3.2,1.3,3.2c0.1,0.1,0.3,0.3,0.3,0.4c-0.1,0.1-0.2,0.1-0.3,0c0,0-0.7,0.1-1.4-0.1c0.5,1,1.5,1.9,1.5,1.9
			c0.1,0.1,0.4,0.1,0.4,0.2c0,0.1-0.1,0.2-0.3,0.2c0,0-0.4,0.1-1.1,0.1c0.8,0.9,1.8,1.7,1.8,1.7c0.1,0.1,0.3,0,0.3,0.2
			c0,0.1-0.1,0.2-0.2,0.3c0,0-0.5,0.1-1,0.3c0.9,0.6,2.8,1.8,3.5,2.2c0.1,0,0.2,0,0.2,0.1c0,0.1,0,0.1-0.1,0.2c0,0-0.3,0.3-0.7,0.6
			c1,0.3,2.7,0.1,3.3,0.1c0.1,0,0.2,0,0.2,0.1c0.1,0.1,0.1,0.1,0.1,0.2C168.2,131,168.2,131.4,168,131.8"/>
		<path d="M172.8,128.6c-0.8,0.2-1.7,0.1-1.8,0l0.1-0.6c0.4,0.1,1.3,0.4,1.8,0l0.4-0.1C173.2,128.1,173.1,128.5,172.8,128.6"/>
		<path d="M170.7,130.1l-0.2,0.1c0,0,0.5-1.1,0.5-1.9c0-1.2-2.4-4.2-3.2-4.9c-0.2-0.2-0.4-0.6-0.8-0.9c-1.2-1.1-3.3-3.3-5.2-3.8
			l0-0.1c2,0.6,4.1,2.5,5.4,3.6c0.4,0.4,0.7,0.6,0.9,0.8c0.9,0.7,3.2,3.9,3.3,5.4C171.4,129.3,170.7,130.1,170.7,130.1"/>
		<path d="M182.3,106.5c-1,0-2-0.3-2.7-0.6c-0.2-0.1-0.3-0.1-0.3,0.2c0,0.5-0.2,0.6-0.2,0.6c-2.1,0-3.6-2.4-3.7-2.5
			c-0.1-0.2-1.5-2.2-1.3-3.5c0.1-0.4,0.5-2.4,1.2-2.5c0.2-1.5,2.3-3.3,2.5-3.5c0.1-0.1,0.5-0.4,0.6-0.4c0.1,0.1-0.1,0.2-0.1,0.3
			c0,0.3-0.1,0.5-0.1,0.8c1.2-1,3.5-1.8,4.2-1.8c0.2,0,0.2,0,0.3,0.1c0.1,0.1-0.3,0.2-0.3,0.3c1-0.3,2.7-0.4,3.1-0.4h0
			c0.1,0,0.6,0.4,0.5,0.5c0.2-0.1,0.2,0,0.4-0.1c0.2,0,0.3,0,0.5-0.1c0.4-0.1,1,0,1.6,0c0.5,0,0.8,0.1,1.1,0.2
			c0.6,0.1,2.2,1,2.4,1.2c0.1,0.1-0.2,0.3-0.2,0.3c-0.2,0-0.8,0.3-1.4,1.4c-0.6,1-1.3,1.6-1.8,2.1c0.3,0,0.5,0.5,0.9,0.5
			c0.1,0,0.2,0.1,0.3,0.1c0,0.1,0,0,0,0.1c-0.5,0.8-1.4,1.3-2.1,1.5c0.2,0.1,0.4,0.4,0.7,0.5c0.1,0,0.2,0,0.2,0.1
			c0,0.1-0.2,0-0.2,0.1c-0.8,0.5-1.7,1-2.3,1.2c0.2,0.1,0.2,0.5,0.5,0.7c0.1,0.1,0.1,0.2,0,0.2c-0.7,0.4-2.9,1.1-3.8,1.2
			c0.1,0.2,0.2,0.4,0.4,0.6c0.1,0.1,0,0.2-0.1,0.2C182.6,106.4,182.4,106.5,182.3,106.5 M179.2,105c0,0,1.8,1,2.9,1.1
			c-0.3-0.5-0.3-0.9-0.4-0.9c0-0.1,0.2-0.4,0.2-0.4c0.8-0.1,2.8-0.4,3.8-0.7c-0.4-0.4-0.6-0.8-0.6-0.8c-0.1-0.1-0.1-0.3,0-0.4
			c0,0,1.2-0.3,2.3-0.8c-0.6-0.3-0.9-0.6-0.9-0.6c-0.1-0.1-0.2,0-0.2-0.2c0-0.1,0.3-0.1,0.4-0.1c0,0,1.1-0.5,1.9-1.2
			c-0.7,0-1.2-0.4-1.3-0.4c-0.1,0-0.3-0.2-0.2-0.2c0,0,1.6-1.3,2.5-2.7c0.4-0.8,0.9-1.1,1.2-1.3c-0.6-0.4-1.3-0.9-1.6-0.9
			c-0.2-0.1-0.5-0.1-0.9-0.1c-0.5,0-1.1,0.1-1.5,0.1c-0.2,0-0.4-0.1-0.6,0c-0.5,0.1-1,0.2-1.5,0.4c-0.1,0-0.3,0.1-0.3,0.1
			s0-0.1,0-0.3c0.1-0.2,0.1-0.3,0.2-0.5c-1.1,0.1-2.6,0.1-2.9,0.4c-0.1,0.1-0.5,0.1-0.5,0.1s0.2-0.1,0.2-0.3c0-0.1,0.1-0.2,0.1-0.2
			c-0.6-0.1-3.2,1.1-3.7,1.8c-0.1,0.1-0.2,0.4-0.4,0.4c-0.1,0,0-0.1,0-0.3c-0.1-0.2,0-0.5,0-0.9c-0.9,1-2,2.4-1.9,3.2
			c0,0.1,0,0.3-0.2,0.3c-0.1,0.1-0.2,0-0.3-0.1c-0.2,0.2-0.6,1.2-0.8,2c-0.1,0.9,0.9,2.5,1.3,3c0,0,1.3,2,3,2.2
			C178.7,105.6,179.2,105,179.2,105"/>
		<path d="M176.8,101.6c-0.2,0-1.1-0.7-1.6-1.5c0.3,0.5,1.3,0.8,1.7,0.9L176.8,101.6z"/>
		<path d="M177,103.1L177,103.1c0,0-0.6-1.1-0.3-2c0.5-1.6,4.4-3.6,4.4-3.6c1-0.4,5.3-1.6,7.6-1.1c-2.3,0.2-6.5,1.1-7.4,1.5
			c-1.3,0.7-3.8,2.4-4.1,3.4C177,102.1,177,103.1,177,103.1"/>
		<path d="M164.9,115.2c-0.1-0.1,0-0.9,0-1.1c-0.6,0.5-1.5,0.7-2.5,0.7c-0.1,0-0.3,0-0.3-0.1c0.2-0.3,0.4-0.7,0.5-1
			c-0.8,0.2-2,0.6-3.2,0.6c-1.5,0-2.2,0.8-2.2,0.7c0-0.1,0.3-2.5,0.5-3.1c0-0.2,0.1-0.3,0.1-0.5c0.1-0.5,0.3-1.1,0.7-1.6
			c0.1-0.1,0.2-0.2,0.3-0.3c0.2-0.2,0.4-0.5,0.6-0.7c0,0-0.1,0-0.1,0c-0.1,0-0.3,0-0.3-0.1c-0.1-0.1,1.1-2,2-2.8
			c-0.1,0-0.4-0.5-0.3-0.6c0.1-0.1,2.5-1.7,4-2.3c-0.2-0.1-0.7-0.3-1-0.3c-0.1,0,0-0.2,0.1-0.3c0.1,0,1.8-0.8,3.3-0.8
			c0.6,0,1,0.4,1.3,0.5c0.2-0.2,0.9-0.2,1.3-0.2c0.6,0,1,0,1.5,0.3c0.8,0.5,1.8,1.5,1.8,1.6c0.1,0.1,1.2,2.1,0,5.6
			c0,0.1,0,0.4-0.1,0.4h0c-0.1,0-0.3,0-0.3,0.2c-0.1,0.9-0.3,2-1,2.7c-0.1,0.1-0.7-0.8-0.9-0.9c-0.6,0.7-2.3,2.6-3,3
			c-0.1,0.1-0.5-0.8-0.6-1C167,114.1,165,115.3,164.9,115.2 M163.6,113.3c0,0-0.3,0.5-0.6,1.2c1.1-0.3,2.1-1.3,2.1-1.3
			c0.1-0.1,0.3,0.8,0.3,1.5c1-0.6,2.1-1.8,2.1-1.8c0.1-0.1,0.2-0.1,0.3-0.1c0.1,0,0.3,0.5,0.4,1c0.8-0.7,2.2-2.2,2.7-2.8
			c0.1-0.1,0-0.1,0.3,0.1c0,0,0.4,0.2,0.7,0.7c0.5-0.9,0.6-2.4,0.7-3c0-0.1,0.6-0.2,0.7-0.1c0.8-2.9-0.2-4.6-0.2-4.6
			c0,0-0.8-1.1-1.6-1.5c-0.4-0.2-1.1-0.4-1.7-0.4c-0.2,0-0.3,0-0.4,0c-0.2,0.1-0.4,0.3-0.5,0.3c-0.2-0.2-0.7-0.3-1.3-0.3
			c-0.8,0-1.7,0.2-2.3,0.3c0.3,0.1,0.5,0.3,0.6,0.4c0.1,0.1-0.1,0.5-0.2,0.5c-0.9,0.1-2.7,1.3-3.7,2c0.1,0,0.5,0.6,0.3,0.6
			c-0.5,0.1-1.4,1.2-2,2.1c0.2,0,0.3,0,0.5,0.1c0.1,0-0.8,1.2-1.2,1.7c-0.1,0.1-0.2,0.2-0.3,0.3c-0.3,0.4-0.5,0.9-0.6,1.4
			c0,0.2-0.1,0.3-0.2,0.5c-0.1,0.4-0.3,1.3-0.5,2c0.3-0.2,0.8-0.3,1.6-0.3c1.7-0.1,3.7-0.5,3.8-0.5
			C163.3,113.1,163.7,113.2,163.6,113.3"/>
		<path d="M170.9,104.9l-0.6-0.2c0.1-0.3,0.5-1.3,0.2-1.9l0.2-0.1C171.1,103.6,170.9,104.8,170.9,104.9"/>
		<path d="M159.6,112.1l-0.2,0.1c1.5-2,4.6-5.2,5.6-5.8c0.7-0.5,4.1-2.3,5.5-1.9c1,0.3,1.6,1.3,1.6,1.3c0,0-0.9-0.5-1.8-0.7
			c-1.1-0.3-4,1.1-5.1,1.8C164.4,107.5,161.4,110.1,159.6,112.1"/>
		<path class="st3" d="M161,143.9c0,0,2.4-0.4,5.3,2.1c-0.5-0.1-0.8,0.2-0.8,0.2s2.6,1.2,3.1,2.4c-0.7-0.1-1.4,0.1-1.4,0.1
			s1.7,3.2,1.8,4.2c-0.9-0.3-1.4-0.3-1.4-0.3s0.7,1.6,0.8,3.1c-0.9-0.5-1.3-0.4-1.3-0.4s0.5,1.5,0,2.7c-0.6-0.7-1.1-1.4-1.1-1.4
			s-0.1,2.2-0.7,3.8c-0.6,1.6,0,2.2,0,2.2s-2-1.3-2.6-1.7c-0.5-0.5-1.2-0.8-1.6-1.5c-0.4-0.7-1.1-1.2-1.1-1.9
			c-0.4,0.5-0.2,0.8-0.2,0.8s-1.7-2.5-1.6-3.4c-0.2,0.4-0.5,0.8-0.5,0.8s-1.1-3.6-0.7-5c-0.3,0.1-1.2,1-1.2,1s0.4-3.8,1.8-4.5
			c0-0.7,0.3-1.7,1.1-2.3C159.6,144.3,161,143.9,161,143.9"/>
		<path d="M168.7,155.9c-0.1,0.1-0.9-0.3-1.1-0.4c0.2,0.7,0.1,1.7-0.3,2.6c0,0.1-0.2,0.3-0.2,0.2c-0.3-0.3-0.5-0.6-0.8-0.9
			c-0.1,0.8-0.3,2.1-0.7,3.1c-0.6,1.4-0.1,2.4-0.2,2.3c-0.1-0.1-2.3-1.2-2.8-1.7c-0.1-0.1-0.3-0.2-0.4-0.3c-0.4-0.3-1-0.7-1.3-1.3
			c-0.1-0.1-0.1-0.3-0.2-0.4c-0.2-0.3-0.3-0.6-0.4-0.8c0,0,0,0.1,0,0.1c0,0.1-0.1,0.2-0.2,0.3c-0.1,0-1.5-1.8-1.9-2.9
			c-0.1,0.1-0.6,0.1-0.7,0c0-0.1-0.7-2.9-0.6-4.6c-0.2,0.2-0.5,0.6-0.7,0.8c-0.1,0.1-0.3-0.1-0.2-0.2c0-0.1-0.1-2,0.5-3.4
			c0.2-0.5,0.8-0.8,1-1c-0.1-0.2,0.1-0.9,0.3-1.3c0.2-0.5,0.4-0.9,0.9-1.3c0.8-0.6,2.2-1.1,2.2-1.1c0.1,0,2.5-0.3,5.4,2.2
			c0.1,0.1,0.3,0.1,0.3,0.3c0,0,0,0,0,0c0,0.1-0.1,0.2,0.1,0.4c0.9,0.5,1.8,1.1,2.2,2c0,0.1-1,0.4-1.3,0.4c0.4,0.9,1.6,3.1,1.7,3.9
			c0,0.1-1,0.2-1.2,0.1C168.4,153.5,168.7,155.8,168.7,155.9 M166.3,156.4c0,0,0.4,0.5,0.9,1c0.1-1.1-0.4-2.4-0.4-2.4
			c-0.1-0.1,0.9,0,1.6,0.3c-0.2-1.2-0.9-2.6-0.9-2.6c0-0.1,0-0.2,0-0.3c0.1-0.1,0.6-0.1,1.2,0.1c-0.4-1-1.3-2.8-1.7-3.6
			c0-0.1-0.1-0.1,0.2-0.3c0,0,0.4-0.3,0.9-0.3c-0.7-0.8-2.1-1.5-2.7-1.8c-0.1,0,0-0.6,0.2-0.7c-2.5-1.8-4.5-1.6-4.5-1.6
			c0,0-1.4,0.4-2.1,0.9c-0.4,0.3-0.9,0.9-1.1,1.4c-0.1,0.2-0.1,0.3-0.1,0.4c0,0.2,0.2,0.5,0.1,0.6c-0.3,0.1-0.6,0.5-0.8,1.1
			c-0.3,0.7-0.5,1.6-0.6,2.3c0.2-0.2,0.5-0.4,0.6-0.4c0.1,0,0.5,0.3,0.4,0.4c-0.3,0.9,0.2,3,0.5,4.2c0-0.1,0.7-0.2,0.7-0.1
			c-0.1,0.5,0.6,1.8,1.2,2.7c0.1-0.2,0.2-0.3,0.3-0.5c0.1-0.1,0.8,1.2,1.1,1.7c0.1,0.1,0.1,0.3,0.2,0.4c0.2,0.5,0.6,0.8,1.1,1.1
			c0.2,0.1,0.3,0.2,0.4,0.3c0.3,0.3,1.1,0.8,1.7,1.2c0-0.4,0-0.9,0.3-1.6c0.6-1.6,1-3.7,1-3.7C166,156.6,166.2,156.3,166.3,156.4"/>
		<path d="M161.1,146.4l-0.5,0.4c-0.3-0.3-1.1-0.9-1.7-1l0-0.3C159.9,145.7,161,146.3,161.1,146.4"/>
		<path d="M163.5,159.6l0,0.3c-1.3-2.1-3.2-6.3-3.4-7.4c-0.2-0.8-0.6-4.6,0.4-5.8c0.6-0.8,1.9-1,1.9-1c0,0-0.8,0.6-1.4,1.4
			c-0.7,0.9-0.5,4.2-0.3,5.4C160.9,153.4,162.3,157.2,163.5,159.6"/>
		<path d="M226.7,135.8c-0.1,0-0.2,0-0.2,0c-0.1,0-0.1,0-0.2,0c-0.4-0.1-0.7-0.1-1-0.1c-0.7,0-1,0.4-1.2,1c-0.7,0.1-1.6-0.3-2.1-1
			c-0.6-0.6-2.8-2.1-4.3-2.8c0,0,0.1-0.2,0-0.2c-0.4,0-0.8-0.1-1.2-0.2c1.6,1,4.4,2.9,5.1,3.6c0.6,0.7,1.4,1.2,2.2,1.3
			c-0.1,0-0.1,0.1-0.1,0.1c-0.1,0.2,0,0.5,0.1,0.6c0.1,0.1,0.2,0.3,0.3,0.5c0.6,0.9,1.6,2.4,1.9,4.1c0.2,1.1,0.2,1.8,0.1,2.2
			c0.1,0,0.2,0,0.3,0.1c0.1,0-0.1,0-0.1,0.1c0.1-0.4,0.2-1.4-0.1-2.8c-0.3-1.4-0.8-2.5-1.4-3.4c0.6,0.3,1.3,0.3,1.3,0.3
			c0.1,0,0.1,0,0.2-0.1c0.5,0,1.2-0.4,1.3-1.2C227.9,136.8,227.4,136,226.7,135.8 M225.4,136.7C225.4,136.7,225.4,136.7,225.4,136.7
			c-0.1,0.2-0.1,0.3-0.1,0.4c0,0.1,0,0.1,0,0.2c0,0,0,0,0,0.1c0,0.1,0,0.2,0,0.2c0,0,0,0,0,0c0,0.1,0,0.2,0,0.2c0,0,0,0,0,0
			c0,0.1,0,0.2,0,0.3c0,0,0,0,0,0c-0.2-0.1-0.4-0.2-0.5-0.3c-0.1-0.2-0.2-0.4-0.2-0.6c0.2-0.9,0.4-0.9,0.7-0.9c0.1,0,0.2,0,0.3,0
			C225.6,136.4,225.5,136.5,225.4,136.7C225.5,136.6,225.5,136.7,225.4,136.7 M227.2,137.6c-0.1,0.5-0.6,0.9-0.9,0.9
			c-0.3,0-0.5-0.1-0.5-0.2c-0.1-0.2-0.2-0.9-0.2-0.9c0-0.1,0.1-0.4,0.1-0.6c0.1-0.2,0.7-0.6,0.7-0.6
			C226.8,136.3,227.2,137,227.2,137.6"/>
		<path d="M225,144.4c-0.1-0.5-0.1-1.6-0.3-2.4c-0.3-1.2-0.6-2.3-1.3-2.3c-0.5,0-0.9,0.7-1.3,1.1c0,0-0.7-0.2-0.5-0.1
			c0.2-0.3,0.8-0.6,0.8-1c0-0.3,0-0.6-0.2-0.9c-0.6-0.9-1.6-2.3-2.9-3c-1-0.5-1.7-0.8-2.2-0.8c-0.4,0-0.8,0.1-1.1,0.4
			c-0.1,0.1-0.3,0.3-0.4,0.4c0.2,0.1,0,0,0.2,0.1c0.1-0.1,0.4-0.2,0.5-0.3c0.2-0.2,0.5,0,0.8,0c0.6,0,1.3,0.4,1.9,0.7
			c1.2,0.6,2.1,1.9,2.7,2.8c0.1,0.1,0.1,0.3,0.1,0.4c0,0.3-0.3,0.7-0.6,0.9c-0.1,0-0.1,0-0.2,0c-1,0-1.6,1.1-1.7,1.5c0,0,0,0,0,0
			c0,0,0,0,0,0v0c0,0,0,0,0,0c-0.2,0.3-0.2,0.7-0.1,1c0.1,0.4,0.4,0.7,0.8,0.9c0.3,0.1,0.6,0.2,0.9,0.2c0.5,0,1.1-0.2,1.3-0.6
			c0.1-0.1,0.1-0.3,0.1-0.4c0.4-0.6,0.6-1,0.5-1.4c0-0.2-0.1-0.3-0.3-0.5c0.4-0.4,0.8-0.8,1-0.8c0.1,0,0.4,0.3,0.7,1.9
			c0.2,0.7,0.6,1.7,0.7,2.3C225,144.4,224.8,144.4,225,144.4 M221.5,143.1c-0.2,0.3-1,0.4-1.4,0.2c-0.3-0.1-0.4-0.4-0.5-0.5
			c-0.1-0.2,0-0.4,0-0.5c0,0,0,0,0,0c0,0,0-0.1,0-0.1c0,0,0,0,0-0.1c0,0,0,0,0.1,0c0,0,0,0,0,0c0,0,0,0,0.1,0c0,0,0,0,0,0
			c0,0,0.1,0,0.1,0c0.2,0,0.6,0.2,0.8,0.3l0.1,0.1C221.3,142.5,221.5,142.8,221.5,143.1C221.5,143,221.6,143,221.5,143.1
			C221.6,143,221.6,143,221.5,143.1 M222,142.7c-0.2-0.2-0.4-0.5-1-0.9c-0.3-0.2-1.2-0.4-1.2-0.4c0.3-0.3,0.8-0.9,1.5-0.3
			c0.4,0.3,0.7,0.4,0.7,0.6C222.1,141.9,222.1,142.5,222,142.7"/>
		<path d="M220.3,98.9c-0.3-0.9-1.1-1.4-1.8-1.4h0c-0.1,0-0.3,0.1-0.4,0.1c-0.7,0.1-1.2,0.2-1.5,0.6c0,0,0,0,0,0.1
			c-0.2,0-0.3,0-0.4,0c-1,0-1.1-0.4-1.1-0.5c0-0.3,0.3-1,0.6-1.6c-0.2-0.1-0.4-0.2-0.6-0.3c-0.3,0.6-0.7,1.4-0.6,1.9
			c0.1,0.4,0.3,0.8,1,0.9c-0.4,0-0.7,0-0.9,0.1c-0.7,0.3-1.3,1.7-1.4,2.7l0,0.2c-0.1,0.9-0.3,2.1,0.5,2.6c0.1-0.2,0.2-0.3,0.3-0.5
			c-0.4-0.3-0.4-1.1-0.2-2l0-0.2c0.1-1,0.7-2,1.1-2.2c0,0,0.2-0.1,0.7-0.1c0.4,0,0.8,0,1.1,0.1c0,0.1,0,0.1,0,0.2
			c0.2,0.7,0.7,1.1,1.5,1.1c0.6,0,1.2-0.2,1.3-0.3c0,0,0.1,0,0.1-0.1C220,100.3,220.4,99.7,220.3,98.9 M217.1,99.6
			c-0.1-0.5-0.1-0.8,0-1c0.1-0.1,0.4-0.4,0.7-0.5c0,0-0.2,0.3-0.2,0.4c0,0.3,0,0.5,0,0.7c0,0.1,0,0.1,0,0.2c0,0.1,0,0.1,0,0.2
			c0,0,0,0,0,0.1c0,0,0,0.1,0,0.1c0,0,0,0.1,0,0.1c0,0,0,0.1,0.1,0.1c0,0,0,0.1,0,0.1c0,0,0,0.1,0.1,0.1c0,0,0.3,0.3,0.3,0.3
			C217.7,100.5,217.2,99.8,217.1,99.6 M219.1,100.2C219,100.2,219,100.2,219.1,100.2c-0.1,0-0.1,0-0.2,0c0,0-0.1,0-0.1,0
			c0,0-0.1,0-0.1,0c0,0,0,0,0,0c0,0-0.1,0-0.1,0c0,0,0,0,0,0c-0.2-0.1-0.3-0.3-0.4-0.6v0c0-0.1,0-0.2-0.1-0.3c0-0.1,0-0.1-0.1-0.2
			c0-0.2-0.1-0.4,0-0.6c0-0.2,0.1-0.4,0.2-0.5c0,0,0,0,0,0c0,0,0,0,0.1,0c0.5,0,1.2,0.4,1.4,1.1C219.8,99.7,219.5,100.1,219.1,100.2
			"/>
		<path d="M219.6,214.8c-0.1-0.1-0.2-0.1-0.3-0.1c0,0-1.3,0.8-2.6,1.1c-0.2,0-0.5,0-0.7,0c-1.4,0-3.5-1-4.6-1.3
			c-0.8-0.2-1.5-0.3-2.2-0.4c-0.7-0.1-1.5-0.1-2.7-0.4l-0.4-0.1c-2.1-0.4-2.4-0.5-4.9-2c-2.3-1.3-2.3-4.6-2.3-7.8c0-0.3,0-0.6,0-0.9
			c0-1-0.1-4.4-0.2-8.7c-0.3-10.1-0.9-28.8-0.5-29.8c0.4-0.9,1.1-3.4,1.8-6.8c0.2-1-0.2-2.7-0.5-4.4c-0.1-0.7-0.3-1.3-0.4-1.8
			c-0.3-1.7,0.4-3.4,0.4-3.4c0.3-0.6,1.1-2.1,2.1-3.3c1-1.4,1.5-2.8,1.9-4.1c0.4-1.5,0.3-3.1,0-4.8c-0.2-1.4-1.2-3.6-1.7-4.6
			c1.2-0.1,2.5-0.1,3.7-0.1c1.8,0,5.6,0.9,7.2,1.4c1.1,0.4,1.8,1,2,1.9c0,0.3-0.2,0.6-0.4,0.9c0.2,0.1,0.1,0,0.3,0.1
			c0.3-0.4,0.8-0.7,0.7-1.2c-0.2-1.1-1-1.8-2.4-2.3c-1.5-0.5-5.4-1.4-7.5-1.4c-1.3,0-2.7,0-4.1,0.1c0,0-0.1,0-0.1,0
			c-0.3,0-0.7,0.1-1,0.2c-0.2,0-0.4,0.1-0.7,0.1c-1.5,0.4-2.6,0.9-3.9,1.8c-0.2,0.1-0.3,0.1-0.4,0.2c-0.3,0.2-0.6,0.4-0.9,0.7
			c-0.1,0.1-0.2,0.1-0.2,0.2c-1.9,1.6-3.6,4.6-3.8,6.2c0,0.6-0.1,2.4,0.9,3.6c0.5,0.5,1.1,0.8,1.9,0.8c0.9,0,1.6-0.4,2.1-1
			c0.7-1,0.8-2.7,0.4-3.7c-0.5-1.5-2-3.7-2.4-4.4c0.2-0.3,0.9-0.7,1.5-1.2c0.2-0.2,0.4-0.3,0.7-0.5c0.5,0.6,2,2.3,2.5,3.5
			c0.6,1.3,0.8,3,0.8,3.4c0,0.3,0.2,0.7,0.7,0.7c0.8,0,1.3-2.2,1.3-3.7c0-1.6-1.4-4.2-2.5-5.4c0.5-0.2,1.3-0.3,2.1-0.5
			c0.2,0,0.7-0.1,1-0.1c0.4,0.7,1.5,3.1,1.7,4.5c0.3,2.2,0.3,3.5,0,4.6c-0.4,1.3-1,2.7-1.9,4c-1,1.3-1.8,2.7-2.1,3.4
			c0,0.1-0.9,1.9-0.6,3.8c0.1,0.5,0.2,1.2,0.4,1.9c0.3,1.5,0.7,3.3,0.5,4.1c-0.9,4.3-1.4,5.9-1.6,6.5c-0.4,0.9-0.1,14.8,0.3,30.3
			c0.1,4.3,0.2,7.7,0.2,8.7c0,0.3,0,0.6,0,0.9c0,3.2,0,6.8,2.6,8.3c2.6,1.5,3,1.6,5.1,2l0.4,0.1c1.3,0.3,2.1,0.4,2.8,0.4
			c0.7,0.1,1.3,0.1,2.1,0.4c1.7,0.6,3.5,1.1,4.9,1.1c0.3,0,0.5,0,0.7-0.1c0.8-0.1,1.7-0.4,2.2-0.6c-0.3,1.1-1.1,3.6-2.7,4
			c-1.2,0.3-2.4,0.4-3.4,0.4c-0.6,0-1.1,0-1.6-0.1c-0.4-0.1-0.9-0.3-1.5-0.6c-0.9-0.4-1.9-0.8-2.5-0.8c-0.1,0-0.2,0-0.3,0.1
			c-0.7,0.2-1.5,1-1.5,2.4c0,0.6,0.1,1.4,0.2,2.2c0.1,1,0.2,2.1,0.1,2.5l0,0.3c-0.1,0.9-0.4,3-1.1,4.2c-0.2-0.8,0.3-2.2,0-2.7
			c-0.2-0.4-0.3-0.7-0.6-1.1c-0.2-0.4-0.5-0.8-0.7-1.4c-0.5-1-0.6-1.4-0.5-2.1c0.1-0.8-0.1-2.8-0.5-3.4c-0.4-0.6-0.9-0.9-1.5-0.9
			c0,0-0.1,0-0.1,0c-0.6,0.1-2.5,1.2-2.6,2.1c-0.1,0.8,0.2,1.9,0.7,2.6c0.1,0.1,0.1,0.2,0.2,0.3c0.4,0.5,1,1.2,1.1,2.1
			c0.1,1.2,0,5.5-0.3,7c-0.2,0.7-0.4,3.4-1.1,3.2c0-1.3,0.1-3.8-0.2-4.9c-0.5-1.6-1.7-4.1-2.3-5c-0.8-1-1.6-2.2-1.4-3.2
			c0.3-1.2,0.4-2.3,0.4-2.8c0-0.7-0.5-2.8-2-2.8c-1.5-0.1-1.6,1.7-1.7,2.5l0,0.1c0,0.2,0,0.8,0.1,1.8c0.1,1.2,0.1,2.9,0,3.3
			c-0.2,0.6-0.8,2-1.4,2.8c-0.6,0.7-1.5,2-1.7,3.1c-0.1,0.4-0.1,1.1-0.1,1.9c-0.1,1.4-0.2,3-0.4,3.7l-0.1,0.4
			c-0.2,0.5-0.6,2.5-0.9,3.2c-0.5-0.2,0.3-3.1,0.1-3.7c-0.3-1-0.8-1.9-1-2.5l-0.1-0.3c-0.2-0.4-0.5-3.2-0.4-4.2c0-0.9,0.4-3,0.8-3.9
			c0.5-1,1-2.9,1-3.8c0-0.2-0.1-0.6-0.1-0.9c-0.2-1-0.4-2.3-0.3-3c0-0.1-0.1-0.3-0.2-0.3c-0.1-0.1-0.3,0-0.4,0.1
			c-0.3,0.5-0.9,1.4-1.1,1.5c-0.1,0.1-0.3,0.2-0.6,0.4c-1.3,0.9-4.4,3.1-5.2,3.6c-0.9,0.4-1.5,0.9-1.7,1l0,0
			c-0.5,0.2-4.7,2.3-5.1,2.6c-0.1,0.1-0.3,0.1-0.5,0.3c-0.5,0.2-1.2,0.6-1.6,0.8c-0.5,0.2-1.8,0.9-1.9,0.9c-1.3,0.6-3.9,1.2-3.9,1.2
			v0c0,0-0.1,0-0.1,0c-0.1,0.1-2.2,1.2-2.8,2.3c-0.2,0.3-0.5,1-0.8,1.5c-0.4-0.5,0.8-2.4,1.2-3.1c0.6-0.9,2.5-2.5,3.5-3
			c1-0.5,1.9-0.9,3.4-1.5l0.3-0.1c1.3-0.6,2.5-1.7,3.3-2.4c0.2-0.2,0.4-0.4,0.6-0.5c0.2-0.1,0.3-0.2,0.5-0.3
			c0.7-0.4,1.7-0.9,2.7-2.9c0,0,0,0,0,0c0,0,0,0,0,0v0c0,0,0,0,0,0c0-0.1,0-0.3-0.2-0.3h0c0,0,0,0,0,0l0,0c0,0,0,0,0,0
			c0,0-0.1,0-0.1,0h0c-0.1,0,0.1,0.1,0,0.2c-0.1,0.2-1.2,1.8-2.9,2.2c-1.1,0.3-1.9,0.6-2.5,0.8c-0.5,0.2-1,0.3-1.5,0.5
			c-0.3,0.1-0.7,0.2-1.1,0.3c-1.1,0.3-2.4,0.6-2.9,0.8c-0.4,0.2-1.7,0.8-3.5,2.2c1.1-2,3.4-5.6,6.5-6.5c4.7-1.3,6.3-1.8,7.4-2.6
			c1.1-0.8,3.6-2.4,5.1-3.1c0.2-0.1,0.5-0.2,0.7-0.3c1.6-0.8,3.8-1.8,4.6-3.4c0.9-2,1.1-7.6,1.1-9.5c0-2.5,0.5-26.6,0.8-29.7
			c0.1-0.9,0.2-1.7,0.3-2.3c0.3-2,0.4-3.2,0-4.1c-0.5-1-1.9-5.9-1-10c0.8-4.2,0.8-5.1,0.1-6.5c0,0,0,0,0,0c0,0-1.7-2.2-2.5-3.6
			c-0.8-1.4-1.9-4.1-2-5.6c-0.1-1.6,0.4-3.5,0.9-4.7c0.4-1,1.1-2,1.4-2.4c0.5,0.1,1.2,0.3,1.8,0.5c0.2,0.1,0.3,0.1,0.5,0.2
			c-0.3,0.5-1,1.6-1.3,2.6c-0.3,1-1.3,4.2,0.4,6.1c0.1,0.2,0.3,0.2,0.4,0.2c0.4,0,0.5-0.5,0.8-1.5c0.1-0.3,0.2-0.7,0.3-1
			c0.4-1.1,1.5-3.1,2.2-4c0.7-1,2.7-2.5,4.8-3.6c1.7-0.9,4.4-2,7.2-2.1c1,0,1.9,0,2.6,0c0.4,0,0.8,0,1.1,0c0.4,0,0.6,0,0.8-0.1
			c0.5-0.1,0.8-0.8,0.9-1.2c0,0,0.3,0.1,0.3,0.1c-0.1,0.4-0.1,0.9,0.3,1.2c0.5,0.4,1.3,0.5,2.2,0.7c0.2,0,0.5,0.1,0.7,0.1
			c0.6,0.2,1.5,0.6,2.5,1c-0.4-0.3-0.4-0.3-0.7-0.7c-0.5-0.2-1.4-0.6-1.7-0.7c-0.2,0-0.7-0.3-1-0.4c-0.8-0.2-1.3-0.3-1.7-0.5
			c-0.1-0.1-0.1-0.4,0-0.7c0.4,0,0.6-0.2,0.9-0.4c0.6-0.7,0.5-1.8,0.5-1.8c0-0.3-0.1-0.6-0.3-0.8c-0.2-0.2-0.5-0.5-1.1-0.5
			c-0.9-0.1-1.7,0.4-1.9,1.1c0,0.2,0,0.3,0,0.4c-0.1,0.6-0.2,1.1,0.1,1.5c0.1,0.2,0.3,0.3,0.5,0.4c0,0,0,0.1-0.1,0.1
			c-0.2,0.3-0.5,0.6-0.7,0.6c-0.2,0-0.5,0-0.7,0c-0.3,0-0.7,0-1.1,0c-0.7,0-1.7,0-2.6,0c-1,0-2,0.2-3,0.4c-0.6-0.6-1.5-1.2-2.4-1.8
			c0.2-0.1,0.4-0.2,0.6-0.3c1.7-0.7,3.2-1.8,5.6-3.5l1.1-0.8c2.6-1.8,3.9-4.3,4.8-5.9c0.2-0.3,0.3-0.5,0.4-0.8
			c0.7-1.3,1.2-3,1.5-4.3c0.1-0.5,0.3-0.9,0.4-1.3c0.2-0.7,0.5-1.5,0.7-2.2c0.3-1,0.6-1.9,0.7-2.1c0.1-0.1,0.3-0.3,0.7-0.3
			c0-0.2,0-0.4,0.1-0.6c0,0,0,0,0,0c-0.4,0-1.1,0.1-1.3,0.6c-0.2,0.3-0.4,1.2-0.7,2.2c-0.2,0.7-0.5,1.5-0.7,2.1
			c-0.1,0.4-0.3,0.8-0.4,1.3c-0.4,1.3-0.9,2.9-1.5,4.2c-0.1,0.2-0.3,0.5-0.4,0.8c-0.8,1.6-2.1,3.9-4.6,5.7l-1.1,0.8
			c-2.3,1.6-3.8,2.7-5.5,3.4c-1.4,0.6-5.1,2.4-6.8,3.5c-0.8-0.3-1.5-0.6-2.1-0.8c-0.1,0-0.3-0.1-0.4-0.1c0.6-0.5,1.5-1.1,2.2-1.4
			c0.3-0.1,0.7-0.3,1.1-0.5c1.4-0.7,3.1-1.5,4.6-2.1c2.1-0.8,4.5-2.4,5.5-3.3c0.9-0.8,1.2-2.3,0.9-3.4c0,0,0.1,0,0.1,0
			c0,0.5,0.2,0.9,0.4,1.2c0.1,0.2,0.3,0.2,0.5,0.2c0.1,0,0.2,0,0.2,0c1.1-0.2,2.5-2.4,3.2-4.4c0.4-1.1,0.8-2,1.2-2.9
			c0.4-0.8,0.8-1.7,1.2-2.7c0.3-0.8,0.5-1.8,0.7-2.6c0.1-0.5,0.2-0.9,0.3-1.1c0.1-0.2,0.2-0.6,0.4-1.1c0.8-2.2,1.7-4.7,1.8-5.4
			c0-0.3,0.1-0.5,0.1-0.7c0.2-0.8,0.3-1.5-0.2-2.3c-0.3-0.4-0.6-0.8-1-1.1c0,0,0.1-0.1,0.1-0.1c0.3,0.4,0.7,0.8,1.2,1.1
			c0.1,0.1,0.2,0.1,0.3,0.2c0.3,0.2,0.5,0.3,0.7,0.3c0.3,0,0.6-0.2,1-0.6c-0.2-0.1-0.3-0.2-0.5-0.4c-0.2,0.3-0.4,0.4-0.5,0.4
			c-0.1,0-0.2-0.1-0.4-0.2c-0.1-0.1-0.2-0.1-0.3-0.2c-0.4-0.2-0.8-0.7-1.1-1.1c0.2-0.3,0.2-0.7,0.1-1c-0.3-0.9-1.5-1.3-1.5-1.3
			c0,0-0.1,0-0.1,0c-0.2-0.1-0.3-0.1-0.5-0.1c-0.5,0-1,0.2-1.3,0.7c-0.5,0.7-0.4,1.7,0.2,2.2c0.1,0.1,0.3,0.2,0.5,0.2
			c0.5,0.3,0.9,0.5,1.2,0.5c0.1,0,0.3,0,0.4-0.1c0.3,0.3,0.7,0.7,0.9,1.1c0.3,0.5,0.2,1.1,0.1,1.8c0,0.2-0.1,0.5-0.1,0.8
			c0,0.3-0.2,0.9-0.5,1.6c0.2,0.9-0.2,1.5-0.4,2.4c-0.2,0.9-0.8,1.6-1.2,2.4c0,0.1-0.1,0.1-0.1,0.1c-0.1,0.3-0.2,0.6-0.3,1
			c-0.2,0.8-0.4,1.7-0.7,2.5c-0.4,1-0.8,1.8-1.1,2.7c-0.4,0.9-0.8,1.8-1.2,2.9c-0.8,2.1-2.1,3.9-2.8,4.1c-0.1,0-0.1,0-0.2,0
			c-0.2-0.2-0.2-0.6-0.3-1c0.3-0.1,0.5-0.3,0.6-0.6c0.4-0.8-0.1-1.9-0.1-2c0,0,0,0,0,0c-0.2-0.4-0.6-0.9-1.3-0.9c-0.1,0-0.3,0-0.4,0
			c-0.9,0.2-1.5,1-1.4,1.7c0,0.1,0,0.2,0.1,0.3c0.1,0.9,0.3,1.6,1.2,1.6c0.3,0.9,0,2.3-0.7,3c-0.9,0.9-3.4,2.5-5.3,3.2
			c-0.7,0.3-1.5,0.6-2.2,1c-1.1-0.5-2.2-1.1-3.2-1.5c-0.9-0.4-1.7-0.8-2.3-1.1c-2.9-1.5-3.1-2.2-3.3-2.7c0-0.1,0-0.2-0.1-0.2
			c-0.1-0.3,0-1.2,0.1-1.8c0.3,0,0.6-0.2,0.8-0.4c0.6-0.6,0.5-1.7,0.5-1.8c0-0.3-0.1-0.6-0.3-0.8c-0.3-0.3-0.6-0.5-1.1-0.5
			c-0.8-0.1-1.7,0.4-1.9,1.2c0,0.1,0,0.3,0,0.4c-0.1,0.6-0.2,1.1,0.1,1.5c0.1,0.1,0.1,0.1,0.2,0.2c0,0.6-0.1,1.3-0.2,1.5
			c-0.2-0.1-0.8-0.7-2-3.3c-1-2.1-3.1-7.7-3.5-9.1c-0.1-0.4-0.3-1-0.5-1.5c-0.1,0-0.2,0-0.3-0.1c-0.2-0.3-0.4-0.7-0.6-1
			c-0.7-1.2-1.5-2.3-1.4-3.7c0-0.1,0-0.1,0.1-0.2c-0.5-1.3-0.8-1.9-0.8-2.8c0-0.7,0.4-0.9,0.7-1.3c0.1-0.1,0.2-0.3,0.3-0.4
			c0.2-0.2,0.5-0.4,0.8-0.5c0.1,0,0.1,0.1,0.2,0.1c0.2,0.1,0.4,0.1,0.7,0.1c1.1,0,1.6-1.2,1.7-1.6l0,0c0,0,0,0,0,0c0,0,0,0,0,0
			c0.1-0.3,0.1-0.7,0-1c-0.1-0.4-0.4-0.6-0.8-0.8c-0.8-0.4-1.8-0.1-2.2,0.5c-0.1,0.1-0.1,0.2-0.1,0.3c-0.2,0.4-0.4,0.8-0.4,1.2
			c-0.2,0.3-0.4,0.6-0.6,0.8c-0.5,0.6-1,1.4-1.4,1.6c-0.2,0.1-0.5-0.4-0.7-0.7c-0.1,0.2-0.2,0.1-0.3,0.3c0.2,0.3,0.5,0.7,1,0.7
			c0.1,0,0.2,0,0.3,0c0.3-0.1,0.6-0.3,0.9-0.6c-0.2,0.3-0.4,0.7-0.4,1.3c0,1.1,0.3,1.9,1,3.6c0.2,0.6,0.6,1.3,0.9,2.1
			c0.6,1.4,1.3,2.9,1.5,3.8c0.4,1.4,2.6,7.1,3.6,9.2c1.6,3.4,2.3,3.6,2.5,3.7c0,0,0.1,0,0.1,0c0.6,0,0.5-0.9,0.5-1.2
			c0-0.3,0.1-0.5,0.1-0.7l0.2,0c0.1,0,0.3,0,0.4,0.1c-0.1,0.6-0.3,1.5-0.1,2c0,0.1,0,0.1,0.1,0.2c0.2,0.7,0.5,1.5,3.6,3.1
			c0.7,0.3,1.5,0.7,2.3,1.1c0.9,0.4,1.8,0.8,2.8,1.3c-0.6,0.3-1.2,0.6-1.7,0.8c-0.2,0.1-0.8,0.4-1,0.5c-0.6-0.3-1.1-0.5-2.2-0.9
			c-1.7-0.7-3.7-2.3-5.6-4.1c-1.3-1.3-2.7-2.3-3.8-5c-1.1-2.6-2.6-7.3-3-8.6c-0.1-0.4-0.5-1-0.5-1.3c-0.2-1-0.1-1.8-0.9-2l-0.5-0.8
			c0.1,0,0.2-0.1,0.2-0.2c0.2-0.2,0.2-0.5,0.1-1c-0.1-0.3-0.1-0.6-0.2-0.9c-0.1-0.8-0.4-1.4-0.9-2c-0.5-0.7-1.5-1.1-2.3-1.2
			c0-0.1,0-0.4,0-0.5c0,0,0.1,0,0.1,0c0.6,0,1-0.1,1.2-0.2c0.1-0.1,0.2-0.2,0.2-0.3c0.1-0.4-0.8-1.1-1.3-1.7c-0.2,0.1-0.1,0-0.3,0.1
			c0.5,0.6,0.9,1.3,1,1.5c-0.1,0-0.3,0.1-0.8,0.1c-0.2,0-0.3,0-0.4,0c-0.5-0.6-1.5-0.6-1.9-0.6H168c0,0-0.1,0-0.1,0
			c-0.6,0-1.2,0.4-1.4,1.2c-0.2,1,0.5,1.8,1.1,1.9c0.1,0,0.2,0,0.2,0c0,0,0.1,0,0.1,0c0.4,0.1,0.7,0.1,0.9,0.1
			c0.8,0,1.1-0.5,1.2-1.2c0.6,0,1.6,0.6,2.1,1.1c0.4,0.5,0.5,1.1,0.7,1.8c0.1,0.3,0.1,0.6,0.2,0.9c0.1,0.3,0,0.4,0,0.4
			c0,0-0.2,0-0.2,0c-0.1,0-0.3,0-0.3,0.1c0,0,0,0,0,0.1c0.5,0.3,0.8,1.1,0.9,1.7c0,0,0.1,0.1,0.2,0.1c0.5,0.1,0.7,0.7,0.8,1.7
			c0.1,0.4,0.1,0.8,0.3,1.2c0.4,1.3,1.9,5.5,3,8.2c1.2,2.8,2.6,4.4,4,5.7c1.9,1.8,4.1,3.3,5.9,4c0.8,0.3,1.4,0.5,1.9,0.8
			c-0.9,0.5-1.8,1.2-2.4,1.6c-0.8-0.2-1.4-0.2-2.2-0.3l-0.5,0c-0.6-0.1-1.5,0-2.3,0c-0.9,0.1-1.9,0.1-2.5,0
			c-0.3-0.1-0.5-0.2-0.7-0.4c-0.1-0.1-0.1-0.3-0.1-0.4c0.1-0.1,0.3-0.2,0.4-0.3c0.6-0.6,0.5-1.7,0.5-1.8c0-0.3-0.1-0.6-0.3-0.8
			c-0.2-0.3-0.6-0.5-1.1-0.5c-0.9-0.1-1.7,0.4-1.9,1.1c0,0.1,0,0.2,0,0.4c-0.1,0.7-0.1,1.2,0.1,1.5c0.2,0.3,0.5,0.4,1,0.5
			c0,0.2,0,0.3-0.1,0.5c-0.1,0.4-0.4,0.6-0.6,0.7c-0.2,0.1-0.6,0.1-0.9,0.2c-0.4,0.1-0.9,0.2-1.1,0.2c-0.2,0-0.5,0.2-0.9,0.4
			c-0.2,0.1-0.5,0.2-0.7,0.3c0.1,0.1,0.1,0.2,0,0.3c-0.2,0.2-0.4,0.3-0.6,0.3c-0.1,0.1-0.1,0.1-0.2,0.2c0,0,0.1,0,0.1,0
			c0.5-0.1,1.1-0.4,1.6-0.6c0.3-0.1,0.6-0.3,0.7-0.3c0,0,0,0,0.1,0c0.2-0.1,0.6-0.1,1.1-0.2c0.4-0.1,0.7-0.1,1-0.2
			c0.4-0.1,0.6-0.6,0.8-1.1c0.1-0.2,0-0.4,0-0.6c0,0,0.6,0,0.6,0c0,0.2,0,0.4,0.1,0.6c0.2,0.4,0.5,0.6,1,0.7c0.7,0.1,1.7,0.1,2.7,0
			c0.8-0.1,1.6-0.1,2.2,0l0.5,0c1.2,0.1,1.8,0.1,3.3,0.6c1.3,0.4,3.3,1.3,4.6,2.2c-0.8,0.5-1.4,1.3-1.9,1.8
			c-0.6-0.4-1.6-1.3-2.7-1.8c-0.2-0.1-0.4-0.2-0.6-0.3c0,0,0,0,0,0c0,0-0.1,0-0.1,0c-0.4-0.2-0.9-0.3-1.3-0.4
			c-1.6-0.3-2.9-0.2-4-0.2c-1.1,0-2.1,0-3,0.1c-2,0.3-3.1,0.5-4.3,0.8c-1.7,0.4-2.9,0.9-3.2,1.5c-0.1,0.2-0.3,0.3-0.4,0.5
			c-0.2,0.5-0.4,0.9-0.3,1.5l-0.3,0.2c-0.2-0.3-0.5-0.7-1-0.7c-0.7,0-1.3,0.2-1.9,0.6c-0.5,0.3-1.2,0.7-1.9,1.5
			c-0.2,0.2-0.4,0.3-0.6,0.5c-0.4,0.3-0.9,0.6-0.9,1.2c0,0.5,0.3,1.1,0.6,1.6c0,0-0.1,0-0.1,0c0,0,0,0-0.1,0c-0.1-0.5-0.4-1.2-1-1.2
			c-0.8,0-1,0.3-1.2,0.9l-0.1,0.2c0,0.1-0.1,0.2-0.2,0.4c-0.4,0.8-1.1,2.2-1.1,4l-0.9,0.3c0-0.6-0.1-1.6,0.2-2.5
			c0.3-1.1,1.3-2.9,1.8-3.6c0.4-0.4,0.5-0.9,0.4-1.3c-0.1-0.2-0.3-0.4-0.6-0.5c0-0.1,0-0.2-0.1-0.4c0.3,0,0.6,0.1,1,0
			c1.2-0.1,1.5-0.6,2.3-1.2c0.8-0.6,1.7-1.2,2.6-1.7c0.4-0.3,0.7-0.4,1-0.6c0.3-0.1,0.6-0.3,1-0.6c0.2-0.1,0.4-0.2,0.6-0.3
			c0.3-0.2,0.7-0.4,0.8-0.7c0-0.1,0.3,0.3,0.3,0.2c-0.1,0.1-0.5,0.1-0.6,0.2c-0.1,0.1-0.2,0.4-0.2,0.1c0,0-0.1,0-0.2,0.1
			c-0.3,0.3-0.8,0.2-1.2,0.3c-0.1,0-0.2,0-0.2,0c-0.2,0.1-0.4,0.2-0.6,0.3c-0.3,0.2-0.7,0.3-1.1,0.6c-0.9,0.6-1.7,1.4-2.5,2
			c-0.7,0.6-1.1,0.7-2.2,0.8c-0.5,0-0.9,0-1.3-0.1c-0.3-0.4-0.7-0.6-1.2-0.6c-0.6,0-1.3,0.3-1.3,0.3c0,0,0,0,0,0
			c-0.6,0.2-1,0.9-0.8,1.7c0.2,0.8,0.9,1.3,1.6,1.3c0,0,0.1,0,0.1,0c0.1,0,0.3-0.1,0.4-0.1c0.7-0.1,1.2-0.3,1.5-0.7
			c0.1-0.1,0.1-0.2,0.1-0.3c0,0,0,0,0,0.1c0.1,0.1,0,0.4-0.3,0.6c-0.6,0.7-1.7,2.6-2,3.8c-0.4,1.4,0.1,2.8,0.1,2.9
			c0,0-0.1-0.1,0-0.1c0.7-0.3,0.9-0.1,1.5-0.4c-0.1-1.7,0.9-3,1.3-3.8c0.1-0.2,0.1-0.3,0.2-0.4l0.1-0.2c0.2-0.5,0.2-0.5,0.6-0.5
			c0.2,0,0.4,0.4,0.5,0.9c-0.1,0.1-0.3,0.3-0.3,0.5c-0.4,0.8,0.2,1.9,0.2,1.9c0,0,0,0,0,0c0.2,0.5,0.7,0.5,1.3,0.5
			c0.1,0,0.2,0,0.4,0c0.9-0.3,1.5-0.8,1.4-1.5c0-0.1-0.1-0.2-0.1-0.3c-0.2-0.8-0.4-1.5-1.3-1.5c0,0-0.1,0-0.1,0
			c-0.3-0.4-0.6-1.1-0.6-1.5c0-0.3,0.2-0.4,0.6-0.7c0.2-0.1,0.4-0.3,0.6-0.5c0.7-0.7,1.2-1.1,1.8-1.4c0.5-0.3,1.1-0.5,1.6-0.5
			c0.4,0,0.5,0.6,0.5,0.6c0,0.1,0,0.1,0.1,0.2c0.4-0.4,0.9-0.5,1.3-0.7c0,0,0-0.1,0-0.1c-0.1-0.5,0.1-0.9,0.3-1.3
			c0.1-0.2,0.1-0.3,0.2-0.5c0.3-0.7,1.9-1.1,2.4-1.2c1.1-0.3,2.3-0.6,4.3-0.8c0.9-0.1,1.9-0.2,3-0.2c0.8,0,1.8,0,2.9,0.2
			c-0.3,0.5-0.9,1.4-1.3,2.3c-0.5,1.3-0.8,3.2-0.8,4.9c0.1,1.6,1.1,4.5,2,6c0.8,1.4,2.4,3.4,2.6,3.6c0.6,1.1,0.5,1.8-0.2,6.1
			c-0.8,4.2,0.7,9.3,1.4,10.4c0.3,0.7-0.1,1.9-0.3,3.7c-0.1,0.7-0.2,1.5-0.3,2.4c-0.2,3.2-0.8,27.3-0.8,29.8c0,2.7-0.3,7.6-1.1,9.3
			c-0.6,1.4-2.7,2.4-4.3,3.1c-0.3,0.1-0.5,0.2-0.7,0.4c-1.6,0.8-3.8,2.3-4.9,3.2c-1,0.7-2.7,1.4-7.3,2.6c-4.6,1.4-7.7,7.7-7.8,8
			c-0.1,0.1,0.3,0,0.4-0.1c2.3-2,4-2.4,4.5-2.6c0.5-0.2,1.8-0.6,2.8-0.8c0.4-0.1,0.9-0.2,1.2-0.3c0.5-0.1,1-0.3,1.5-0.5
			c0.6-0.2,1.2-0.4,2.1-0.7c0,0-0.1,0-0.1,0.1c-0.2,0.1-0.4,0.3-0.6,0.5c-0.8,0.7-2,1.7-3.2,2.3l-0.3,0.1c-1.5,0.6-2.4,1-3.4,1.6
			c-1.1,0.6-3,2.3-3.7,3.2c-1,1.5-1.6,4.8-1.6,5c0,0.1,1.7-1.8,2.2-2.8c0.3-0.6,1.3-1.3,2.1-1.8c0,0.3-0.1,0.6-0.1,0.9
			c-0.1,0.9-0.1,4.2,0.3,6c0.4,1.7,1.6,3.9,1.6,4c0.1,0.1,0.6,0.5,0.6,0.3c0-0.1-0.1-2.4-0.2-3.2c-0.1-0.7,0.6-3.2,1-4
			c0.5-0.8,1.4-3.2,1.5-3.7c0.1-0.5,0.1-1.4,0-1.9c1-0.4,2.3-1.1,3.1-1.5c0,0,0.1-0.1,0.1-0.1c0,0.7-0.1,2.1,0,2.8
			c0.1,1,0.5,2.5,0.8,3.5c0.4,1.3,1.3,2.4,1.7,2.9c0.3,0.3,1,1.3,1.3,2.2c0,0.1,0.2,0.1,0.2,0c0.1-0.7-0.2-4.6-0.2-4.7
			c-0.2-1.2,0.4-3.9,0.8-5.6c0.1-0.6,0.2-1.1,0.3-1.4c0-0.7,0.7-2,0.9-2.6c0.1-0.1,0.7-0.6,1.6-1c0.9-0.5,4-2.7,5.3-3.6
			c0.3-0.2,0.5-0.3,0.5-0.4c0.2-0.1,0.5-0.5,0.7-0.8c0,0.7,0.2,1.5,0.3,2.2c0.1,0.4,0.1,0.7,0.1,0.9c0,0.8-0.4,2.6-0.9,3.5
			c-0.5,1-0.8,3.1-0.9,4.1c-0.1,0.9,0.2,3.9,0.5,4.5l0.1,0.3c0.3,0.6,0.7,1.5,1,2.4c0.2,0.8-0.1,3.1-0.3,3.9c0,0.1,0,0.2,0.1,0.3
			c0.1,0.1,0.2,0.1,0.3,0c0.5-0.3,1-1.6,1.7-3.8l0.1-0.4c0.2-0.7,0.3-2.3,0.4-3.8c0-0.8,0.1-1.5,0.1-1.9c0.1-1,0.8-2.4,1.3-3
			c0.3-0.4,1.4-2,1.7-2.8c0.1-0.5,0.1-1.8,0-3.5c0-0.8-0.1-1.5-0.1-1.7l0-0.1c0.1-1,0.3-1.6,1-1.6c1,0.1,1.4,1.5,1.4,1.9
			c0,0.5-0.1,1.6-0.4,2.7c-0.3,1.3,0.6,2.7,1.5,3.7c0.6,0.8,1.7,3.2,2.2,4.8c0.5,1.6,0.2,5.3,0.2,5.3c0,0.1,0.1,0.3,0.2,0.3
			c0.1,0,0.3,0,0.4-0.1c0.1-0.1,1.3-2.3,1.7-3.8c0.4-1.6,0.5-6,0.4-7.2c-0.1-1.1-0.8-1.9-1.3-2.4c-0.1-0.1-0.2-0.2-0.2-0.3
			c-0.4-0.6-0.8-2-0.7-2.6c0.1-0.5,1.1-1.1,1.6-1.2l0.6,0.1c0.4,0,0.8,0.2,1,0.6c0.2,0.4,0.5,2.2,0.4,3c-0.2,0.9,0,1.4,0.5,2.4
			c0.2,0.6,0.5,1,0.7,1.4c0.2,0.4,0.4,0.7,0.5,1c0.2,0.5,0,2.2-0.3,3.2c0,0.1-0.1,0.2,0,0.2c0.1,0.1,0.2-0.1,0.3-0.2
			c1.4-0.8,2-3.5,2.2-4.9l0-0.3c0.1-0.5,0-1.6-0.1-2.7c-0.1-0.8-0.1-1.6-0.1-2.2c0-1,0.6-1.6,1.2-1.8c0,0,0,0,0.1,0
			c0.4,0,1.4,0.4,2.2,0.8c0.6,0.2,1.1,0.5,1.6,0.6c0.5,0.1,1.1,0.1,1.7,0.1c1.1,0,2.1-0.4,3.3-0.7c2.3-0.6,3.5-4.5,3.5-4.7
			C219.7,215,219.7,214.9,219.6,214.8 M195.1,139.8c0.3,0.7,0.3,2.2-0.3,3.1c-0.4,0.5-0.9,0.8-1.6,0.8c-0.6,0-1.1-0.2-1.5-0.6
			c-0.7-0.8-0.9-2.1-0.8-3.1c0.1-1,1-3.1,2.1-4.6C193.5,136.2,194.6,138.5,195.1,139.8 M200.1,137.3c0,1.6-0.5,2.9-0.7,3.1
			c0,0-0.1,0-0.1-0.1c0-0.4-0.1-2.2-0.8-3.6c-0.5-1.2-2.1-2.7-2.7-3.4c0.6-0.4,1.5-0.9,2.1-1.2C198.8,133.2,200.1,135.8,200.1,137.3
			 M207.1,125.7c0.1-0.5,0.6-1.1,1.2-1.1c0,0,0.1,0,0.1,0c0.3,0,0.5,0.2,0.7,0.5c0.1,0.2,0.2,0.5,0.2,0.7c0,0,0,0,0,0.1
			c0,0.3-0.2,0.6-0.7,0.6c-0.2,0-0.3,0-0.5,0l-0.1,0c-0.1,0-0.1,0-0.2,0c0,0,0,0,0,0c-0.1,0-0.1,0-0.2-0.1c0,0,0,0-0.1,0
			c0,0-0.1-0.1-0.1-0.1c-0.1-0.1-0.2-0.2-0.2-0.3C207.2,125.8,207.2,125.8,207.1,125.7C207.1,125.7,207.1,125.7,207.1,125.7
			 M207.2,126.8c-0.1-0.1-0.1-0.3-0.1-0.5c0.2,0.1,0.3,0.1,0.5,0.2c0,0,0,0,0,0c0.1,0,0.2,0,0.3,0c0,0,0,0,0,0h0l0.1,0
			c0,0,0.1,0,0.1,0c0.1,0,0.3,0,0.5,0c0.2,0,0.4,0,0.6-0.1c0,0.2-0.1,0.3-0.2,0.4c-0.2,0.2-0.4,0.2-0.6,0.2c0,0-0.1,0-0.1,0
			C207.7,127.1,207.4,127,207.2,126.8 M209.2,94.3c0,0-0.1-0.1-0.1-0.1c-0.3-0.3-0.4-0.9-0.1-1.4c0.3-0.4,0.6-0.4,0.8-0.4
			c0.1,0,0.5-0.1,0.6,0c0,0,0.4,0.5,0.2,1C210.2,94.7,209.3,94.3,209.2,94.3 M210.4,94.8c-0.1,0-0.3-0.1-0.5-0.2c0,0,0,0,0,0
			c0.2-0.2,0.4-0.4,0.6-0.5c0-0.1,0.1-0.1,0.1-0.2c0-0.1,0.1-0.1,0.1-0.2c0,0,0,0,0-0.1c0-0.1,0.1-0.1,0.1-0.2c0,0,0,0,0,0
			c0-0.1,0.1-0.1,0.1-0.2c0,0,0,0,0-0.1c0-0.1,0-0.1,0-0.2c0,0,0,0,0,0c0.1,0.1,0.3,0.3,0.3,0.4c0.1,0.2,0,0.4-0.1,0.6
			C210.8,94.7,210.6,94.8,210.4,94.8 M201.8,114.9c0.1,0,0.2,0,0.3,0c0.5,0,0.8,0.3,0.9,0.6c0,0,0,0.1,0,0.1c0,0,0,0,0,0
			c0,0,0,0,0,0.1c0,0,0,0.1,0,0.1c0,0,0,0.1,0,0.1c0,0,0,0,0,0.1c0,0,0,0.1,0,0.1c0,0,0,0,0,0.1c0,0,0,0-0.1,0.1c0,0,0,0-0.1,0
			c0,0-0.1,0-0.1,0.1c0,0,0,0-0.1,0c0,0-0.1,0-0.1,0c0,0,0,0-0.1,0c0,0-0.1,0-0.1,0c0,0-0.1,0-0.1,0c-0.1,0-0.2,0-0.3,0.1l-0.1,0
			c-0.1,0-0.3,0-0.5,0c-0.3,0-0.7-0.1-0.7-0.3C200.7,115.7,201.1,115,201.8,114.9 M201.6,117.3c-0.3,0-0.7-0.3-0.9-0.9
			c0.3,0.1,0.8,0.3,1.1,0.3l0.1,0c0.1,0,0.1,0,0.2,0c0,0,0,0,0,0c0.1,0,0.1,0,0.2-0.1c0,0,0,0,0,0c0.1,0,0.1,0,0.2-0.1
			c0,0,0,0,0.1,0c0.1,0,0.1-0.1,0.2-0.1c0,0,0.2-0.4,0.2-0.4c0,0.2-0.2,0.7-0.3,0.9c-0.1,0.2-0.3,0.3-0.6,0.4
			C202,117.3,201.8,117.3,201.6,117.3 M175.4,92.4c0.1-0.2,0.5-0.4,0.9-0.4c0.2,0,0.4,0,0.6,0.1c0.3,0.1,0.4,0.3,0.5,0.5
			c0.1,0.2,0.2,0.5,0.2,0.6c0,0-0.1,0.7-1.3,0.2c0,0-0.3-0.1-0.3-0.1c-0.3-0.1-0.5-0.5-0.5-0.7C175.4,92.6,175.4,92.6,175.4,92.4
			C175.4,92.5,175.4,92.5,175.4,92.4C175.4,92.5,175.4,92.5,175.4,92.4 M175,92.9c0.1,0.1,0.3,0.5,0.4,0.5c0,0,0,0,0.1,0
			c0,0,0,0,0.1,0.1c0.1,0.1,0.2,0.1,0.3,0.2c0.1,0,0.1,0.1,0.2,0.1c0,0,0,0,0.1,0c0.1,0,0.1,0.1,0.2,0.1c0,0,0.1,0,0.1,0
			c0.1,0,0.1,0,0.2,0.1c0,0,0.1,0,0.1,0c0.1,0,0.4,0,0.5,0c-0.3,0.3-1,0.6-1.4,0.4c-0.5-0.2-0.7-0.4-0.8-0.6
			C174.9,93.7,174.8,93.2,175,92.9 M174.6,94.2c0,0,0.3,0.5,0.5,0.5c-0.1,0.1-1.2,0.5-1.3,0.6C173.9,95.2,174.5,94.3,174.6,94.2
			 M184.2,114.7c0,0,0.1,0,0.1,0c0.3,0,0.5,0.2,0.6,0.3c0.1,0.1,0.2,0.3,0.1,0.5c0,0.2-0.1,0.4-0.7,0.4c-0.1,0-0.3,0-0.4,0
			c0,0-0.1,0-0.1,0c-0.3-0.1-0.6-0.2-0.7-0.3c0,0-0.1-0.1-0.1-0.1c0,0,0,0,0,0c0,0,0,0,0,0C183.2,115.1,183.7,114.7,184.2,114.7
			 M184.3,117.1c0,0-0.1,0-0.1,0c-0.6,0-0.9-0.1-1-0.3c-0.1-0.1-0.2-0.7-0.2-1c0.2,0.3,0.6,0.6,0.9,0.6c0.2,0,0.4,0.1,0.7,0.1
			c0.2,0,0.4,0,0.5-0.1c0,0,0.2-0.3,0.2-0.3c0,0.2-0.3,0.6-0.4,0.7C184.7,117,184.5,117.1,184.3,117.1 M168.1,99.8
			C168.1,99.8,168,99.8,168.1,99.8c-0.1,0-0.1,0-0.1,0c-0.5-0.1-1-0.7-0.9-1.4c0.1-0.5,0.6-0.8,1-0.8c0,0,0,0,0.1,0
			c0.1,0,0.1,0,0.2,0c0,0,0.1,0,0.1,0c0,0,0.1,0,0.1,0c0,0,0.1,0,0.1,0c0,0,0,0,0.1,0c0,0,0,0,0.1,0.1c0,0,0,0,0,0c0,0,0,0,0,0.1
			c0,0,0,0,0,0c0,0,0,0.1,0,0.1c0,0,0,0,0,0.1c0,0,0,0.1,0,0.1c0,0,0,0,0,0.1c0,0.1,0,0.1,0,0.2c0,0,0,0,0,0.1c0,0.1,0,0.2,0,0.3
			l0,0C168.6,99.1,168.4,99.6,168.1,99.8 M169.6,98.8c-0.1,0.9-0.4,1-0.7,1c-0.1,0-0.2,0-0.3,0c0.1-0.2,0.2-0.4,0.3-0.7
			c0,0,0,0,0-0.1c0,0,0,0,0-0.1l0-0.1c0-0.1,0-0.1,0-0.2v0c0-0.1,0-0.2,0-0.3c0-0.2,0-0.4-0.1-0.6c0.2,0.1,0.4,0.2,0.5,0.3
			C169.6,98.3,169.7,98.5,169.6,98.8 M178.1,124.5c0,0,0.1,0,0.2,0c0.4,0,0.6,0.2,0.7,0.3c0.1,0.1,0.3,0.3,0.2,0.4
			c0,0.2-0.1,0.5-0.5,0.5c-0.1,0-0.2,0-0.3,0c-0.2,0-0.3,0-0.4,0l-0.3-0.1c-0.3,0-0.4-0.2-0.5-0.5c0,0,0-0.1,0-0.1
			C177.1,124.8,177.6,124.5,178.1,124.5 M178.1,126.9C178.1,126.9,178,126.9,178.1,126.9c-0.6-0.1-1-0.2-1.1-0.3
			c-0.1-0.1-0.2-0.3-0.2-0.6c0-0.2,0.1-0.3,0.1-0.3c0.1,0.1,0.2,0.1,0.3,0.2c0.2,0.1,1,0.2,1.5,0.1c0.1,0,0.5-0.1,0.5-0.1
			c-0.1,0.2-0.2,0.7-0.3,0.8C178.7,126.8,178.4,126.9,178.1,126.9 M196.1,127.2c0.9,0.5,1.8,1.1,2.4,1.6c-1.1,0.3-2,0.7-2.9,1.1
			c-0.5-0.4-1.2-1-1.9-1.5C194.5,128,195.3,127.6,196.1,127.2 M190.7,129.8c0.6-0.4,1.5-0.9,2.3-1.3c0.8,0.5,1.7,1.2,2.3,1.6
			c-0.1,0.1-0.5,0.2-0.6,0.3c-0.5,0.3-1,0.6-1.5,0.9C192.6,130.8,191.5,130.2,190.7,129.8 M188,132.3c0.8,0.4,1.8,1.1,2.3,1.5
			c-0.2,0.2-0.7,0.8-0.9,1c-0.7,1-1.6,2.4-2,3.5c-0.1,0.3-0.2,0.7-0.3,1.1c-0.1,0.3-0.2,0.6-0.2,0.9c-0.8-1.1-0.8-2.9-0.1-5.4
			C187.1,133.9,187.7,132.7,188,132.3 M160.2,137.5c0,0,0,0.1,0,0.1c0,0,0,0.1,0,0.1c0,0,0,0.1-0.1,0.1c0,0-0.1,0.1-0.1,0.1
			c-0.4,0-0.9-0.3-1-0.9c-0.2-0.5,0.1-0.8,0.4-1c0,0,0.1,0,0.1,0c0,0,0.1,0,0.1,0c0,0,0,0,0.1,0c0.1,0,0.1,0,0.2,0c0,0,0,0,0,0
			c0,0,0.1,0.1,0.1,0.1c0,0,0,0,0,0.1c0,0.1,0.1,0.1,0.1,0.2c0,0,0,0,0,0.1c0,0.1,0.1,0.2,0.1,0.3l0,0.1
			C160.2,137.1,160.2,137.2,160.2,137.5C160.2,137.4,160.2,137.4,160.2,137.5 M161.4,137.3c-0.1,0.1-0.4,0.4-0.6,0.5
			c0,0,0-0.3,0-0.3c0,0,0-0.1,0-0.1c0-0.1,0-0.1,0-0.2c0-0.1,0-0.2,0-0.3c0-0.1,0-0.1,0-0.2c0,0-0.3-0.8-0.3-0.8
			c0,0-0.2-0.2-0.3-0.3c0,0,0.4-0.1,0.4-0.1c0.5,0,0.7,0.4,0.8,0.8C161.4,136.8,161.5,137.1,161.4,137.3 M166.5,141.8
			c0,0.3-0.3,0.9-0.9,1.1c-0.6,0.1-1-0.2-1-0.5c-0.1-0.2,0-0.3,0-0.3c0.1-0.2,0.6-0.3,0.9-0.4l0.1,0c0,0,0,0,0.1,0c0,0,0.1,0,0.1,0
			c0.1,0,0.2,0,0.2,0C166.1,141.6,166.3,141.6,166.5,141.8C166.4,141.7,166.4,141.8,166.5,141.8 M165.6,140.4c0.3,0,0.7,0.3,0.8,0.8
			c-0.1,0-0.2,0-0.5,0c-0.7-0.1-1.1,0.1-1.4,0.4c-0.1,0-0.3,0.4-0.3,0.4c-0.2-0.4,0-0.8,0.1-1c0.1-0.2,0.3-0.3,0.6-0.4
			C165.1,140.5,165.4,140.4,165.6,140.4 M168.7,230.5c-0.1,0.5-1,2.8-1.4,3.6c-0.4,0.8-0.9,3.4-0.8,4.3c0,0.3,0.5,2.3,0,2.2
			c-0.4-0.9-1-2.6-1.1-3.4c-0.3-1.7-0.4-4.9-0.3-5.8c0.1-0.6,0.1-1,0.2-1.3c0.6-0.1,2.3-0.6,3.5-1
			C168.7,229.6,168.7,230.2,168.7,230.5 M176.6,226.9c0,0.2-0.1,0.7-0.3,1.3c-0.4,1.8-1,4.5-0.8,5.8c0.1,1,0.4,2.3,0.4,3.1
			c-0.2-0.4-0.5-0.6-0.7-0.8c-0.3-0.4-1.1-1.9-1.5-3c-0.4-1.2-0.7-2.6-0.8-3.4c-0.1-0.8,0-2.6,0.1-3.1c0.6-0.3,2.9-1.5,4.2-2.1
			C177,225.4,176.7,226.3,176.6,226.9"/>
		<path class="st3" d="M170.3,135.8c0,0-2.3,1.8-2,3.9c0.3-0.4,1-0.2,1-0.2s-1.2,2.6-0.8,3.8c0.5-0.6,1.2-0.7,1.2-0.7
			s0.8,3.5,1.2,4.3c0.5-0.8,0.9-1.1,0.9-1.1s0.5,1.7,1.3,2.9c0.4-0.9,0.6-1.5,0.6-1.5s0.6,2,1.8,2.6c0-0.9,0-1.9,0-1.9
			s1.4,1.6,2.9,2.5c1.6,0.8,1.4,1.7,1.4,1.7s1.1-1.8,1.2-2.4c0.2-0.6,0-1.8-0.2-2.6c-0.2-0.8-0.2-1.5-0.7-2.1
			c0.6,0.2,0.9,0.5,0.9,0.5s-0.2-3-0.9-3.6c0.4,0.1,0.8,0.2,0.8,0.2s-1.4-3.5-2.6-4.2c0.3-0.1,1.5,0,1.5,0s-2.7-2.7-4.1-2.3
			c0.5-0.5-1.3-1-2.2-1.1C172.2,134.2,170.3,135.8,170.3,135.8"/>
		<path d="M168.3,142.9c-0.1-1,0.1-2.1,0.4-2.8c0-0.2,0.1-0.4-0.2-0.3c-0.5,0.1-0.6-0.1-0.6-0.2c-0.2-2.2,2.1-3.9,2.2-4
			c0.2-0.2,2-1.7,3.3-1.6c0.4,0,2.4,0.4,2.6,1.1c1.5,0.1,3.4,2.1,3.6,2.4c0.1,0.1,0.5,0.5,0.4,0.6c-0.1,0.1-0.2-0.1-0.3-0.1
			c-0.3,0-0.5,0-0.8-0.1c1.1,1.2,2,3.5,2,4.2c0,0.2,0,0.2-0.1,0.3c-0.1,0.1-0.2-0.2-0.3-0.3c0.4,1,0.6,2.7,0.6,3.1v0
			c0,0.1-0.3,0.6-0.4,0.5c0.1,0.2,0,0.2,0.1,0.4c0,0.2,0.1,0.4,0.1,0.5c0.1,0.4,0,1,0.1,1.6c0,0.5-0.1,0.9-0.2,1.1
			c-0.1,0.6-0.9,2.3-1,2.5c-0.1,0.1-0.3-0.2-0.3-0.2c0-0.2-0.4-0.8-1.5-1.4c-1-0.6-1.7-1.2-2.2-1.8c0,0.3-0.4,0.6-0.4,0.9
			c0,0.1,0,0.2-0.1,0.3c-0.1,0.1,0,0-0.1,0c-0.8-0.4-1.3-1.4-1.7-2c-0.1,0.2-0.3,0.5-0.4,0.8c0,0.1,0,0.2-0.1,0.2
			c-0.1,0-0.1-0.2-0.1-0.2c-0.6-0.8-1.1-1.7-1.3-2.3c-0.1,0.2-0.4,0.2-0.6,0.5c-0.1,0.1-0.1,0.1-0.2,0c-0.4-0.7-1.3-2.9-1.5-3.9
			c-0.2,0.1-0.4,0.2-0.6,0.5c-0.1,0.1-0.2,0-0.2-0.1C168.4,143.2,168.3,143,168.3,142.9 M169.5,139.6c0,0-0.8,1.9-0.8,3.1
			c0.4-0.3,0.8-0.4,0.8-0.4c0.1,0,0.4,0.1,0.4,0.2c0.2,0.8,0.6,2.9,1,3.9c0.4-0.5,0.8-0.6,0.8-0.6c0.1-0.1,0.3-0.1,0.4,0
			c0,0,0.3,1.2,0.9,2.3c0.2-0.6,0.5-1,0.5-1c0-0.1,0-0.2,0.1-0.2c0.1,0,0.1,0.3,0.1,0.4c0,0,0.6,1.1,1.4,1.9c0-0.7,0.3-1.3,0.3-1.3
			c0-0.1,0.2-0.3,0.2-0.2c0,0,1.4,1.6,2.8,2.4c0.8,0.4,1.2,0.8,1.4,1.2c0.4-0.7,0.8-1.4,0.8-1.7c0.1-0.2,0.1-0.6,0-1
			c0-0.6-0.1-1.2-0.2-1.6c0-0.2,0-0.4,0-0.6c-0.1-0.5-0.3-1-0.5-1.5c-0.1-0.1-0.1-0.3-0.1-0.3s0.1,0,0.3,0c0.2,0.1,0.3,0.1,0.5,0.2
			c-0.1-1.1-0.3-2.7-0.6-3c-0.1-0.1-0.1-0.5-0.1-0.5s0.1,0.1,0.3,0.2c0.1,0,0.2,0,0.2,0.1c0-0.7-1.3-3.3-2.1-3.7
			c-0.1-0.1-0.4-0.2-0.4-0.3c0-0.1,0.2,0,0.3,0c0.2-0.1,0.5-0.1,0.8-0.1c-1-0.9-2.5-1.9-3.2-1.7c-0.1,0-0.3,0-0.3-0.1
			c-0.1-0.1,0-0.2,0-0.3c-0.2-0.2-1.2-0.6-2-0.7c-0.9-0.1-2.4,1-2.9,1.5c0,0-1.9,1.4-2,3.2C168.9,139.1,169.5,139.6,169.5,139.6"/>
		<path d="M172.7,136.9c0-0.2,0.6-1.2,1.3-1.7c-0.5,0.4-0.7,1.4-0.7,1.8L172.7,136.9z"/>
		<path d="M171.2,137.2L171.2,137.2c0,0,1-0.6,2-0.4c1.6,0.4,3.8,4.3,3.8,4.3c0.5,1,1.9,5.4,1.6,7.8c-0.3-2.4-1.5-6.6-2-7.6
			c-0.7-1.3-2.6-3.7-3.6-4C172.2,137.1,171.2,137.2,171.2,137.2"/>
		<path class="st3" d="M216.6,96.6c0,0,2.9,1,4.7-0.3c-0.5-0.1-0.7-0.8-0.7-0.8s3-0.3,3.8-1.3c-0.8-0.1-1.3-0.6-1.3-0.6
			s2.7-2.5,3.1-3.4c-1,0-1.4-0.1-1.4-0.1s1.2-1.4,1.8-2.7c-1,0.3-1.6,0.3-1.6,0.3s1.4-1.6,1.3-3c-0.8,0.5-1.7,1-1.7,1
			s0.7-2.1,0.6-3.8c-0.1-1.8,0.8-2.1,0.8-2.1s-2.2,0-2.9,0.3c-0.6,0.2-1.6,1-2.2,1.6c-0.6,0.6-1.3,1-1.5,1.7c-0.2-0.6,0-1.1,0-1.1
			s-2.6,1.9-2.7,2.8c-0.1-0.4-0.3-0.8-0.3-0.8s-2.4,3.1-2.4,4.5c-0.2-0.2-0.8-1.4-0.8-1.4s-0.9,3.7,0.2,4.7
			c-0.2,0.5-0.4,1.9,0.2,2.6C214.1,95.5,216.6,96.6,216.6,96.6"/>
		<path class="st3" d="M210.4,104.6c0,0-1.5,2.5-3.4,2.4c0.3-0.3,0.2-1.1,0.2-1.1s-2.3,1.4-3.4,1.1c0.5-0.6,0.6-1.2,0.6-1.2
			s-3.2-0.6-3.9-1c0.7-0.6,0.9-1,0.9-1s-1.6-0.4-2.6-1.2c0.8-0.4,1.3-0.7,1.3-0.7s-1.8-0.5-2.4-1.7c0.8,0,1.7-0.1,1.7-0.1
			s-1.5-1.3-2.4-2.8c-0.8-1.6-1.6-1.4-1.6-1.4s1.6-1.2,2.2-1.4c0.6-0.2,1.7-0.1,2.4,0c0.7,0.1,1.4,0.1,1.9,0.6
			c-0.2-0.6-0.5-0.9-0.5-0.9s2.8,0,3.3,0.7c-0.1-0.4-0.2-0.8-0.2-0.8s3.2,1.2,3.9,2.4c0.1-0.3-0.1-1.6-0.1-1.6s2.5,2.7,2.3,4.1
			c0.4-0.5,1,1.3,1.1,2.3C211.8,102.5,210.4,104.6,210.4,104.6"/>
		<path class="st3" d="M213.9,104.3c0,0-1.1,2.1,0.2,5.5c0.1-0.5,0.5-0.7,0.5-0.7s0.3,2.8,1.2,3.6c0.1-0.7,0.6-1.2,0.6-1.2
			s2.5,2.6,3.3,3c0-0.9,0.1-1.3,0.1-1.3s1.3,1.2,2.7,1.7c-0.2-1,0-1.3,0-1.3s1.2,1,2.6,0.9c-0.5-0.8-1-1.5-1-1.5s2.1,0.6,3.8,0.6
			c1.7,0,2.1,0.7,2.1,0.7s-0.6-2.2-0.8-2.9c-0.2-0.6-0.4-1.4-0.9-1.9c-0.6-0.6-0.8-1.3-1.4-1.6c0.6-0.2,0.8,0.1,0.8,0.1
			s-1.8-2.4-2.7-2.6c0.5-0.1,0.9-0.2,0.9-0.2s-3-2.2-4.5-2.3c0.2-0.2,1.4-0.7,1.4-0.7s-3.7-0.9-4.8,0.1c-0.7-0.2-1.7-0.3-2.5,0.2
			C214.7,103.1,213.9,104.3,213.9,104.3"/>
		<path d="M216.4,96.9c-0.3-0.1-2.5-1.2-3.2-2c-0.6-0.6-0.3-2.1,0-2.7c0-0.1-0.4-0.3-0.4-0.4c-0.8-1.4-0.1-4.1,0-4.5
			c0-0.1,0-0.2,0.1-0.2c0.1,0,0,0.1,0.1,0.2c0.1,0.2,0.4,0.5,0.5,0.7c0.5-1.6,2.2-3.8,2.3-3.9c0.1-0.1,0.4-0.2,0.5-0.2
			c0.1,0,0,0.2,0,0.3c0,0,2.3-1.6,2.6-1.9c0.1-0.1,0.1-0.1,0.2,0c0.1,0.1,0.3,0,0.3,0.1c0.2-0.2,0.2-0.2,0.4-0.3
			c0.2-0.2,0.3-0.3,0.5-0.5c0.7-0.6,1.7-1.3,2.3-1.5c0.7-0.3,2.9-0.3,3.1-0.3c0.1,0-0.1,0.1-0.2,0.2c-0.1,0.1-0.5,0.5-0.4,2
			c0.1,1.2-0.2,2.4-0.4,3.2c0.3-0.2,0.8-0.3,1.1-0.5c0.1-0.1,0.2-0.2,0.2-0.2c0.1,0,0,0.1,0,0.2c0.1,0.9-0.3,2-0.8,2.6
			c0.2,0,0.5-0.1,0.8-0.2c0.1,0,0.2,0,0.3,0.1c0.1,0.1,0.1,0.2,0.1,0.3c-0.4,0.9-1.1,1.8-1.5,2.4c0.2,0,0.5,0,0.8,0
			c0.1,0,0.4,0,0.5,0.1c0.1,0.1-0.2,0.2-0.2,0.3c-0.4,0.7-2.2,2.5-2.9,3.2c0.2,0.1,0.5,0.2,0.9,0.3c0.1,0,0.3,0.2,0.2,0.2
			c-0.1,0.1,0.1-0.1,0,0c-0.7,0.8-2.8,1.5-3.7,1.7c0.1,0.1,0.2,0.3,0.3,0.3c0.1,0,0.2,0.1,0.2,0.2c0,0.1-0.2,0-0.3,0.1
			c-0.6,0.5-1.3,1-2.3,1C217.6,97.3,216.5,96.9,216.4,96.9 M220.2,95.6c0-0.1,0-0.2,0-0.3c0.1-0.1,0.1-0.1,0.2-0.1
			c0.7-0.1,2.3-0.4,3.2-0.9c-0.5-0.2-0.8-0.4-0.8-0.4c-0.1-0.1-0.1,0-0.1-0.1c0-0.1,0.1-0.1,0.2-0.2c0.6-0.6,2.2-2.2,2.9-3
			c-0.6,0-1-0.1-1.1-0.1c-0.1,0-0.2-0.1-0.2-0.2c0-0.1,0.2-0.1,0.2-0.2c0,0,0.7-1.1,1.3-2.1c-0.6,0.1-1,0.2-1.1,0.2
			c-0.1,0-0.2-0.1-0.3-0.2c-0.1-0.1,0.2-0.2,0.3-0.3c0,0,0.7-1.2,1-2.2c-0.6,0.4-1.4,0.4-1.4,0.4c-0.1,0.1-0.3,0.1-0.4,0
			c-0.1-0.1,0.1-0.3,0.2-0.4c0,0,0.5-1.7,0.5-3.4c-0.1-0.9,0.1-1.4,0.3-1.8c-0.7,0-1.7,0.1-2.1,0.3c-0.5,0.1-1.2,0.7-2.1,1.5
			c-0.2,0.2-0.4,0.3-0.6,0.4c-0.4,0.4-0.9,0.7-1,1.1c0,0.1,0,0.3-0.1,0.3c-0.1,0-0.2-0.1-0.3-0.2c-0.1-0.2-0.1-0.4-0.1-0.5
			c-0.9,0.7-2.3,1.8-2.4,2.2c0,0.1-0.1,0-0.2-0.1c0-0.1,0-0.3,0-0.4c-0.8,1-2.4,3.1-2.4,4.1c0,0.1-0.1,0.5-0.1,0.5s-0.2-0.2-0.3-0.3
			c-0.1-0.1-0.3-0.4-0.4-0.7c-0.2,1.2-0.3,3.1,0.3,3.6c0.1,0.1,0,0.1-0.1,0.2c-0.1,0.1-0.1,0.3-0.2,0.5c-0.1,0.3,0,1.3,0.5,1.8
			c0.5,0.6,2.3,1.5,2.9,1.8c0,0,1.1,0.4,2.2,0.4c0.7,0,1.3-0.1,1.7-0.4C220.3,96.1,220.2,95.7,220.2,95.6"/>
		<path d="M215.2,94.5c0.8,0,1.7-0.4,1.7-0.4l-0.3-0.6c-0.4,0.2-1.1,0.7-1.7,0.5l-0.4,0C214.7,94.1,214.9,94.5,215.2,94.5"/>
		<path d="M217.6,95.4l0.2,0c0,0-0.7-0.9-0.9-1.8c-0.3-1.1,1.3-4.7,1.9-5.5c0.2-0.2,0.2-0.6,0.5-1.1c0.9-1.4,2.4-4,4.1-5l-0.1-0.1
			c-1.8,1.1-3.4,3.5-4.3,4.9c-0.3,0.4-0.5,0.8-0.7,1c-0.7,0.9-2.1,4.6-1.8,6.1C216.7,94.8,217.5,95.4,217.6,95.4"/>
		<path class="st3" d="M215.6,132.1c0,0,2.8,1.3,4.7,0.2c-0.5-0.2-0.6-0.9-0.6-0.9s3,0,3.9-0.9c-0.7-0.2-1.2-0.7-1.2-0.7
			s2.9-2.3,3.5-3c-1-0.1-1.4-0.2-1.4-0.2s1.4-1.2,2.1-2.5c-1,0.2-1.7,0.2-1.7,0.2s1.6-1.5,1.6-2.8c-0.8,0.4-1.8,0.8-1.8,0.8
			s0.9-2,1-3.8c0.1-1.8,1-2,1-2s-2.2-0.2-2.9,0c-0.7,0.1-1.7,0.8-2.4,1.3c-0.6,0.5-1.4,0.9-1.7,1.6c-0.1-0.7,0.1-1.1,0.1-1.1
			s-2.7,1.6-3,2.5c0-0.4-0.2-0.9-0.2-0.9s-2.7,2.8-2.8,4.3c-0.2-0.3-0.6-1.4-0.6-1.4s-1.2,3.6-0.3,4.7c-0.2,0.4-0.6,1.8,0,2.6
			C213.3,130.7,215.6,132.1,215.6,132.1"/>
		<path d="M215.5,132.4c-0.2-0.1-2.4-1.4-2.9-2.3c-0.5-0.7-0.1-2.1,0.2-2.7c0-0.1-0.4-0.4-0.3-0.4c-0.6-1.4,0.4-4.1,0.5-4.4
			c0-0.1,0-0.2,0.2-0.2c0.1,0,0,0.1,0.1,0.2c0.1,0.2,0.4,0.5,0.5,0.7c0.7-1.5,2.6-3.5,2.7-3.6c0.1-0.1,0.4-0.2,0.5-0.2
			c0.1,0,0,0.2,0,0.3c0,0,2.4-1.4,2.8-1.6c0.1-0.1,0.1,0,0.2,0c0.1,0.1,0.3,0,0.3,0.1c0.2-0.2,0.2-0.1,0.4-0.3
			c0.2-0.1,0.4-0.3,0.6-0.4c0.7-0.5,1.8-1.1,2.5-1.2c0.7-0.2,2.9,0,3.2,0.1c0.1,0-0.1,0.1-0.2,0.2c-0.2,0.1-0.5,0.5-0.6,2
			c-0.1,1.2-0.4,2.4-0.7,3.2c0.3-0.2,0.8-0.2,1.2-0.4c0.1,0,0.2-0.2,0.3-0.1c0.1,0.1,0,0.1,0,0.2c0,0.9-0.5,1.9-1,2.5
			c0.2,0,0.5-0.1,0.9-0.1c0.1,0,0.2,0,0.3,0.1c0.1,0.1,0.1,0.2,0,0.3c-0.5,0.9-1.2,1.7-1.7,2.2c0.2,0,0.5,0.1,0.8,0.1
			c0.1,0,0.4,0.1,0.4,0.2c0,0.1-0.2,0.2-0.2,0.3c-0.5,0.7-2.4,2.2-3.2,2.9c0.2,0.1,0.5,0.3,0.8,0.4c0.1,0,0.3,0.2,0.2,0.2
			c-0.1,0,0.1-0.1,0,0c-0.8,0.8-2.9,1.2-3.8,1.3c0.1,0.1,0.2,0.3,0.3,0.3c0.1,0,0.2,0.1,0.2,0.3c0,0.1-0.2,0-0.3,0
			c-0.7,0.4-1.4,0.8-2.4,0.7C216.6,132.9,215.6,132.4,215.5,132.4 M219.4,131.4c0-0.1,0-0.2,0.1-0.2c0.1-0.1,0.1-0.1,0.2-0.1
			c0.7,0,2.4-0.1,3.3-0.6c-0.5-0.2-0.8-0.5-0.8-0.5c-0.1-0.1-0.1-0.1-0.1-0.1c0-0.1,0.1-0.1,0.2-0.2c0.7-0.5,2.4-2,3.2-2.7
			c-0.6-0.1-1-0.2-1.1-0.2c-0.1,0-0.2-0.1-0.2-0.2c0-0.1,0.2-0.1,0.3-0.2c0,0,0.8-1,1.5-2c-0.7,0.1-1,0.1-1.1,0.1
			c-0.1,0-0.2-0.1-0.3-0.2c0-0.1,0.2-0.2,0.3-0.3c0,0,0.8-1.1,1.2-2.1c-0.7,0.3-1.4,0.3-1.4,0.3c-0.1,0-0.3,0.1-0.4,0
			c-0.1-0.1,0.1-0.3,0.2-0.4c0,0,0.7-1.7,0.8-3.3c0-0.9,0.3-1.4,0.5-1.8c-0.7-0.1-1.7-0.1-2.1,0c-0.5,0.1-1.3,0.6-2.2,1.3
			c-0.2,0.2-0.4,0.2-0.6,0.4c-0.4,0.3-0.9,0.6-1.1,1c-0.1,0.1,0,0.3-0.2,0.2c-0.1,0-0.2-0.1-0.3-0.2c0-0.2,0-0.4,0-0.6
			c-1,0.6-2.4,1.5-2.6,2c0,0.1-0.1,0-0.1-0.1c0-0.1,0-0.3,0-0.4c-0.9,1-2.7,2.8-2.8,3.8c0,0.1-0.1,0.5-0.1,0.5s-0.1-0.2-0.2-0.3
			c-0.1-0.1-0.2-0.4-0.4-0.7c-0.3,1.2-0.7,3-0.1,3.7c0.1,0.1,0,0.1-0.1,0.2c-0.1,0.1-0.2,0.3-0.2,0.5c-0.2,0.3-0.1,1.3,0.3,1.9
			c0.4,0.6,2.1,1.7,2.7,2.1c0,0,1,0.5,2.2,0.6c0.7,0.1,1.3,0,1.8-0.2C219.5,131.9,219.4,131.5,219.4,131.4"/>
		<path d="M214.5,129.8c0.8,0.1,1.7-0.2,1.7-0.2L216,129c-0.4,0.1-1.2,0.6-1.8,0.3l-0.4-0.1C214.1,129.4,214.2,129.8,214.5,129.8"/>
		<path d="M216.8,131l0.2,0.1c0,0-0.6-1-0.7-1.8c-0.2-1.2,1.7-4.5,2.5-5.3c0.2-0.2,0.3-0.6,0.6-1c1.1-1.3,2.8-3.7,4.6-4.6l-0.1-0.1
			c-1.9,0.9-3.7,3.1-4.8,4.4c-0.3,0.4-0.6,0.7-0.8,0.9c-0.8,0.8-2.6,4.4-2.4,5.8C216,130.3,216.7,131,216.8,131"/>
		<path d="M203.7,107c-0.1,0-0.2-0.2-0.1-0.3c0.2-0.3,0.3-0.4,0.4-0.7c-0.8-0.2-2.9-0.9-3.6-1.3c-0.1,0-0.1-0.1,0-0.2
			c0.2-0.2,0.3-0.5,0.4-0.7c-0.6-0.2-1.4-0.7-2.1-1.2c-0.1-0.1-0.2,0-0.2-0.1c0-0.1,0.1-0.1,0.2-0.1c0.3-0.1,0.5-0.4,0.7-0.5
			c-0.6-0.3-1.5-0.8-1.9-1.6c0-0.1-0.1,0,0-0.1c0-0.1,0.1-0.1,0.2-0.1c0.4,0,0.5-0.5,0.8-0.5c-0.5-0.5-1.1-1.2-1.7-2.2
			c-0.6-1.1-1.1-1.5-1.3-1.5c0,0-0.3-0.3-0.2-0.3c0.2-0.1,1.6-1,2.2-1.2c0.2-0.1,0.6-0.2,1-0.2c0.5,0,1.1-0.1,1.5,0
			c0.2,0,0.3,0.1,0.5,0.1c0.2,0,0.2,0,0.4,0.1c-0.1-0.1,0.3-0.5,0.5-0.5h0c0.4,0,1.9,0.1,2.9,0.4c0-0.1-0.3-0.2-0.3-0.3
			c0.1-0.1,0.1-0.1,0.3-0.1c0.6,0,2.8,0.8,3.9,1.9c0-0.3-0.1-0.5-0.1-0.8c0-0.1-0.2-0.2-0.1-0.3c0.1-0.1,0.5,0.3,0.6,0.4
			c0.2,0.3,2.1,2,2.3,3.6c0.7,0.2,1.1,2.2,1.1,2.6c0.2,1.3-1.2,3.3-1.3,3.5c-0.1,0.1-1.5,2.5-3.5,2.5c-0.1,0-0.3-0.1-0.2-0.6
			c0-0.2-0.1-0.2-0.3-0.2c-0.6,0.3-1.6,0.6-2.5,0.6C204,107.1,203.8,107.1,203.7,107 M207.4,106.7c1.6-0.2,2.8-2.2,2.8-2.2
			c0.4-0.5,1.3-2.2,1.2-3.1c-0.1-0.8-0.5-1.9-0.7-2.1c-0.1,0.1-0.2,0.1-0.3,0.1c-0.1-0.1-0.2-0.2-0.1-0.3c0.1-0.8-0.8-2.2-1.7-3.2
			c0,0.3,0,0.7,0,0.9c0,0.1,0.1,0.2,0,0.3c-0.1,0-0.3-0.3-0.3-0.4c-0.5-0.8-2.9-2-3.5-1.9c0,0.1,0,0.2,0.1,0.2
			c0,0.1,0.2,0.3,0.2,0.3s-0.4,0-0.5-0.1c-0.3-0.3-1.7-0.4-2.7-0.4c0.1,0.1,0.1,0.3,0.2,0.5c0,0.1,0,0.3,0,0.3s-0.2,0-0.3-0.1
			c-0.5-0.2-0.9-0.3-1.4-0.4c-0.2,0-0.4,0.1-0.5,0c-0.4-0.1-0.9-0.1-1.4-0.1c-0.4,0-0.7,0-0.9,0.1c-0.3,0.1-1,0.5-1.5,0.9
			c0.3,0.2,0.7,0.6,1.1,1.4c0.8,1.4,2.3,2.7,2.3,2.7c0.1,0.1,0,0.2-0.2,0.3c0,0-0.6,0.4-1.2,0.4c0.7,0.8,1.8,1.3,1.8,1.3
			c0.1,0,0.4,0,0.4,0.1c0,0.1-0.1,0.1-0.2,0.2c0,0-0.3,0.3-0.8,0.6c1,0.5,2.1,0.8,2.1,0.8c0.1,0,0.1,0.3,0,0.4c0,0-0.1,0.4-0.5,0.8
			c0.9,0.3,2.8,0.6,3.5,0.8c0.1,0,0.2,0.3,0.2,0.4c0,0-0.1,0.4-0.3,0.9c1.1-0.1,2.7-1.1,2.7-1.1
			C207.1,105.6,207.5,106.3,207.4,106.7"/>
		<path d="M209.3,102.2c0.1,0,1-0.7,1.5-1.5c-0.3,0.5-1.3,0.8-1.6,0.9L209.3,102.2z"/>
		<path d="M209.1,103.8L209.1,103.8c0,0,0.5-1.1,0.3-2.1c-0.4-1.7-4.1-3.7-4.1-3.7c-0.9-0.4-5-1.7-7.1-1.2c2.2,0.2,6.1,1.2,6.9,1.6
			c1.2,0.7,3.5,2.4,3.8,3.5C209.1,102.7,209.1,103.7,209.1,103.8"/>
		<path d="M220.1,113.7c0,0.2-0.4,1.1-0.5,1c-0.7-0.4-2.5-2.2-3.1-2.8c-0.1,0.2-0.7,1.1-0.8,1c-0.7-0.6-1-1.7-1.2-2.6
			c0-0.3-0.2-0.2-0.3-0.2h0c-0.1,0-0.1-0.2-0.2-0.4c-1.4-3.5-0.4-5.5-0.3-5.6c0-0.1,1-1.1,1.8-1.7c0.5-0.4,0.9-0.4,1.5-0.4
			c0.4,0,1.1,0,1.3,0.2c0.3-0.2,0.8-0.6,1.3-0.6c1.5-0.1,3.3,0.6,3.4,0.7c0.1,0,0.2,0.2,0.1,0.3c-0.2,0.1-0.7,0.3-0.9,0.4
			c1.6,0.5,4,2,4.1,2.1c0.1,0.1-0.1,0.6-0.3,0.6c0.9,0.7,2.2,2.5,2.1,2.6c-0.1,0.1-0.2,0.2-0.3,0.1c0,0,0,0-0.1,0
			c0.2,0.2,0.4,0.4,0.7,0.7c0.1,0.1,0.2,0.2,0.3,0.3c0.4,0.5,0.6,1,0.8,1.6c0.1,0.2,0.1,0.3,0.2,0.5c0.3,0.7,0.6,3,0.7,3.1
			c0,0.1-0.7-0.6-2.2-0.6c-1.2,0-2.4-0.2-3.2-0.4c0.2,0.3,0.4,0.7,0.6,1c0.1,0.1-0.2,0.2-0.3,0.2c-0.9,0-1.9-0.2-2.5-0.6
			c0,0.2,0.1,1.1,0,1.1C222.7,115.2,220.6,114.1,220.1,113.7 M224.2,113c0,0,2.1,0.3,3.8,0.3c0.7,0,1.2,0.1,1.6,0.3
			c-0.2-0.7-0.4-1.6-0.6-2c-0.1-0.2-0.1-0.3-0.2-0.5c-0.2-0.5-0.3-1-0.7-1.3c-0.1-0.1-0.2-0.2-0.3-0.3c-0.4-0.5-1.4-1.6-1.2-1.6
			c0.2-0.1,0.3-0.1,0.5-0.1c-0.7-0.8-1.6-1.8-2.2-2c-0.1,0,0.2-0.6,0.3-0.6c-1-0.7-2.9-1.8-3.8-1.8c-0.1,0-0.3-0.4-0.2-0.5
			c0.1-0.1,0.3-0.3,0.6-0.4c-0.7-0.1-1.6-0.2-2.3-0.2c-0.6,0-1.1,0.2-1.3,0.4c-0.1,0.1-0.3-0.2-0.5-0.2c-0.1,0-0.2,0-0.4,0
			c-0.6,0-1.3,0.2-1.7,0.5c-0.7,0.5-1.5,1.6-1.5,1.6c0,0-0.9,1.7,0,4.6c0.1-0.1,0.7-0.1,0.7,0c0.1,0.6,0.3,2.2,0.8,3
			c0.2-0.5,0.6-0.7,0.6-0.7c0.3-0.2,0.3-0.2,0.3-0.1c0.6,0.6,2,2,2.8,2.7c0-0.6,0.2-1,0.3-1.1c0.1,0,0.2,0,0.3,0.1
			c0,0,1.1,1.1,2.2,1.7c0-0.7,0.1-1.6,0.2-1.5c0,0,1.1,1,2.2,1.2c-0.4-0.6-0.7-1.1-0.7-1.1C223.9,113,224.2,113,224.2,113"/>
		<path d="M216.2,105.2l0.5-0.3c-0.2-0.3-0.5-1.3-0.3-1.9l-0.2-0.1C215.9,103.8,216.2,105,216.2,105.2"/>
		<path d="M227.9,111.7l0.2,0.1c-1.6-1.9-4.9-5-5.9-5.5c-0.7-0.5-4.2-2.1-5.6-1.6c-0.9,0.3-1.5,1.4-1.5,1.4c0,0,0.9-0.5,1.7-0.8
			c1.1-0.4,4.1,0.9,5.1,1.5C222.8,107.3,226,109.8,227.9,111.7"/>
		<path class="st3" d="M226.2,144.5c0,0-2.4-0.6-5.5,1.6c0.5,0,0.8,0.3,0.8,0.3s-2.7,1-3.3,2.1c0.7-0.1,1.4,0.3,1.4,0.3
			s-1.9,3.1-2.2,4c0.9-0.2,1.4-0.2,1.4-0.2s-0.8,1.6-1,3c0.9-0.4,1.4-0.3,1.4-0.3s-0.7,1.4-0.2,2.7c0.6-0.6,1.2-1.3,1.2-1.3
			s-0.1,2.2,0.4,3.9c0.5,1.7-0.2,2.2-0.2,2.2s2.1-1.1,2.7-1.5c0.6-0.4,1.3-0.7,1.7-1.4c0.4-0.7,1.2-1.1,1.2-1.8
			c0.3,0.5,0.1,0.8,0.1,0.8s1.9-2.3,1.9-3.3c0.2,0.4,0.5,0.8,0.5,0.8s1.4-3.5,1.1-4.9c0.3,0.1,1.1,1.1,1.1,1.1s-0.1-3.8-1.4-4.7
			c0-0.7-0.1-1.8-0.9-2.4C227.6,145,226.2,144.5,226.2,144.5"/>
		<path d="M218.3,152.9c-0.2,0-1.2-0.1-1.2-0.2c0.2-0.8,1.5-3,2-3.8c-0.2-0.1-1.3-0.4-1.2-0.5c0.4-0.8,1.5-1.4,2.3-1.8
			c0.2-0.1,0.2-0.3,0.1-0.4c0,0,0,0,0,0c0-0.1,0.2-0.2,0.3-0.2c3.2-2.2,5.4-1.8,5.6-1.8c0.1,0,1.4,0.7,2.1,1.3
			c0.5,0.4,0.6,0.8,0.8,1.3c0.1,0.4,0.3,1.1,0.2,1.3c0.3,0.3,0.8,0.6,1,1.1c0.5,1.4,0.2,3.3,0.2,3.4c0,0.1-0.2,0.3-0.3,0.2
			c-0.2-0.2-0.5-0.6-0.6-0.8c-0.1,1.7-0.9,4.4-1,4.5c0,0.1-0.6,0-0.7-0.1c-0.5,1.1-2,2.8-2.1,2.8c-0.1,0-0.2-0.2-0.2-0.3
			c0,0,0,0,0-0.1c-0.1,0.3-0.3,0.5-0.5,0.8c-0.1,0.1-0.2,0.2-0.2,0.4c-0.3,0.5-0.9,0.9-1.4,1.2c-0.1,0.1-0.3,0.2-0.4,0.3
			c-0.6,0.4-2.9,1.4-3,1.4c-0.1,0.1,0.4-0.9,0-2.3c-0.3-1.1-0.4-2.4-0.4-3.2c-0.2,0.2-0.5,0.5-0.8,0.8c-0.1,0.1-0.2-0.1-0.2-0.2
			c-0.3-0.9-0.3-1.9-0.1-2.6c-0.2,0.1-1,0.4-1.1,0.3C217.6,155.8,218.1,153.5,218.3,152.9 M220.2,156.7c0,0,0.2,2.1,0.7,3.7
			c0.2,0.7,0.2,1.2,0.2,1.6c0.7-0.4,1.5-0.8,1.8-1.1c0.1-0.1,0.3-0.2,0.5-0.3c0.5-0.3,0.9-0.6,1.2-1c0.1-0.1,0.2-0.3,0.2-0.4
			c0.3-0.5,1.2-1.7,1.3-1.6c0.1,0.2,0.2,0.3,0.2,0.5c0.7-0.9,1.4-2.1,1.4-2.6c0-0.1,0.7,0,0.7,0.1c0.4-1.2,1.1-3.2,0.8-4.1
			c0-0.1,0.3-0.4,0.4-0.3c0.2,0.1,0.4,0.3,0.6,0.5c-0.1-0.7-0.2-1.6-0.5-2.3c-0.2-0.6-0.5-1-0.7-1.2c-0.1-0.1,0.1-0.3,0.1-0.5
			c0-0.1,0-0.2-0.1-0.4c-0.2-0.6-0.6-1.2-1-1.5c-0.7-0.5-2-1-2-1c0,0-2-0.4-4.6,1.2c0.2,0.1,0.3,0.6,0.2,0.7
			c-0.6,0.2-2.1,0.9-2.8,1.6c0.5,0.1,0.9,0.4,0.9,0.4c0.3,0.2,0.2,0.2,0.2,0.3c-0.4,0.7-1.5,2.5-1.9,3.4c0.6-0.1,1.1-0.1,1.2,0
			c0.1,0.1,0.1,0.2,0,0.3c0,0-0.8,1.3-1.1,2.5c0.7-0.2,1.6-0.3,1.6-0.2c0,0-0.7,1.3-0.6,2.4c0.5-0.5,0.9-0.9,0.9-0.9
			C220.1,156.4,220.2,156.7,220.2,156.7"/>
		<path d="M225.9,147l0.4,0.5c0.3-0.2,1.2-0.8,1.8-0.8l0-0.3C227.2,146.4,226.1,146.9,225.9,147"/>
		<path d="M222.5,159.9l-0.1,0.3c1.5-2,3.7-6,4-7.1c0.3-0.8,1-4.6,0.1-5.9c-0.6-0.8-1.8-1.1-1.8-1.1c0,0,0.7,0.7,1.3,1.5
			c0.6,0.9,0.2,4.2-0.2,5.4C225.5,154,223.9,157.6,222.5,159.9"/>
		<path class="st3" d="M214.6,135.4c0,0,2.7,1.2,2.8,3.4c-0.4-0.3-1,0-1,0s1.7,2.3,1.5,3.5c-0.6-0.4-1.3-0.5-1.3-0.5s0,3.6-0.3,4.4
			c-0.7-0.6-1.1-0.9-1.1-0.9s-0.1,1.8-0.7,3.1c-0.5-0.8-0.9-1.3-0.9-1.3s-0.2,2.1-1.2,2.9c-0.2-0.9-0.4-1.9-0.4-1.9s-1,1.9-2.3,3
			c-1.4,1.1-1.1,1.9-1.1,1.9s-1.4-1.5-1.7-2.1c-0.3-0.6-0.3-1.8-0.4-2.6c0-0.8-0.1-1.5,0.3-2.2c-0.6,0.3-0.8,0.7-0.8,0.7
			s-0.4-3,0.2-3.7c-0.4,0.2-0.8,0.4-0.8,0.4s0.6-3.7,1.7-4.7c-0.3-0.1-1.5,0.3-1.5,0.3s2.1-3.2,3.6-3.1c-0.6-0.3,1-1.3,2-1.6
			C212.4,134.1,214.6,135.4,214.6,135.4"/>
		<path d="M218,142.4c0,0.1-0.1,0.2-0.2,0.1c-0.3-0.2-0.5-0.3-0.7-0.3c0,0.9-0.4,3.3-0.6,4.1c0,0.1-0.1,0.1-0.2,0
			c-0.2-0.2-0.6-0.3-0.7-0.4c-0.1,0.6-0.4,1.6-0.8,2.5c0,0.1,0,0.3-0.1,0.3c-0.1,0-0.1-0.1-0.1-0.2c-0.2-0.3-0.5-0.5-0.6-0.7
			c-0.2,0.7-0.5,1.8-1.2,2.3c-0.1,0.1,0,0.1-0.1,0.1c-0.1,0-0.2-0.1-0.2-0.2c-0.1-0.4-0.5-0.5-0.6-0.8c-0.4,0.7-1,1.4-1.8,2.2
			c-1,0.8-1.2,1.4-1.2,1.6c0,0-0.2,0.4-0.3,0.3c-0.2-0.2-1.2-1.7-1.5-2.3c-0.1-0.3-0.3-0.6-0.4-1.1c-0.1-0.6-0.2-1.2-0.2-1.6
			c0-0.2,0-0.4,0-0.6c0-0.3,0-0.2,0-0.4c-0.1,0.1-0.5-0.3-0.5-0.4c-0.1-0.4-0.3-2.1-0.1-3.2c-0.1,0-0.2,0.4-0.3,0.3
			c-0.1-0.1-0.1-0.1-0.1-0.3c-0.1-0.7,0.3-3.1,1.1-4.5c-0.2,0.1-0.5,0.1-0.7,0.2c-0.1,0-0.2,0.2-0.3,0.1c-0.1-0.1,0.2-0.6,0.3-0.7
			c0.2-0.3,1.6-2.6,3.1-3.1c0.1-0.8,1.9-1.5,2.3-1.6c1.2-0.4,3.4,0.8,3.6,0.9c0.1,0.1,2.6,1.3,2.9,3.4c0,0.1-0.1,0.3-0.5,0.3
			c-0.2,0-0.2,0.2-0.1,0.4c0.4,0.6,0.8,1.7,1,2.7C218,142,218,142.2,218,142.4 M217,138.3c-0.4-1.7-2.5-2.7-2.6-2.7
			c-0.6-0.3-2.3-1.1-3.1-0.9c-0.8,0.2-1.7,0.8-1.9,1.1c0.1,0.1,0.1,0.2,0.1,0.3c0,0.1-0.2,0.2-0.3,0.2c-0.8,0-2,1.2-2.8,2.3
			c0.3-0.1,0.7-0.1,0.8-0.1c0.1,0,0.2-0.1,0.3,0c0,0.1-0.2,0.3-0.3,0.4c-0.7,0.6-1.4,3.4-1.3,4.1c0.1,0,0.1-0.1,0.2-0.1
			c0.1-0.1,0.2-0.2,0.2-0.2s0.1,0.4,0,0.5c-0.3,0.4-0.1,1.9,0,3c0.1-0.1,0.3-0.2,0.4-0.3c0.1-0.1,0.3,0,0.3,0s0,0.2,0,0.4
			c-0.1,0.5-0.2,1-0.2,1.5c0,0.2,0.1,0.4,0.1,0.6c0,0.4,0,1,0.1,1.6c0.1,0.4,0.1,0.7,0.2,0.9c0.1,0.3,0.6,1,1.1,1.5
			c0.1-0.4,0.4-0.9,1.1-1.4c1.2-1.1,2.2-2.9,2.2-2.9c0.1-0.1,0.2,0,0.3,0.1c0,0,0.4,0.6,0.6,1.2c0.6-0.9,0.9-2.1,1-2.1
			c0-0.1-0.1-0.4,0-0.4c0.1,0,0.1,0,0.2,0.1c0,0,0.4,0.3,0.7,0.8c0.4-1.1,0.4-2.4,0.4-2.4c0-0.1,0.3-0.1,0.4,0c0,0,0.4,0.1,0.9,0.5
			c0.1-1,0.2-3.1,0.2-4c0-0.1,0.2-0.3,0.3-0.3c0,0,0.4,0,0.9,0.2c-0.3-1.2-1.4-2.8-1.4-2.8C216.1,138.9,216.6,138.3,217,138.3"/>
		<path d="M212.5,137c-0.1-0.2-0.8-1-1.6-1.4c0.5,0.3,1,1.3,1.1,1.6L212.5,137z"/>
		<path d="M214,136.9L214,136.9c0,0-1.1-0.4-2,0c-1.5,0.7-2.8,5-2.9,5c-0.3,1.1-0.8,5.7,0,7.9c-0.2-2.4,0.1-6.8,0.4-7.8
			c0.5-1.4,1.8-4.2,2.7-4.6C213,137.1,214,136.9,214,136.9"/>
		<rect x="74.1" y="71.3" class="st4" width="79.8" height="65.1"/>
		<path d="M154.5,136.9H73.6V70.7h80.8V136.9z M74.6,135.9h78.8V71.8H74.6V135.9z"/>
	</g>
	<g>
		<g>
			<path d="M297.3,96.8c0,19.6-5.9,26.9-20.9,26.9c-13.5,0-22.5-4.7-22.5-23.1V76.6c0-2.1-1.8-2.5-6.5-3c-0.8-0.1-1.2-0.6-1.2-1.6
				c0-1,0.5-1.5,1.3-1.5c2.7,0,7.1,0.5,11.8,0.5c4.3,0,8.8-0.5,12.2-0.5c0.9,0,1.4,0.5,1.4,1.5c0,1-0.4,1.5-1.4,1.6
				c-5.3,0.5-6.8,0.9-6.8,3V100c0,9.9,0.5,19,12.9,19c9.7,0,14.2-6,14.2-20.4V76.6c0-2.1-1.7-2.4-6.8-3c-0.9-0.1-1.3-0.6-1.3-1.6
				c0-1,0.5-1.5,1.4-1.5c3.1,0,6.7,0.5,9.7,0.5c2.2,0,6.2-0.5,8.8-0.5c0.9,0,1.4,0.5,1.4,1.5c0,1-0.4,1.5-1.3,1.6
				c-4.6,0.5-6.4,0.9-6.4,3V96.8z"/>
			<path d="M360.4,121.6c0,1.4-0.9,2.1-2.7,2.1c-1.4,0-2.7-0.5-3.6-1.6l-33.4-36.5v30.9c0,2.1,1.7,2.4,6.8,3
				c0.9,0.1,1.4,0.6,1.4,1.5c0,1.1-0.5,1.6-1.4,1.6c-3.3,0-6.5-0.5-9.4-0.5c-2.4,0-6.4,0.5-9.1,0.5c-0.8,0-1.3-0.5-1.3-1.6
				c0-1,0.4-1.4,1.2-1.5c4.9-0.5,6.5-0.9,6.5-3V76.6c0-2.1-1.7-2.4-6.8-3c-0.8-0.1-1.3-0.6-1.3-1.6c0-1,0.5-1.5,1.4-1.5
				c1.3,0,2.5,0.5,5,0.5c2.7,0,5.9-0.5,6.8-0.5c0.4,0,0.9,0.3,1.4,0.8l33.2,36.9V76.6c0-2.1-1.7-2.4-6.8-3c-0.8-0.1-1.3-0.6-1.3-1.6
				c0-1,0.5-1.5,1.4-1.5c3.3,0,6.7,0.5,9.7,0.5c2.2,0,5.9-0.5,8.9-0.5c0.8,0,1.3,0.5,1.3,1.5c0,1-0.4,1.5-1.2,1.6
				c-4.6,0.5-6.5,0.9-6.5,3V121.6z"/>
			<path d="M390.3,116.4c0,2.1,1.9,2.5,6.5,3c0.9,0.1,1.3,0.5,1.3,1.5c0,1.1-0.5,1.6-1.4,1.6c-2.9,0-7.3-0.5-11.7-0.5
				c-4.3,0-8.8,0.5-11.7,0.5c-0.9,0-1.4-0.5-1.4-1.6c0-1,0.4-1.4,1.3-1.5c4.6-0.5,6.5-0.9,6.5-3V76.6c0-2.1-1.9-2.5-6.5-3
				c-0.9-0.1-1.3-0.6-1.3-1.6c0-1,0.5-1.5,1.4-1.5c2.7,0,7.1,0.5,11.7,0.5c4.2,0,8.7-0.5,11.7-0.5c0.9,0,1.4,0.5,1.4,1.5
				c0,1-0.4,1.5-1.3,1.6c-4.6,0.5-6.5,0.9-6.5,3V116.4z"/>
			<path d="M431,122.8c-0.3,0.7-0.8,1-1.6,1c-0.8,0-1.4-0.3-1.7-1l-19-46c-0.8-1.8-2.1-2.7-5.7-3.1c-0.8-0.1-1.3-0.6-1.3-1.6
				c0-1,0.5-1.5,1.4-1.5c2.7,0,5.9,0.5,10.6,0.5c5.1,0,10.1-0.5,12.9-0.5c0.8,0,1.3,0.5,1.3,1.5c0,1-0.4,1.5-1.2,1.6
				c-3.6,0.5-6,0.9-6,2.5c0,0.4,0.2,1.1,0.5,2l11,30.2l12.3-30.9c0.2-0.5,0.3-0.9,0.3-1.3c0-1.5-3-2.1-6-2.5
				c-0.8-0.1-1.3-0.6-1.3-1.6c0-1,0.5-1.5,1.4-1.5c2.9,0,5.6,0.5,9.6,0.5c2.4,0,4.3-0.5,7.6-0.5c0.9,0,1.4,0.5,1.4,1.5
				c0,1-0.5,1.5-1.3,1.6c-3.4,0.4-4.9,1.1-5.7,3.1L431,122.8z"/>
			<path d="M504.8,80.2c0.2,0.6,0.2,1.1,0.2,1.6c0,0.9-0.5,1.3-1.4,1.3c-3.2,0-4-9.3-10.9-9.3h-7c-4.6,0-6.4,1.2-6.4,3.3v14.6
				c0,1.1,0.5,1.4,1.6,1.4h10.3c3.2,0,1.7-8.6,4.5-8.6c1.1,0,1.6,0.5,1.6,1.4c0,3.1-0.5,6.6-0.5,10.3c0,2.8,0.5,5.6,0.5,8.8
				c0,0.9-0.5,1.4-1.6,1.4c-1,0-1.4-0.4-1.5-1.3c-0.3-2.7-1-8.5-3-8.5h-10.3c-1.1,0-1.6,0.6-1.6,1.9v17.9c0,2.1,1.8,3,6.5,3h6.2
				c7.1,0,11.2-5.9,13.5-9.9c0.4-0.7,1-0.9,1.7-0.9c0.9,0,1.4,0.4,1.4,1.3c0,0.4-0.1,0.8-0.2,1.1l-2.4,10.3c-0.2,1-0.9,1.6-2.1,1.6
				c-10,0-19.9-0.8-31.1-0.8c-3.6,0-7.2,0.5-11.3,0.5c-0.9,0-1.3-0.5-1.3-1.6c0-1,0.3-1.4,1.2-1.5c4.6-0.5,7.2-0.9,7.2-3V76.6
				c0-2-2.7-2.4-7.2-3c-0.9-0.1-1.2-0.6-1.2-1.6c0-1,0.4-1.5,1.3-1.5c3.6,0,7.1,0.5,11.3,0.5c9.1,0,18.2-0.8,28-0.8
				c1.2,0,2.1,0.6,2.2,1.5L504.8,80.2z"/>
			<path d="M556.6,122.5c-5.5,0-9.4-0.4-14.1-5.7c-3.1-3.6-4.6-8-5.9-12.2c-1.4-4.4-2.4-5.4-4-5.4h-1.1c-0.8,0-1.1,0.4-1.1,1.1v16.1
				c0,2.1,2.4,2.4,6.9,3c0.8,0.1,1.3,0.5,1.3,1.5c0,1.1-0.5,1.6-1.4,1.6c-3,0-7.4-0.5-11.9-0.5c-4.2,0-9,0.5-12,0.5
				c-0.8,0-1.3-0.5-1.3-1.6c0-1,0.4-1.4,1.2-1.5c4.6-0.5,6.5-0.9,6.5-3V76.6c0-2.1-1.9-2.4-6.5-3c-0.8-0.1-1.2-0.6-1.2-1.6
				c0-1,0.5-1.5,1.3-1.5c2.7,0,7.1,0.5,11.7,0.5c5.2,0,7.4-0.8,14.2-0.8c8.2,0,15.4,3.5,15.4,13c0,9.7-5.7,12.5-11,14.4
				c1.2,6.2,11.1,22.3,20.9,22.3c0.8,0,1.2,0.8,1.2,1.4c0,0.7-0.4,1.3-1.2,1.3H556.6z M532.4,74.3c-1.5,0-2.3,0.8-2.3,2.4v17.4
				c0,1.1,1.8,1.7,5.5,1.7c5.2,0,8.3-3.2,8.3-9.6c0-8.1-3.6-11.9-8.7-11.9H532.4z"/>
			<path d="M601.4,80.5c0.1,0.2,0.2,0.7,0.2,1.2c0,0.9-0.4,1.7-1.6,1.7c-0.6,0-1.4-0.5-1.8-1.1c-2.6-4.5-2.7-9.3-10.9-9.3
				c-5,0-7,1.8-7,6.6c0,3.2,0.8,5.2,9.9,11.4c8.7,5.9,13,10.7,13,17.5c0,8.5-6.1,15.1-19.2,15.1c-4,0-13.5-1.8-13.6-3.4l-1.1-9
				c-0.1-0.5-0.1-1-0.1-1.2c0.1-0.8,0.6-1.2,1.5-1.2c0.7,0,1.4,0.3,1.7,1c3,8.6,6.9,10.1,12.5,10.1c5.7,0,8.2-3.4,8.2-7.5
				c0-4.8-2.6-7.2-9.3-12.2c-8.6-6.2-13.5-10-13.5-17.8c0-10,8.2-13.1,18.5-13.1c6.2,0,11.3,1.6,11.6,3L601.4,80.5z"/>
			<path d="M627.9,116.4c0,2.1,1.9,2.5,6.5,3c0.9,0.1,1.3,0.5,1.3,1.5c0,1.1-0.5,1.6-1.4,1.6c-2.9,0-7.3-0.5-11.7-0.5
				c-4.3,0-8.8,0.5-11.7,0.5c-0.9,0-1.4-0.5-1.4-1.6c0-1,0.4-1.4,1.3-1.5c4.6-0.5,6.5-0.9,6.5-3V76.6c0-2.1-1.9-2.5-6.5-3
				c-0.9-0.1-1.3-0.6-1.3-1.6c0-1,0.5-1.5,1.4-1.5c2.7,0,7.1,0.5,11.7,0.5c4.2,0,8.7-0.5,11.7-0.5c0.9,0,1.4,0.5,1.4,1.5
				c0,1-0.4,1.5-1.3,1.6c-4.6,0.5-6.5,0.9-6.5,3V116.4z"/>
			<path d="M650,76.6c0-2-2.7-2.4-7.2-3c-0.9-0.1-1.2-0.6-1.2-1.6c0-1,0.4-1.5,1.3-1.5c3.6,0,7.1,0.5,11.3,0.5
				c5.9,0,11.6-0.8,18.3-0.8c16.9,0,28.1,8.4,28.1,26.3c0,17.7-12.2,26.1-28.3,26.1c-5.8,0-11.6-0.6-18.1-0.6
				c-3.6,0-7.2,0.5-11.3,0.5c-0.9,0-1.3-0.5-1.3-1.6c0-1,0.3-1.4,1.2-1.5c4.6-0.5,7.2-0.9,7.2-3V76.6z M667,73.9
				c-4.6,0-6.4,1.1-6.4,3.2V116c0,2.1,1.8,3,6.4,3h5.1c12.2,0,16.3-6.9,16.3-22.5c0-15.1-5.5-22.7-17.6-22.7H667z"/>
			<path d="M747.4,116.3c0.8,1.8,2.1,2.7,5.7,3.1c0.8,0.1,1.3,0.6,1.3,1.6c0,1-0.5,1.5-1.4,1.5c-2.7,0-5.9-0.5-10.6-0.5
				c-5.1,0-10.1,0.5-12.9,0.5c-0.8,0-1.3-0.5-1.3-1.5c0-1,0.4-1.5,1.2-1.6c3.6-0.5,6-0.9,6-2.5c0-0.4-0.2-1.1-0.5-2l-3.3-8.9
				c-0.5-1.2-2-1.8-4.5-1.8h-8.7c-1.7,0-2.7,0.5-3,1.6l-3.9,9.8c-0.2,0.5-0.3,0.9-0.3,1.3c0,1.5,3,2.1,6,2.5
				c0.8,0.1,1.3,0.6,1.3,1.6c0,1-0.5,1.5-1.4,1.5c-2.9,0-5.6-0.5-9.6-0.5c-2.4,0-4.3,0.5-7.6,0.5c-0.9,0-1.4-0.5-1.4-1.5
				c0-1,0.5-1.5,1.3-1.6c3.4-0.4,4.9-1.1,5.7-3.1l19.5-46c0.3-0.7,0.8-1,1.6-1c0.8,0,1.4,0.3,1.7,1L747.4,116.3z M719.2,96.8
				c-0.7,1.7-0.8,2.1-0.8,2.7c0,0.6,0.8,0.8,2.5,0.8h6.6c1.4,0,1.7-0.2,1.7-0.5c0-0.2,0-0.5-0.1-0.8l-5.2-14.4L719.2,96.8z"/>
			<path d="M765.5,76.6c0-2-2.7-2.4-7.2-3c-0.9-0.1-1.2-0.6-1.2-1.6c0-1,0.4-1.5,1.3-1.5c3.6,0,7.1,0.5,11.3,0.5
				c5.9,0,11.6-0.8,18.3-0.8c16.9,0,28.1,8.4,28.1,26.3c0,17.7-12.2,26.1-28.3,26.1c-5.8,0-11.6-0.6-18.1-0.6
				c-3.6,0-7.2,0.5-11.3,0.5c-0.9,0-1.3-0.5-1.3-1.6c0-1,0.3-1.4,1.2-1.5c4.6-0.5,7.2-0.9,7.2-3V76.6z M782.5,73.9
				c-4.6,0-6.4,1.1-6.4,3.2V116c0,2.1,1.8,3,6.4,3h5.1c12.2,0,16.3-6.9,16.3-22.5c0-15.1-5.5-22.7-17.6-22.7H782.5z"/>
			<path d="M269.3,170.4c-0.8,0-1.1,0.4-1.1,1.2v16.2c0,2.4,1.4,2.6,7.6,3.3c0.9,0.1,1.4,0.6,1.4,1.7c0,1.2-0.5,1.8-1.5,1.8
				c-4.3,0-8.2-0.5-13.3-0.5c-5,0-10,0.5-13.3,0.5c-0.9,0-1.4-0.6-1.4-1.8c0-1.1,0.4-1.6,1.4-1.7c5.2-0.6,7.2-1,7.2-3.3v-44.5
				c0-2.3-2.1-2.7-7.2-3.3c-0.9-0.1-1.4-0.7-1.4-1.8c0-1.1,0.5-1.7,1.4-1.7c3.1,0,8,0.5,13.1,0.5c5.1,0,11.2-0.8,16.6-0.8
				c8.8,0,17.4,4.3,17.4,15.6c0,15.2-11.9,18.8-22.4,18.8H269.3z M268.2,164.8c0,0.9,0.3,1.4,1.1,1.4h3.7c7.5,0,11.1-2.8,11.1-12.6
				c0-8.9-5.4-13.6-10.2-13.6c-5,0-5.8,1.4-5.8,3.5V164.8z"/>
			<path d="M345.5,187.6c0.9,2,2.4,3.1,6.4,3.5c0.9,0.1,1.4,0.7,1.4,1.8c0,1.1-0.5,1.7-1.5,1.7c-3,0-6.5-0.5-11.8-0.5
				c-5.7,0-11.3,0.5-14.5,0.5c-0.9,0-1.4-0.6-1.4-1.7c0-1.1,0.4-1.7,1.4-1.8c4.1-0.6,6.7-1,6.7-2.8c0-0.4-0.3-1.2-0.6-2.2l-3.7-9.9
				c-0.5-1.4-2.2-2-5-2h-9.7c-2,0-3,0.6-3.4,1.8l-4.3,11c-0.3,0.6-0.3,1-0.3,1.4c0,1.7,3.3,2.4,6.7,2.8c0.9,0.1,1.4,0.7,1.4,1.8
				c0,1.1-0.5,1.7-1.5,1.7c-3.2,0-6.3-0.5-10.7-0.5c-2.7,0-4.8,0.5-8.5,0.5c-1,0-1.5-0.6-1.5-1.7c0-1.1,0.5-1.7,1.4-1.8
				c3.8-0.4,5.4-1.2,6.4-3.5l21.8-51.4c0.3-0.8,0.9-1.1,1.8-1.1c0.9,0,1.5,0.3,1.9,1.1L345.5,187.6z M313.8,165.7
				c-0.8,1.9-0.9,2.4-0.9,3c0,0.7,0.9,0.9,2.8,0.9h7.4c1.5,0,2-0.2,2-0.5c0-0.3,0-0.5-0.1-0.8l-5.9-16.1L313.8,165.7z"/>
			<path d="M414.6,193.5c0,1.5-1,2.3-3,2.3c-1.6,0-3-0.6-4.1-1.8l-37.4-40.8v34.5c0,2.3,1.9,2.7,7.6,3.3c1,0.1,1.5,0.7,1.5,1.7
				c0,1.2-0.5,1.8-1.5,1.8c-3.7,0-7.2-0.5-10.5-0.5c-2.6,0-7.1,0.5-10.2,0.5c-0.9,0-1.4-0.6-1.4-1.8c0-1.1,0.4-1.6,1.4-1.7
				c5.4-0.6,7.2-1,7.2-3.3v-44.5c0-2.3-1.9-2.7-7.6-3.3c-0.9-0.1-1.4-0.7-1.4-1.8c0-1.1,0.5-1.7,1.5-1.7c1.4,0,2.8,0.5,5.6,0.5
				c3,0,6.6-0.5,7.6-0.5c0.4,0,1,0.3,1.6,0.9l37.1,41.2v-35.4c0-2.3-1.9-2.7-7.7-3.3c-0.9-0.1-1.4-0.7-1.4-1.8
				c0-1.1,0.5-1.7,1.5-1.7c3.7,0,7.5,0.5,10.8,0.5c2.5,0,6.6-0.5,9.9-0.5c0.9,0,1.4,0.6,1.4,1.7c0,1.1-0.4,1.7-1.4,1.8
				c-5.2,0.6-7.2,1-7.2,3.3V193.5z"/>
			<path d="M475.9,187.6c0.8,2,2.4,3.1,6.4,3.5c0.9,0.1,1.4,0.7,1.4,1.8c0,1.1-0.5,1.7-1.5,1.7c-3,0-6.5-0.5-11.8-0.5
				c-5.7,0-11.3,0.5-14.5,0.5c-0.9,0-1.4-0.6-1.4-1.7c0-1.1,0.4-1.7,1.4-1.8c4.1-0.6,6.7-1,6.7-2.8c0-0.4-0.3-1.2-0.6-2.2l-3.7-9.9
				c-0.5-1.4-2.2-2-5-2h-9.7c-2,0-3,0.6-3.4,1.8l-4.3,11c-0.3,0.6-0.3,1-0.3,1.4c0,1.7,3.3,2.4,6.7,2.8c0.9,0.1,1.4,0.7,1.4,1.8
				c0,1.1-0.5,1.7-1.5,1.7c-3.2,0-6.3-0.5-10.7-0.5c-2.7,0-4.8,0.5-8.5,0.5c-1,0-1.5-0.6-1.5-1.7c0-1.1,0.5-1.7,1.4-1.8
				c3.8-0.4,5.4-1.2,6.4-3.5l21.8-51.4c0.3-0.8,0.9-1.1,1.8-1.1c0.9,0,1.5,0.3,1.9,1.1L475.9,187.6z M444.3,165.7
				c-0.8,1.9-0.9,2.4-0.9,3c0,0.7,0.9,0.9,2.8,0.9h7.4c1.5,0,2-0.2,2-0.5c0-0.3,0-0.5-0.1-0.8l-5.9-16.1L444.3,165.7z"/>
			<path d="M560.8,187.8c0.4,2,2.6,2.8,6.7,3.2c1,0.1,1.5,0.6,1.5,1.7c0,1.2-0.5,1.8-1.5,1.8c-3.1,0-7.1-0.5-12.2-0.5
				c-4.8,0-9.6,0.5-13,0.5c-1,0-1.5-0.6-1.5-1.8c0-1.1,0.5-1.6,1.4-1.7c4.8-0.4,7-1,7.2-4.5l-2.1-38.2l-18.6,45.3
				c-0.4,0.9-1.4,1.4-2.4,1.4c-0.9,0-5.2-0.4-5.6-1.4l-18.3-41.7l-3.5,34.7c0.1,2.7,2.6,3.7,7.3,4.4c0.9,0.1,1.4,0.7,1.4,1.7
				c0,1.2-0.5,1.8-1.5,1.8c-3,0-6.7-0.5-10.7-0.5c-2.7,0-5.7,0.5-8.8,0.5c-1,0-1.5-0.6-1.5-1.8c0-1.1,0.5-1.6,1.4-1.7
				c3.7-0.4,6.2-1.2,6.5-4.5l4.5-42.4c-0.1-2.7-2.6-3.6-7.4-4.2c-0.9-0.1-1.4-0.7-1.4-1.8c0-1.1,0.4-1.6,1.4-1.7
				c1.4,0,4.2,0.5,6.5,0.5c5.1,0,10.6-0.5,12.2-0.5c0.4,0,0.7,0.3,0.8,0.7l18.3,44.5l18.4-44.4c0.3-0.6,0.6-0.8,1.1-0.8
				c2,0,7.6,0.5,9.9,0.5c2.7,0,5.2-0.5,6.6-0.5c0.9,0,1.4,0.6,1.4,1.7c0,1.1-0.5,1.7-1.4,1.8c-4.8,0.4-6.9,1-7.1,4.4L560.8,187.8z"
				/>
			<path d="M623.9,147.2c0.2,0.7,0.3,1.2,0.3,1.8c0,1-0.6,1.4-1.6,1.4c-3.6,0-4.4-10.5-12.2-10.5h-7.8c-5.1,0-7.1,1.4-7.1,3.7V160
				c0,1.2,0.6,1.6,1.8,1.6h11.6c3.6,0,1.9-9.6,5-9.6c1.2,0,1.8,0.5,1.8,1.5c0,3.5-0.5,7.4-0.5,11.5c0,3.1,0.5,6.3,0.5,9.9
				c0,1-0.6,1.5-1.8,1.5c-1.1,0-1.5-0.4-1.7-1.4c-0.3-3-1.1-9.5-3.3-9.5h-11.6c-1.2,0-1.8,0.7-1.8,2.1v20.1c0,2.3,2,3.3,7.2,3.3h6.9
				c8,0,12.5-6.6,15.1-11.1c0.4-0.8,1.1-1,1.9-1c1,0,1.6,0.4,1.6,1.4c0,0.4-0.1,0.9-0.2,1.3l-2.6,11.6c-0.3,1.1-1,1.8-2.4,1.8
				c-11.1,0-22.3-0.9-34.8-0.9c-4.1,0-8.1,0.5-12.7,0.5c-1,0-1.4-0.6-1.4-1.8c0-1.1,0.3-1.6,1.4-1.7c5.1-0.5,8.1-1,8.1-3.3v-44.5
				c0-2.2-3-2.7-8.1-3.3c-1-0.1-1.4-0.7-1.4-1.8c0-1.1,0.4-1.7,1.4-1.7c4,0,8,0.5,12.7,0.5c10.2,0,20.3-0.9,31.4-0.9
				c1.4,0,2.3,0.7,2.5,1.7L623.9,147.2z"/>
			<path d="M682.2,194.5c-6.1,0-10.5-0.4-15.8-6.4c-3.5-4-5.2-8.9-6.6-13.7c-1.5-4.9-2.6-6-4.4-6h-1.3c-0.9,0-1.3,0.4-1.3,1.3v18
				c0,2.3,2.6,2.7,7.7,3.3c0.9,0.1,1.4,0.6,1.4,1.7c0,1.2-0.5,1.8-1.5,1.8c-3.3,0-8.2-0.5-13.3-0.5c-4.7,0-10,0.5-13.4,0.5
				c-0.9,0-1.4-0.6-1.4-1.8c0-1.1,0.4-1.6,1.4-1.7c5.2-0.6,7.2-1,7.2-3.3v-44.5c0-2.3-2.1-2.7-7.2-3.3c-0.9-0.1-1.4-0.7-1.4-1.8
				c0-1.1,0.5-1.7,1.4-1.7c3.1,0,8,0.5,13.1,0.5c5.9,0,8.2-0.9,15.9-0.9c9.2,0,17.3,3.9,17.3,14.5c0,10.8-6.4,14-12.3,16.1
				c1.4,7,12.4,25,23.4,25c0.9,0,1.4,0.9,1.4,1.5c0,0.8-0.4,1.4-1.4,1.4H682.2z M655.2,140.6c-1.7,0-2.5,0.8-2.5,2.6v19.5
				c0,1.3,2,1.9,6.2,1.9c5.9,0,9.3-3.6,9.3-10.7c0-9.1-4-13.3-9.7-13.3H655.2z"/>
			<path d="M717.2,187.7c0,2.3,2.1,2.8,7.2,3.3c1,0.1,1.4,0.6,1.4,1.7c0,1.2-0.5,1.8-1.5,1.8c-3.2,0-8.2-0.5-13.1-0.5
				c-4.8,0-9.9,0.5-13.1,0.5c-1,0-1.5-0.6-1.5-1.8c0-1.1,0.4-1.6,1.4-1.7c5.2-0.5,7.2-1,7.2-3.3v-44.5c0-2.3-2.1-2.8-7.2-3.3
				c-1-0.1-1.4-0.7-1.4-1.8c0-1.1,0.5-1.7,1.5-1.7c3.1,0,8,0.5,13.1,0.5c4.7,0,9.7-0.5,13.1-0.5c1,0,1.5,0.6,1.5,1.7
				c0,1.1-0.4,1.7-1.4,1.8c-5.2,0.5-7.2,1-7.2,3.3V187.7z"/>
			<path d="M788.9,149c0.2,0.5,0.2,1,0.2,1.2c0,1-0.6,1.5-1.5,1.5c-0.8,0-1.5-0.3-2-1.4c-1.7-4.1-6.5-10.7-17.6-10.7
				c-16.1,0-20.1,10.1-20.1,24c0,16.1,6.3,27.6,21.2,27.6c10.5,0,13.6-2,19.6-11.6c0.5-0.6,1.1-1,1.9-1c1,0,1.6,0.4,1.6,1.4
				c0,0.4-0.2,0.8-0.2,1.3l-2,10.6c-0.5,2.5-12,3.8-21.4,3.8c-20.3,0-34.3-11.6-34.3-30.9c0-19.9,11.9-29.6,35.3-29.6
				c8,0,16.7,1.4,17.3,3.7L788.9,149z"/>
			<path d="M849.5,187.6c0.9,2,2.4,3.1,6.4,3.5c0.9,0.1,1.4,0.7,1.4,1.8c0,1.1-0.5,1.7-1.5,1.7c-3,0-6.5-0.5-11.8-0.5
				c-5.7,0-11.3,0.5-14.5,0.5c-0.9,0-1.4-0.6-1.4-1.7c0-1.1,0.4-1.7,1.4-1.8c4.1-0.6,6.7-1,6.7-2.8c0-0.4-0.3-1.2-0.6-2.2l-3.7-9.9
				c-0.5-1.4-2.2-2-5-2h-9.7c-2,0-3,0.6-3.4,1.8l-4.3,11c-0.3,0.6-0.3,1-0.3,1.4c0,1.7,3.3,2.4,6.7,2.8c0.9,0.1,1.4,0.7,1.4,1.8
				c0,1.1-0.5,1.7-1.5,1.7c-3.2,0-6.3-0.5-10.7-0.5c-2.7,0-4.8,0.5-8.5,0.5c-1,0-1.5-0.6-1.5-1.7c0-1.1,0.5-1.7,1.4-1.8
				c3.8-0.4,5.4-1.2,6.4-3.5l21.8-51.4c0.3-0.8,0.9-1.1,1.8-1.1c0.9,0,1.5,0.3,1.9,1.1L849.5,187.6z M817.9,165.7
				c-0.8,1.9-0.8,2.4-0.8,3c0,0.7,0.8,0.9,2.8,0.9h7.4c1.5,0,2-0.2,2-0.5c0-0.3,0-0.5-0.1-0.8l-5.9-16.1L817.9,165.7z"/>
			<path d="M918.7,193.5c0,1.5-1,2.3-3,2.3c-1.6,0-3-0.6-4.1-1.8l-37.4-40.8v34.5c0,2.3,1.9,2.7,7.6,3.3c1,0.1,1.5,0.7,1.5,1.7
				c0,1.2-0.5,1.8-1.5,1.8c-3.7,0-7.2-0.5-10.5-0.5c-2.6,0-7.1,0.5-10.2,0.5c-0.9,0-1.4-0.6-1.4-1.8c0-1.1,0.4-1.6,1.4-1.7
				c5.4-0.6,7.2-1,7.2-3.3v-44.5c0-2.3-1.9-2.7-7.6-3.3c-0.9-0.1-1.4-0.7-1.4-1.8c0-1.1,0.5-1.7,1.5-1.7c1.4,0,2.8,0.5,5.6,0.5
				c3,0,6.6-0.5,7.6-0.5c0.4,0,1,0.3,1.6,0.9l37.1,41.2v-35.4c0-2.3-1.9-2.7-7.7-3.3c-0.9-0.1-1.4-0.7-1.4-1.8
				c0-1.1,0.5-1.7,1.5-1.7c3.7,0,7.5,0.5,10.8,0.5c2.5,0,6.6-0.5,9.9-0.5c0.9,0,1.4,0.6,1.4,1.7c0,1.1-0.4,1.7-1.4,1.8
				c-5.2,0.6-7.2,1-7.2,3.3V193.5z"/>
			<path d="M980,187.6c0.9,2,2.4,3.1,6.4,3.5c0.9,0.1,1.4,0.7,1.4,1.8c0,1.1-0.5,1.7-1.5,1.7c-3,0-6.5-0.5-11.8-0.5
				c-5.7,0-11.3,0.5-14.5,0.5c-0.9,0-1.4-0.6-1.4-1.7c0-1.1,0.4-1.7,1.4-1.8c4.1-0.6,6.7-1,6.7-2.8c0-0.4-0.3-1.2-0.6-2.2l-3.7-9.9
				c-0.5-1.4-2.2-2-5-2h-9.7c-2,0-3,0.6-3.4,1.8l-4.3,11c-0.3,0.6-0.3,1-0.3,1.4c0,1.7,3.3,2.4,6.7,2.8c0.9,0.1,1.4,0.7,1.4,1.8
				c0,1.1-0.5,1.7-1.5,1.7c-3.2,0-6.3-0.5-10.7-0.5c-2.7,0-4.8,0.5-8.5,0.5c-1,0-1.5-0.6-1.5-1.7c0-1.1,0.5-1.7,1.4-1.8
				c3.8-0.4,5.4-1.2,6.4-3.5l21.8-51.4c0.3-0.8,0.9-1.1,1.8-1.1c0.9,0,1.5,0.3,1.9,1.1L980,187.6z M948.3,165.7
				c-0.8,1.9-0.8,2.4-0.8,3c0,0.7,0.8,0.9,2.8,0.9h7.4c1.5,0,2-0.2,2-0.5c0-0.3,0-0.5-0.1-0.8l-5.9-16.1L948.3,165.7z"/>
		</g>
		<g>
			<path d="M1006.2,145.8c0,4.9-4,8.8-9,8.8c-5,0-9-3.9-9-8.8c0-4.9,4-8.8,9.1-8.8C1002.2,137,1006.2,140.9,1006.2,145.8z
				 M990.4,145.8c0,3.9,2.9,7,6.8,7c3.8,0.1,6.7-3.1,6.7-6.9c0-3.9-2.9-7.1-6.8-7.1C993.4,138.8,990.4,141.9,990.4,145.8z
				 M995.8,150.3h-2v-8.8c0.8-0.1,1.9-0.3,3.4-0.3c1.7,0,2.4,0.3,3,0.7c0.5,0.4,0.9,1,0.9,1.9c0,1.1-0.8,1.8-1.8,2.1v0.1
				c0.9,0.3,1.3,1,1.5,2.1c0.3,1.3,0.5,1.8,0.6,2.1h-2.1c-0.3-0.3-0.4-1.1-0.7-2.1c-0.2-0.9-0.7-1.3-1.8-1.3h-1V150.3z M995.9,145.4
				h1c1.1,0,2-0.4,2-1.3c0-0.8-0.6-1.3-1.9-1.3c-0.5,0-0.9,0.1-1.1,0.1V145.4z"/>
		</g>
	</g>
</g>
</svg>
